<svg width="128" height="128" viewBox="0 0 128 128" fill="none" xmlns="http://www.w3.org/2000/svg">
<g clip-path="url(#clip0_215_2)">
<path d="M40 100C39.9989 102.2 39.3931 104.357 38.2489 106.236C37.1047 108.114 35.4661 109.642 33.5122 110.653C31.5583 111.663 29.3643 112.117 27.1698 111.965C24.9754 111.813 22.865 111.06 21.0692 109.79C19.2735 108.519 17.8615 106.78 16.9876 104.761C16.1137 102.742 15.8115 100.522 16.114 98.3435C16.4165 96.1647 17.3121 94.111 18.7028 92.4067C20.0936 90.7024 21.9261 89.4132 24 88.68V20C24 18.9391 24.4214 17.9217 25.1716 17.1716C25.9217 16.4214 26.9391 16 28 16C29.0609 16 30.0783 16.4214 30.8284 17.1716C31.5786 17.9217 32 18.9391 32 20V88.68C34.3406 89.5075 36.367 91.0407 37.7998 93.0681C39.2326 95.0955 40.0013 97.5174 40 100V100Z" fill="#F3D2D2"/>
<path d="M8.00001 20C8.00001 14.6957 10.1072 9.60859 13.8579 5.85786C17.6086 2.10714 22.6957 0 28 0C33.3043 0 38.3914 2.10714 42.1422 5.85786C45.8929 9.60859 48 14.6957 48 20V80.4C51.8587 84.3382 54.4688 89.3281 55.503 94.7437C56.5372 100.159 55.9495 105.76 53.8136 110.843C51.6777 115.926 48.0887 120.265 43.4965 123.317C38.9044 126.368 33.5136 127.996 28 127.996C22.4865 127.996 17.0956 126.368 12.5035 123.317C7.91135 120.265 4.3223 115.926 2.1864 110.843C0.0504909 105.76 -0.537198 100.159 0.497022 94.7437C1.53124 89.3281 4.14134 84.3382 8.00001 80.4V20ZM28 8C24.8174 8 21.7652 9.26428 19.5147 11.5147C17.2643 13.7652 16 16.8174 16 20V83.896L14.664 85.096C11.6446 87.7962 9.51623 91.3495 8.56058 95.2858C7.60494 99.2221 7.86705 103.356 9.31225 107.14C10.7574 110.924 13.3176 114.18 16.6539 116.477C19.9902 118.774 23.9454 120.004 27.996 120.004C32.0467 120.004 36.0018 118.774 39.3381 116.477C42.6744 114.18 45.2346 110.924 46.6798 107.14C48.125 103.356 48.3871 99.2221 47.4314 95.2858C46.4758 91.3495 44.3474 87.7962 41.328 85.096L40 83.888V20C40 16.8174 38.7357 13.7652 36.4853 11.5147C34.2349 9.26428 31.1826 8 28 8ZM68 16C69.0609 16 70.0783 16.4214 70.8284 17.1716C71.5786 17.9217 72 18.9391 72 20V28C72 29.0609 71.5786 30.0783 70.8284 30.8284C70.0783 31.5786 69.0609 32 68 32C66.9391 32 65.9217 31.5786 65.1716 30.8284C64.4214 30.0783 64 29.0609 64 28V20C64 18.9391 64.4214 17.9217 65.1716 17.1716C65.9217 16.4214 66.9391 16 68 16V16ZM101.944 30.056C102.694 30.8061 103.115 31.8233 103.115 32.884C103.115 33.9447 102.694 34.9619 101.944 35.712L96.288 41.376C95.5369 42.1271 94.5182 42.5491 93.456 42.5491C92.3938 42.5491 91.3751 42.1271 90.624 41.376C89.8729 40.6249 89.451 39.6062 89.451 38.544C89.451 37.4818 89.8729 36.4631 90.624 35.712L96.288 30.056C97.0381 29.3061 98.0554 28.8849 99.116 28.8849C100.177 28.8849 101.194 29.3061 101.944 30.056ZM64 44C64 42.9391 64.4214 41.9217 65.1716 41.1716C65.9217 40.4214 66.9391 40 68 40C74.3652 40 80.4697 42.5286 84.9706 47.0294C89.4715 51.5303 92 57.6348 92 64C92 70.3652 89.4715 76.4697 84.9706 80.9706C80.4697 85.4714 74.3652 88 68 88C66.9391 88 65.9217 87.5786 65.1716 86.8284C64.4214 86.0783 64 85.0609 64 84C64 82.9391 64.4214 81.9217 65.1716 81.1716C65.9217 80.4214 66.9391 80 68 80C72.2435 80 76.3131 78.3143 79.3137 75.3137C82.3143 72.3131 84 68.2435 84 64C84 59.7565 82.3143 55.6869 79.3137 52.6863C76.3131 49.6857 72.2435 48 68 48C66.9391 48 65.9217 47.5786 65.1716 46.8284C64.4214 46.0783 64 45.0609 64 44ZM100 64C100 62.9391 100.421 61.9217 101.172 61.1716C101.922 60.4214 102.939 60 104 60H112C113.061 60 114.078 60.4214 114.828 61.1716C115.579 61.9217 116 62.9391 116 64C116 65.0609 115.579 66.0783 114.828 66.8284C114.078 67.5786 113.061 68 112 68H104C102.939 68 101.922 67.5786 101.172 66.8284C100.421 66.0783 100 65.0609 100 64ZM90.624 86.624C90.9956 86.2515 91.437 85.956 91.9229 85.7543C92.4089 85.5527 92.9299 85.4489 93.456 85.4489C93.9822 85.4489 94.5031 85.5527 94.9891 85.7543C95.475 85.956 95.9165 86.2515 96.288 86.624L101.944 92.288C102.673 93.0424 103.076 94.0528 103.067 95.1016C103.058 96.1504 102.637 97.1536 101.895 97.8953C101.154 98.6369 100.15 99.0576 99.1016 99.0667C98.0528 99.0758 97.0424 98.6726 96.288 97.944L90.624 92.288C90.2515 91.9164 89.956 91.475 89.7543 90.9891C89.5527 90.5031 89.4489 89.9821 89.4489 89.456C89.4489 88.9299 89.5527 88.4089 89.7543 87.9229C89.956 87.437 90.2515 86.9956 90.624 86.624ZM68 96C69.0609 96 70.0783 96.4214 70.8284 97.1716C71.5786 97.9217 72 98.9391 72 100V108C72 109.061 71.5786 110.078 70.8284 110.828C70.0783 111.579 69.0609 112 68 112C66.9391 112 65.9217 111.579 65.1716 110.828C64.4214 110.078 64 109.061 64 108V100C64 98.9391 64.4214 97.9217 65.1716 97.1716C65.9217 96.4214 66.9391 96 68 96Z" fill="#F3D2D2"/>
</g>
<defs>
<clipPath id="clip0_215_2">
<rect width="128" height="128" fill="white"/>
</clipPath>
</defs>
</svg>
