<svg width="70" height="70" viewBox="0 0 70 70" fill="none" xmlns="http://www.w3.org/2000/svg">
<g clip-path="url(#clip0_10_12)">
<path d="M21.875 54.6875C21.8744 55.8905 21.5431 57.0701 20.9174 58.0976C20.2916 59.125 19.3955 59.9606 18.327 60.5132C17.2585 61.0658 16.0586 61.3141 14.8585 61.2308C13.6584 61.1476 12.5043 60.7361 11.5222 60.0413C10.5402 59.3465 9.76803 58.3952 9.29011 57.2912C8.8122 56.1872 8.64692 54.9732 8.81235 53.7816C8.97778 52.5901 9.46754 51.4669 10.2281 50.5349C10.9887 49.6029 11.9908 48.8979 13.125 48.4969V41.5625C13.125 40.9823 13.3555 40.4259 13.7657 40.0157C14.1759 39.6055 14.7323 39.375 15.3125 39.375C15.8927 39.375 16.4491 39.6055 16.8593 40.0157C17.2695 40.4259 17.5 40.9823 17.5 41.5625V48.4969C18.78 48.9494 19.8882 49.7879 20.6718 50.8966C21.4553 52.0053 21.8757 53.3298 21.875 54.6875V54.6875Z" fill="#ECECEC"/>
<path d="M4.37501 10.9375C4.37501 8.0367 5.52735 5.2547 7.57853 3.20352C9.62971 1.15234 12.4117 0 15.3125 0C18.2133 0 20.9953 1.15234 23.0465 3.20352C25.0977 5.2547 26.25 8.0367 26.25 10.9375V43.9688C28.3602 46.1225 29.7876 48.8513 30.3532 51.813C30.9188 54.7747 30.5974 57.8374 29.4293 60.6172C28.2613 63.397 26.2985 65.7701 23.7872 67.4388C21.2758 69.1076 18.3277 69.9978 15.3125 69.9978C12.2973 69.9978 9.34918 69.1076 6.83785 67.4388C4.32652 65.7701 2.36376 63.397 1.19569 60.6172C0.0276122 57.8374 -0.29378 54.7747 0.271809 51.813C0.837398 48.8513 2.26479 46.1225 4.37501 43.9688V10.9375ZM15.3125 4.375C13.572 4.375 11.9028 5.06641 10.6721 6.29711C9.44141 7.52782 8.75001 9.19702 8.75001 10.9375V45.8806L8.01938 46.5369C6.36814 48.0135 5.20419 49.9568 4.68157 52.1094C4.15895 54.2621 4.30229 56.5227 5.09263 58.5921C5.88297 60.6616 7.28305 62.4422 9.10759 63.6985C10.9321 64.9547 13.0951 65.6274 15.3103 65.6274C17.5255 65.6274 19.6885 64.9547 21.513 63.6985C23.3376 62.4422 24.7377 60.6616 25.528 58.5921C26.3183 56.5227 26.4617 54.2621 25.9391 52.1094C25.4164 49.9568 24.2525 48.0135 22.6013 46.5369L21.875 45.8763V10.9375C21.875 9.19702 21.1836 7.52782 19.9529 6.29711C18.7222 5.06641 17.053 4.375 15.3125 4.375ZM37.1875 8.75C37.7677 8.75 38.3241 8.98047 38.7343 9.39071C39.1445 9.80094 39.375 10.3573 39.375 10.9375V16.5944L42.2013 13.7638C42.612 13.353 43.1691 13.1222 43.75 13.1222C44.3309 13.1222 44.888 13.353 45.2988 13.7638C45.7095 14.1745 45.9403 14.7316 45.9403 15.3125C45.9403 15.8934 45.7095 16.4505 45.2988 16.8613L39.375 22.7806V31.2113L46.6769 26.9981L48.8425 18.9044C48.9172 18.6269 49.0458 18.3668 49.221 18.139C49.3962 17.9112 49.6146 17.7202 49.8636 17.5768C50.1126 17.4333 50.3875 17.3404 50.6724 17.3032C50.9574 17.266 51.2469 17.2853 51.5244 17.36C51.8019 17.4347 52.0619 17.5633 52.2897 17.7385C52.5175 17.9137 52.7086 18.1321 52.852 18.3811C52.9954 18.6301 53.0884 18.905 53.1256 19.1899C53.1627 19.4749 53.1434 19.7644 53.0688 20.0419L52.0319 23.9006L56.9319 21.0744C57.434 20.7889 58.0287 20.7136 58.5862 20.8649C59.1437 21.0163 59.6186 21.382 59.9075 21.8822C60.1963 22.3825 60.2755 22.9767 60.1279 23.5351C59.9802 24.0936 59.6177 24.571 59.1194 24.8631L54.2194 27.6894L58.0869 28.7263C58.3644 28.8009 58.6244 28.9296 58.8522 29.1048C59.08 29.28 59.2711 29.4983 59.4145 29.7473C59.5579 29.9964 59.6509 30.2712 59.6881 30.5562C59.7252 30.8411 59.7059 31.1306 59.6313 31.4081C59.5566 31.6856 59.4279 31.9457 59.2527 32.1735C59.0775 32.4013 58.8592 32.5923 58.6102 32.7358C58.3611 32.8792 58.0863 32.9721 57.8013 33.0093C57.5164 33.0465 57.2269 33.0272 56.9494 32.9525L48.8644 30.7869L41.5625 35L48.8644 39.2131L56.9538 37.0475C57.233 36.9679 57.5252 36.9447 57.8135 36.9792C58.1018 37.0137 58.3804 37.1053 58.6329 37.2485C58.8854 37.3918 59.1069 37.5839 59.2844 37.8137C59.462 38.0434 59.592 38.3062 59.6669 38.5867C59.7418 38.8672 59.7602 39.1599 59.7208 39.4475C59.6815 39.7352 59.5853 40.0122 59.4378 40.2623C59.2903 40.5124 59.0945 40.7306 58.8619 40.9043C58.6292 41.0779 58.3642 41.2035 58.0825 41.2738L54.2194 42.3106L59.1194 45.1369C59.6177 45.429 59.9802 45.9064 60.1279 46.4649C60.2755 47.0233 60.1963 47.6175 59.9075 48.1178C59.6186 48.618 59.1437 48.9837 58.5862 49.1351C58.0287 49.2864 57.434 49.2111 56.9319 48.9256L52.0319 46.0994L53.0688 49.9625C53.1484 50.2417 53.1716 50.534 53.1371 50.8223C53.1025 51.1106 53.011 51.3891 52.8677 51.6416C52.7244 51.8942 52.5323 52.1157 52.3026 52.2932C52.0728 52.4707 51.81 52.6007 51.5295 52.6757C51.249 52.7506 50.9564 52.7689 50.6687 52.7296C50.381 52.6902 50.1041 52.594 49.854 52.4466C49.6039 52.2991 49.3856 52.1033 49.212 51.8706C49.0383 51.6379 48.9127 51.373 48.8425 51.0913L46.6813 43.0063L39.375 38.7888V47.2194L45.2988 53.1388C45.5021 53.3421 45.6635 53.5836 45.7735 53.8493C45.8836 54.1151 45.9403 54.3999 45.9403 54.6875C45.9403 54.9751 45.8836 55.2599 45.7735 55.5257C45.6635 55.7914 45.5021 56.0329 45.2988 56.2363C45.0954 56.4396 44.8539 56.601 44.5882 56.711C44.3224 56.8211 44.0376 56.8778 43.75 56.8778C43.4624 56.8778 43.1776 56.8211 42.9118 56.711C42.6461 56.601 42.4046 56.4396 42.2013 56.2363L39.375 53.4056V59.0625C39.375 59.6427 39.1445 60.1991 38.7343 60.6093C38.3241 61.0195 37.7677 61.25 37.1875 61.25C36.6073 61.25 36.0509 61.0195 35.6407 60.6093C35.2305 60.1991 35 59.6427 35 59.0625V10.9375C35 10.3573 35.2305 9.80094 35.6407 9.39071C36.0509 8.98047 36.6073 8.75 37.1875 8.75V8.75Z" fill="#ECECEC"/>
</g>
<defs>
<clipPath id="clip0_10_12">
<rect width="70" height="70" fill="white"/>
</clipPath>
</defs>
</svg>
