<svg width="221" height="144" viewBox="0 0 221 144" fill="none" xmlns="http://www.w3.org/2000/svg">
<g clip-path="url(#clip0_183_19)">
<path fill-rule="evenodd" clip-rule="evenodd" d="M173.64 91.408C182.966 95.684 188.985 105.028 188.985 115.22C188.985 129.676 177.188 141.436 162.686 141.436H82.21C65.4261 141.436 51.7643 127.836 51.7643 111.132C51.7643 98.828 59.4993 87.512 71.0113 82.972L74.4268 81.62L75.142 78.044C78.2159 62.768 91.7974 51.684 107.42 51.684C116.545 51.684 125.337 55.496 131.545 62.144L134.346 65.144L138.312 64.04C140.574 63.408 142.868 63.088 145.135 63.088C157.981 63.088 168.782 73.064 169.73 85.796L170.023 89.752L173.64 91.408ZM169.143 43.864C189.194 47.772 204.331 65.34 204.335 86.44C204.335 96.472 200.883 105.68 195.141 113.028C194.329 101.264 187.165 90.684 176.288 85.696L176.051 85.588L176.031 85.332C175.03 71.896 165.258 61.008 152.609 57.832L152.444 56.264C151.311 45.248 143.556 35.168 132.2 29.944C127.246 27.672 121.857 26.472 116.618 26.472C112.672 26.472 108.847 27.136 105.343 28.42C100.195 24.188 94.2927 21.196 88.0524 19.584C96.2335 8.472 109.397 1.224 124.3 1.224C148.41 1.224 168.026 20.136 169.143 43.864ZM45.4517 111.132C45.4517 115.04 46.0825 118.8 47.2317 122.336C46.2151 122.34 45.5481 122.34 45.4999 122.336C28.1534 119.964 15.018 104.292 16.8945 86.016C18.1883 73.356 27.2694 62.804 39.1472 58.112L41.2889 57.268C41.4375 57.212 41.542 57.084 41.5741 56.928L42.0041 54.784C44.198 43.876 50.7155 34.012 60.552 28.728C74.9612 20.984 91.4398 24.4 102.558 34.32C103.117 34.816 103.615 35.352 104.125 35.876C111.065 31.968 120.628 31.552 129.556 35.652C139.188 40.08 145.299 48.476 146.163 56.908C145.818 56.892 145.488 56.808 145.143 56.808C142.302 56.808 139.429 57.208 136.612 57.992L136.355 58.064L136.17 57.864C128.773 49.944 118.293 45.404 107.424 45.404C88.7918 45.404 72.6146 58.608 68.954 76.812L68.9058 77.044L68.6848 77.132C54.7859 82.612 45.4517 96.276 45.4517 111.132Z" fill="#D5DCE2"/>
</g>
<defs>
<clipPath id="clip0_183_19">
<rect width="221" height="144" fill="white"/>
</clipPath>
</defs>
</svg>
