<svg width="221" height="212" viewBox="0 0 221 212" fill="none" xmlns="http://www.w3.org/2000/svg">
<g clip-path="url(#clip0_183_102)">
<path fill-rule="evenodd" clip-rule="evenodd" d="M173.64 91.408C182.966 95.684 188.985 105.028 188.985 115.22C188.985 129.676 177.188 141.436 162.686 141.436H82.21C65.4261 141.436 51.7643 127.836 51.7643 111.132C51.7643 98.828 59.4993 87.512 71.0113 82.972L74.4268 81.62L75.142 78.044C78.2159 62.768 91.7974 51.684 107.42 51.684C116.545 51.684 125.337 55.496 131.545 62.144L134.346 65.144L138.312 64.04C140.574 63.408 142.868 63.088 145.135 63.088C157.981 63.088 168.782 73.064 169.73 85.796L170.023 89.752L173.64 91.408ZM169.143 43.864C189.194 47.772 204.331 65.34 204.335 86.44C204.335 96.472 200.883 105.68 195.141 113.028C194.329 101.264 187.165 90.684 176.288 85.696L176.051 85.588L176.031 85.332C175.03 71.896 165.258 61.008 152.609 57.832L152.444 56.264C151.311 45.248 143.556 35.168 132.2 29.944C127.246 27.672 121.857 26.472 116.618 26.472C112.672 26.472 108.847 27.136 105.343 28.42C100.195 24.188 94.2927 21.196 88.0524 19.584C96.2335 8.472 109.397 1.224 124.3 1.224C148.41 1.224 168.026 20.136 169.143 43.864ZM45.4517 111.132C45.4517 115.04 46.0825 118.8 47.2317 122.336C46.2151 122.34 45.5481 122.34 45.4999 122.336C28.1534 119.964 15.018 104.292 16.8945 86.016C18.1883 73.356 27.2694 62.804 39.1472 58.112L41.2889 57.268C41.4375 57.212 41.542 57.084 41.5741 56.928L42.0041 54.784C44.198 43.876 50.7155 34.012 60.552 28.728C74.9612 20.984 91.4398 24.4 102.558 34.32C103.117 34.816 103.615 35.352 104.125 35.876C111.065 31.968 120.628 31.552 129.556 35.652C139.188 40.08 145.299 48.476 146.163 56.908C145.818 56.892 145.488 56.808 145.143 56.808C142.302 56.808 139.429 57.208 136.612 57.992L136.355 58.064L136.17 57.864C128.773 49.944 118.293 45.404 107.424 45.404C88.7918 45.404 72.6146 58.608 68.954 76.812L68.9058 77.044L68.6848 77.132C54.7859 82.612 45.4517 96.276 45.4517 111.132Z" fill="#D5DCE2"/>
<path fill-rule="evenodd" clip-rule="evenodd" d="M128.73 165.86L117.419 165.688L126.693 149.54L112.376 149.66L100.229 173.752H110.805L95.9541 210.268L128.73 165.86Z" fill="#FF7800"/>
<path fill-rule="evenodd" clip-rule="evenodd" d="M82.2161 172.916C76.9001 183.132 64.7692 176.448 69.8723 166.588C74.2039 158.208 84.611 153.14 84.611 153.14C84.611 153.14 86.4191 164.804 82.2161 172.916ZM148.396 204.344C143.08 214.56 130.949 207.876 136.052 198.016C140.383 189.636 150.79 184.568 150.79 184.568C150.79 184.568 152.599 196.232 148.396 204.344Z" fill="#009EFF"/>
<path fill-rule="evenodd" clip-rule="evenodd" d="M84.6872 198.408C85.3984 198.58 85.8524 199.312 85.6716 200.024L85.6033 200.28C85.4305 200.988 84.6992 201.436 83.988 201.256L74.7261 199.008L76.9883 208.232C77.1732 208.944 76.7231 209.664 75.9958 209.844L75.7387 209.9C75.0275 210.08 74.2961 209.636 74.1234 208.924L71.8933 199.868L65.2592 206.436C64.7329 206.948 63.8931 206.948 63.3667 206.424L63.1738 206.236C62.6635 205.712 62.6635 204.868 63.1859 204.344L69.8038 197.808L60.7468 195.604C60.0316 195.436 59.5735 194.716 59.7624 193.992L59.8186 193.736C59.9994 193.016 60.7348 192.584 61.446 192.756L70.7159 195.008L68.4417 185.784C68.2649 185.08 68.7189 184.34 69.4341 184.172L69.6913 184.108C70.4146 183.932 71.1459 184.372 71.3187 185.084L73.5287 194.124L80.1707 187.572C80.6931 187.056 81.5449 187.056 82.0593 187.584L82.2521 187.772C82.7785 188.292 82.7665 189.132 82.2521 189.652L75.6221 196.196L84.6872 198.408ZM165.991 166.98C166.702 167.152 167.152 167.884 166.976 168.596L166.907 168.852C166.734 169.56 166.003 170.008 165.292 169.828L156.03 167.58L158.292 176.804C158.473 177.516 158.023 178.236 157.296 178.416L157.039 178.472C156.327 178.652 155.596 178.208 155.423 177.496L153.193 168.44L146.559 175.008C146.033 175.52 145.193 175.52 144.667 174.996L144.474 174.808C143.963 174.284 143.963 173.44 144.486 172.916L151.104 166.38L142.047 164.176C141.331 164.008 140.873 163.288 141.062 162.564L141.118 162.308C141.299 161.588 142.035 161.156 142.746 161.328L152.016 163.58L149.742 154.356C149.569 153.652 150.023 152.912 150.738 152.744L150.995 152.68C151.718 152.504 152.45 152.944 152.623 153.656L154.833 162.696L161.475 156.144C161.997 155.628 162.849 155.628 163.363 156.156L163.556 156.344C164.082 156.864 164.07 157.704 163.556 158.224L156.926 164.768L165.991 166.98Z" fill="#38C0E0"/>
</g>
<defs>
<clipPath id="clip0_183_102">
<rect width="221" height="212" fill="white"/>
</clipPath>
</defs>
</svg>
