<svg width="220" height="212" viewBox="0 0 220 212" fill="none" xmlns="http://www.w3.org/2000/svg">
<g clip-path="url(#clip0_183_93)">
<path fill-rule="evenodd" clip-rule="evenodd" d="M172.854 91.408C182.138 95.684 188.13 105.028 188.13 115.22C188.13 129.676 176.386 141.436 161.95 141.436H81.838C65.13 141.436 51.53 127.836 51.53 111.132C51.53 98.828 59.23 87.512 70.69 82.972L74.09 81.62L74.802 78.044C77.862 62.768 91.382 51.684 106.934 51.684C116.018 51.684 124.77 55.496 130.95 62.144L133.738 65.144L137.686 64.04C139.938 63.408 142.222 63.088 144.478 63.088C157.266 63.088 168.018 73.064 168.962 85.796L169.254 89.752L172.854 91.408ZM168.378 43.864C188.338 47.772 203.406 65.34 203.41 86.44C203.41 96.472 199.974 105.68 194.258 113.028C193.45 101.264 186.318 90.684 175.49 85.696L175.254 85.588L175.234 85.332C174.238 71.896 164.51 61.008 151.918 57.832L151.754 56.264C150.626 45.248 142.906 35.168 131.602 29.944C126.67 27.672 121.306 26.472 116.09 26.472C112.162 26.472 108.354 27.136 104.866 28.42C99.742 24.188 93.866 21.196 87.654 19.584C95.798 8.472 108.902 1.224 123.738 1.224C147.738 1.224 167.266 20.136 168.378 43.864ZM45.246 111.132C45.246 115.04 45.874 118.8 47.018 122.336C46.006 122.34 45.342 122.34 45.294 122.336C28.026 119.964 14.95 104.292 16.818 86.016C18.106 73.356 27.146 62.804 38.97 58.112L41.102 57.268C41.25 57.212 41.354 57.084 41.386 56.928L41.814 54.784C43.998 43.876 50.486 34.012 60.278 28.728C74.622 20.984 91.026 24.4 102.094 34.32C102.65 34.816 103.146 35.352 103.654 35.876C110.562 31.968 120.082 31.552 128.97 35.652C138.558 40.08 144.642 48.476 145.502 56.908C145.158 56.892 144.83 56.808 144.486 56.808C141.658 56.808 138.798 57.208 135.994 57.992L135.738 58.064L135.554 57.864C128.19 49.944 117.758 45.404 106.938 45.404C88.39 45.404 72.286 58.608 68.642 76.812L68.594 77.044L68.374 77.132C54.538 82.612 45.246 96.276 45.246 111.132Z" fill="#D5DCE2"/>
<path fill-rule="evenodd" clip-rule="evenodd" d="M124.292 204.344C119 214.56 106.924 207.876 112.004 198.016C116.316 189.636 126.676 184.568 126.676 184.568C126.676 184.568 128.476 196.232 124.292 204.344ZM90.3119 172.916C85.0199 183.132 72.9439 176.448 78.0239 166.588C82.3359 158.208 92.6959 153.14 92.6959 153.14C92.6959 153.14 94.4959 164.804 90.3119 172.916Z" fill="#009EFF"/>
<path fill-rule="evenodd" clip-rule="evenodd" d="M157.856 166.98L148.832 164.768L155.432 158.224C155.944 157.704 155.956 156.864 155.432 156.344L155.24 156.156C154.728 155.628 153.88 155.628 153.36 156.144L146.748 162.696L144.548 153.656C144.376 152.944 143.648 152.504 142.928 152.68L142.672 152.744C141.96 152.912 141.508 153.652 141.68 154.356L143.944 163.58L134.716 161.328C134.008 161.156 133.276 161.588 133.096 162.308L133.04 162.564C132.852 163.288 133.308 164.008 134.02 164.176L143.036 166.38L136.448 172.916C135.928 173.44 135.928 174.284 136.436 174.808L136.628 174.996C137.152 175.52 137.988 175.52 138.512 175.008L145.116 168.44L147.336 177.496C147.508 178.208 148.236 178.652 148.944 178.472L149.2 178.416C149.924 178.236 150.372 177.516 150.188 176.804L147.936 167.58L157.156 169.828C157.864 170.008 158.592 169.56 158.764 168.852L158.832 168.596C159.012 167.884 158.564 167.152 157.856 166.98ZM76.4161 198.408L67.3921 196.196L73.9921 189.652C74.5041 189.132 74.5161 188.292 73.9921 187.772L73.8001 187.584C73.2881 187.056 72.4401 187.056 71.9201 187.572L65.3081 194.124L63.1081 185.084C62.9361 184.372 62.2081 183.932 61.4881 184.108L61.2321 184.172C60.5201 184.34 60.0681 185.08 60.2401 185.784L62.5041 195.008L53.2761 192.756C52.5681 192.584 51.8361 193.016 51.6561 193.736L51.6001 193.992C51.4121 194.716 51.8681 195.436 52.5801 195.604L61.5961 197.808L55.0081 204.344C54.4881 204.868 54.4881 205.712 54.9961 206.236L55.1881 206.424C55.7121 206.948 56.5481 206.948 57.0721 206.436L63.6761 199.868L65.8961 208.924C66.0681 209.636 66.7961 210.08 67.5041 209.9L67.7601 209.844C68.4841 209.664 68.9321 208.944 68.7481 208.232L66.4961 199.008L75.7161 201.256C76.4241 201.436 77.1521 200.988 77.3241 200.28L77.3921 200.024C77.5721 199.312 77.1241 198.58 76.4161 198.408Z" fill="#38C0E0"/>
</g>
<defs>
<clipPath id="clip0_183_93">
<rect width="220" height="212" fill="white"/>
</clipPath>
</defs>
</svg>
