<svg width="220" height="212" viewBox="0 0 220 212" fill="none" xmlns="http://www.w3.org/2000/svg">
<g clip-path="url(#clip0_183_121)">
<path fill-rule="evenodd" clip-rule="evenodd" d="M172.854 91.408C182.138 95.684 188.13 105.028 188.13 115.22C188.13 129.676 176.386 141.436 161.95 141.436H81.838C65.13 141.436 51.53 127.836 51.53 111.132C51.53 98.828 59.23 87.512 70.69 82.972L74.09 81.62L74.802 78.044C77.862 62.768 91.382 51.684 106.934 51.684C116.018 51.684 124.77 55.496 130.95 62.144L133.738 65.144L137.686 64.04C139.938 63.408 142.222 63.088 144.478 63.088C157.266 63.088 168.018 73.064 168.962 85.796L169.254 89.752L172.854 91.408ZM168.378 43.864C188.338 47.772 203.406 65.34 203.41 86.44C203.41 96.472 199.974 105.68 194.258 113.028C193.45 101.264 186.318 90.684 175.49 85.696L175.254 85.588L175.234 85.332C174.238 71.896 164.51 61.008 151.918 57.832L151.754 56.264C150.626 45.248 142.906 35.168 131.602 29.944C126.67 27.672 121.306 26.472 116.09 26.472C112.162 26.472 108.354 27.136 104.866 28.42C99.742 24.188 93.866 21.196 87.654 19.584C95.798 8.472 108.902 1.224 123.738 1.224C147.738 1.224 167.266 20.136 168.378 43.864ZM45.246 111.132C45.246 115.04 45.874 118.8 47.018 122.336C46.006 122.34 45.342 122.34 45.294 122.336C28.026 119.964 14.95 104.292 16.818 86.016C18.106 73.356 27.146 62.804 38.97 58.112L41.102 57.268C41.25 57.212 41.354 57.084 41.386 56.928L41.814 54.784C43.998 43.876 50.486 34.012 60.278 28.728C74.622 20.984 91.026 24.4 102.094 34.32C102.65 34.816 103.146 35.352 103.654 35.876C110.562 31.968 120.082 31.552 128.97 35.652C138.558 40.08 144.642 48.476 145.502 56.908C145.158 56.892 144.83 56.808 144.486 56.808C141.658 56.808 138.798 57.208 135.994 57.992L135.738 58.064L135.554 57.864C128.19 49.944 117.758 45.404 106.938 45.404C88.39 45.404 72.286 58.608 68.642 76.812L68.594 77.044L68.374 77.132C54.538 82.612 45.246 96.276 45.246 111.132Z" fill="#D5DCE2"/>
<path fill-rule="evenodd" clip-rule="evenodd" d="M72.4198 172.916C67.1278 183.132 55.0519 176.448 60.1319 166.588C64.4439 158.208 74.8039 153.14 74.8039 153.14C74.8039 153.14 76.6038 164.804 72.4198 172.916ZM80.5559 204.16C75.2639 214.376 63.1878 207.692 68.2678 197.832C72.5798 189.452 82.9399 184.384 82.9399 184.384C82.9399 184.384 84.7399 196.044 80.5559 204.16ZM164.524 172.916C159.232 183.132 147.156 176.448 152.236 166.588C156.548 158.208 166.908 153.14 166.908 153.14C166.908 153.14 168.708 164.804 164.524 172.916Z" fill="#009EFF"/>
<path fill-rule="evenodd" clip-rule="evenodd" d="M128.148 165.86L116.888 165.688L126.12 149.54L111.868 149.66L99.776 173.752H110.304L95.52 210.268L128.148 165.86Z" fill="#FF7800"/>
<path fill-rule="evenodd" clip-rule="evenodd" d="M52.9878 198.22C53.6958 198.392 54.1478 199.128 53.9678 199.836L53.8999 200.092C53.7279 200.8 52.9998 201.248 52.2918 201.068L43.0718 198.82L45.3239 208.044C45.5039 208.756 45.0559 209.476 44.3319 209.656L44.0758 209.712C43.3678 209.892 42.6398 209.448 42.4678 208.736L40.2479 199.68L33.6439 206.248C33.1199 206.76 32.2838 206.76 31.7598 206.236L31.5678 206.048C31.0598 205.524 31.0598 204.68 31.5798 204.156L38.1678 197.62L29.1518 195.416C28.4398 195.248 27.9839 194.528 28.1719 193.804L28.2278 193.548C28.4078 192.828 29.1398 192.396 29.8478 192.568L39.0758 194.82L36.8118 185.596C36.6398 184.892 37.0919 184.152 37.8039 183.984L38.0599 183.92C38.7799 183.744 39.5078 184.184 39.6798 184.896L41.8799 193.936L48.4918 187.384C49.0118 186.868 49.8599 186.868 50.3719 187.396L50.5638 187.584C51.0878 188.104 51.0758 188.944 50.5638 189.464L43.9639 196.008L52.9878 198.22ZM148.196 198.22C148.904 198.392 149.352 199.128 149.172 199.836L149.104 200.092C148.932 200.8 148.204 201.248 147.496 201.068L138.276 198.82L140.528 208.044C140.712 208.756 140.264 209.476 139.54 209.656L139.284 209.712C138.576 209.892 137.848 209.448 137.676 208.736L135.456 199.68L128.852 206.248C128.328 206.76 127.492 206.76 126.968 206.236L126.776 206.048C126.268 205.524 126.268 204.68 126.788 204.156L133.376 197.62L124.36 195.416C123.648 195.248 123.192 194.528 123.38 193.804L123.436 193.548C123.616 192.828 124.348 192.396 125.056 192.568L134.284 194.82L132.02 185.596C131.848 184.892 132.3 184.152 133.012 183.984L133.268 183.92C133.988 183.744 134.716 184.184 134.888 184.896L137.088 193.936L143.7 187.384C144.22 186.868 145.068 186.868 145.58 187.396L145.772 187.584C146.296 188.104 146.284 188.944 145.772 189.464L139.172 196.008L148.196 198.22ZM182.212 198.22C182.92 198.392 183.372 199.128 183.184 199.848L183.116 200.104C182.944 200.812 182.216 201.26 181.508 201.08L172.288 198.832L174.54 208.056C174.724 208.768 174.276 209.488 173.552 209.668L173.296 209.724C172.588 209.904 171.86 209.46 171.688 208.748L169.468 199.692L162.864 206.26C162.34 206.772 161.504 206.772 160.98 206.248L160.788 206.06C160.28 205.536 160.28 204.692 160.8 204.168L167.392 197.62L158.376 195.416C157.664 195.248 157.208 194.528 157.396 193.804L157.452 193.548C157.632 192.828 158.364 192.396 159.072 192.568L168.3 194.82L166.036 185.596C165.864 184.892 166.316 184.152 167.028 183.984L167.284 183.92C168.004 183.744 168.732 184.184 168.904 184.896L171.104 193.936L177.716 187.384C178.236 186.868 179.084 186.868 179.596 187.396L179.788 187.584C180.312 188.104 180.3 188.944 179.788 189.464L173.188 196.008L182.212 198.22Z" fill="#38C0E0"/>
</g>
<defs>
<clipPath id="clip0_183_121">
<rect width="220" height="212" fill="white"/>
</clipPath>
</defs>
</svg>
