<svg width="220" height="184" viewBox="0 0 220 184" fill="none" xmlns="http://www.w3.org/2000/svg">
<g clip-path="url(#clip0_183_84)">
<path fill-rule="evenodd" clip-rule="evenodd" d="M172.854 91.408C182.138 95.684 188.13 105.028 188.13 115.22C188.13 129.676 176.386 141.436 161.95 141.436H81.838C65.13 141.436 51.53 127.836 51.53 111.132C51.53 98.828 59.23 87.512 70.69 82.972L74.09 81.62L74.802 78.044C77.862 62.768 91.382 51.684 106.934 51.684C116.018 51.684 124.77 55.496 130.95 62.144L133.738 65.144L137.686 64.04C139.938 63.408 142.222 63.088 144.478 63.088C157.266 63.088 168.018 73.064 168.962 85.796L169.254 89.752L172.854 91.408ZM168.378 43.864C188.338 47.772 203.406 65.34 203.41 86.44C203.41 96.472 199.974 105.68 194.258 113.028C193.45 101.264 186.318 90.684 175.49 85.696L175.254 85.588L175.234 85.332C174.238 71.896 164.51 61.008 151.918 57.832L151.754 56.264C150.626 45.248 142.906 35.168 131.602 29.944C126.67 27.672 121.306 26.472 116.09 26.472C112.162 26.472 108.354 27.136 104.866 28.42C99.742 24.188 93.866 21.196 87.654 19.584C95.798 8.472 108.902 1.224 123.738 1.224C147.738 1.224 167.266 20.136 168.378 43.864ZM45.246 111.132C45.246 115.04 45.874 118.8 47.018 122.336C46.006 122.34 45.342 122.34 45.294 122.336C28.026 119.964 14.95 104.292 16.818 86.016C18.106 73.356 27.146 62.804 38.97 58.112L41.102 57.268C41.25 57.212 41.354 57.084 41.386 56.928L41.814 54.784C43.998 43.876 50.486 34.012 60.278 28.728C74.622 20.984 91.026 24.4 102.094 34.32C102.65 34.816 103.146 35.352 103.654 35.876C110.562 31.968 120.082 31.552 128.97 35.652C138.558 40.08 144.642 48.476 145.502 56.908C145.158 56.892 144.83 56.808 144.486 56.808C141.658 56.808 138.798 57.208 135.994 57.992L135.738 58.064L135.554 57.864C128.19 49.944 117.758 45.404 106.938 45.404C88.39 45.404 72.286 58.608 68.642 76.812L68.594 77.044L68.374 77.132C54.538 82.612 45.246 96.276 45.246 111.132Z" fill="#D5DCE2"/>
<path fill-rule="evenodd" clip-rule="evenodd" d="M145.92 172.916C140.628 183.132 128.552 176.448 133.632 166.588C137.944 158.208 148.304 153.14 148.304 153.14C148.304 153.14 150.104 164.804 145.92 172.916Z" fill="#009EFF"/>
<path fill-rule="evenodd" clip-rule="evenodd" d="M98.5239 166.98L89.4999 164.768L96.0999 158.224C96.6119 157.704 96.6239 156.864 96.0999 156.344L95.9079 156.156C95.3959 155.628 94.5479 155.628 94.0279 156.144L87.4159 162.696L85.2159 153.656C85.0439 152.944 84.3159 152.504 83.5959 152.68L83.3399 152.744C82.6279 152.912 82.1759 153.652 82.3519 154.356L84.6159 163.58L75.3879 161.328C74.6799 161.156 73.9479 161.588 73.7679 162.308L73.7119 162.564C73.5239 163.288 73.9799 164.008 74.6919 164.176L83.7079 166.38L77.1199 172.916C76.5999 173.44 76.5999 174.284 77.1079 174.808L77.2999 174.996C77.8239 175.52 78.6599 175.52 79.1839 175.008L85.7879 168.44L88.0079 177.496C88.1799 178.208 88.9079 178.652 89.6159 178.472L89.8719 178.416C90.5959 178.236 91.0439 177.516 90.8599 176.804L88.6079 167.58L97.8279 169.828C98.5359 170.008 99.2639 169.56 99.4359 168.852L99.5039 168.596C99.6799 167.884 99.2319 167.152 98.5239 166.98Z" fill="#38C0E0"/>
</g>
<defs>
<clipPath id="clip0_183_84">
<rect width="220" height="184" fill="white"/>
</clipPath>
</defs>
</svg>
