<svg width="220" height="212" viewBox="0 0 220 212" fill="none" xmlns="http://www.w3.org/2000/svg">
<g clip-path="url(#clip0_183_74)">
<path fill-rule="evenodd" clip-rule="evenodd" d="M172.854 91.408C182.138 95.684 188.13 105.028 188.13 115.22C188.13 129.676 176.386 141.436 161.95 141.436H81.838C65.13 141.436 51.53 127.836 51.53 111.132C51.53 98.828 59.23 87.512 70.69 82.972L74.09 81.62L74.802 78.044C77.862 62.768 91.382 51.684 106.934 51.684C116.018 51.684 124.77 55.496 130.95 62.144L133.738 65.144L137.686 64.04C139.938 63.408 142.222 63.088 144.478 63.088C157.266 63.088 168.018 73.064 168.962 85.796L169.254 89.752L172.854 91.408ZM168.378 43.864C188.338 47.772 203.406 65.34 203.41 86.44C203.41 96.472 199.974 105.68 194.258 113.028C193.45 101.264 186.318 90.684 175.49 85.696L175.254 85.588L175.234 85.332C174.238 71.896 164.51 61.008 151.918 57.832L151.754 56.264C150.626 45.248 142.906 35.168 131.602 29.944C126.67 27.672 121.306 26.472 116.09 26.472C112.162 26.472 108.354 27.136 104.866 28.42C99.742 24.188 93.866 21.196 87.654 19.584C95.798 8.472 108.902 1.224 123.738 1.224C147.738 1.224 167.266 20.136 168.378 43.864ZM45.246 111.132C45.246 115.04 45.874 118.8 47.018 122.336C46.006 122.34 45.342 122.34 45.294 122.336C28.026 119.964 14.95 104.292 16.818 86.016C18.106 73.356 27.146 62.804 38.97 58.112L41.102 57.268C41.25 57.212 41.354 57.084 41.386 56.928L41.814 54.784C43.998 43.876 50.486 34.012 60.278 28.728C74.622 20.984 91.026 24.4 102.094 34.32C102.65 34.816 103.146 35.352 103.654 35.876C110.562 31.968 120.082 31.552 128.97 35.652C138.558 40.08 144.642 48.476 145.502 56.908C145.158 56.892 144.83 56.808 144.486 56.808C141.658 56.808 138.798 57.208 135.994 57.992L135.738 58.064L135.554 57.864C128.19 49.944 117.758 45.404 106.938 45.404C88.39 45.404 72.286 58.608 68.642 76.812L68.594 77.044L68.374 77.132C54.538 82.612 45.246 96.276 45.246 111.132Z" fill="#D5DCE2"/>
<path fill-rule="evenodd" clip-rule="evenodd" d="M124.148 165.86L112.888 165.688L122.12 149.54L107.868 149.66L95.776 173.752H106.304L91.52 210.268L124.148 165.86Z" fill="#FF7800"/>
<path fill-rule="evenodd" clip-rule="evenodd" d="M154.636 172.916C149.344 183.132 137.268 176.448 142.348 166.588C146.66 158.208 157.02 153.14 157.02 153.14C157.02 153.14 158.82 164.804 154.636 172.916Z" fill="#009EFF"/>
<path fill-rule="evenodd" clip-rule="evenodd" d="M85.58 166.98L76.556 164.768L83.156 158.224C83.668 157.704 83.68 156.864 83.156 156.344L82.964 156.156C82.452 155.628 81.604 155.628 81.084 156.144L74.472 162.696L72.272 153.656C72.1 152.944 71.372 152.504 70.652 152.68L70.396 152.744C69.684 152.912 69.232 153.652 69.408 154.356L71.672 163.58L62.444 161.328C61.736 161.156 61.004 161.588 60.824 162.308L60.768 162.564C60.58 163.288 61.036 164.008 61.748 164.176L70.764 166.38L64.176 172.916C63.656 173.44 63.656 174.284 64.164 174.808L64.356 174.996C64.88 175.52 65.716 175.52 66.24 175.008L72.844 168.44L75.064 177.496C75.236 178.208 75.964 178.652 76.672 178.472L76.928 178.416C77.652 178.236 78.1 177.516 77.916 176.804L75.664 167.58L84.884 169.828C85.592 170.008 86.32 169.56 86.492 168.852L86.56 168.596C86.74 167.884 86.288 167.152 85.58 166.98Z" fill="#38C0E0"/>
</g>
<defs>
<clipPath id="clip0_183_74">
<rect width="220" height="212" fill="white"/>
</clipPath>
</defs>
</svg>
