<svg width="220" height="212" viewBox="0 0 220 212" fill="none" xmlns="http://www.w3.org/2000/svg">
<g clip-path="url(#clip0_183_112)">
<path fill-rule="evenodd" clip-rule="evenodd" d="M172.854 91.408C182.138 95.684 188.13 105.028 188.13 115.22C188.13 129.676 176.386 141.436 161.95 141.436H81.838C65.13 141.436 51.53 127.836 51.53 111.132C51.53 98.828 59.23 87.512 70.69 82.972L74.09 81.62L74.802 78.044C77.862 62.768 91.382 51.684 106.934 51.684C116.018 51.684 124.77 55.496 130.95 62.144L133.738 65.144L137.686 64.04C139.938 63.408 142.222 63.088 144.478 63.088C157.266 63.088 168.018 73.064 168.962 85.796L169.254 89.752L172.854 91.408ZM168.378 43.864C188.338 47.772 203.406 65.34 203.41 86.44C203.41 96.472 199.974 105.68 194.258 113.028C193.45 101.264 186.318 90.684 175.49 85.696L175.254 85.588L175.234 85.332C174.238 71.896 164.51 61.008 151.918 57.832L151.754 56.264C150.626 45.248 142.906 35.168 131.602 29.944C126.67 27.672 121.306 26.472 116.09 26.472C112.162 26.472 108.354 27.136 104.866 28.42C99.742 24.188 93.866 21.196 87.654 19.584C95.798 8.472 108.902 1.224 123.738 1.224C147.738 1.224 167.266 20.136 168.378 43.864ZM45.246 111.132C45.246 115.04 45.874 118.8 47.018 122.336C46.006 122.34 45.342 122.34 45.294 122.336C28.026 119.964 14.95 104.292 16.818 86.016C18.106 73.356 27.146 62.804 38.97 58.112L41.102 57.268C41.25 57.212 41.354 57.084 41.386 56.928L41.814 54.784C43.998 43.876 50.486 34.012 60.278 28.728C74.622 20.984 91.026 24.4 102.094 34.32C102.65 34.816 103.146 35.352 103.654 35.876C110.562 31.968 120.082 31.552 128.97 35.652C138.558 40.08 144.642 48.476 145.502 56.908C145.158 56.892 144.83 56.808 144.486 56.808C141.658 56.808 138.798 57.208 135.994 57.992L135.738 58.064L135.554 57.864C128.19 49.944 117.758 45.404 106.938 45.404C88.39 45.404 72.286 58.608 68.642 76.812L68.594 77.044L68.374 77.132C54.538 82.612 45.246 96.276 45.246 111.132Z" fill="#D5DCE2"/>
<path fill-rule="evenodd" clip-rule="evenodd" d="M76.3998 172.916C71.1078 183.132 59.0318 176.448 64.1118 166.588C68.4238 158.208 78.7838 153.14 78.7838 153.14C78.7838 153.14 80.5878 164.804 76.3998 172.916ZM104.684 204.652C99.3918 214.868 87.3158 208.184 92.3958 198.324C96.7078 189.944 107.068 184.876 107.068 184.876C107.068 184.876 108.872 196.54 104.684 204.652ZM157.48 172.916C152.188 183.132 140.112 176.448 145.192 166.588C149.504 158.208 159.864 153.14 159.864 153.14C159.864 153.14 161.664 164.804 157.48 172.916Z" fill="#009EFF"/>
<path fill-rule="evenodd" clip-rule="evenodd" d="M123.492 167.412C124.2 167.588 124.648 168.32 124.468 169.028L124.4 169.284C124.228 169.992 123.5 170.44 122.792 170.26L113.572 168.012L115.824 177.236C116.008 177.948 115.56 178.668 114.836 178.848L114.58 178.904C113.872 179.084 113.144 178.64 112.972 177.928L110.752 168.872L104.148 175.44C103.624 175.952 102.788 175.952 102.264 175.428L102.072 175.24C101.564 174.716 101.564 173.872 102.084 173.348L108.672 166.812L99.6558 164.608C98.9438 164.44 98.4878 163.72 98.6758 162.996L98.7318 162.74C98.9118 162.02 99.6438 161.588 100.352 161.76L109.58 164.012L107.316 154.788C107.144 154.084 107.596 153.344 108.308 153.176L108.564 153.112C109.284 152.936 110.012 153.376 110.184 154.088L112.384 163.128L118.996 156.576C119.516 156.06 120.364 156.06 120.876 156.588L121.068 156.776C121.592 157.296 121.58 158.136 121.068 158.656L114.468 165.2L123.492 167.412ZM151.772 198.716C152.48 198.888 152.932 199.624 152.748 200.332L152.68 200.588C152.508 201.296 151.78 201.744 151.072 201.564L141.852 199.316L144.104 208.54C144.288 209.252 143.84 209.972 143.116 210.152L142.86 210.208C142.152 210.388 141.424 209.944 141.252 209.232L139.032 200.176L132.428 206.744C131.904 207.256 131.068 207.256 130.544 206.732L130.352 206.544C129.844 206.02 129.844 205.176 130.364 204.652L136.952 198.116L127.936 195.912C127.224 195.744 126.768 195.024 126.956 194.3L127.012 194.044C127.192 193.324 127.924 192.892 128.632 193.064L137.86 195.316L135.596 186.092C135.424 185.388 135.876 184.648 136.588 184.48L136.844 184.416C137.564 184.24 138.292 184.68 138.464 185.392L140.664 194.432L147.276 187.88C147.796 187.364 148.644 187.364 149.156 187.892L149.348 188.08C149.872 188.6 149.86 189.44 149.348 189.96L142.748 196.504L151.772 198.716ZM70.6958 198.716C71.4038 198.888 71.8518 199.624 71.6758 200.332L71.6078 200.588C71.4358 201.296 70.7078 201.744 69.9998 201.564L60.7798 199.316L63.0318 208.54C63.2158 209.252 62.7678 209.972 62.0438 210.152L61.7878 210.208C61.0798 210.388 60.3518 209.944 60.1798 209.232L57.9598 200.176L51.3558 206.744C50.8318 207.256 49.9958 207.256 49.4718 206.732L49.2798 206.544C48.7718 206.02 48.7718 205.176 49.2918 204.652L55.8798 198.116L46.8638 195.912C46.1518 195.744 45.6958 195.024 45.8838 194.3L45.9398 194.044C46.1198 193.324 46.8518 192.892 47.5598 193.064L56.7878 195.316L54.5238 186.092C54.3478 185.388 54.7998 184.648 55.5118 184.48L55.7678 184.416C56.4878 184.24 57.2158 184.68 57.3878 185.392L59.5878 194.432L66.1998 187.88C66.7198 187.364 67.5678 187.364 68.0798 187.892L68.2718 188.08C68.7958 188.6 68.7838 189.44 68.2718 189.96L61.6718 196.504L70.6958 198.716Z" fill="#38C0E0"/>
</g>
<defs>
<clipPath id="clip0_183_112">
<rect width="220" height="212" fill="white"/>
</clipPath>
</defs>
</svg>
