<svg width="220" height="212" viewBox="0 0 220 212" fill="none" xmlns="http://www.w3.org/2000/svg">
<g clip-path="url(#clip0_183_173)">
<path fill-rule="evenodd" clip-rule="evenodd" d="M172.854 91.408C182.138 95.684 188.13 105.028 188.13 115.22C188.13 129.676 176.386 141.436 161.95 141.436H81.838C65.13 141.436 51.53 127.836 51.53 111.132C51.53 98.828 59.23 87.512 70.69 82.972L74.09 81.62L74.802 78.044C77.862 62.768 91.382 51.684 106.934 51.684C116.018 51.684 124.77 55.496 130.95 62.144L133.738 65.144L137.686 64.04C139.938 63.408 142.222 63.088 144.478 63.088C157.266 63.088 168.018 73.064 168.962 85.796L169.254 89.752L172.854 91.408ZM168.378 43.864C188.338 47.772 203.406 65.34 203.41 86.44C203.41 96.472 199.974 105.68 194.258 113.028C193.45 101.264 186.318 90.684 175.49 85.696L175.254 85.588L175.234 85.332C174.238 71.896 164.51 61.008 151.918 57.832L151.754 56.264C150.626 45.248 142.906 35.168 131.602 29.944C126.67 27.672 121.306 26.472 116.09 26.472C112.162 26.472 108.354 27.136 104.866 28.42C99.742 24.188 93.866 21.196 87.654 19.584C95.798 8.472 108.902 1.224 123.738 1.224C147.738 1.224 167.266 20.136 168.378 43.864ZM45.246 111.132C45.246 115.04 45.874 118.8 47.018 122.336C46.006 122.34 45.342 122.34 45.294 122.336C28.026 119.964 14.95 104.292 16.818 86.016C18.106 73.356 27.146 62.804 38.97 58.112L41.102 57.268C41.25 57.212 41.354 57.084 41.386 56.928L41.814 54.784C43.998 43.876 50.486 34.012 60.278 28.728C74.622 20.984 91.026 24.4 102.094 34.32C102.65 34.816 103.146 35.352 103.654 35.876C110.562 31.968 120.082 31.552 128.97 35.652C138.558 40.08 144.642 48.476 145.502 56.908C145.158 56.892 144.83 56.808 144.486 56.808C141.658 56.808 138.798 57.208 135.994 57.992L135.738 58.064L135.554 57.864C128.19 49.944 117.758 45.404 106.938 45.404C88.39 45.404 72.286 58.608 68.642 76.812L68.594 77.044L68.374 77.132C54.538 82.612 45.246 96.276 45.246 111.132Z" fill="#D5DCE2"/>
<path fill-rule="evenodd" clip-rule="evenodd" d="M88.6001 166.98C89.3041 167.152 89.7561 167.884 89.5801 168.596L89.5121 168.852C89.3401 169.56 88.6121 170.008 87.9041 169.828L78.6841 167.58L80.9361 176.804C81.1201 177.516 80.6721 178.236 79.9481 178.416L79.6921 178.472C78.9841 178.652 78.2561 178.208 78.0841 177.496L75.8641 168.44L69.2601 175.008C68.7361 175.52 67.9001 175.52 67.3761 174.996L67.1841 174.808C66.6761 174.284 66.6761 173.44 67.1961 172.916L73.7841 166.38L64.7681 164.176C64.0561 164.008 63.6001 163.288 63.7881 162.564L63.8441 162.308C64.0241 161.588 64.7561 161.156 65.4641 161.328L74.6921 163.58L72.4281 154.356C72.2521 153.652 72.7041 152.912 73.4161 152.744L73.6721 152.68C74.3921 152.504 75.1201 152.944 75.2921 153.656L77.4921 162.696L84.1041 156.144C84.6241 155.628 85.4721 155.628 85.9841 156.156L86.1761 156.344C86.7001 156.864 86.6881 157.704 86.1761 158.224L79.5761 164.768L88.6001 166.98ZM52.6241 198.408C53.3321 198.58 53.7841 199.312 53.6001 200.028L53.5321 200.284C53.3601 200.992 52.6321 201.44 51.9241 201.26L42.7041 199.012L44.9561 208.236C45.1401 208.948 44.6921 209.668 43.9681 209.848L43.7121 209.904C43.0041 210.084 42.2761 209.64 42.1041 208.928L39.8841 199.872L33.2801 206.44C32.7561 206.952 31.9201 206.952 31.3961 206.428L31.2041 206.24C30.6961 205.716 30.6961 204.872 31.2161 204.348L37.8041 197.812L28.7881 195.608C28.0761 195.44 27.6201 194.72 27.8081 193.996L27.8641 193.74C28.0441 193.02 28.7761 192.588 29.4841 192.76L38.7121 195.012L36.4481 185.788C36.2761 185.084 36.7281 184.344 37.4401 184.176L37.6961 184.108C38.4161 183.932 39.1441 184.372 39.3161 185.084L41.5161 194.124L48.1281 187.572C48.6481 187.056 49.4961 187.056 50.0081 187.584L50.2001 187.772C50.7241 188.292 50.7121 189.132 50.2001 189.652L43.6001 196.196L52.6241 198.408ZM88.0281 198.408C88.7361 198.58 89.1841 199.312 89.0081 200.024L88.9401 200.28C88.7681 200.988 88.0401 201.436 87.3321 201.256L78.1121 199.008L80.3641 208.232C80.5481 208.944 80.1001 209.664 79.3761 209.844L79.1201 209.9C78.4121 210.08 77.6841 209.636 77.5121 208.924L75.2921 199.868L68.6881 206.436C68.1641 206.948 67.3281 206.948 66.8041 206.424L66.6121 206.236C66.1041 205.712 66.1041 204.868 66.6241 204.344L73.2121 197.808L64.1961 195.604C63.4841 195.436 63.0281 194.716 63.2161 193.992L63.2721 193.736C63.4521 193.016 64.1841 192.584 64.8921 192.756L74.1201 195.008L71.8561 185.784C71.6801 185.08 72.1321 184.34 72.8441 184.172L73.1001 184.108C73.8201 183.932 74.5481 184.372 74.7201 185.084L76.9201 194.124L83.5321 187.572C84.0521 187.056 84.9001 187.056 85.4121 187.584L85.6041 187.772C86.1281 188.292 86.1161 189.132 85.6041 189.652L79.0041 196.196L88.0281 198.408ZM151.38 198.408C152.088 198.58 152.54 199.312 152.356 200.028L152.288 200.284C152.116 200.992 151.388 201.44 150.68 201.26L141.46 199.012L143.712 208.236C143.896 208.948 143.448 209.668 142.724 209.848L142.468 209.904C141.76 210.084 141.032 209.64 140.86 208.928L138.64 199.872L132.036 206.44C131.512 206.952 130.676 206.952 130.152 206.428L129.96 206.24C129.452 205.716 129.452 204.872 129.972 204.348L136.56 197.812L127.544 195.608C126.832 195.44 126.376 194.72 126.564 193.996L126.62 193.74C126.8 193.02 127.532 192.588 128.24 192.76L137.468 195.008L135.204 185.784C135.032 185.08 135.484 184.34 136.196 184.172L136.452 184.108C137.172 183.932 137.9 184.372 138.072 185.084L140.272 194.124L146.884 187.572C147.404 187.056 148.252 187.056 148.764 187.584L148.956 187.772C149.48 188.292 149.468 189.132 148.956 189.652L142.356 196.196L151.38 198.408ZM186.788 198.408C187.492 198.58 187.944 199.312 187.764 200.028L187.696 200.284C187.524 200.992 186.796 201.44 186.088 201.26L176.868 199.012L179.12 208.236C179.304 208.948 178.856 209.668 178.132 209.848L177.876 209.904C177.168 210.084 176.44 209.64 176.268 208.928L174.048 199.872L167.444 206.44C166.92 206.952 166.084 206.952 165.56 206.428L165.368 206.24C164.86 205.716 164.86 204.872 165.38 204.348L171.968 197.812L162.952 195.608C162.24 195.44 161.784 194.72 161.972 193.996L162.028 193.74C162.208 193.02 162.94 192.588 163.648 192.76L172.876 195.012L170.612 185.788C170.436 185.084 170.888 184.344 171.6 184.176L171.86 184.108C172.58 183.932 173.308 184.372 173.48 185.084L175.68 194.124L182.292 187.572C182.812 187.056 183.66 187.056 184.172 187.584L184.364 187.772C184.888 188.292 184.876 189.132 184.364 189.652L177.764 196.196L186.788 198.408ZM172.024 166.98C172.732 167.152 173.18 167.884 173.004 168.596L172.936 168.852C172.764 169.56 172.036 170.008 171.328 169.828L162.108 167.58L164.36 176.804C164.54 177.516 164.092 178.236 163.368 178.416L163.112 178.472C162.404 178.652 161.676 178.208 161.504 177.496L159.284 168.44L152.68 175.008C152.156 175.52 151.32 175.52 150.796 174.996L150.604 174.808C150.096 174.284 150.096 173.44 150.616 172.916L157.204 166.38L148.188 164.176C147.476 164.008 147.02 163.288 147.208 162.564L147.264 162.308C147.444 161.588 148.176 161.156 148.884 161.328L158.112 163.58L155.848 154.356C155.676 153.652 156.128 152.912 156.84 152.744L157.096 152.68C157.816 152.504 158.544 152.944 158.716 153.656L160.916 162.696L167.528 156.144C168.048 155.628 168.896 155.628 169.408 156.156L169.6 156.344C170.124 156.864 170.112 157.704 169.6 158.224L163 164.768L172.024 166.98Z" fill="#38C0E0"/>
<path fill-rule="evenodd" clip-rule="evenodd" d="M131.492 165.86L120.232 165.688L129.464 149.54L115.212 149.66L103.12 173.752H113.648L98.8638 210.268L131.492 165.86Z" fill="#FF7800"/>
</g>
<defs>
<clipPath id="clip0_183_173">
<rect width="220" height="212" fill="white"/>
</clipPath>
</defs>
</svg>
