<svg width="220" height="212" viewBox="0 0 220 212" fill="none" xmlns="http://www.w3.org/2000/svg">
<g clip-path="url(#clip0_183_139)">
<path fill-rule="evenodd" clip-rule="evenodd" d="M172.854 91.408C182.138 95.684 188.13 105.028 188.13 115.22C188.13 129.676 176.386 141.436 161.95 141.436H81.838C65.13 141.436 51.53 127.836 51.53 111.132C51.53 98.828 59.23 87.512 70.69 82.972L74.09 81.62L74.802 78.044C77.862 62.768 91.382 51.684 106.934 51.684C116.018 51.684 124.77 55.496 130.95 62.144L133.738 65.144L137.686 64.04C139.938 63.408 142.222 63.088 144.478 63.088C157.266 63.088 168.018 73.064 168.962 85.796L169.254 89.752L172.854 91.408ZM168.378 43.864C188.338 47.772 203.406 65.34 203.41 86.44C203.41 96.472 199.974 105.68 194.258 113.028C193.45 101.264 186.318 90.684 175.49 85.696L175.254 85.588L175.234 85.332C174.238 71.896 164.51 61.008 151.918 57.832L151.754 56.264C150.626 45.248 142.906 35.168 131.602 29.944C126.67 27.672 121.306 26.472 116.09 26.472C112.162 26.472 108.354 27.136 104.866 28.42C99.742 24.188 93.866 21.196 87.654 19.584C95.798 8.472 108.902 1.224 123.738 1.224C147.738 1.224 167.266 20.136 168.378 43.864ZM45.246 111.132C45.246 115.04 45.874 118.8 47.018 122.336C46.006 122.34 45.342 122.34 45.294 122.336C28.026 119.964 14.95 104.292 16.818 86.016C18.106 73.356 27.146 62.804 38.97 58.112L41.102 57.268C41.25 57.212 41.354 57.084 41.386 56.928L41.814 54.784C43.998 43.876 50.486 34.012 60.278 28.728C74.622 20.984 91.026 24.4 102.094 34.32C102.65 34.816 103.146 35.352 103.654 35.876C110.562 31.968 120.082 31.552 128.97 35.652C138.558 40.08 144.642 48.476 145.502 56.908C145.158 56.892 144.83 56.808 144.486 56.808C141.658 56.808 138.798 57.208 135.994 57.992L135.738 58.064L135.554 57.864C128.19 49.944 117.758 45.404 106.938 45.404C88.39 45.404 72.286 58.608 68.642 76.812L68.594 77.044L68.374 77.132C54.538 82.612 45.246 96.276 45.246 111.132Z" fill="#D5DCE2"/>
<path fill-rule="evenodd" clip-rule="evenodd" d="M161.868 166.98C162.576 167.152 163.028 167.884 162.844 168.596L162.776 168.852C162.604 169.56 161.876 170.008 161.168 169.828L151.948 167.58L154.2 176.804C154.384 177.516 153.936 178.236 153.212 178.416L152.956 178.472C152.248 178.652 151.52 178.208 151.348 177.496L149.128 168.44L142.524 175.008C142 175.52 141.164 175.52 140.64 174.996L140.448 174.808C139.94 174.284 139.94 173.44 140.46 172.916L147.048 166.38L138.032 164.176C137.32 164.008 136.864 163.288 137.052 162.564L137.108 162.308C137.288 161.588 138.02 161.156 138.728 161.328L147.956 163.58L145.692 154.356C145.52 153.652 145.972 152.912 146.684 152.744L146.94 152.68C147.66 152.504 148.388 152.944 148.56 153.656L150.76 162.696L157.372 156.144C157.892 155.628 158.74 155.628 159.252 156.156L159.444 156.344C159.968 156.864 159.956 157.704 159.444 158.224L152.844 164.768L161.868 166.98ZM86.0518 166.98C86.7598 167.152 87.2078 167.884 87.0318 168.596L86.9638 168.852C86.7918 169.56 86.0638 170.008 85.3558 169.828L76.1358 167.58L78.3878 176.804C78.5678 177.516 78.1198 178.236 77.3958 178.416L77.1398 178.472C76.4318 178.652 75.7038 178.208 75.5318 177.496L73.3118 168.44L66.7078 175.008C66.1838 175.52 65.3478 175.52 64.8238 174.996L64.6318 174.808C64.1238 174.284 64.1238 173.44 64.6438 172.916L71.2318 166.38L62.2158 164.176C61.5038 164.008 61.0478 163.288 61.2358 162.564L61.2918 162.308C61.4718 161.588 62.2038 161.156 62.9118 161.328L72.1398 163.58L69.8758 154.356C69.7038 153.652 70.1558 152.912 70.8678 152.744L71.1238 152.68C71.8438 152.504 72.5718 152.944 72.7438 153.656L74.9438 162.696L81.5558 156.144C82.0758 155.628 82.9238 155.628 83.4358 156.156L83.6278 156.344C84.1518 156.864 84.1398 157.704 83.6278 158.224L77.0278 164.768L86.0518 166.98Z" fill="#38C0E0"/>
<path fill-rule="evenodd" clip-rule="evenodd" d="M124.148 165.86L112.888 165.688L122.12 149.54L107.868 149.66L95.776 173.752H106.304L91.52 210.268L124.148 165.86Z" fill="#FF7800"/>
</g>
<defs>
<clipPath id="clip0_183_139">
<rect width="220" height="212" fill="white"/>
</clipPath>
</defs>
</svg>
