<svg width="220" height="212" viewBox="0 0 220 212" fill="none" xmlns="http://www.w3.org/2000/svg">
<g clip-path="url(#clip0_183_148)">
<path fill-rule="evenodd" clip-rule="evenodd" d="M172.854 91.408C182.138 95.684 188.13 105.028 188.13 115.22C188.13 129.676 176.386 141.436 161.95 141.436H81.838C65.13 141.436 51.53 127.836 51.53 111.132C51.53 98.828 59.23 87.512 70.69 82.972L74.09 81.62L74.802 78.044C77.862 62.768 91.382 51.684 106.934 51.684C116.018 51.684 124.77 55.496 130.95 62.144L133.738 65.144L137.686 64.04C139.938 63.408 142.222 63.088 144.478 63.088C157.266 63.088 168.018 73.064 168.962 85.796L169.254 89.752L172.854 91.408ZM168.378 43.864C188.338 47.772 203.406 65.34 203.41 86.44C203.41 96.472 199.974 105.68 194.258 113.028C193.45 101.264 186.318 90.684 175.49 85.696L175.254 85.588L175.234 85.332C174.238 71.896 164.51 61.008 151.918 57.832L151.754 56.264C150.626 45.248 142.906 35.168 131.602 29.944C126.67 27.672 121.306 26.472 116.09 26.472C112.162 26.472 108.354 27.136 104.866 28.42C99.742 24.188 93.866 21.196 87.654 19.584C95.798 8.472 108.902 1.224 123.738 1.224C147.738 1.224 167.266 20.136 168.378 43.864ZM45.246 111.132C45.246 115.04 45.874 118.8 47.018 122.336C46.006 122.34 45.342 122.34 45.294 122.336C28.026 119.964 14.95 104.292 16.818 86.016C18.106 73.356 27.146 62.804 38.97 58.112L41.102 57.268C41.25 57.212 41.354 57.084 41.386 56.928L41.814 54.784C43.998 43.876 50.486 34.012 60.278 28.728C74.622 20.984 91.026 24.4 102.094 34.32C102.65 34.816 103.146 35.352 103.654 35.876C110.562 31.968 120.082 31.552 128.97 35.652C138.558 40.08 144.642 48.476 145.502 56.908C145.158 56.892 144.83 56.808 144.486 56.808C141.658 56.808 138.798 57.208 135.994 57.992L135.738 58.064L135.554 57.864C128.19 49.944 117.758 45.404 106.938 45.404C88.39 45.404 72.286 58.608 68.642 76.812L68.594 77.044L68.374 77.132C54.538 82.612 45.246 96.276 45.246 111.132Z" fill="#D5DCE2"/>
<path fill-rule="evenodd" clip-rule="evenodd" d="M89.3201 166.98C90.0241 167.152 90.4761 167.884 90.3001 168.596L90.2321 168.852C90.0601 169.56 89.3321 170.008 88.6241 169.828L79.4041 167.58L81.6561 176.804C81.8401 177.516 81.3921 178.236 80.6681 178.416L80.4121 178.472C79.7041 178.652 78.9761 178.208 78.8041 177.496L76.5841 168.44L69.9801 175.008C69.4561 175.52 68.6201 175.52 68.0961 174.996L67.9041 174.808C67.3961 174.284 67.3961 173.44 67.9161 172.916L74.5041 166.38L65.4881 164.176C64.7761 164.008 64.3201 163.288 64.5081 162.564L64.5641 162.308C64.7441 161.588 65.4761 161.156 66.1841 161.328L75.4121 163.58L73.1481 154.356C72.9721 153.652 73.4241 152.912 74.1361 152.744L74.3921 152.68C75.1121 152.504 75.8401 152.944 76.0121 153.656L78.2121 162.696L84.8241 156.144C85.3441 155.628 86.1921 155.628 86.7041 156.156L86.8961 156.344C87.4201 156.864 87.4081 157.704 86.8961 158.224L80.2961 164.768L89.3201 166.98ZM66.1241 198.408C66.8321 198.58 67.2801 199.312 67.1041 200.024L67.0361 200.28C66.8641 200.988 66.1361 201.436 65.4281 201.256L56.2081 199.008L58.4601 208.232C58.6401 208.944 58.1921 209.664 57.4681 209.844L57.2121 209.9C56.5041 210.08 55.7761 209.636 55.6041 208.924L53.3841 199.868L46.7801 206.436C46.2561 206.948 45.4201 206.948 44.8961 206.424L44.7041 206.236C44.1961 205.712 44.1961 204.868 44.7161 204.344L51.3041 197.808L42.2881 195.604C41.5761 195.436 41.1201 194.716 41.3081 193.992L41.3641 193.736C41.5441 193.016 42.2761 192.584 42.9841 192.756L52.2121 195.008L49.9481 185.784C49.7761 185.08 50.2281 184.34 50.9401 184.172L51.1961 184.108C51.9161 183.932 52.6441 184.372 52.8161 185.084L55.0161 194.124L61.6281 187.572C62.1481 187.056 62.9961 187.056 63.5081 187.584L63.7001 187.772C64.2241 188.292 64.2121 189.132 63.7001 189.652L57.1001 196.196L66.1241 198.408ZM127.16 198.408C127.868 198.58 128.316 199.312 128.136 200.024L128.068 200.28C127.896 200.988 127.168 201.436 126.46 201.256L117.24 199.008L119.492 208.232C119.676 208.944 119.228 209.664 118.504 209.844L118.248 209.9C117.54 210.08 116.812 209.636 116.64 208.924L114.42 199.868L107.816 206.436C107.292 206.948 106.456 206.948 105.932 206.424L105.74 206.236C105.232 205.712 105.232 204.868 105.752 204.344L112.34 197.808L103.324 195.604C102.612 195.436 102.156 194.716 102.344 193.992L102.4 193.736C102.58 193.016 103.312 192.584 104.02 192.756L113.248 195.008L110.984 185.784C110.812 185.08 111.264 184.34 111.976 184.172L112.232 184.108C112.952 183.932 113.68 184.372 113.852 185.084L116.052 194.124L122.664 187.572C123.184 187.056 124.032 187.056 124.544 187.584L124.736 187.772C125.26 188.292 125.248 189.132 124.736 189.652L118.136 196.196L127.16 198.408ZM150.868 166.98C151.572 167.152 152.024 167.884 151.844 168.596L151.776 168.852C151.604 169.56 150.876 170.008 150.168 169.828L140.948 167.58L143.2 176.804C143.384 177.516 142.936 178.236 142.212 178.416L141.956 178.472C141.248 178.652 140.52 178.208 140.348 177.496L138.128 168.44L131.524 175.008C131 175.52 130.164 175.52 129.64 174.996L129.448 174.808C128.94 174.284 128.94 173.44 129.46 172.916L136.048 166.38L127.032 164.176C126.32 164.008 125.864 163.288 126.052 162.564L126.108 162.308C126.288 161.588 127.02 161.156 127.728 161.328L136.956 163.58L134.692 154.356C134.52 153.652 134.972 152.912 135.684 152.744L135.94 152.68C136.66 152.504 137.388 152.944 137.56 153.656L139.76 162.696L146.372 156.144C146.892 155.628 147.74 155.628 148.252 156.156L148.444 156.344C148.968 156.864 148.956 157.704 148.444 158.224L141.844 164.768L150.868 166.98Z" fill="#38C0E0"/>
</g>
<defs>
<clipPath id="clip0_183_148">
<rect width="220" height="212" fill="white"/>
</clipPath>
</defs>
</svg>
