<svg width="220" height="180" viewBox="0 0 220 180" fill="none" xmlns="http://www.w3.org/2000/svg">
<g clip-path="url(#clip0_183_131)">
<path fill-rule="evenodd" clip-rule="evenodd" d="M172.854 91.408C182.138 95.684 188.13 105.028 188.13 115.22C188.13 129.676 176.386 141.436 161.95 141.436H81.838C65.13 141.436 51.53 127.836 51.53 111.132C51.53 98.828 59.23 87.512 70.69 82.972L74.09 81.62L74.802 78.044C77.862 62.768 91.382 51.684 106.934 51.684C116.018 51.684 124.77 55.496 130.95 62.144L133.738 65.144L137.686 64.04C139.938 63.408 142.222 63.088 144.478 63.088C157.266 63.088 168.018 73.064 168.962 85.796L169.254 89.752L172.854 91.408ZM168.378 43.864C188.338 47.772 203.406 65.34 203.41 86.44C203.41 96.472 199.974 105.68 194.258 113.028C193.45 101.264 186.318 90.684 175.49 85.696L175.254 85.588L175.234 85.332C174.238 71.896 164.51 61.008 151.918 57.832L151.754 56.264C150.626 45.248 142.906 35.168 131.602 29.944C126.67 27.672 121.306 26.472 116.09 26.472C112.162 26.472 108.354 27.136 104.866 28.42C99.742 24.188 93.866 21.196 87.654 19.584C95.798 8.472 108.902 1.224 123.738 1.224C147.738 1.224 167.266 20.136 168.378 43.864ZM45.246 111.132C45.246 115.04 45.874 118.8 47.018 122.336C46.006 122.34 45.342 122.34 45.294 122.336C28.026 119.964 14.95 104.292 16.818 86.016C18.106 73.356 27.146 62.804 38.97 58.112L41.102 57.268C41.25 57.212 41.354 57.084 41.386 56.928L41.814 54.784C43.998 43.876 50.486 34.012 60.278 28.728C74.622 20.984 91.026 24.4 102.094 34.32C102.65 34.816 103.146 35.352 103.654 35.876C110.562 31.968 120.082 31.552 128.97 35.652C138.558 40.08 144.642 48.476 145.502 56.908C145.158 56.892 144.83 56.808 144.486 56.808C141.658 56.808 138.798 57.208 135.994 57.992L135.738 58.064L135.554 57.864C128.19 49.944 117.758 45.404 106.938 45.404C88.39 45.404 72.286 58.608 68.642 76.812L68.594 77.044L68.374 77.132C54.538 82.612 45.246 96.276 45.246 111.132Z" fill="#D5DCE2"/>
<path fill-rule="evenodd" clip-rule="evenodd" d="M102.556 166.98C103.264 167.152 103.712 167.884 103.532 168.596L103.464 168.852C103.292 169.56 102.564 170.008 101.856 169.828L92.6362 167.58L94.8882 176.804C95.0722 177.516 94.6242 178.236 93.9002 178.416L93.6442 178.472C92.9362 178.652 92.2082 178.208 92.0362 177.496L89.8162 168.44L83.2122 175.008C82.6882 175.52 81.8522 175.52 81.3282 174.996L81.1362 174.808C80.6282 174.284 80.6282 173.44 81.1482 172.916L87.7362 166.38L78.7202 164.176C78.0082 164.008 77.5522 163.288 77.7402 162.564L77.7962 162.308C77.9762 161.588 78.7082 161.156 79.4162 161.328L88.6442 163.58L86.3802 154.356C86.2082 153.652 86.6602 152.912 87.3722 152.744L87.6282 152.68C88.3482 152.504 89.0762 152.944 89.2482 153.656L91.4482 162.696L98.0602 156.144C98.5802 155.628 99.4282 155.628 99.9402 156.156L100.132 156.344C100.656 156.864 100.644 157.704 100.132 158.224L93.5322 164.768L102.556 166.98ZM164.108 166.98C164.812 167.152 165.264 167.884 165.088 168.596L165.02 168.852C164.848 169.56 164.12 170.008 163.412 169.828L154.192 167.58L156.444 176.804C156.624 177.516 156.176 178.236 155.452 178.416L155.196 178.472C154.488 178.652 153.76 178.208 153.588 177.496L151.368 168.44L144.764 175.008C144.24 175.52 143.404 175.52 142.88 174.996L142.688 174.808C142.18 174.284 142.18 173.44 142.7 172.916L149.288 166.38L140.272 164.176C139.56 164.008 139.104 163.288 139.292 162.564L139.348 162.308C139.528 161.588 140.26 161.156 140.968 161.328L150.196 163.58L147.932 154.356C147.76 153.652 148.212 152.912 148.924 152.744L149.18 152.68C149.9 152.504 150.628 152.944 150.8 153.656L153 162.696L159.612 156.144C160.132 155.628 160.98 155.628 161.492 156.156L161.684 156.344C162.208 156.864 162.196 157.704 161.684 158.224L155.084 164.768L164.108 166.98Z" fill="#38C0E0"/>
</g>
<defs>
<clipPath id="clip0_183_131">
<rect width="220" height="180" fill="white"/>
</clipPath>
</defs>
</svg>
