<svg width="140" height="140" viewBox="0 0 140 140" fill="none" xmlns="http://www.w3.org/2000/svg">
<g clip-path="url(#clip0_179_5)">
<path d="M70 30.625C70 29.4647 69.5391 28.3519 68.7186 27.5314C67.8981 26.7109 66.7853 26.25 65.625 26.25C64.4647 26.25 63.3519 26.7109 62.5314 27.5314C61.7109 28.3519 61.25 29.4647 61.25 30.625V78.75C61.2502 79.5212 61.4543 80.2785 61.8415 80.9454C62.2288 81.6123 62.7854 82.165 63.455 82.5475L94.08 100.048C95.085 100.591 96.2626 100.719 97.3611 100.406C98.4596 100.092 99.3919 99.3611 99.9587 98.3692C100.525 97.3774 100.682 96.2031 100.394 95.0975C100.107 93.9919 99.3982 93.0426 98.42 92.4525L70 76.2125V30.625Z" fill="black"/>
<path d="M70 140C88.5652 140 106.37 132.625 119.497 119.497C132.625 106.37 140 88.5652 140 70C140 51.4348 132.625 33.6301 119.497 20.5025C106.37 7.37498 88.5652 0 70 0C51.4348 0 33.6301 7.37498 20.5025 20.5025C7.37498 33.6301 0 51.4348 0 70C0 88.5652 7.37498 106.37 20.5025 119.497C33.6301 132.625 51.4348 140 70 140V140ZM131.25 70C131.25 86.2445 124.797 101.824 113.31 113.31C101.824 124.797 86.2445 131.25 70 131.25C53.7555 131.25 38.1763 124.797 26.6897 113.31C15.2031 101.824 8.75 86.2445 8.75 70C8.75 53.7555 15.2031 38.1763 26.6897 26.6897C38.1763 15.2031 53.7555 8.75 70 8.75C86.2445 8.75 101.824 15.2031 113.31 26.6897C124.797 38.1763 131.25 53.7555 131.25 70V70Z" fill="black"/>
</g>
<defs>
<clipPath id="clip0_179_5">
<rect width="140" height="140" fill="white"/>
</clipPath>
</defs>
</svg>
