<svg width="221" height="152" viewBox="0 0 221 152" fill="none" xmlns="http://www.w3.org/2000/svg">
<g clip-path="url(#clip0_183_190)">
<path fill-rule="evenodd" clip-rule="evenodd" d="M113.984 31.148C125.93 32.068 136.803 37.568 144.595 46.636C152.374 55.696 156.155 67.232 155.207 79.128C153.623 99.708 137.575 116.832 117.07 119.848C113.759 120.332 110.372 120.448 107.004 120.192C82.3368 118.268 63.8411 96.74 65.7578 72.2C67.357 51.628 83.4056 34.504 103.918 31.488C107.221 31 110.613 30.888 113.984 31.148ZM136.502 119.536C137.438 118.984 138.358 118.4 139.254 117.784C139.532 117.596 139.833 117.436 140.106 117.244L141.396 145.284L121.442 125.496C126.408 124.412 131.097 122.596 135.417 120.176C135.787 119.972 136.14 119.752 136.502 119.536ZM106.506 126.552C109.431 126.78 112.365 126.68 115.27 126.404L102.259 151.344L94.9298 124.248C98.6185 125.42 102.48 126.236 106.506 126.552ZM72.6289 109.972C77.2257 114.996 82.8069 119.096 89.1195 121.992L65.3399 137.1L72.6289 109.972ZM60.4176 86.6C61.9124 93.352 64.7532 99.64 68.679 105.14L40.5477 106.42L60.4176 86.6ZM59.3648 71.704C59.1318 74.648 59.2162 77.548 59.4894 80.388L34.4883 67.48L61.6914 60.184C60.4899 63.88 59.6742 67.728 59.3648 71.704ZM69.0567 45.82C67.0998 48.5 65.3801 51.356 63.9616 54.38L48.785 30.732L76.0524 37.98C74.8228 39.096 73.6656 40.288 72.5445 41.52C72.4561 41.62 72.3717 41.728 72.2753 41.828C71.2667 42.96 70.3104 44.132 69.3982 45.348C69.2817 45.504 69.1732 45.664 69.0567 45.82ZM84.5066 31.784C83.5503 32.352 82.6181 32.944 81.7059 33.568C81.4407 33.744 81.1554 33.896 80.8943 34.08L79.6044 6.04L99.5547 25.836C94.5882 26.924 89.895 28.736 85.5754 31.156C85.2178 31.356 84.8642 31.576 84.5066 31.784ZM114.474 24.788C111.553 24.56 108.628 24.66 105.727 24.928L118.725 0L126.063 27.072C122.334 25.9 118.468 25.092 114.474 24.788ZM131.913 29.324L155.653 14.228L148.364 41.324C143.666 36.192 138.089 32.148 131.913 29.324ZM152.338 46.176L180.453 44.892L160.599 64.704C159.148 58.076 156.348 51.796 152.338 46.176ZM161.511 70.92L186.516 83.828L159.281 91.156C160.482 87.456 161.302 83.604 161.607 79.616C161.837 76.688 161.772 73.784 161.511 70.92ZM144.928 113.344C149.979 108.764 154.102 103.196 157.003 96.896L172.232 120.588L144.928 113.344Z" fill="#FFCE00"/>
</g>
<defs>
<clipPath id="clip0_183_190">
<rect width="221" height="152" fill="white"/>
</clipPath>
</defs>
</svg>
