<svg width="221" height="220" viewBox="0 0 221 220" fill="none" xmlns="http://www.w3.org/2000/svg">
<g clip-path="url(#clip0_183_384)">
<path fill-rule="evenodd" clip-rule="evenodd" d="M160.848 98.816L157.231 97.16L156.938 93.204C155.99 80.472 145.189 70.496 132.343 70.496C130.076 70.496 127.782 70.816 125.52 71.448L121.554 72.552L118.753 69.552C112.545 62.904 103.753 59.092 94.628 59.092C79.0053 59.092 65.4239 70.176 62.3499 85.452L61.6307 89.028L58.2193 90.38C46.7072 94.92 38.9722 106.236 38.9722 118.54C38.9722 135.244 52.634 148.844 69.4179 148.844H149.894C164.396 148.844 176.193 137.084 176.193 122.628C176.193 112.432 170.174 103.088 160.848 98.816Z" fill="#D5DCE2"/>
<path fill-rule="evenodd" clip-rule="evenodd" d="M59.2641 75.036C58.3198 76.996 57.5242 79.044 56.9135 81.176L34.2349 70.484L61.1567 62.208C60.0959 65.94 59.4168 69.816 59.2521 73.804C59.236 74.22 59.2681 74.624 59.2641 75.036ZM161.097 83.944C161.422 81.992 161.631 80.02 161.716 78.012C161.844 75.08 161.676 72.184 161.306 69.328L186.761 81.324L162.556 88.784C162.202 87.112 161.712 85.504 161.097 83.944ZM67.9956 47.584C66.1312 50.336 64.5239 53.252 63.222 56.32L47.1935 33.236L74.706 39.492C73.5166 40.656 72.3995 41.892 71.3267 43.16C71.2383 43.264 71.1579 43.376 71.0695 43.48C70.1012 44.648 69.185 45.856 68.3211 47.104C68.2126 47.26 68.1081 47.42 67.9956 47.584ZM82.9232 33C81.9909 33.604 81.0748 34.228 80.1828 34.884C79.9336 35.072 79.6524 35.236 79.3952 35.428L77.0848 7.452L97.7422 26.512C92.824 27.78 88.199 29.76 83.9719 32.336C83.6183 32.548 83.2687 32.776 82.9232 33ZM112.614 24.924C109.688 24.804 106.771 25.012 103.878 25.384L115.961 0L124.274 26.788C120.505 25.752 116.612 25.088 112.614 24.924ZM130.209 28.828L153.378 12.884L147.085 40.228C142.207 35.264 136.486 31.428 130.209 28.828ZM151.232 44.932L179.279 42.632L160.161 63.144C158.473 56.576 155.447 50.404 151.232 44.932ZM94.6322 52.808C84.1648 52.808 74.477 56.976 67.3447 63.856C71.9334 47.844 85.3984 35.124 102.315 32.008C105.59 31.4 108.973 31.16 112.356 31.3C124.331 31.788 135.397 36.888 143.517 45.668C150.903 53.656 154.993 63.82 155.295 74.572C149.585 68.26 141.424 64.212 132.351 64.212C129.51 64.212 126.637 64.608 123.82 65.4L123.563 65.468L123.378 65.276C115.981 57.348 105.501 52.808 94.6322 52.808Z" fill="#FFCE00"/>
<path fill-rule="evenodd" clip-rule="evenodd" d="M116.676 173.86L105.365 173.688L114.639 157.54L100.322 157.66L88.1748 181.752H98.7506L83.8994 218.268L116.676 173.86Z" fill="#FF7800"/>
</g>
<defs>
<clipPath id="clip0_183_384">
<rect width="221" height="220" fill="white"/>
</clipPath>
</defs>
</svg>
