<svg width="220" height="220" viewBox="0 0 220 220" fill="none" xmlns="http://www.w3.org/2000/svg">
<g clip-path="url(#clip0_183_358)">
<path fill-rule="evenodd" clip-rule="evenodd" d="M160.12 98.816L156.52 97.16L156.228 93.204C155.284 80.472 144.532 70.496 131.744 70.496C129.488 70.496 127.204 70.816 124.952 71.448L121.004 72.552L118.216 69.552C112.036 62.904 103.284 59.092 94.1999 59.092C78.6479 59.092 65.1279 70.176 62.0679 85.452L61.3519 89.028L57.9559 90.38C46.4959 94.92 38.7959 106.236 38.7959 118.54C38.7959 135.244 52.3959 148.844 69.1039 148.844H149.216C163.652 148.844 175.396 137.084 175.396 122.628C175.396 112.432 169.404 103.088 160.12 98.816Z" fill="#D5DCE2"/>
<path fill-rule="evenodd" clip-rule="evenodd" d="M58.9961 75.036C58.0561 76.996 57.2641 79.044 56.6561 81.176L34.0801 70.484L60.8801 62.208C59.8241 65.94 59.1481 69.816 58.9841 73.804C58.9681 74.22 59.0001 74.624 58.9961 75.036ZM160.368 83.944C160.692 81.992 160.9 80.02 160.984 78.012C161.112 75.08 160.944 72.184 160.576 69.328L185.916 81.324L161.82 88.784C161.468 87.112 160.98 85.504 160.368 83.944ZM67.6881 47.584C65.8321 50.336 64.2321 53.252 62.9361 56.32L46.9801 33.236L74.3681 39.492C73.1841 40.656 72.0721 41.892 71.0041 43.16C70.9161 43.264 70.8361 43.376 70.7481 43.48C69.7841 44.648 68.8721 45.856 68.0121 47.104C67.9041 47.26 67.8001 47.42 67.6881 47.584ZM82.5481 33C81.6201 33.604 80.7081 34.228 79.8201 34.884C79.5721 35.072 79.2921 35.236 79.0361 35.428L76.7361 7.452L97.3001 26.512C92.4041 27.78 87.8001 29.76 83.5921 32.336C83.2401 32.548 82.8921 32.776 82.5481 33ZM112.104 24.924C109.192 24.804 106.288 25.012 103.408 25.384L115.436 0L123.712 26.788C119.96 25.752 116.084 25.088 112.104 24.924ZM129.62 28.828L152.684 12.884L146.42 40.228C141.564 35.264 135.868 31.428 129.62 28.828ZM150.548 44.932L178.468 42.632L159.436 63.144C157.756 56.576 154.744 50.404 150.548 44.932ZM94.2041 52.808C83.7841 52.808 74.1401 56.976 67.0401 63.856C71.6081 47.844 85.0121 35.124 101.852 32.008C105.112 31.4 108.48 31.16 111.848 31.3C123.768 31.788 134.784 36.888 142.868 45.668C150.22 53.656 154.292 63.82 154.592 74.572C148.908 68.26 140.784 64.212 131.752 64.212C128.924 64.212 126.064 64.608 123.26 65.4L123.004 65.468L122.82 65.276C115.456 57.348 105.024 52.808 94.2041 52.808Z" fill="#FFCE00"/>
<path fill-rule="evenodd" clip-rule="evenodd" d="M89.3201 174.98C90.0241 175.152 90.4761 175.884 90.3001 176.596L90.2321 176.852C90.0601 177.56 89.3321 178.008 88.6241 177.828L79.4041 175.58L81.6561 184.804C81.8401 185.516 81.3921 186.236 80.6681 186.416L80.4121 186.472C79.7041 186.652 78.9761 186.208 78.8041 185.496L76.5841 176.44L69.9801 183.008C69.4561 183.52 68.6201 183.52 68.0961 182.996L67.9041 182.808C67.3961 182.284 67.3961 181.44 67.9161 180.916L74.5041 174.38L65.4881 172.176C64.7761 172.008 64.3201 171.288 64.5081 170.564L64.5641 170.308C64.7441 169.588 65.4761 169.156 66.1841 169.328L75.4121 171.58L73.1481 162.356C72.9721 161.652 73.4241 160.912 74.1361 160.744L74.3921 160.68C75.1121 160.504 75.8401 160.944 76.0121 161.656L78.2121 170.696L84.8241 164.144C85.3441 163.628 86.1921 163.628 86.7041 164.156L86.8961 164.344C87.4201 164.864 87.4081 165.704 86.8961 166.224L80.2961 172.768L89.3201 174.98ZM66.1241 206.408C66.8321 206.58 67.2801 207.312 67.1041 208.024L67.0361 208.28C66.8641 208.988 66.1361 209.436 65.4281 209.256L56.2081 207.008L58.4601 216.232C58.6401 216.944 58.1921 217.664 57.4681 217.844L57.2121 217.9C56.5041 218.08 55.7761 217.636 55.6041 216.924L53.3841 207.868L46.7801 214.436C46.2561 214.948 45.4201 214.948 44.8961 214.424L44.7041 214.236C44.1961 213.712 44.1961 212.868 44.7161 212.344L51.3041 205.808L42.2881 203.604C41.5761 203.436 41.1201 202.716 41.3081 201.992L41.3641 201.736C41.5441 201.016 42.2761 200.584 42.9841 200.756L52.2121 203.008L49.9481 193.784C49.7761 193.08 50.2281 192.34 50.9401 192.172L51.1961 192.108C51.9161 191.932 52.6441 192.372 52.8161 193.084L55.0161 202.124L61.6281 195.572C62.1481 195.056 62.9961 195.056 63.5081 195.584L63.7001 195.772C64.2241 196.292 64.2121 197.132 63.7001 197.652L57.1001 204.196L66.1241 206.408ZM127.16 206.408C127.868 206.58 128.316 207.312 128.136 208.024L128.068 208.28C127.896 208.988 127.168 209.436 126.46 209.256L117.24 207.008L119.492 216.232C119.676 216.944 119.228 217.664 118.504 217.844L118.248 217.9C117.54 218.08 116.812 217.636 116.64 216.924L114.42 207.868L107.816 214.436C107.292 214.948 106.456 214.948 105.932 214.424L105.74 214.236C105.232 213.712 105.232 212.868 105.752 212.344L112.34 205.808L103.324 203.604C102.612 203.436 102.156 202.716 102.344 201.992L102.4 201.736C102.58 201.016 103.312 200.584 104.02 200.756L113.248 203.008L110.984 193.784C110.812 193.08 111.264 192.34 111.976 192.172L112.232 192.108C112.952 191.932 113.68 192.372 113.852 193.084L116.052 202.124L122.664 195.572C123.184 195.056 124.032 195.056 124.544 195.584L124.736 195.772C125.26 196.292 125.248 197.132 124.736 197.652L118.136 204.196L127.16 206.408ZM150.868 174.98C151.572 175.152 152.024 175.884 151.844 176.596L151.776 176.852C151.604 177.56 150.876 178.008 150.168 177.828L140.948 175.58L143.2 184.804C143.384 185.516 142.936 186.236 142.212 186.416L141.956 186.472C141.248 186.652 140.52 186.208 140.348 185.496L138.128 176.44L131.524 183.008C131 183.52 130.164 183.52 129.64 182.996L129.448 182.808C128.94 182.284 128.94 181.44 129.46 180.916L136.048 174.38L127.032 172.176C126.32 172.008 125.864 171.288 126.052 170.564L126.108 170.308C126.288 169.588 127.02 169.156 127.728 169.328L136.956 171.58L134.692 162.356C134.52 161.652 134.972 160.912 135.684 160.744L135.94 160.68C136.66 160.504 137.388 160.944 137.56 161.656L139.76 170.696L146.372 164.144C146.892 163.628 147.74 163.628 148.252 164.156L148.444 164.344C148.968 164.864 148.956 165.704 148.444 166.224L141.844 172.768L150.868 174.98Z" fill="#38C0E0"/>
</g>
<defs>
<clipPath id="clip0_183_358">
<rect width="220" height="220" fill="white"/>
</clipPath>
</defs>
</svg>
