<svg width="221" height="220" viewBox="0 0 221 220" fill="none" xmlns="http://www.w3.org/2000/svg">
<g clip-path="url(#clip0_183_375)">
<path fill-rule="evenodd" clip-rule="evenodd" d="M160.848 98.816L157.232 97.16L156.938 93.204C155.99 80.472 145.189 70.496 132.343 70.496C130.077 70.496 127.783 70.816 125.52 71.448L121.554 72.552L118.754 69.552C112.546 62.904 103.754 59.092 94.6285 59.092C79.0058 59.092 65.4243 70.176 62.3504 85.452L61.6312 89.028L58.2197 90.38C46.7077 94.92 38.9727 106.236 38.9727 118.54C38.9727 135.244 52.6345 148.844 69.4184 148.844H149.895C164.396 148.844 176.194 137.084 176.194 122.628C176.194 112.432 170.174 103.088 160.848 98.816Z" fill="#D5DCE2"/>
<path fill-rule="evenodd" clip-rule="evenodd" d="M59.2641 75.036C58.3198 76.996 57.5242 79.044 56.9135 81.176L34.2349 70.484L61.1567 62.208C60.0959 65.94 59.4168 69.816 59.2521 73.804C59.236 74.22 59.2681 74.624 59.2641 75.036ZM161.097 83.944C161.422 81.992 161.631 80.02 161.716 78.012C161.844 75.08 161.676 72.184 161.306 69.328L186.761 81.324L162.556 88.784C162.202 87.112 161.712 85.504 161.097 83.944ZM67.9956 47.584C66.1312 50.336 64.5239 53.252 63.222 56.32L47.1935 33.236L74.706 39.492C73.5166 40.656 72.3995 41.892 71.3267 43.16C71.2383 43.264 71.1579 43.376 71.0695 43.48C70.1012 44.648 69.185 45.856 68.3211 47.104C68.2126 47.26 68.1081 47.42 67.9956 47.584ZM82.9232 33C81.9909 33.604 81.0748 34.228 80.1828 34.884C79.9336 35.072 79.6524 35.236 79.3952 35.428L77.0848 7.452L97.7422 26.512C92.824 27.78 88.199 29.76 83.9719 32.336C83.6183 32.548 83.2687 32.776 82.9232 33ZM112.614 24.924C109.688 24.804 106.771 25.012 103.878 25.384L115.961 0L124.274 26.788C120.505 25.752 116.612 25.088 112.614 24.924ZM130.209 28.828L153.378 12.884L147.085 40.228C142.207 35.264 136.486 31.428 130.209 28.828ZM151.232 44.932L179.279 42.632L160.161 63.144C158.473 56.576 155.447 50.404 151.232 44.932ZM94.6322 52.808C84.1648 52.808 74.477 56.976 67.3447 63.856C71.9334 47.844 85.3984 35.124 102.315 32.008C105.59 31.4 108.973 31.16 112.356 31.3C124.331 31.788 135.397 36.888 143.517 45.668C150.903 53.656 154.993 63.82 155.295 74.572C149.585 68.26 141.424 64.212 132.351 64.212C129.51 64.212 126.637 64.608 123.82 65.4L123.563 65.468L123.378 65.276C115.981 57.348 105.501 52.808 94.6322 52.808Z" fill="#FFCE00"/>
<path fill-rule="evenodd" clip-rule="evenodd" d="M120.839 212.344C115.523 222.56 103.392 215.876 108.495 206.016C112.827 197.636 123.234 192.568 123.234 192.568C123.234 192.568 125.042 204.232 120.839 212.344ZM86.7044 180.916C81.3883 191.132 69.2575 184.448 74.3605 174.588C78.6921 166.208 89.0992 161.14 89.0992 161.14C89.0992 161.14 90.9074 172.804 86.7044 180.916Z" fill="#009EFF"/>
<path fill-rule="evenodd" clip-rule="evenodd" d="M154.556 174.98L145.491 172.768L152.121 166.224C152.635 165.704 152.647 164.864 152.121 164.344L151.928 164.156C151.413 163.628 150.561 163.628 150.039 164.144L143.397 170.696L141.187 161.656C141.014 160.944 140.283 160.504 139.56 160.68L139.303 160.744C138.587 160.912 138.133 161.652 138.306 162.356L140.58 171.58L131.31 169.328C130.599 169.156 129.864 169.588 129.683 170.308L129.627 170.564C129.438 171.288 129.896 172.008 130.611 172.176L139.668 174.38L133.05 180.916C132.528 181.44 132.528 182.284 133.038 182.808L133.231 182.996C133.757 183.52 134.597 183.52 135.124 183.008L141.758 176.44L143.988 185.496C144.161 186.208 144.892 186.652 145.603 186.472L145.86 186.416C146.588 186.236 147.038 185.516 146.853 184.804L144.59 175.58L153.852 177.828C154.564 178.008 155.295 177.56 155.468 176.852L155.536 176.596C155.717 175.884 155.267 175.152 154.556 174.98ZM72.7454 206.408L63.6804 204.196L70.3104 197.652C70.8247 197.132 70.8367 196.292 70.3104 195.772L70.1175 195.584C69.6032 195.056 68.7513 195.056 68.2289 195.572L61.5869 202.124L59.3769 193.084C59.2041 192.372 58.4728 191.932 57.7495 192.108L57.4924 192.172C56.7771 192.34 56.3231 193.08 56.4959 193.784L58.7701 203.008L49.5002 200.756C48.789 200.584 48.0536 201.016 47.8728 201.736L47.8166 201.992C47.6277 202.716 48.0858 203.436 48.801 203.604L57.858 205.808L51.2401 212.344C50.7177 212.868 50.7177 213.712 51.228 214.236L51.4209 214.424C51.9473 214.948 52.7871 214.948 53.3134 214.436L59.9475 207.868L62.1776 216.924C62.3503 217.636 63.0816 218.08 63.7929 217.9L64.05 217.844C64.7773 217.664 65.2274 216.944 65.0425 216.232L62.7803 207.008L72.0422 209.256C72.7534 209.436 73.4847 208.988 73.6575 208.28L73.7258 208.024C73.9066 207.312 73.4566 206.58 72.7454 206.408Z" fill="#38C0E0"/>
</g>
<defs>
<clipPath id="clip0_183_375">
<rect width="221" height="220" fill="white"/>
</clipPath>
</defs>
</svg>
