<svg width="220" height="220" viewBox="0 0 220 220" fill="none" xmlns="http://www.w3.org/2000/svg">
<g clip-path="url(#clip0_183_333)">
<path fill-rule="evenodd" clip-rule="evenodd" d="M160.12 98.816L156.52 97.16L156.228 93.204C155.284 80.472 144.532 70.496 131.744 70.496C129.488 70.496 127.204 70.816 124.952 71.448L121.004 72.552L118.216 69.552C112.036 62.904 103.284 59.092 94.1999 59.092C78.6479 59.092 65.1279 70.176 62.0679 85.452L61.3519 89.028L57.9559 90.38C46.4959 94.92 38.7959 106.236 38.7959 118.54C38.7959 135.244 52.3959 148.844 69.1039 148.844H149.216C163.652 148.844 175.396 137.084 175.396 122.628C175.396 112.432 169.404 103.088 160.12 98.816Z" fill="#D5DCE2"/>
<path fill-rule="evenodd" clip-rule="evenodd" d="M58.9961 75.036C58.0561 76.996 57.2641 79.044 56.6561 81.176L34.0801 70.484L60.8801 62.208C59.8241 65.94 59.1481 69.816 58.9841 73.804C58.9681 74.22 59.0001 74.624 58.9961 75.036ZM160.368 83.944C160.692 81.992 160.9 80.02 160.984 78.012C161.112 75.08 160.944 72.184 160.576 69.328L185.916 81.324L161.82 88.784C161.468 87.112 160.98 85.504 160.368 83.944ZM67.6881 47.584C65.8321 50.336 64.2321 53.252 62.9361 56.32L46.9801 33.236L74.3681 39.492C73.1841 40.656 72.0721 41.892 71.0041 43.16C70.9161 43.264 70.8361 43.376 70.7481 43.48C69.7841 44.648 68.8721 45.856 68.0121 47.104C67.9041 47.26 67.8001 47.42 67.6881 47.584ZM82.5481 33C81.6201 33.604 80.7081 34.228 79.8201 34.884C79.5721 35.072 79.2921 35.236 79.0361 35.428L76.7361 7.452L97.3001 26.512C92.4041 27.78 87.8001 29.76 83.5921 32.336C83.2401 32.548 82.8921 32.776 82.5481 33ZM112.104 24.924C109.192 24.804 106.288 25.012 103.408 25.384L115.436 0L123.712 26.788C119.96 25.752 116.084 25.088 112.104 24.924ZM129.62 28.828L152.684 12.884L146.42 40.228C141.564 35.264 135.868 31.428 129.62 28.828ZM150.548 44.932L178.468 42.632L159.436 63.144C157.756 56.576 154.744 50.404 150.548 44.932ZM94.2041 52.808C83.7841 52.808 74.1401 56.976 67.0401 63.856C71.6081 47.844 85.0121 35.124 101.852 32.008C105.112 31.4 108.48 31.16 111.848 31.3C123.768 31.788 134.784 36.888 142.868 45.668C150.22 53.656 154.292 63.82 154.592 74.572C148.908 68.26 140.784 64.212 131.752 64.212C128.924 64.212 126.064 64.608 123.26 65.4L123.004 65.468L122.82 65.276C115.456 57.348 105.024 52.808 94.2041 52.808Z" fill="#FFCE00"/>
<path fill-rule="evenodd" clip-rule="evenodd" d="M76.3998 180.916C71.1078 191.132 59.0318 184.448 64.1118 174.588C68.4238 166.208 78.7838 161.14 78.7838 161.14C78.7838 161.14 80.5878 172.804 76.3998 180.916ZM104.684 212.652C99.3918 222.868 87.3158 216.184 92.3958 206.324C96.7078 197.944 107.068 192.876 107.068 192.876C107.068 192.876 108.872 204.54 104.684 212.652ZM157.48 180.916C152.188 191.132 140.112 184.448 145.192 174.588C149.504 166.208 159.864 161.14 159.864 161.14C159.864 161.14 161.664 172.804 157.48 180.916Z" fill="#009EFF"/>
<path fill-rule="evenodd" clip-rule="evenodd" d="M123.492 175.412C124.2 175.588 124.648 176.32 124.468 177.028L124.4 177.284C124.228 177.992 123.5 178.44 122.792 178.26L113.572 176.012L115.824 185.236C116.008 185.948 115.56 186.668 114.836 186.848L114.58 186.904C113.872 187.084 113.144 186.64 112.972 185.928L110.752 176.872L104.148 183.44C103.624 183.952 102.788 183.952 102.264 183.428L102.072 183.24C101.564 182.716 101.564 181.872 102.084 181.348L108.672 174.812L99.6558 172.608C98.9438 172.44 98.4878 171.72 98.6758 170.996L98.7318 170.74C98.9118 170.02 99.6438 169.588 100.352 169.76L109.58 172.012L107.316 162.788C107.144 162.084 107.596 161.344 108.308 161.176L108.564 161.112C109.284 160.936 110.012 161.376 110.184 162.088L112.384 171.128L118.996 164.576C119.516 164.06 120.364 164.06 120.876 164.588L121.068 164.776C121.592 165.296 121.58 166.136 121.068 166.656L114.468 173.2L123.492 175.412ZM151.772 206.716C152.48 206.888 152.932 207.624 152.748 208.332L152.68 208.588C152.508 209.296 151.78 209.744 151.072 209.564L141.852 207.316L144.104 216.54C144.288 217.252 143.84 217.972 143.116 218.152L142.86 218.208C142.152 218.388 141.424 217.944 141.252 217.232L139.032 208.176L132.428 214.744C131.904 215.256 131.068 215.256 130.544 214.732L130.352 214.544C129.844 214.02 129.844 213.176 130.364 212.652L136.952 206.116L127.936 203.912C127.224 203.744 126.768 203.024 126.956 202.3L127.012 202.044C127.192 201.324 127.924 200.892 128.632 201.064L137.86 203.316L135.596 194.092C135.424 193.388 135.876 192.648 136.588 192.48L136.844 192.416C137.564 192.24 138.292 192.68 138.464 193.392L140.664 202.432L147.276 195.88C147.796 195.364 148.644 195.364 149.156 195.892L149.348 196.08C149.872 196.6 149.86 197.44 149.348 197.96L142.748 204.504L151.772 206.716ZM70.6958 206.716C71.4038 206.888 71.8518 207.624 71.6758 208.332L71.6078 208.588C71.4358 209.296 70.7078 209.744 69.9998 209.564L60.7798 207.316L63.0318 216.54C63.2158 217.252 62.7678 217.972 62.0438 218.152L61.7878 218.208C61.0798 218.388 60.3518 217.944 60.1798 217.232L57.9598 208.176L51.3558 214.744C50.8318 215.256 49.9958 215.256 49.4718 214.732L49.2798 214.544C48.7718 214.02 48.7718 213.176 49.2918 212.652L55.8798 206.116L46.8638 203.912C46.1518 203.744 45.6958 203.024 45.8838 202.3L45.9398 202.044C46.1198 201.324 46.8518 200.892 47.5598 201.064L56.7878 203.316L54.5238 194.092C54.3478 193.388 54.7998 192.648 55.5118 192.48L55.7678 192.416C56.4878 192.24 57.2158 192.68 57.3878 193.392L59.5878 202.432L66.1998 195.88C66.7198 195.364 67.5678 195.364 68.0798 195.892L68.2718 196.08C68.7958 196.6 68.7838 197.44 68.2718 197.96L61.6718 204.504L70.6958 206.716Z" fill="#38C0E0"/>
</g>
<defs>
<clipPath id="clip0_183_333">
<rect width="220" height="220" fill="white"/>
</clipPath>
</defs>
</svg>
