<svg width="220" height="220" viewBox="0 0 220 220" fill="none" xmlns="http://www.w3.org/2000/svg">
<g clip-path="url(#clip0_183_304)">
<path fill-rule="evenodd" clip-rule="evenodd" d="M160.12 98.816L156.52 97.16L156.228 93.204C155.284 80.472 144.532 70.496 131.744 70.496C129.488 70.496 127.204 70.816 124.952 71.448L121.004 72.552L118.216 69.552C112.036 62.904 103.284 59.092 94.1999 59.092C78.6479 59.092 65.1279 70.176 62.0679 85.452L61.3519 89.028L57.9559 90.38C46.4959 94.92 38.7959 106.236 38.7959 118.54C38.7959 135.244 52.3959 148.844 69.1039 148.844H149.216C163.652 148.844 175.396 137.084 175.396 122.628C175.396 112.432 169.404 103.088 160.12 98.816Z" fill="#D5DCE2"/>
<path fill-rule="evenodd" clip-rule="evenodd" d="M58.9961 75.036C58.0561 76.996 57.2641 79.044 56.6561 81.176L34.0801 70.484L60.8801 62.208C59.8241 65.94 59.1481 69.816 58.9841 73.804C58.9681 74.22 59.0001 74.624 58.9961 75.036ZM160.368 83.944C160.692 81.992 160.9 80.02 160.984 78.012C161.112 75.08 160.944 72.184 160.576 69.328L185.916 81.324L161.82 88.784C161.468 87.112 160.98 85.504 160.368 83.944ZM67.6881 47.584C65.8321 50.336 64.2321 53.252 62.9361 56.32L46.9801 33.236L74.3681 39.492C73.1841 40.656 72.0721 41.892 71.0041 43.16C70.9161 43.264 70.8361 43.376 70.7481 43.48C69.7841 44.648 68.8721 45.856 68.0121 47.104C67.9041 47.26 67.8001 47.42 67.6881 47.584ZM82.5481 33C81.6201 33.604 80.7081 34.228 79.8201 34.884C79.5721 35.072 79.2921 35.236 79.0361 35.428L76.7361 7.452L97.3001 26.512C92.4041 27.78 87.8001 29.76 83.5921 32.336C83.2401 32.548 82.8921 32.776 82.5481 33ZM112.104 24.924C109.192 24.804 106.288 25.012 103.408 25.384L115.436 0L123.712 26.788C119.96 25.752 116.084 25.088 112.104 24.924ZM129.62 28.828L152.684 12.884L146.42 40.228C141.564 35.264 135.868 31.428 129.62 28.828ZM150.548 44.932L178.468 42.632L159.436 63.144C157.756 56.576 154.744 50.404 150.548 44.932ZM94.2041 52.808C83.7841 52.808 74.1401 56.976 67.0401 63.856C71.6081 47.844 85.0121 35.124 101.852 32.008C105.112 31.4 108.48 31.16 111.848 31.3C123.768 31.788 134.784 36.888 142.868 45.668C150.22 53.656 154.292 63.82 154.592 74.572C148.908 68.26 140.784 64.212 131.752 64.212C128.924 64.212 126.064 64.608 123.26 65.4L123.004 65.468L122.82 65.276C115.456 57.348 105.024 52.808 94.2041 52.808Z" fill="#FFCE00"/>
<path fill-rule="evenodd" clip-rule="evenodd" d="M161.868 174.98C162.576 175.152 163.028 175.884 162.844 176.596L162.776 176.852C162.604 177.56 161.876 178.008 161.168 177.828L151.948 175.58L154.2 184.804C154.384 185.516 153.936 186.236 153.212 186.416L152.956 186.472C152.248 186.652 151.52 186.208 151.348 185.496L149.128 176.44L142.524 183.008C142 183.52 141.164 183.52 140.64 182.996L140.448 182.808C139.94 182.284 139.94 181.44 140.46 180.916L147.048 174.38L138.032 172.176C137.32 172.008 136.864 171.288 137.052 170.564L137.108 170.308C137.288 169.588 138.02 169.156 138.728 169.328L147.956 171.58L145.692 162.356C145.52 161.652 145.972 160.912 146.684 160.744L146.94 160.68C147.66 160.504 148.388 160.944 148.56 161.656L150.76 170.696L157.372 164.144C157.892 163.628 158.74 163.628 159.252 164.156L159.444 164.344C159.968 164.864 159.956 165.704 159.444 166.224L152.844 172.768L161.868 174.98ZM86.0518 174.98C86.7598 175.152 87.2078 175.884 87.0318 176.596L86.9638 176.852C86.7918 177.56 86.0638 178.008 85.3558 177.828L76.1358 175.58L78.3878 184.804C78.5678 185.516 78.1198 186.236 77.3958 186.416L77.1398 186.472C76.4318 186.652 75.7038 186.208 75.5318 185.496L73.3118 176.44L66.7078 183.008C66.1838 183.52 65.3478 183.52 64.8238 182.996L64.6318 182.808C64.1238 182.284 64.1238 181.44 64.6438 180.916L71.2318 174.38L62.2158 172.176C61.5038 172.008 61.0478 171.288 61.2358 170.564L61.2918 170.308C61.4718 169.588 62.2038 169.156 62.9118 169.328L72.1398 171.58L69.8758 162.356C69.7038 161.652 70.1558 160.912 70.8678 160.744L71.1238 160.68C71.8438 160.504 72.5718 160.944 72.7438 161.656L74.9438 170.696L81.5558 164.144C82.0758 163.628 82.9238 163.628 83.4358 164.156L83.6278 164.344C84.1518 164.864 84.1398 165.704 83.6278 166.224L77.0278 172.768L86.0518 174.98Z" fill="#38C0E0"/>
<path fill-rule="evenodd" clip-rule="evenodd" d="M124.148 173.86L112.888 173.688L122.12 157.54L107.868 157.66L95.776 181.752H106.304L91.52 218.268L124.148 173.86Z" fill="#FF7800"/>
</g>
<defs>
<clipPath id="clip0_183_304">
<rect width="220" height="220" fill="white"/>
</clipPath>
</defs>
</svg>
