<svg width="220" height="220" viewBox="0 0 220 220" fill="none" xmlns="http://www.w3.org/2000/svg">
<g clip-path="url(#clip0_183_366)">
<path fill-rule="evenodd" clip-rule="evenodd" d="M160.12 98.816L156.52 97.16L156.228 93.204C155.284 80.472 144.532 70.496 131.744 70.496C129.488 70.496 127.204 70.816 124.952 71.448L121.004 72.552L118.216 69.552C112.036 62.904 103.284 59.092 94.1999 59.092C78.6479 59.092 65.1279 70.176 62.0679 85.452L61.3519 89.028L57.9559 90.38C46.4959 94.92 38.7959 106.236 38.7959 118.54C38.7959 135.244 52.3959 148.844 69.1039 148.844H149.216C163.652 148.844 175.396 137.084 175.396 122.628C175.396 112.432 169.404 103.088 160.12 98.816Z" fill="#D5DCE2"/>
<path fill-rule="evenodd" clip-rule="evenodd" d="M58.9961 75.036C58.0561 76.996 57.2641 79.044 56.6561 81.176L34.0801 70.484L60.8801 62.208C59.8241 65.94 59.1481 69.816 58.9841 73.804C58.9681 74.22 59.0001 74.624 58.9961 75.036ZM160.368 83.944C160.692 81.992 160.9 80.02 160.984 78.012C161.112 75.08 160.944 72.184 160.576 69.328L185.916 81.324L161.82 88.784C161.468 87.112 160.98 85.504 160.368 83.944ZM67.6881 47.584C65.8321 50.336 64.2321 53.252 62.9361 56.32L46.9801 33.236L74.3681 39.492C73.1841 40.656 72.0721 41.892 71.0041 43.16C70.9161 43.264 70.8361 43.376 70.7481 43.48C69.7841 44.648 68.8721 45.856 68.0121 47.104C67.9041 47.26 67.8001 47.42 67.6881 47.584ZM82.5481 33C81.6201 33.604 80.7081 34.228 79.8201 34.884C79.5721 35.072 79.2921 35.236 79.0361 35.428L76.7361 7.452L97.3001 26.512C92.4041 27.78 87.8001 29.76 83.5921 32.336C83.2401 32.548 82.8921 32.776 82.5481 33ZM112.104 24.924C109.192 24.804 106.288 25.012 103.408 25.384L115.436 0L123.712 26.788C119.96 25.752 116.084 25.088 112.104 24.924ZM129.62 28.828L152.684 12.884L146.42 40.228C141.564 35.264 135.868 31.428 129.62 28.828ZM150.548 44.932L178.468 42.632L159.436 63.144C157.756 56.576 154.744 50.404 150.548 44.932ZM94.2041 52.808C83.7841 52.808 74.1401 56.976 67.0401 63.856C71.6081 47.844 85.0121 35.124 101.852 32.008C105.112 31.4 108.48 31.16 111.848 31.3C123.768 31.788 134.784 36.888 142.868 45.668C150.22 53.656 154.292 63.82 154.592 74.572C148.908 68.26 140.784 64.212 131.752 64.212C128.924 64.212 126.064 64.608 123.26 65.4L123.004 65.468L122.82 65.276C115.456 57.348 105.024 52.808 94.2041 52.808Z" fill="#FFCE00"/>
<path fill-rule="evenodd" clip-rule="evenodd" d="M80.6001 174.98C81.3041 175.152 81.7561 175.884 81.5801 176.596L81.5121 176.852C81.3401 177.56 80.6121 178.008 79.9041 177.828L70.6841 175.58L72.9361 184.804C73.1201 185.516 72.6721 186.236 71.9481 186.416L71.6921 186.472C70.9841 186.652 70.2561 186.208 70.0841 185.496L67.8641 176.44L61.2601 183.008C60.7361 183.52 59.9001 183.52 59.3761 182.996L59.1841 182.808C58.6761 182.284 58.6761 181.44 59.1961 180.916L65.7841 174.38L56.7681 172.176C56.0561 172.008 55.6001 171.288 55.7881 170.564L55.8441 170.308C56.0241 169.588 56.7561 169.156 57.4641 169.328L66.6921 171.58L64.4281 162.356C64.2521 161.652 64.7041 160.912 65.4161 160.744L65.6721 160.68C66.3921 160.504 67.1201 160.944 67.2921 161.656L69.4921 170.696L76.1041 164.144C76.6241 163.628 77.4721 163.628 77.9841 164.156L78.1761 164.344C78.7001 164.864 78.6881 165.704 78.1761 166.224L71.5761 172.768L80.6001 174.98ZM44.6241 206.408C45.3321 206.58 45.7841 207.312 45.6001 208.028L45.5321 208.284C45.3601 208.992 44.6321 209.44 43.9241 209.26L34.7041 207.012L36.9561 216.236C37.1401 216.948 36.6921 217.668 35.9681 217.848L35.7121 217.904C35.0041 218.084 34.2761 217.64 34.1041 216.928L31.8841 207.872L25.2801 214.44C24.7561 214.952 23.9201 214.952 23.3961 214.428L23.2041 214.24C22.6961 213.716 22.6961 212.872 23.2161 212.348L29.8041 205.812L20.7881 203.608C20.0761 203.44 19.6201 202.72 19.8081 201.996L19.8641 201.74C20.0441 201.02 20.7761 200.588 21.4841 200.76L30.7121 203.012L28.4481 193.788C28.2761 193.084 28.7281 192.344 29.4401 192.176L29.6961 192.108C30.4161 191.932 31.1441 192.372 31.3161 193.084L33.5161 202.124L40.1281 195.572C40.6481 195.056 41.4961 195.056 42.0081 195.584L42.2001 195.772C42.7241 196.292 42.7121 197.132 42.2001 197.652L35.6001 204.196L44.6241 206.408ZM80.0281 206.408C80.7361 206.58 81.1841 207.312 81.0081 208.024L80.9401 208.28C80.7681 208.988 80.0401 209.436 79.3321 209.256L70.1121 207.008L72.3641 216.232C72.5481 216.944 72.1001 217.664 71.3761 217.844L71.1201 217.9C70.4121 218.08 69.6841 217.636 69.5121 216.924L67.2921 207.868L60.6881 214.436C60.1641 214.948 59.3281 214.948 58.8041 214.424L58.6121 214.236C58.1041 213.712 58.1041 212.868 58.6241 212.344L65.2121 205.808L56.1961 203.604C55.4841 203.436 55.0281 202.716 55.2161 201.992L55.2721 201.736C55.4521 201.016 56.1841 200.584 56.8921 200.756L66.1201 203.008L63.8561 193.784C63.6801 193.08 64.1321 192.34 64.8441 192.172L65.1001 192.108C65.8201 191.932 66.5481 192.372 66.7201 193.084L68.9201 202.124L75.5321 195.572C76.0521 195.056 76.9001 195.056 77.4121 195.584L77.6041 195.772C78.1281 196.292 78.1161 197.132 77.6041 197.652L71.0041 204.196L80.0281 206.408ZM143.38 206.408C144.088 206.58 144.54 207.312 144.356 208.028L144.288 208.284C144.116 208.992 143.388 209.44 142.68 209.26L133.46 207.012L135.712 216.236C135.896 216.948 135.448 217.668 134.724 217.848L134.468 217.904C133.76 218.084 133.032 217.64 132.86 216.928L130.64 207.872L124.036 214.44C123.512 214.952 122.676 214.952 122.152 214.428L121.96 214.24C121.452 213.716 121.452 212.872 121.972 212.348L128.56 205.812L119.544 203.608C118.832 203.44 118.376 202.72 118.564 201.996L118.62 201.74C118.8 201.02 119.532 200.588 120.24 200.76L129.468 203.008L127.204 193.784C127.032 193.08 127.484 192.34 128.196 192.172L128.452 192.108C129.172 191.932 129.9 192.372 130.072 193.084L132.272 202.124L138.884 195.572C139.404 195.056 140.252 195.056 140.764 195.584L140.956 195.772C141.48 196.292 141.468 197.132 140.956 197.652L134.356 204.196L143.38 206.408ZM178.788 206.408C179.492 206.58 179.944 207.312 179.764 208.028L179.696 208.284C179.524 208.992 178.796 209.44 178.088 209.26L168.868 207.012L171.12 216.236C171.304 216.948 170.856 217.668 170.132 217.848L169.876 217.904C169.168 218.084 168.44 217.64 168.268 216.928L166.048 207.872L159.444 214.44C158.92 214.952 158.084 214.952 157.56 214.428L157.368 214.24C156.86 213.716 156.86 212.872 157.38 212.348L163.968 205.812L154.952 203.608C154.24 203.44 153.784 202.72 153.972 201.996L154.028 201.74C154.208 201.02 154.94 200.588 155.648 200.76L164.876 203.012L162.612 193.788C162.436 193.084 162.888 192.344 163.6 192.176L163.86 192.108C164.58 191.932 165.308 192.372 165.48 193.084L167.68 202.124L174.292 195.572C174.812 195.056 175.66 195.056 176.172 195.584L176.364 195.772C176.888 196.292 176.876 197.132 176.364 197.652L169.764 204.196L178.788 206.408ZM164.024 174.98C164.732 175.152 165.18 175.884 165.004 176.596L164.936 176.852C164.764 177.56 164.036 178.008 163.328 177.828L154.108 175.58L156.36 184.804C156.54 185.516 156.092 186.236 155.368 186.416L155.112 186.472C154.404 186.652 153.676 186.208 153.504 185.496L151.284 176.44L144.68 183.008C144.156 183.52 143.32 183.52 142.796 182.996L142.604 182.808C142.096 182.284 142.096 181.44 142.616 180.916L149.204 174.38L140.188 172.176C139.476 172.008 139.02 171.288 139.208 170.564L139.264 170.308C139.444 169.588 140.176 169.156 140.884 169.328L150.112 171.58L147.848 162.356C147.676 161.652 148.128 160.912 148.84 160.744L149.096 160.68C149.816 160.504 150.544 160.944 150.716 161.656L152.916 170.696L159.528 164.144C160.048 163.628 160.896 163.628 161.408 164.156L161.6 164.344C162.124 164.864 162.112 165.704 161.6 166.224L155 172.768L164.024 174.98Z" fill="#38C0E0"/>
<path fill-rule="evenodd" clip-rule="evenodd" d="M123.492 173.86L112.232 173.688L121.464 157.54L107.212 157.66L95.1198 181.752H105.648L90.8638 218.268L123.492 173.86Z" fill="#FF7800"/>
</g>
<defs>
<clipPath id="clip0_183_366">
<rect width="220" height="220" fill="white"/>
</clipPath>
</defs>
</svg>
