<svg width="220" height="188" viewBox="0 0 220 188" fill="none" xmlns="http://www.w3.org/2000/svg">
<g clip-path="url(#clip0_183_202)">
<path fill-rule="evenodd" clip-rule="evenodd" d="M160.12 98.816L156.52 97.16L156.228 93.204C155.284 80.472 144.532 70.496 131.744 70.496C129.488 70.496 127.204 70.816 124.952 71.448L121.004 72.552L118.216 69.552C112.036 62.904 103.284 59.092 94.1999 59.092C78.6479 59.092 65.1279 70.176 62.0679 85.452L61.3519 89.028L57.9559 90.38C46.4959 94.92 38.7959 106.236 38.7959 118.54C38.7959 135.244 52.3959 148.844 69.1039 148.844H149.216C163.652 148.844 175.396 137.084 175.396 122.628C175.396 112.432 169.404 103.088 160.12 98.816Z" fill="#D5DCE2"/>
<path fill-rule="evenodd" clip-rule="evenodd" d="M58.9961 75.036C58.0561 76.996 57.2641 79.044 56.6561 81.176L34.0801 70.484L60.8801 62.208C59.8241 65.94 59.1481 69.816 58.9841 73.804C58.9681 74.22 59.0001 74.624 58.9961 75.036ZM160.368 83.944C160.692 81.992 160.9 80.02 160.984 78.012C161.112 75.08 160.944 72.184 160.576 69.328L185.916 81.324L161.82 88.784C161.468 87.112 160.98 85.504 160.368 83.944ZM67.6881 47.584C65.8321 50.336 64.2321 53.252 62.9361 56.32L46.9801 33.236L74.3681 39.492C73.1841 40.656 72.0721 41.892 71.0041 43.16C70.9161 43.264 70.8361 43.376 70.7481 43.48C69.7841 44.648 68.8721 45.856 68.0121 47.104C67.9041 47.26 67.8001 47.42 67.6881 47.584ZM82.5481 33C81.6201 33.604 80.7081 34.228 79.8201 34.884C79.5721 35.072 79.2921 35.236 79.0361 35.428L76.7361 7.452L97.3001 26.512C92.4041 27.78 87.8001 29.76 83.5921 32.336C83.2401 32.548 82.8921 32.776 82.5481 33ZM112.104 24.924C109.192 24.804 106.288 25.012 103.408 25.384L115.436 0L123.712 26.788C119.96 25.752 116.084 25.088 112.104 24.924ZM129.62 28.828L152.684 12.884L146.42 40.228C141.564 35.264 135.868 31.428 129.62 28.828ZM150.548 44.932L178.468 42.632L159.436 63.144C157.756 56.576 154.744 50.404 150.548 44.932ZM94.2041 52.808C83.7841 52.808 74.1401 56.976 67.0401 63.856C71.6081 47.844 85.0121 35.124 101.852 32.008C105.112 31.4 108.48 31.16 111.848 31.3C123.768 31.788 134.784 36.888 142.868 45.668C150.22 53.656 154.292 63.82 154.592 74.572C148.908 68.26 140.784 64.212 131.752 64.212C128.924 64.212 126.064 64.608 123.26 65.4L123.004 65.468L122.82 65.276C115.456 57.348 105.024 52.808 94.2041 52.808Z" fill="#FFCE00"/>
<path fill-rule="evenodd" clip-rule="evenodd" d="M137.92 180.916C132.628 191.132 120.552 184.448 125.632 174.588C129.944 166.208 140.304 161.14 140.304 161.14C140.304 161.14 142.104 172.804 137.92 180.916Z" fill="#009EFF"/>
<path fill-rule="evenodd" clip-rule="evenodd" d="M90.5239 174.98L81.4999 172.768L88.0999 166.224C88.6119 165.704 88.6239 164.864 88.0999 164.344L87.9079 164.156C87.3959 163.628 86.5479 163.628 86.0279 164.144L79.4159 170.696L77.2159 161.656C77.0439 160.944 76.3159 160.504 75.5959 160.68L75.3399 160.744C74.6279 160.912 74.1759 161.652 74.3519 162.356L76.6159 171.58L67.3879 169.328C66.6799 169.156 65.9479 169.588 65.7679 170.308L65.7119 170.564C65.5239 171.288 65.9799 172.008 66.6919 172.176L75.7079 174.38L69.1199 180.916C68.5999 181.44 68.5999 182.284 69.1079 182.808L69.2999 182.996C69.8239 183.52 70.6599 183.52 71.1839 183.008L77.7879 176.44L80.0079 185.496C80.1799 186.208 80.9079 186.652 81.6159 186.472L81.8719 186.416C82.5959 186.236 83.0439 185.516 82.8599 184.804L80.6079 175.58L89.8279 177.828C90.5359 178.008 91.2639 177.56 91.4359 176.852L91.5039 176.596C91.6799 175.884 91.2319 175.152 90.5239 174.98Z" fill="#38C0E0"/>
</g>
<defs>
<clipPath id="clip0_183_202">
<rect width="220" height="188" fill="white"/>
</clipPath>
</defs>
</svg>
