<svg width="220" height="220" viewBox="0 0 220 220" fill="none" xmlns="http://www.w3.org/2000/svg">
<g clip-path="url(#clip0_183_270)">
<path fill-rule="evenodd" clip-rule="evenodd" d="M160.12 98.816L156.52 97.16L156.228 93.204C155.284 80.472 144.532 70.496 131.744 70.496C129.488 70.496 127.204 70.816 124.952 71.448L121.004 72.552L118.216 69.552C112.036 62.904 103.284 59.092 94.1999 59.092C78.6479 59.092 65.1279 70.176 62.0679 85.452L61.3519 89.028L57.9559 90.38C46.4959 94.92 38.7959 106.236 38.7959 118.54C38.7959 135.244 52.3959 148.844 69.1039 148.844H149.216C163.652 148.844 175.396 137.084 175.396 122.628C175.396 112.432 169.404 103.088 160.12 98.816Z" fill="#D5DCE2"/>
<path fill-rule="evenodd" clip-rule="evenodd" d="M58.9961 75.036C58.0561 76.996 57.2641 79.044 56.6561 81.176L34.0801 70.484L60.8801 62.208C59.8241 65.94 59.1481 69.816 58.9841 73.804C58.9681 74.22 59.0001 74.624 58.9961 75.036ZM160.368 83.944C160.692 81.992 160.9 80.02 160.984 78.012C161.112 75.08 160.944 72.184 160.576 69.328L185.916 81.324L161.82 88.784C161.468 87.112 160.98 85.504 160.368 83.944ZM67.6881 47.584C65.8321 50.336 64.2321 53.252 62.9361 56.32L46.9801 33.236L74.3681 39.492C73.1841 40.656 72.0721 41.892 71.0041 43.16C70.9161 43.264 70.8361 43.376 70.7481 43.48C69.7841 44.648 68.8721 45.856 68.0121 47.104C67.9041 47.26 67.8001 47.42 67.6881 47.584ZM82.5481 33C81.6201 33.604 80.7081 34.228 79.8201 34.884C79.5721 35.072 79.2921 35.236 79.0361 35.428L76.7361 7.452L97.3001 26.512C92.4041 27.78 87.8001 29.76 83.5921 32.336C83.2401 32.548 82.8921 32.776 82.5481 33ZM112.104 24.924C109.192 24.804 106.288 25.012 103.408 25.384L115.436 0L123.712 26.788C119.96 25.752 116.084 25.088 112.104 24.924ZM129.62 28.828L152.684 12.884L146.42 40.228C141.564 35.264 135.868 31.428 129.62 28.828ZM150.548 44.932L178.468 42.632L159.436 63.144C157.756 56.576 154.744 50.404 150.548 44.932ZM94.2041 52.808C83.7841 52.808 74.1401 56.976 67.0401 63.856C71.6081 47.844 85.0121 35.124 101.852 32.008C105.112 31.4 108.48 31.16 111.848 31.3C123.768 31.788 134.784 36.888 142.868 45.668C150.22 53.656 154.292 63.82 154.592 74.572C148.908 68.26 140.784 64.212 131.752 64.212C128.924 64.212 126.064 64.608 123.26 65.4L123.004 65.468L122.82 65.276C115.456 57.348 105.024 52.808 94.2041 52.808Z" fill="#FFCE00"/>
<path fill-rule="evenodd" clip-rule="evenodd" d="M72.0679 180.916C66.7759 191.132 54.6999 184.448 59.7799 174.588C64.0919 166.208 74.4519 161.14 74.4519 161.14C74.4519 161.14 76.2559 172.804 72.0679 180.916ZM125.224 211.352C119.932 221.568 107.856 214.884 112.936 205.024C117.248 196.644 127.608 191.576 127.608 191.576C127.608 191.576 129.408 203.236 125.224 211.352ZM84.5199 211.352C79.2279 221.568 67.1519 214.884 72.2319 205.024C76.5439 196.644 86.9039 191.576 86.9039 191.576C86.9039 191.576 88.7039 203.236 84.5199 211.352ZM43.8119 211.352C38.5199 221.568 26.4439 214.884 31.5239 205.024C35.8359 196.644 46.1959 191.576 46.1959 191.576C46.1959 191.576 47.9999 203.236 43.8119 211.352ZM153.48 180.916C148.188 191.132 136.112 184.448 141.192 174.588C145.504 166.208 155.864 161.14 155.864 161.14C155.864 161.14 157.664 172.804 153.48 180.916ZM112.772 180.916C107.48 191.132 95.4039 184.448 100.484 174.588C104.796 166.208 115.156 161.14 115.156 161.14C115.156 161.14 116.956 172.804 112.772 180.916Z" fill="#009EFF"/>
</g>
<defs>
<clipPath id="clip0_183_270">
<rect width="220" height="220" fill="white"/>
</clipPath>
</defs>
</svg>
