<svg width="220" height="220" viewBox="0 0 220 220" fill="none" xmlns="http://www.w3.org/2000/svg">
<g clip-path="url(#clip0_183_295)">
<path fill-rule="evenodd" clip-rule="evenodd" d="M160.12 98.816L156.52 97.16L156.228 93.204C155.284 80.472 144.532 70.496 131.744 70.496C129.488 70.496 127.204 70.816 124.952 71.448L121.004 72.552L118.216 69.552C112.036 62.904 103.284 59.092 94.1999 59.092C78.6479 59.092 65.1279 70.176 62.0679 85.452L61.3519 89.028L57.9559 90.38C46.4959 94.92 38.7959 106.236 38.7959 118.54C38.7959 135.244 52.3959 148.844 69.1039 148.844H149.216C163.652 148.844 175.396 137.084 175.396 122.628C175.396 112.432 169.404 103.088 160.12 98.816Z" fill="#D5DCE2"/>
<path fill-rule="evenodd" clip-rule="evenodd" d="M58.9961 75.036C58.0561 76.996 57.2641 79.044 56.6561 81.176L34.0801 70.484L60.8801 62.208C59.8241 65.94 59.1481 69.816 58.9841 73.804C58.9681 74.22 59.0001 74.624 58.9961 75.036ZM160.368 83.944C160.692 81.992 160.9 80.02 160.984 78.012C161.112 75.08 160.944 72.184 160.576 69.328L185.916 81.324L161.82 88.784C161.468 87.112 160.98 85.504 160.368 83.944ZM67.6881 47.584C65.8321 50.336 64.2321 53.252 62.9361 56.32L46.9801 33.236L74.3681 39.492C73.1841 40.656 72.0721 41.892 71.0041 43.16C70.9161 43.264 70.8361 43.376 70.7481 43.48C69.7841 44.648 68.8721 45.856 68.0121 47.104C67.9041 47.26 67.8001 47.42 67.6881 47.584ZM82.5481 33C81.6201 33.604 80.7081 34.228 79.8201 34.884C79.5721 35.072 79.2921 35.236 79.0361 35.428L76.7361 7.452L97.3001 26.512C92.4041 27.78 87.8001 29.76 83.5921 32.336C83.2401 32.548 82.8921 32.776 82.5481 33ZM112.104 24.924C109.192 24.804 106.288 25.012 103.408 25.384L115.436 0L123.712 26.788C119.96 25.752 116.084 25.088 112.104 24.924ZM129.62 28.828L152.684 12.884L146.42 40.228C141.564 35.264 135.868 31.428 129.62 28.828ZM150.548 44.932L178.468 42.632L159.436 63.144C157.756 56.576 154.744 50.404 150.548 44.932ZM94.2041 52.808C83.7841 52.808 74.1401 56.976 67.0401 63.856C71.6081 47.844 85.0121 35.124 101.852 32.008C105.112 31.4 108.48 31.16 111.848 31.3C123.768 31.788 134.784 36.888 142.868 45.668C150.22 53.656 154.292 63.82 154.592 74.572C148.908 68.26 140.784 64.212 131.752 64.212C128.924 64.212 126.064 64.608 123.26 65.4L123.004 65.468L122.82 65.276C115.456 57.348 105.024 52.808 94.2041 52.808Z" fill="#FFCE00"/>
<path fill-rule="evenodd" clip-rule="evenodd" d="M120.148 173.86L108.888 173.688L118.12 157.54L103.868 157.66L91.776 181.752H102.304L87.52 218.268L120.148 173.86Z" fill="#FF7800"/>
<path fill-rule="evenodd" clip-rule="evenodd" d="M73.8762 211.352C68.5842 221.568 56.5082 214.884 61.5882 205.024C65.9002 196.644 76.2602 191.576 76.2602 191.576C76.2602 191.576 78.0602 203.236 73.8762 211.352ZM126.588 211.352C121.296 221.568 109.22 214.884 114.3 205.024C118.612 196.644 128.972 191.576 128.972 191.576C128.972 191.576 130.772 203.236 126.588 211.352ZM152.672 180.916C147.38 191.132 135.304 184.448 140.384 174.588C144.696 166.208 155.056 161.14 155.056 161.14C155.056 161.14 156.856 172.804 152.672 180.916ZM158.144 211.352C152.852 221.568 140.776 214.884 145.856 205.024C150.168 196.644 160.528 191.576 160.528 191.576C160.528 191.576 162.328 203.236 158.144 211.352ZM42.4482 211.352C37.1562 221.568 25.0802 214.884 30.1602 205.024C34.4722 196.644 44.8322 191.576 44.8322 191.576C44.8322 191.576 46.6322 203.236 42.4482 211.352ZM71.0442 180.916C65.7522 191.132 53.6762 184.448 58.7562 174.588C63.0682 166.208 73.4282 161.14 73.4282 161.14C73.4282 161.14 75.2282 172.804 71.0442 180.916Z" fill="#009EFF"/>
</g>
<defs>
<clipPath id="clip0_183_295">
<rect width="220" height="220" fill="white"/>
</clipPath>
</defs>
</svg>
