<svg width="220" height="220" viewBox="0 0 220 220" fill="none" xmlns="http://www.w3.org/2000/svg">
<g clip-path="url(#clip0_183_350)">
<path fill-rule="evenodd" clip-rule="evenodd" d="M160.12 98.816L156.52 97.16L156.228 93.204C155.284 80.472 144.532 70.496 131.744 70.496C129.488 70.496 127.204 70.816 124.952 71.448L121.004 72.552L118.216 69.552C112.036 62.904 103.284 59.092 94.1999 59.092C78.6479 59.092 65.1279 70.176 62.0679 85.452L61.3519 89.028L57.9559 90.38C46.4959 94.92 38.7959 106.236 38.7959 118.54C38.7959 135.244 52.3959 148.844 69.1039 148.844H149.216C163.652 148.844 175.396 137.084 175.396 122.628C175.396 112.432 169.404 103.088 160.12 98.816Z" fill="#D5DCE2"/>
<path fill-rule="evenodd" clip-rule="evenodd" d="M58.9961 75.036C58.0561 76.996 57.2641 79.044 56.6561 81.176L34.0801 70.484L60.8801 62.208C59.8241 65.94 59.1481 69.816 58.9841 73.804C58.9681 74.22 59.0001 74.624 58.9961 75.036ZM160.368 83.944C160.692 81.992 160.9 80.02 160.984 78.012C161.112 75.08 160.944 72.184 160.576 69.328L185.916 81.324L161.82 88.784C161.468 87.112 160.98 85.504 160.368 83.944ZM67.6881 47.584C65.8321 50.336 64.2321 53.252 62.9361 56.32L46.9801 33.236L74.3681 39.492C73.1841 40.656 72.0721 41.892 71.0041 43.16C70.9161 43.264 70.8361 43.376 70.7481 43.48C69.7841 44.648 68.8721 45.856 68.0121 47.104C67.9041 47.26 67.8001 47.42 67.6881 47.584ZM82.5481 33C81.6201 33.604 80.7081 34.228 79.8201 34.884C79.5721 35.072 79.2921 35.236 79.0361 35.428L76.7361 7.452L97.3001 26.512C92.4041 27.78 87.8001 29.76 83.5921 32.336C83.2401 32.548 82.8921 32.776 82.5481 33ZM112.104 24.924C109.192 24.804 106.288 25.012 103.408 25.384L115.436 0L123.712 26.788C119.96 25.752 116.084 25.088 112.104 24.924ZM129.62 28.828L152.684 12.884L146.42 40.228C141.564 35.264 135.868 31.428 129.62 28.828ZM150.548 44.932L178.468 42.632L159.436 63.144C157.756 56.576 154.744 50.404 150.548 44.932ZM94.2041 52.808C83.7841 52.808 74.1401 56.976 67.0401 63.856C71.6081 47.844 85.0121 35.124 101.852 32.008C105.112 31.4 108.48 31.16 111.848 31.3C123.768 31.788 134.784 36.888 142.868 45.668C150.22 53.656 154.292 63.82 154.592 74.572C148.908 68.26 140.784 64.212 131.752 64.212C128.924 64.212 126.064 64.608 123.26 65.4L123.004 65.468L122.82 65.276C115.456 57.348 105.024 52.808 94.2041 52.808Z" fill="#FFCE00"/>
<path fill-rule="evenodd" clip-rule="evenodd" d="M78.304 174.98C79.012 175.152 79.464 175.884 79.284 176.596L79.216 176.852C79.044 177.56 78.316 178.008 77.608 177.828L68.388 175.58L70.64 184.804C70.824 185.516 70.376 186.236 69.652 186.416L69.396 186.472C68.688 186.652 67.96 186.208 67.788 185.496L65.568 176.44L58.964 183.008C58.44 183.52 57.604 183.52 57.08 182.996L56.888 182.808C56.38 182.284 56.38 181.44 56.9 180.916L63.488 174.38L54.472 172.176C53.76 172.008 53.304 171.288 53.492 170.564L53.548 170.308C53.728 169.588 54.46 169.156 55.168 169.328L64.396 171.58L62.132 162.356C61.956 161.652 62.408 160.912 63.12 160.744L63.376 160.68C64.096 160.504 64.824 160.944 64.996 161.656L67.196 170.696L73.808 164.144C74.328 163.628 75.176 163.628 75.688 164.156L75.88 164.344C76.404 164.864 76.392 165.704 75.88 166.224L69.28 172.768L78.304 174.98ZM141.44 206.408C142.148 206.58 142.6 207.312 142.416 208.024L142.348 208.28C142.176 208.988 141.448 209.436 140.74 209.256L131.52 207.008L133.772 216.232C133.956 216.944 133.508 217.664 132.784 217.844L132.528 217.9C131.82 218.08 131.092 217.636 130.92 216.924L128.7 207.868L122.096 214.436C121.572 214.948 120.736 214.948 120.212 214.424L120.02 214.236C119.512 213.712 119.512 212.868 120.032 212.344L126.62 205.808L117.604 203.604C116.892 203.436 116.436 202.716 116.624 201.992L116.68 201.736C116.86 201.016 117.592 200.584 118.3 200.756L127.528 203.008L125.264 193.784C125.092 193.08 125.544 192.34 126.256 192.172L126.512 192.108C127.232 191.932 127.96 192.372 128.132 193.084L130.332 202.124L136.944 195.572C137.464 195.056 138.312 195.056 138.824 195.584L139.016 195.772C139.54 196.292 139.528 197.132 139.016 197.652L132.416 204.196L141.44 206.408ZM101.328 206.408C102.036 206.58 102.488 207.312 102.304 208.024L102.236 208.28C102.064 208.988 101.336 209.436 100.628 209.256L91.408 207.008L93.66 216.232C93.844 216.944 93.396 217.664 92.672 217.844L92.416 217.9C91.708 218.08 90.98 217.636 90.808 216.924L88.588 207.868L81.984 214.436C81.46 214.948 80.624 214.948 80.1 214.424L79.908 214.236C79.4 213.712 79.4 212.868 79.92 212.344L86.508 205.808L77.492 203.604C76.78 203.436 76.324 202.716 76.512 201.992L76.568 201.736C76.748 201.016 77.48 200.584 78.188 200.756L87.416 203.008L85.152 193.784C84.98 193.08 85.432 192.34 86.144 192.172L86.4 192.108C87.12 191.932 87.848 192.372 88.02 193.084L90.22 202.124L96.832 195.572C97.352 195.056 98.2 195.056 98.712 195.584L98.904 195.772C99.428 196.292 99.416 197.132 98.904 197.652L92.304 204.196L101.328 206.408ZM56.272 206.408C56.98 206.58 57.428 207.312 57.252 208.024L57.184 208.28C57.012 208.988 56.284 209.436 55.576 209.256L46.356 207.008L48.608 216.232C48.788 216.944 48.34 217.664 47.616 217.844L47.36 217.9C46.652 218.08 45.924 217.636 45.752 216.924L43.532 207.868L36.928 214.436C36.404 214.948 35.568 214.948 35.044 214.424L34.852 214.236C34.344 213.712 34.344 212.868 34.864 212.344L41.452 205.808L32.436 203.604C31.724 203.436 31.268 202.716 31.456 201.992L31.512 201.736C31.692 201.016 32.424 200.584 33.132 200.756L42.36 203.008L40.096 193.784C39.924 193.08 40.376 192.34 41.088 192.172L41.344 192.108C42.064 191.932 42.792 192.372 42.964 193.084L45.164 202.124L51.776 195.572C52.296 195.056 53.144 195.056 53.656 195.584L53.848 195.772C54.372 196.292 54.36 197.132 53.848 197.652L47.248 204.196L56.272 206.408ZM163.476 174.98C164.184 175.152 164.632 175.884 164.452 176.596L164.384 176.852C164.212 177.56 163.484 178.008 162.776 177.828L153.556 175.58L155.808 184.804C155.992 185.516 155.544 186.236 154.82 186.416L154.564 186.472C153.856 186.652 153.128 186.208 152.956 185.496L150.736 176.44L144.132 183.008C143.608 183.52 142.772 183.52 142.248 182.996L142.056 182.808C141.548 182.284 141.548 181.44 142.068 180.916L148.656 174.38L139.64 172.176C138.928 172.008 138.472 171.288 138.66 170.564L138.716 170.308C138.896 169.588 139.628 169.156 140.336 169.328L149.564 171.58L147.3 162.356C147.128 161.652 147.58 160.912 148.292 160.744L148.548 160.68C149.268 160.504 149.996 160.944 150.168 161.656L152.368 170.696L158.98 164.144C159.5 163.628 160.348 163.628 160.86 164.156L161.052 164.344C161.576 164.864 161.564 165.704 161.052 166.224L154.452 172.768L163.476 174.98ZM120.892 174.98C121.596 175.152 122.048 175.884 121.868 176.596L121.8 176.852C121.628 177.56 120.9 178.008 120.192 177.828L110.972 175.58L113.224 184.804C113.408 185.516 112.96 186.236 112.236 186.416L111.98 186.472C111.272 186.652 110.544 186.208 110.372 185.496L108.152 176.44L101.548 183.008C101.024 183.52 100.188 183.52 99.664 182.996L99.472 182.808C98.964 182.284 98.964 181.44 99.484 180.916L106.072 174.38L97.056 172.176C96.344 172.008 95.888 171.288 96.076 170.564L96.132 170.308C96.312 169.588 97.044 169.156 97.752 169.328L106.98 171.58L104.716 162.356C104.544 161.652 104.996 160.912 105.708 160.744L105.964 160.68C106.684 160.504 107.412 160.944 107.584 161.656L109.784 170.696L116.396 164.144C116.916 163.628 117.764 163.628 118.276 164.156L118.468 164.344C118.992 164.864 118.98 165.704 118.468 166.224L111.868 172.768L120.892 174.98Z" fill="#38C0E0"/>
</g>
<defs>
<clipPath id="clip0_183_350">
<rect width="220" height="220" fill="white"/>
</clipPath>
</defs>
</svg>
