<svg width="220" height="188" viewBox="0 0 220 188" fill="none" xmlns="http://www.w3.org/2000/svg">
<g clip-path="url(#clip0_183_342)">
<path fill-rule="evenodd" clip-rule="evenodd" d="M160.12 98.816L156.52 97.16L156.228 93.204C155.284 80.472 144.532 70.496 131.744 70.496C129.488 70.496 127.204 70.816 124.952 71.448L121.004 72.552L118.216 69.552C112.036 62.904 103.284 59.092 94.1999 59.092C78.6479 59.092 65.1279 70.176 62.0679 85.452L61.3519 89.028L57.9559 90.38C46.4959 94.92 38.7959 106.236 38.7959 118.54C38.7959 135.244 52.3959 148.844 69.1039 148.844H149.216C163.652 148.844 175.396 137.084 175.396 122.628C175.396 112.432 169.404 103.088 160.12 98.816Z" fill="#D5DCE2"/>
<path fill-rule="evenodd" clip-rule="evenodd" d="M58.9961 75.036C58.0561 76.996 57.2641 79.044 56.6561 81.176L34.0801 70.484L60.8801 62.208C59.8241 65.94 59.1481 69.816 58.9841 73.804C58.9681 74.22 59.0001 74.624 58.9961 75.036ZM160.368 83.944C160.692 81.992 160.9 80.02 160.984 78.012C161.112 75.08 160.944 72.184 160.576 69.328L185.916 81.324L161.82 88.784C161.468 87.112 160.98 85.504 160.368 83.944ZM67.6881 47.584C65.8321 50.336 64.2321 53.252 62.9361 56.32L46.9801 33.236L74.3681 39.492C73.1841 40.656 72.0721 41.892 71.0041 43.16C70.9161 43.264 70.8361 43.376 70.7481 43.48C69.7841 44.648 68.8721 45.856 68.0121 47.104C67.9041 47.26 67.8001 47.42 67.6881 47.584ZM82.5481 33C81.6201 33.604 80.7081 34.228 79.8201 34.884C79.5721 35.072 79.2921 35.236 79.0361 35.428L76.7361 7.452L97.3001 26.512C92.4041 27.78 87.8001 29.76 83.5921 32.336C83.2401 32.548 82.8921 32.776 82.5481 33ZM112.104 24.924C109.192 24.804 106.288 25.012 103.408 25.384L115.436 0L123.712 26.788C119.96 25.752 116.084 25.088 112.104 24.924ZM129.62 28.828L152.684 12.884L146.42 40.228C141.564 35.264 135.868 31.428 129.62 28.828ZM150.548 44.932L178.468 42.632L159.436 63.144C157.756 56.576 154.744 50.404 150.548 44.932ZM94.2041 52.808C83.7841 52.808 74.1401 56.976 67.0401 63.856C71.6081 47.844 85.0121 35.124 101.852 32.008C105.112 31.4 108.48 31.16 111.848 31.3C123.768 31.788 134.784 36.888 142.868 45.668C150.22 53.656 154.292 63.82 154.592 74.572C148.908 68.26 140.784 64.212 131.752 64.212C128.924 64.212 126.064 64.608 123.26 65.4L123.004 65.468L122.82 65.276C115.456 57.348 105.024 52.808 94.2041 52.808Z" fill="#FFCE00"/>
<path fill-rule="evenodd" clip-rule="evenodd" d="M90.5562 174.98C91.2642 175.152 91.7122 175.884 91.5322 176.596L91.4642 176.852C91.2922 177.56 90.5642 178.008 89.8562 177.828L80.6362 175.58L82.8882 184.804C83.0722 185.516 82.6242 186.236 81.9002 186.416L81.6442 186.472C80.9362 186.652 80.2082 186.208 80.0362 185.496L77.8162 176.44L71.2122 183.008C70.6882 183.52 69.8522 183.52 69.3282 182.996L69.1362 182.808C68.6282 182.284 68.6282 181.44 69.1482 180.916L75.7362 174.38L66.7202 172.176C66.0082 172.008 65.5522 171.288 65.7402 170.564L65.7962 170.308C65.9762 169.588 66.7082 169.156 67.4162 169.328L76.6442 171.58L74.3802 162.356C74.2082 161.652 74.6602 160.912 75.3722 160.744L75.6282 160.68C76.3482 160.504 77.0762 160.944 77.2482 161.656L79.4482 170.696L86.0602 164.144C86.5802 163.628 87.4282 163.628 87.9402 164.156L88.1322 164.344C88.6562 164.864 88.6442 165.704 88.1322 166.224L81.5322 172.768L90.5562 174.98ZM152.108 174.98C152.812 175.152 153.264 175.884 153.088 176.596L153.02 176.852C152.848 177.56 152.12 178.008 151.412 177.828L142.192 175.58L144.444 184.804C144.624 185.516 144.176 186.236 143.452 186.416L143.196 186.472C142.488 186.652 141.76 186.208 141.588 185.496L139.368 176.44L132.764 183.008C132.24 183.52 131.404 183.52 130.88 182.996L130.688 182.808C130.18 182.284 130.18 181.44 130.7 180.916L137.288 174.38L128.272 172.176C127.56 172.008 127.104 171.288 127.292 170.564L127.348 170.308C127.528 169.588 128.26 169.156 128.968 169.328L138.196 171.58L135.932 162.356C135.76 161.652 136.212 160.912 136.924 160.744L137.18 160.68C137.9 160.504 138.628 160.944 138.8 161.656L141 170.696L147.612 164.144C148.132 163.628 148.98 163.628 149.492 164.156L149.684 164.344C150.208 164.864 150.196 165.704 149.684 166.224L143.084 172.768L152.108 174.98Z" fill="#38C0E0"/>
</g>
<defs>
<clipPath id="clip0_183_342">
<rect width="220" height="188" fill="white"/>
</clipPath>
</defs>
</svg>
