<svg width="220" height="220" viewBox="0 0 220 220" fill="none" xmlns="http://www.w3.org/2000/svg">
<g clip-path="url(#clip0_183_323)">
<path fill-rule="evenodd" clip-rule="evenodd" d="M160.12 98.816L156.52 97.16L156.228 93.204C155.284 80.472 144.532 70.496 131.744 70.496C129.488 70.496 127.204 70.816 124.952 71.448L121.004 72.552L118.216 69.552C112.036 62.904 103.284 59.092 94.1999 59.092C78.6479 59.092 65.1279 70.176 62.0679 85.452L61.3519 89.028L57.9559 90.38C46.4959 94.92 38.7959 106.236 38.7959 118.54C38.7959 135.244 52.3959 148.844 69.1039 148.844H149.216C163.652 148.844 175.396 137.084 175.396 122.628C175.396 112.432 169.404 103.088 160.12 98.816Z" fill="#D5DCE2"/>
<path fill-rule="evenodd" clip-rule="evenodd" d="M58.9961 75.036C58.0561 76.996 57.2641 79.044 56.6561 81.176L34.0801 70.484L60.8801 62.208C59.8241 65.94 59.1481 69.816 58.9841 73.804C58.9681 74.22 59.0001 74.624 58.9961 75.036ZM160.368 83.944C160.692 81.992 160.9 80.02 160.984 78.012C161.112 75.08 160.944 72.184 160.576 69.328L185.916 81.324L161.82 88.784C161.468 87.112 160.98 85.504 160.368 83.944ZM67.6881 47.584C65.8321 50.336 64.2321 53.252 62.9361 56.32L46.9801 33.236L74.3681 39.492C73.1841 40.656 72.0721 41.892 71.0041 43.16C70.9161 43.264 70.8361 43.376 70.7481 43.48C69.7841 44.648 68.8721 45.856 68.0121 47.104C67.9041 47.26 67.8001 47.42 67.6881 47.584ZM82.5481 33C81.6201 33.604 80.7081 34.228 79.8201 34.884C79.5721 35.072 79.2921 35.236 79.0361 35.428L76.7361 7.452L97.3001 26.512C92.4041 27.78 87.8001 29.76 83.5921 32.336C83.2401 32.548 82.8921 32.776 82.5481 33ZM112.104 24.924C109.192 24.804 106.288 25.012 103.408 25.384L115.436 0L123.712 26.788C119.96 25.752 116.084 25.088 112.104 24.924ZM129.62 28.828L152.684 12.884L146.42 40.228C141.564 35.264 135.868 31.428 129.62 28.828ZM150.548 44.932L178.468 42.632L159.436 63.144C157.756 56.576 154.744 50.404 150.548 44.932ZM94.2041 52.808C83.7841 52.808 74.1401 56.976 67.0401 63.856C71.6081 47.844 85.0121 35.124 101.852 32.008C105.112 31.4 108.48 31.16 111.848 31.3C123.768 31.788 134.784 36.888 142.868 45.668C150.22 53.656 154.292 63.82 154.592 74.572C148.908 68.26 140.784 64.212 131.752 64.212C128.924 64.212 126.064 64.608 123.26 65.4L123.004 65.468L122.82 65.276C115.456 57.348 105.024 52.808 94.2041 52.808Z" fill="#FFCE00"/>
<path fill-rule="evenodd" clip-rule="evenodd" d="M120.148 173.86L108.888 173.688L118.12 157.54L103.868 157.66L91.776 181.752H102.304L87.52 218.268L120.148 173.86Z" fill="#FF7800"/>
<path fill-rule="evenodd" clip-rule="evenodd" d="M73.8442 180.916C68.5522 191.132 56.4762 184.448 61.5562 174.588C65.8682 166.208 76.2282 161.14 76.2282 161.14C76.2282 161.14 78.0282 172.804 73.8442 180.916ZM139.724 212.344C134.432 222.56 122.356 215.876 127.436 206.016C131.748 197.636 142.108 192.568 142.108 192.568C142.108 192.568 143.908 204.232 139.724 212.344Z" fill="#009EFF"/>
<path fill-rule="evenodd" clip-rule="evenodd" d="M76.3042 206.408C77.0122 206.58 77.4642 207.312 77.2842 208.024L77.2162 208.28C77.0442 208.988 76.3162 209.436 75.6082 209.256L66.3882 207.008L68.6402 216.232C68.8242 216.944 68.3762 217.664 67.6522 217.844L67.3962 217.9C66.6882 218.08 65.9602 217.636 65.7882 216.924L63.5682 207.868L56.9642 214.436C56.4402 214.948 55.6042 214.948 55.0802 214.424L54.8882 214.236C54.3802 213.712 54.3802 212.868 54.9002 212.344L61.4882 205.808L52.4722 203.604C51.7602 203.436 51.3042 202.716 51.4922 201.992L51.5482 201.736C51.7282 201.016 52.4602 200.584 53.1682 200.756L62.3962 203.008L60.1322 193.784C59.9562 193.08 60.4082 192.34 61.1202 192.172L61.3762 192.108C62.0962 191.932 62.8242 192.372 62.9962 193.084L65.1962 202.124L71.8082 195.572C72.3282 195.056 73.1762 195.056 73.6882 195.584L73.8802 195.772C74.4042 196.292 74.3922 197.132 73.8802 197.652L67.2802 204.196L76.3042 206.408ZM157.24 174.98C157.948 175.152 158.396 175.884 158.22 176.596L158.152 176.852C157.98 177.56 157.252 178.008 156.544 177.828L147.324 175.58L149.576 184.804C149.756 185.516 149.308 186.236 148.584 186.416L148.328 186.472C147.62 186.652 146.892 186.208 146.72 185.496L144.5 176.44L137.896 183.008C137.372 183.52 136.536 183.52 136.012 182.996L135.82 182.808C135.312 182.284 135.312 181.44 135.832 180.916L142.42 174.38L133.404 172.176C132.692 172.008 132.236 171.288 132.424 170.564L132.48 170.308C132.66 169.588 133.392 169.156 134.1 169.328L143.328 171.58L141.064 162.356C140.892 161.652 141.344 160.912 142.056 160.744L142.312 160.68C143.032 160.504 143.76 160.944 143.932 161.656L146.132 170.696L152.744 164.144C153.264 163.628 154.112 163.628 154.624 164.156L154.816 164.344C155.34 164.864 155.328 165.704 154.816 166.224L148.216 172.768L157.24 174.98Z" fill="#38C0E0"/>
</g>
<defs>
<clipPath id="clip0_183_323">
<rect width="220" height="220" fill="white"/>
</clipPath>
</defs>
</svg>
