<svg width="220" height="220" viewBox="0 0 220 220" fill="none" xmlns="http://www.w3.org/2000/svg">
<g clip-path="url(#clip0_183_229)">
<path fill-rule="evenodd" clip-rule="evenodd" d="M160.12 98.816L156.52 97.16L156.228 93.204C155.284 80.472 144.532 70.496 131.744 70.496C129.488 70.496 127.204 70.816 124.952 71.448L121.004 72.552L118.216 69.552C112.036 62.904 103.284 59.092 94.1999 59.092C78.6479 59.092 65.1279 70.176 62.0679 85.452L61.3519 89.028L57.9559 90.38C46.4959 94.92 38.7959 106.236 38.7959 118.54C38.7959 135.244 52.3959 148.844 69.1039 148.844H149.216C163.652 148.844 175.396 137.084 175.396 122.628C175.396 112.432 169.404 103.088 160.12 98.816Z" fill="#D5DCE2"/>
<path fill-rule="evenodd" clip-rule="evenodd" d="M58.9961 75.036C58.0561 76.996 57.2641 79.044 56.6561 81.176L34.0801 70.484L60.8801 62.208C59.8241 65.94 59.1481 69.816 58.9841 73.804C58.9681 74.22 59.0001 74.624 58.9961 75.036ZM160.368 83.944C160.692 81.992 160.9 80.02 160.984 78.012C161.112 75.08 160.944 72.184 160.576 69.328L185.916 81.324L161.82 88.784C161.468 87.112 160.98 85.504 160.368 83.944ZM67.6881 47.584C65.8321 50.336 64.2321 53.252 62.9361 56.32L46.9801 33.236L74.3681 39.492C73.1841 40.656 72.0721 41.892 71.0041 43.16C70.9161 43.264 70.8361 43.376 70.7481 43.48C69.7841 44.648 68.8721 45.856 68.0121 47.104C67.9041 47.26 67.8001 47.42 67.6881 47.584ZM82.5481 33C81.6201 33.604 80.7081 34.228 79.8201 34.884C79.5721 35.072 79.2921 35.236 79.0361 35.428L76.7361 7.452L97.3001 26.512C92.4041 27.78 87.8001 29.76 83.5921 32.336C83.2401 32.548 82.8921 32.776 82.5481 33ZM112.104 24.924C109.192 24.804 106.288 25.012 103.408 25.384L115.436 0L123.712 26.788C119.96 25.752 116.084 25.088 112.104 24.924ZM129.62 28.828L152.684 12.884L146.42 40.228C141.564 35.264 135.868 31.428 129.62 28.828ZM150.548 44.932L178.468 42.632L159.436 63.144C157.756 56.576 154.744 50.404 150.548 44.932ZM94.2041 52.808C83.7841 52.808 74.1401 56.976 67.0401 63.856C71.6081 47.844 85.0121 35.124 101.852 32.008C105.112 31.4 108.48 31.16 111.848 31.3C123.768 31.788 134.784 36.888 142.868 45.668C150.22 53.656 154.292 63.82 154.592 74.572C148.908 68.26 140.784 64.212 131.752 64.212C128.924 64.212 126.064 64.608 123.26 65.4L123.004 65.468L122.82 65.276C115.456 57.348 105.024 52.808 94.2041 52.808Z" fill="#FFCE00"/>
<path fill-rule="evenodd" clip-rule="evenodd" d="M119.492 173.86L108.232 173.688L117.464 157.54L103.212 157.66L91.1198 181.752H101.648L86.8638 218.268L119.492 173.86Z" fill="#FF7800"/>
<path fill-rule="evenodd" clip-rule="evenodd" d="M139.38 206.408C140.088 206.58 140.54 207.312 140.356 208.028L140.288 208.284C140.116 208.992 139.388 209.44 138.68 209.26L129.46 207.012L131.712 216.236C131.896 216.948 131.448 217.668 130.724 217.848L130.468 217.904C129.76 218.084 129.032 217.64 128.86 216.928L126.64 207.872L120.036 214.44C119.512 214.952 118.676 214.952 118.152 214.428L117.96 214.24C117.452 213.716 117.452 212.872 117.972 212.348L124.56 205.812L115.544 203.608C114.832 203.44 114.376 202.72 114.564 201.996L114.62 201.74C114.8 201.02 115.532 200.588 116.24 200.76L125.468 203.008L123.204 193.784C123.032 193.08 123.484 192.34 124.196 192.172L124.452 192.108C125.172 191.932 125.9 192.372 126.072 193.084L128.272 202.124L134.884 195.572C135.404 195.056 136.252 195.056 136.764 195.584L136.956 195.772C137.48 196.292 137.468 197.132 136.956 197.652L130.356 204.196L139.38 206.408ZM160.024 174.98C160.732 175.152 161.18 175.884 161.004 176.596L160.936 176.852C160.764 177.56 160.036 178.008 159.328 177.828L150.108 175.58L152.36 184.804C152.54 185.516 152.092 186.236 151.368 186.416L151.112 186.472C150.404 186.652 149.676 186.208 149.504 185.496L147.284 176.44L140.68 183.008C140.156 183.52 139.32 183.52 138.796 182.996L138.604 182.808C138.096 182.284 138.096 181.44 138.616 180.916L145.204 174.38L136.188 172.176C135.476 172.008 135.02 171.288 135.208 170.564L135.264 170.308C135.444 169.588 136.176 169.156 136.884 169.328L146.112 171.58L143.848 162.356C143.676 161.652 144.128 160.912 144.84 160.744L145.096 160.68C145.816 160.504 146.544 160.944 146.716 161.656L148.916 170.696L155.528 164.144C156.048 163.628 156.896 163.628 157.408 164.156L157.6 164.344C158.124 164.864 158.112 165.704 157.6 166.224L151 172.768L160.024 174.98ZM76.0278 206.408C76.7358 206.58 77.1838 207.312 77.0078 208.024L76.9398 208.28C76.7678 208.988 76.0398 209.436 75.3318 209.256L66.1118 207.008L68.3638 216.232C68.5478 216.944 68.0998 217.664 67.3758 217.844L67.1198 217.9C66.4118 218.08 65.6838 217.636 65.5118 216.924L63.2918 207.868L56.6878 214.436C56.1638 214.948 55.3278 214.948 54.8038 214.424L54.6118 214.236C54.1038 213.712 54.1038 212.868 54.6238 212.344L61.2118 205.808L52.1958 203.604C51.4838 203.436 51.0278 202.716 51.2158 201.992L51.2718 201.736C51.4518 201.016 52.1838 200.584 52.8918 200.756L62.1198 203.008L59.8558 193.784C59.6798 193.08 60.1318 192.34 60.8438 192.172L61.0998 192.108C61.8198 191.932 62.5478 192.372 62.7198 193.084L64.9198 202.124L71.5318 195.572C72.0518 195.056 72.8998 195.056 73.4118 195.584L73.6038 195.772C74.1278 196.292 74.1158 197.132 73.6038 197.652L67.0038 204.196L76.0278 206.408ZM76.5998 174.98C77.3038 175.152 77.7558 175.884 77.5798 176.596L77.5118 176.852C77.3398 177.56 76.6118 178.008 75.9038 177.828L66.6838 175.58L68.9358 184.804C69.1198 185.516 68.6718 186.236 67.9478 186.416L67.6918 186.472C66.9838 186.652 66.2558 186.208 66.0838 185.496L63.8638 176.44L57.2598 183.008C56.7358 183.52 55.8998 183.52 55.3758 182.996L55.1838 182.808C54.6758 182.284 54.6758 181.44 55.1958 180.916L61.7838 174.38L52.7678 172.176C52.0558 172.008 51.5998 171.288 51.7878 170.564L51.8438 170.308C52.0238 169.588 52.7558 169.156 53.4638 169.328L62.6918 171.58L60.4278 162.356C60.2518 161.652 60.7038 160.912 61.4158 160.744L61.6718 160.68C62.3918 160.504 63.1198 160.944 63.2918 161.656L65.4918 170.696L72.1038 164.144C72.6238 163.628 73.4718 163.628 73.9838 164.156L74.1758 164.344C74.6998 164.864 74.6878 165.704 74.1758 166.224L67.5758 172.768L76.5998 174.98Z" fill="#38C0E0"/>
</g>
<defs>
<clipPath id="clip0_183_229">
<rect width="220" height="220" fill="white"/>
</clipPath>
</defs>
</svg>
