<svg width="220" height="220" viewBox="0 0 220 220" fill="none" xmlns="http://www.w3.org/2000/svg">
<g clip-path="url(#clip0_183_313)">
<path fill-rule="evenodd" clip-rule="evenodd" d="M160.12 98.816L156.52 97.16L156.228 93.204C155.284 80.472 144.532 70.496 131.744 70.496C129.488 70.496 127.204 70.816 124.952 71.448L121.004 72.552L118.216 69.552C112.036 62.904 103.284 59.092 94.1999 59.092C78.6479 59.092 65.1279 70.176 62.0679 85.452L61.3519 89.028L57.9559 90.38C46.4959 94.92 38.7959 106.236 38.7959 118.54C38.7959 135.244 52.3959 148.844 69.1039 148.844H149.216C163.652 148.844 175.396 137.084 175.396 122.628C175.396 112.432 169.404 103.088 160.12 98.816Z" fill="#D5DCE2"/>
<path fill-rule="evenodd" clip-rule="evenodd" d="M58.9961 75.036C58.0561 76.996 57.2641 79.044 56.6561 81.176L34.0801 70.484L60.8801 62.208C59.8241 65.94 59.1481 69.816 58.9841 73.804C58.9681 74.22 59.0001 74.624 58.9961 75.036ZM160.368 83.944C160.692 81.992 160.9 80.02 160.984 78.012C161.112 75.08 160.944 72.184 160.576 69.328L185.916 81.324L161.82 88.784C161.468 87.112 160.98 85.504 160.368 83.944ZM67.6881 47.584C65.8321 50.336 64.2321 53.252 62.9361 56.32L46.9801 33.236L74.3681 39.492C73.1841 40.656 72.0721 41.892 71.0041 43.16C70.9161 43.264 70.8361 43.376 70.7481 43.48C69.7841 44.648 68.8721 45.856 68.0121 47.104C67.9041 47.26 67.8001 47.42 67.6881 47.584ZM82.5481 33C81.6201 33.604 80.7081 34.228 79.8201 34.884C79.5721 35.072 79.2921 35.236 79.0361 35.428L76.7361 7.452L97.3001 26.512C92.4041 27.78 87.8001 29.76 83.5921 32.336C83.2401 32.548 82.8921 32.776 82.5481 33ZM112.104 24.924C109.192 24.804 106.288 25.012 103.408 25.384L115.436 0L123.712 26.788C119.96 25.752 116.084 25.088 112.104 24.924ZM129.62 28.828L152.684 12.884L146.42 40.228C141.564 35.264 135.868 31.428 129.62 28.828ZM150.548 44.932L178.468 42.632L159.436 63.144C157.756 56.576 154.744 50.404 150.548 44.932ZM94.2041 52.808C83.7841 52.808 74.1401 56.976 67.0401 63.856C71.6081 47.844 85.0121 35.124 101.852 32.008C105.112 31.4 108.48 31.16 111.848 31.3C123.768 31.788 134.784 36.888 142.868 45.668C150.22 53.656 154.292 63.82 154.592 74.572C148.908 68.26 140.784 64.212 131.752 64.212C128.924 64.212 126.064 64.608 123.26 65.4L123.004 65.468L122.82 65.276C115.456 57.348 105.024 52.808 94.2041 52.808Z" fill="#FFCE00"/>
<path fill-rule="evenodd" clip-rule="evenodd" d="M64.4198 180.916C59.1278 191.132 47.0519 184.448 52.1319 174.588C56.4439 166.208 66.8039 161.14 66.8039 161.14C66.8039 161.14 68.6038 172.804 64.4198 180.916ZM72.5559 212.16C67.2639 222.376 55.1878 215.692 60.2678 205.832C64.5798 197.452 74.9399 192.384 74.9399 192.384C74.9399 192.384 76.7399 204.044 72.5559 212.16ZM156.524 180.916C151.232 191.132 139.156 184.448 144.236 174.588C148.548 166.208 158.908 161.14 158.908 161.14C158.908 161.14 160.708 172.804 156.524 180.916Z" fill="#009EFF"/>
<path fill-rule="evenodd" clip-rule="evenodd" d="M120.148 173.86L108.888 173.688L118.12 157.54L103.868 157.66L91.776 181.752H102.304L87.52 218.268L120.148 173.86Z" fill="#FF7800"/>
<path fill-rule="evenodd" clip-rule="evenodd" d="M44.9878 206.22C45.6958 206.392 46.1478 207.128 45.9678 207.836L45.8999 208.092C45.7279 208.8 44.9998 209.248 44.2918 209.068L35.0718 206.82L37.3239 216.044C37.5039 216.756 37.0559 217.476 36.3319 217.656L36.0758 217.712C35.3678 217.892 34.6398 217.448 34.4678 216.736L32.2479 207.68L25.6439 214.248C25.1199 214.76 24.2838 214.76 23.7598 214.236L23.5678 214.048C23.0598 213.524 23.0598 212.68 23.5798 212.156L30.1678 205.62L21.1518 203.416C20.4398 203.248 19.9839 202.528 20.1719 201.804L20.2278 201.548C20.4078 200.828 21.1398 200.396 21.8478 200.568L31.0758 202.82L28.8118 193.596C28.6398 192.892 29.0919 192.152 29.8039 191.984L30.0599 191.92C30.7799 191.744 31.5078 192.184 31.6798 192.896L33.8799 201.936L40.4918 195.384C41.0118 194.868 41.8599 194.868 42.3719 195.396L42.5638 195.584C43.0878 196.104 43.0758 196.944 42.5638 197.464L35.9639 204.008L44.9878 206.22ZM140.196 206.22C140.904 206.392 141.352 207.128 141.172 207.836L141.104 208.092C140.932 208.8 140.204 209.248 139.496 209.068L130.276 206.82L132.528 216.044C132.712 216.756 132.264 217.476 131.54 217.656L131.284 217.712C130.576 217.892 129.848 217.448 129.676 216.736L127.456 207.68L120.852 214.248C120.328 214.76 119.492 214.76 118.968 214.236L118.776 214.048C118.268 213.524 118.268 212.68 118.788 212.156L125.376 205.62L116.36 203.416C115.648 203.248 115.192 202.528 115.38 201.804L115.436 201.548C115.616 200.828 116.348 200.396 117.056 200.568L126.284 202.82L124.02 193.596C123.848 192.892 124.3 192.152 125.012 191.984L125.268 191.92C125.988 191.744 126.716 192.184 126.888 192.896L129.088 201.936L135.7 195.384C136.22 194.868 137.068 194.868 137.58 195.396L137.772 195.584C138.296 196.104 138.284 196.944 137.772 197.464L131.172 204.008L140.196 206.22ZM174.212 206.22C174.92 206.392 175.372 207.128 175.184 207.848L175.116 208.104C174.944 208.812 174.216 209.26 173.508 209.08L164.288 206.832L166.54 216.056C166.724 216.768 166.276 217.488 165.552 217.668L165.296 217.724C164.588 217.904 163.86 217.46 163.688 216.748L161.468 207.692L154.864 214.26C154.34 214.772 153.504 214.772 152.98 214.248L152.788 214.06C152.28 213.536 152.28 212.692 152.8 212.168L159.392 205.62L150.376 203.416C149.664 203.248 149.208 202.528 149.396 201.804L149.452 201.548C149.632 200.828 150.364 200.396 151.072 200.568L160.3 202.82L158.036 193.596C157.864 192.892 158.316 192.152 159.028 191.984L159.284 191.92C160.004 191.744 160.732 192.184 160.904 192.896L163.104 201.936L169.716 195.384C170.236 194.868 171.084 194.868 171.596 195.396L171.788 195.584C172.312 196.104 172.3 196.944 171.788 197.464L165.188 204.008L174.212 206.22Z" fill="#38C0E0"/>
</g>
<defs>
<clipPath id="clip0_183_313">
<rect width="220" height="220" fill="white"/>
</clipPath>
</defs>
</svg>
