<svg width="220" height="221" viewBox="0 0 220 221" fill="none" xmlns="http://www.w3.org/2000/svg">
<g clip-path="url(#clip0_183_478)">
<path fill-rule="evenodd" clip-rule="evenodd" d="M111.364 36.8587C111.272 36.7623 111.168 36.6819 111.08 36.5814C111.436 36.3966 111.816 36.2037 112.152 36.0229C115.584 34.5241 119.228 33.4272 123.036 32.8285C126.396 32.294 129.848 32.1373 133.288 32.3744C145.468 33.1981 156.604 38.7513 164.636 48.0011C172.656 57.2469 176.62 69.0684 175.772 81.3078C175.668 82.9352 175.44 84.5304 175.164 86.1136C175.144 86.0533 175.112 86.001 175.096 85.9488C172.584 78.2419 167.212 71.857 160.208 68.1282C160.156 68.096 160.108 68.0599 160.052 68.0277C159.288 67.6259 158.464 67.3326 157.664 66.995C156.884 66.6615 156.124 66.2999 155.316 66.0307C154.616 65.8057 153.88 65.669 153.164 65.4882C152.208 65.2512 151.256 65.002 150.268 64.8614C150.068 64.8333 149.892 64.765 149.692 64.7368C149.876 60.6704 148.292 56.371 148.272 56.3187C145.536 49.0097 140.332 43.0829 133.212 39.1772C128.96 36.8466 124.388 35.6693 119.62 35.6693C116.864 35.6693 114.076 36.0872 111.396 36.8908L111.364 36.8587ZM105.936 31.8882C103.772 30.1644 101.496 28.6937 99.1359 27.4401L98.0039 6.89109L118.528 27.0543C114.072 28.083 109.88 29.7827 105.936 31.8882ZM133.728 25.8288C130.752 25.6239 127.772 25.7605 124.812 26.0618L137.82 0.30127L145.556 28.0669C141.748 26.8976 137.796 26.102 133.728 25.8288ZM151.548 30.3251L175.592 14.5658L168.432 42.5083C163.596 37.2726 157.872 33.166 151.548 30.3251ZM172.524 47.4587L201.16 45.8634L181.124 66.4285C179.58 59.6297 176.668 53.2006 172.524 47.4587ZM182.112 72.8174L207.724 85.8524L180.04 93.6517C181.228 89.8344 182.02 85.8604 182.296 81.7578C182.5 78.7482 182.404 75.7627 182.112 72.8174Z" fill="#FFCE00"/>
<path fill-rule="evenodd" clip-rule="evenodd" d="M46.6358 119.079C46.6358 123 47.2638 126.782 48.4078 130.33C43.5638 129.458 39.6598 128.381 39.6598 128.381C25.4398 123.386 15.4638 109.242 16.8638 92.9846C17.9998 79.7729 27.1478 68.6023 39.4198 63.7082L42.1478 62.6192L42.9598 58.5689C47.0918 37.823 68.2078 23.9 89.8918 30.309C96.3958 32.2297 102.144 36.1716 106.764 41.1581L109.368 43.9749C109.368 43.9749 109.548 44.0793 109.824 44.2521C116.112 41.2264 123.552 41.0778 130.204 44.7263C136.404 48.1297 140.348 53.0921 142.392 58.5448C142.612 59.1355 143.556 62.5389 143.392 64.6806C141.38 64.8453 139.364 65.1386 137.38 65.6972L137.124 65.7695L136.94 65.5686C129.576 57.6126 119.144 53.0519 108.324 53.0519C89.7758 53.0519 73.6718 66.316 70.0278 84.6027L69.9878 84.8358L69.7638 84.9242C55.9278 90.4291 46.6358 104.155 46.6358 119.079ZM174.244 99.2651C183.524 103.556 189.516 112.943 189.52 123.189C189.52 137.711 177.776 149.524 163.34 149.524H83.2278C66.5198 149.524 52.9198 135.863 52.9198 119.083C52.9198 106.723 60.6198 95.3554 72.0798 90.7947L75.4798 89.4366L76.1918 85.8443C79.2518 70.4989 92.7718 59.3645 108.324 59.3645C117.408 59.3645 126.16 63.1938 132.34 69.8721L135.128 72.8857L139.076 71.7767C141.328 71.1458 143.612 70.8203 145.868 70.8203C158.656 70.8203 169.408 80.8377 170.352 93.6356L170.644 97.6015L174.244 99.2651Z" fill="#D5DCE2"/>
<path fill-rule="evenodd" clip-rule="evenodd" d="M161.868 175.775C162.576 175.948 163.028 176.683 162.844 177.399L162.776 177.656C162.604 178.367 161.876 178.817 161.168 178.636L151.948 176.378L154.2 185.644C154.384 186.359 153.936 187.082 153.212 187.263L152.956 187.32C152.248 187.5 151.52 187.054 151.348 186.339L149.128 177.242L142.524 183.84C142 184.354 141.164 184.354 140.64 183.828L140.448 183.639C139.94 183.113 139.94 182.265 140.46 181.738L147.048 175.173L138.032 172.959C137.32 172.79 136.864 172.067 137.052 171.339L137.108 171.082C137.288 170.359 138.02 169.925 138.728 170.098L147.956 172.36L145.692 163.094C145.52 162.387 145.972 161.643 146.684 161.475L146.94 161.41C147.66 161.233 148.388 161.676 148.56 162.391L150.76 171.472L157.372 164.89C157.892 164.372 158.74 164.372 159.252 164.902L159.444 165.091C159.968 165.613 159.956 166.457 159.444 166.98L152.844 173.553L161.868 175.775ZM86.0518 175.775C86.7598 175.948 87.2078 176.683 87.0318 177.399L86.9638 177.656C86.7918 178.367 86.0638 178.817 85.3558 178.636L76.1358 176.378L78.3878 185.644C78.5678 186.359 78.1198 187.082 77.3958 187.263L77.1398 187.32C76.4318 187.5 75.7038 187.054 75.5318 186.339L73.3118 177.242L66.7078 183.84C66.1838 184.354 65.3478 184.354 64.8238 183.828L64.6318 183.639C64.1238 183.113 64.1238 182.265 64.6438 181.738L71.2318 175.173L62.2158 172.959C61.5038 172.79 61.0478 172.067 61.2358 171.339L61.2918 171.082C61.4718 170.359 62.2038 169.925 62.9118 170.098L72.1398 172.36L69.8758 163.094C69.7038 162.387 70.1558 161.643 70.8678 161.475L71.1238 161.41C71.8438 161.233 72.5718 161.676 72.7438 162.391L74.9438 171.472L81.5558 164.89C82.0758 164.372 82.9238 164.372 83.4358 164.902L83.6278 165.091C84.1518 165.613 84.1398 166.457 83.6278 166.98L77.0278 173.553L86.0518 175.775Z" fill="#38C0E0"/>
<path fill-rule="evenodd" clip-rule="evenodd" d="M124.148 174.65L112.888 174.478L122.12 158.256L107.868 158.377L95.776 182.578H106.304L91.52 219.26L124.148 174.65Z" fill="#FF7800"/>
</g>
<defs>
<clipPath id="clip0_183_478">
<rect width="220" height="221" fill="white"/>
</clipPath>
</defs>
</svg>
