<svg width="220" height="221" viewBox="0 0 220 221" fill="none" xmlns="http://www.w3.org/2000/svg">
<g clip-path="url(#clip0_183_540)">
<path fill-rule="evenodd" clip-rule="evenodd" d="M111.364 36.8587C111.272 36.7623 111.168 36.6819 111.08 36.5814C111.436 36.3966 111.816 36.2037 112.152 36.0229C115.584 34.5241 119.228 33.4272 123.036 32.8285C126.396 32.294 129.848 32.1373 133.288 32.3744C145.468 33.1981 156.604 38.7513 164.636 48.0011C172.656 57.2469 176.62 69.0684 175.772 81.3078C175.668 82.9352 175.44 84.5304 175.164 86.1136C175.144 86.0533 175.112 86.001 175.096 85.9488C172.584 78.2419 167.212 71.857 160.208 68.1282C160.156 68.096 160.108 68.0599 160.052 68.0277C159.288 67.6259 158.464 67.3326 157.664 66.995C156.884 66.6615 156.124 66.2999 155.316 66.0307C154.616 65.8057 153.88 65.669 153.164 65.4882C152.208 65.2512 151.256 65.002 150.268 64.8614C150.068 64.8333 149.892 64.765 149.692 64.7368C149.876 60.6704 148.292 56.371 148.272 56.3187C145.536 49.0097 140.332 43.0829 133.212 39.1772C128.96 36.8466 124.388 35.6693 119.62 35.6693C116.864 35.6693 114.076 36.0872 111.396 36.8908L111.364 36.8587ZM105.936 31.8882C103.772 30.1644 101.496 28.6937 99.1359 27.4401L98.0039 6.89109L118.528 27.0543C114.072 28.083 109.88 29.7827 105.936 31.8882ZM133.728 25.8288C130.752 25.6239 127.772 25.7605 124.812 26.0618L137.82 0.30127L145.556 28.0669C141.748 26.8976 137.796 26.102 133.728 25.8288ZM151.548 30.3251L175.592 14.5658L168.432 42.5083C163.596 37.2726 157.872 33.166 151.548 30.3251ZM172.524 47.4587L201.16 45.8634L181.124 66.4285C179.58 59.6297 176.668 53.2006 172.524 47.4587ZM182.112 72.8174L207.724 85.8524L180.04 93.6517C181.228 89.8344 182.02 85.8604 182.296 81.7578C182.5 78.7482 182.404 75.7627 182.112 72.8174Z" fill="#FFCE00"/>
<path fill-rule="evenodd" clip-rule="evenodd" d="M46.6358 119.079C46.6358 123 47.2638 126.782 48.4078 130.33C43.5638 129.458 39.6598 128.381 39.6598 128.381C25.4398 123.386 15.4638 109.242 16.8638 92.9846C17.9998 79.7729 27.1478 68.6023 39.4198 63.7082L42.1478 62.6192L42.9598 58.5689C47.0918 37.823 68.2078 23.9 89.8918 30.309C96.3958 32.2297 102.144 36.1716 106.764 41.1581L109.368 43.9749C109.368 43.9749 109.548 44.0793 109.824 44.2521C116.112 41.2264 123.552 41.0778 130.204 44.7263C136.404 48.1297 140.348 53.0921 142.392 58.5448C142.612 59.1355 143.556 62.5389 143.392 64.6806C141.38 64.8453 139.364 65.1386 137.38 65.6972L137.124 65.7695L136.94 65.5686C129.576 57.6126 119.144 53.0519 108.324 53.0519C89.7758 53.0519 73.6718 66.316 70.0278 84.6027L69.9878 84.8358L69.7638 84.9242C55.9278 90.4291 46.6358 104.155 46.6358 119.079ZM174.244 99.2651C183.524 103.556 189.516 112.943 189.52 123.189C189.52 137.711 177.776 149.524 163.34 149.524H83.2278C66.5198 149.524 52.9198 135.863 52.9198 119.083C52.9198 106.723 60.6198 95.3554 72.0798 90.7947L75.4798 89.4366L76.1918 85.8443C79.2518 70.4989 92.7718 59.3645 108.324 59.3645C117.408 59.3645 126.16 63.1938 132.34 69.8721L135.128 72.8857L139.076 71.7767C141.328 71.1458 143.612 70.8203 145.868 70.8203C158.656 70.8203 169.408 80.8377 170.352 93.6356L170.644 97.6015L174.244 99.2651Z" fill="#D5DCE2"/>
<path fill-rule="evenodd" clip-rule="evenodd" d="M86.304 175.775C87.012 175.948 87.464 176.683 87.284 177.399L87.216 177.656C87.044 178.367 86.316 178.817 85.608 178.636L76.388 176.378L78.64 185.644C78.824 186.359 78.376 187.082 77.652 187.263L77.396 187.32C76.688 187.5 75.96 187.054 75.788 186.339L73.568 177.242L66.964 183.84C66.44 184.354 65.604 184.354 65.08 183.828L64.888 183.639C64.38 183.113 64.38 182.265 64.9 181.738L71.488 175.173L62.472 172.959C61.76 172.79 61.304 172.067 61.492 171.339L61.548 171.082C61.728 170.359 62.46 169.925 63.168 170.098L72.396 172.36L70.132 163.094C69.956 162.387 70.408 161.643 71.12 161.475L71.376 161.41C72.096 161.233 72.824 161.676 72.996 162.391L75.196 171.472L81.808 164.89C82.328 164.372 83.176 164.372 83.688 164.902L83.88 165.091C84.404 165.613 84.392 166.457 83.88 166.98L77.28 173.553L86.304 175.775ZM149.44 207.346C150.148 207.519 150.6 208.254 150.416 208.97L150.348 209.227C150.176 209.938 149.448 210.388 148.74 210.207L139.52 207.949L141.772 217.215C141.956 217.93 141.508 218.653 140.784 218.834L140.528 218.89C139.82 219.071 139.092 218.625 138.92 217.91L136.7 208.813L130.096 215.411C129.572 215.925 128.736 215.925 128.212 215.399L128.02 215.21C127.512 214.683 127.512 213.836 128.032 213.309L134.62 206.743L125.604 204.529C124.892 204.361 124.436 203.637 124.624 202.91L124.68 202.653C124.86 201.93 125.592 201.496 126.3 201.668L135.528 203.931L133.264 194.665C133.092 193.958 133.544 193.214 134.256 193.045L134.512 192.981C135.232 192.804 135.96 193.246 136.132 193.962L138.332 203.043L144.944 196.461C145.464 195.943 146.312 195.943 146.824 196.473L147.016 196.662C147.54 197.184 147.528 198.028 147.016 198.55L140.416 205.124L149.44 207.346ZM109.328 207.346C110.036 207.519 110.488 208.254 110.304 208.97L110.236 209.227C110.064 209.938 109.336 210.388 108.628 210.207L99.408 207.949L101.66 217.215C101.844 217.93 101.396 218.653 100.672 218.834L100.416 218.89C99.708 219.071 98.98 218.625 98.808 217.91L96.588 208.813L89.984 215.411C89.46 215.925 88.624 215.925 88.1 215.399L87.908 215.21C87.4 214.683 87.4 213.836 87.92 213.309L94.508 206.743L85.492 204.529C84.78 204.361 84.324 203.637 84.512 202.91L84.568 202.653C84.748 201.93 85.48 201.496 86.188 201.668L95.416 203.931L93.152 194.665C92.98 193.958 93.432 193.214 94.144 193.045L94.4 192.981C95.12 192.804 95.848 193.246 96.02 193.962L98.22 203.043L104.832 196.461C105.352 195.943 106.2 195.943 106.712 196.473L106.904 196.662C107.428 197.184 107.416 198.028 106.904 198.55L100.304 205.124L109.328 207.346ZM64.272 207.346C64.98 207.519 65.428 208.254 65.252 208.97L65.184 209.227C65.012 209.938 64.284 210.388 63.576 210.207L54.356 207.949L56.608 217.215C56.788 217.93 56.34 218.653 55.616 218.834L55.36 218.89C54.652 219.071 53.924 218.625 53.752 217.91L51.532 208.813L44.928 215.411C44.404 215.925 43.568 215.925 43.044 215.399L42.852 215.21C42.344 214.683 42.344 213.836 42.864 213.309L49.452 206.743L40.436 204.529C39.724 204.361 39.268 203.637 39.456 202.91L39.512 202.653C39.692 201.93 40.424 201.496 41.132 201.668L50.36 203.931L48.096 194.665C47.924 193.958 48.376 193.214 49.088 193.045L49.344 192.981C50.064 192.804 50.792 193.246 50.964 193.962L53.164 203.043L59.776 196.461C60.296 195.943 61.144 195.943 61.656 196.473L61.848 196.662C62.372 197.184 62.36 198.028 61.848 198.55L55.248 205.124L64.272 207.346ZM171.476 175.775C172.184 175.948 172.632 176.683 172.452 177.399L172.384 177.656C172.212 178.367 171.484 178.817 170.776 178.636L161.556 176.378L163.808 185.644C163.992 186.359 163.544 187.082 162.82 187.263L162.564 187.32C161.856 187.5 161.128 187.054 160.956 186.339L158.736 177.242L152.132 183.84C151.608 184.354 150.772 184.354 150.248 183.828L150.056 183.639C149.548 183.113 149.548 182.265 150.068 181.738L156.656 175.173L147.64 172.959C146.928 172.79 146.472 172.067 146.66 171.339L146.716 171.082C146.896 170.359 147.628 169.925 148.336 170.098L157.564 172.36L155.3 163.094C155.128 162.387 155.58 161.643 156.292 161.475L156.548 161.41C157.268 161.233 157.996 161.676 158.168 162.391L160.368 171.472L166.98 164.89C167.5 164.372 168.348 164.372 168.86 164.902L169.052 165.091C169.576 165.613 169.564 166.457 169.052 166.98L162.452 173.553L171.476 175.775ZM128.892 175.775C129.596 175.948 130.048 176.683 129.868 177.399L129.8 177.656C129.628 178.367 128.9 178.817 128.192 178.636L118.972 176.378L121.224 185.644C121.408 186.359 120.96 187.082 120.236 187.263L119.98 187.32C119.272 187.5 118.544 187.054 118.372 186.339L116.152 177.242L109.548 183.84C109.024 184.354 108.188 184.354 107.664 183.828L107.472 183.639C106.964 183.113 106.964 182.265 107.484 181.738L114.072 175.173L105.056 172.959C104.344 172.79 103.888 172.067 104.076 171.339L104.132 171.082C104.312 170.359 105.044 169.925 105.752 170.098L114.98 172.36L112.716 163.094C112.544 162.387 112.996 161.643 113.708 161.475L113.964 161.41C114.684 161.233 115.412 161.676 115.584 162.391L117.784 171.472L124.396 164.89C124.916 164.372 125.764 164.372 126.276 164.902L126.468 165.091C126.992 165.613 126.98 166.457 126.468 166.98L119.868 173.553L128.892 175.775Z" fill="#38C0E0"/>
</g>
<defs>
<clipPath id="clip0_183_540">
<rect width="220" height="221" fill="white"/>
</clipPath>
</defs>
</svg>
