<svg width="220" height="221" viewBox="0 0 220 221" fill="none" xmlns="http://www.w3.org/2000/svg">
<g clip-path="url(#clip0_183_522)">
<path fill-rule="evenodd" clip-rule="evenodd" d="M111.364 36.8587C111.272 36.7623 111.168 36.6819 111.08 36.5814C111.436 36.3966 111.816 36.2037 112.152 36.0229C115.584 34.5241 119.228 33.4272 123.036 32.8285C126.396 32.294 129.848 32.1373 133.288 32.3744C145.468 33.1981 156.604 38.7513 164.636 48.0011C172.656 57.2469 176.62 69.0684 175.772 81.3078C175.668 82.9352 175.44 84.5304 175.164 86.1136C175.144 86.0533 175.112 86.001 175.096 85.9488C172.584 78.2419 167.212 71.857 160.208 68.1282C160.156 68.096 160.108 68.0599 160.052 68.0277C159.288 67.6259 158.464 67.3326 157.664 66.995C156.884 66.6615 156.124 66.2999 155.316 66.0307C154.616 65.8057 153.88 65.669 153.164 65.4882C152.208 65.2512 151.256 65.002 150.268 64.8614C150.068 64.8333 149.892 64.765 149.692 64.7368C149.876 60.6704 148.292 56.371 148.272 56.3187C145.536 49.0097 140.332 43.0829 133.212 39.1772C128.96 36.8466 124.388 35.6693 119.62 35.6693C116.864 35.6693 114.076 36.0872 111.396 36.8908L111.364 36.8587ZM105.936 31.8882C103.772 30.1644 101.496 28.6937 99.1359 27.4401L98.0039 6.89109L118.528 27.0543C114.072 28.083 109.88 29.7827 105.936 31.8882ZM133.728 25.8288C130.752 25.6239 127.772 25.7605 124.812 26.0618L137.82 0.30127L145.556 28.0669C141.748 26.8976 137.796 26.102 133.728 25.8288ZM151.548 30.3251L175.592 14.5658L168.432 42.5083C163.596 37.2726 157.872 33.166 151.548 30.3251ZM172.524 47.4587L201.16 45.8634L181.124 66.4285C179.58 59.6297 176.668 53.2006 172.524 47.4587ZM182.112 72.8174L207.724 85.8524L180.04 93.6517C181.228 89.8344 182.02 85.8604 182.296 81.7578C182.5 78.7482 182.404 75.7627 182.112 72.8174Z" fill="#FFCE00"/>
<path fill-rule="evenodd" clip-rule="evenodd" d="M46.6358 119.079C46.6358 123 47.2638 126.782 48.4078 130.33C43.5638 129.458 39.6598 128.381 39.6598 128.381C25.4398 123.386 15.4638 109.242 16.8638 92.9846C17.9998 79.7729 27.1478 68.6023 39.4198 63.7082L42.1478 62.6192L42.9598 58.5689C47.0918 37.823 68.2078 23.9 89.8918 30.309C96.3958 32.2297 102.144 36.1716 106.764 41.1581L109.368 43.9749C109.368 43.9749 109.548 44.0793 109.824 44.2521C116.112 41.2264 123.552 41.0778 130.204 44.7263C136.404 48.1297 140.348 53.0921 142.392 58.5448C142.612 59.1355 143.556 62.5389 143.392 64.6806C141.38 64.8453 139.364 65.1386 137.38 65.6972L137.124 65.7695L136.94 65.5686C129.576 57.6126 119.144 53.0519 108.324 53.0519C89.7758 53.0519 73.6718 66.316 70.0278 84.6027L69.9878 84.8358L69.7638 84.9242C55.9278 90.4291 46.6358 104.155 46.6358 119.079ZM174.244 99.2651C183.524 103.556 189.516 112.943 189.52 123.189C189.52 137.711 177.776 149.524 163.34 149.524H83.2278C66.5198 149.524 52.9198 135.863 52.9198 119.083C52.9198 106.723 60.6198 95.3554 72.0798 90.7947L75.4798 89.4366L76.1918 85.8443C79.2518 70.4989 92.7718 59.3645 108.324 59.3645C117.408 59.3645 126.16 63.1938 132.34 69.8721L135.128 72.8857L139.076 71.7767C141.328 71.1458 143.612 70.8203 145.868 70.8203C158.656 70.8203 169.408 80.8377 170.352 93.6356L170.644 97.6015L174.244 99.2651Z" fill="#D5DCE2"/>
<path fill-rule="evenodd" clip-rule="evenodd" d="M131.492 174.65L120.232 174.478L129.464 158.256L115.212 158.377L103.12 182.578H113.648L98.8638 219.26L131.492 174.65Z" fill="#FF7800"/>
<path fill-rule="evenodd" clip-rule="evenodd" d="M151.38 207.346C152.088 207.519 152.54 208.254 152.356 208.974L152.288 209.231C152.116 209.942 151.388 210.392 150.68 210.211L141.46 207.953L143.712 217.219C143.896 217.934 143.448 218.657 142.724 218.838L142.468 218.894C141.76 219.075 141.032 218.629 140.86 217.914L138.64 208.817L132.036 215.415C131.512 215.929 130.676 215.929 130.152 215.403L129.96 215.214C129.452 214.687 129.452 213.84 129.972 213.313L136.56 206.747L127.544 204.533C126.832 204.365 126.376 203.641 126.564 202.914L126.62 202.657C126.8 201.934 127.532 201.5 128.24 201.672L137.468 203.931L135.204 194.665C135.032 193.958 135.484 193.214 136.196 193.045L136.452 192.981C137.172 192.804 137.9 193.246 138.072 193.962L140.272 203.043L146.884 196.461C147.404 195.943 148.252 195.943 148.764 196.473L148.956 196.662C149.48 197.184 149.468 198.028 148.956 198.55L142.356 205.124L151.38 207.346ZM172.024 175.775C172.732 175.948 173.18 176.683 173.004 177.399L172.936 177.656C172.764 178.367 172.036 178.817 171.328 178.636L162.108 176.378L164.36 185.644C164.54 186.359 164.092 187.082 163.368 187.263L163.112 187.32C162.404 187.5 161.676 187.054 161.504 186.339L159.284 177.242L152.68 183.84C152.156 184.354 151.32 184.354 150.796 183.828L150.604 183.639C150.096 183.113 150.096 182.265 150.616 181.738L157.204 175.173L148.188 172.959C147.476 172.79 147.02 172.067 147.208 171.339L147.264 171.082C147.444 170.359 148.176 169.925 148.884 170.098L158.112 172.36L155.848 163.094C155.676 162.387 156.128 161.643 156.84 161.475L157.096 161.41C157.816 161.233 158.544 161.676 158.716 162.391L160.916 171.472L167.528 164.89C168.048 164.372 168.896 164.372 169.408 164.902L169.6 165.091C170.124 165.613 170.112 166.457 169.6 166.98L163 173.553L172.024 175.775ZM88.0278 207.346C88.7358 207.519 89.1838 208.254 89.0078 208.97L88.9398 209.227C88.7678 209.938 88.0398 210.388 87.3318 210.207L78.1118 207.949L80.3638 217.215C80.5478 217.93 80.0998 218.653 79.3758 218.834L79.1198 218.89C78.4118 219.071 77.6838 218.625 77.5118 217.91L75.2918 208.813L68.6878 215.411C68.1638 215.925 67.3278 215.925 66.8038 215.399L66.6118 215.21C66.1038 214.683 66.1038 213.836 66.6238 213.309L73.2118 206.743L64.1958 204.529C63.4838 204.361 63.0278 203.637 63.2158 202.91L63.2718 202.653C63.4518 201.93 64.1838 201.496 64.8918 201.668L74.1198 203.931L71.8558 194.665C71.6798 193.958 72.1318 193.214 72.8438 193.045L73.0998 192.981C73.8198 192.804 74.5478 193.246 74.7198 193.962L76.9198 203.043L83.5318 196.461C84.0518 195.943 84.8998 195.943 85.4118 196.473L85.6038 196.662C86.1278 197.184 86.1158 198.028 85.6038 198.55L79.0038 205.124L88.0278 207.346ZM88.5998 175.775C89.3038 175.948 89.7558 176.683 89.5798 177.399L89.5118 177.656C89.3398 178.367 88.6118 178.817 87.9038 178.636L78.6838 176.378L80.9358 185.644C81.1198 186.359 80.6718 187.082 79.9478 187.263L79.6918 187.32C78.9838 187.5 78.2558 187.054 78.0838 186.339L75.8638 177.242L69.2598 183.84C68.7358 184.354 67.8998 184.354 67.3758 183.828L67.1838 183.639C66.6758 183.113 66.6758 182.265 67.1958 181.738L73.7838 175.173L64.7678 172.959C64.0558 172.79 63.5998 172.067 63.7878 171.339L63.8438 171.082C64.0238 170.359 64.7558 169.925 65.4638 170.098L74.6918 172.36L72.4278 163.094C72.2518 162.387 72.7038 161.643 73.4158 161.475L73.6718 161.41C74.3918 161.233 75.1198 161.676 75.2918 162.391L77.4918 171.472L84.1038 164.89C84.6238 164.372 85.4718 164.372 85.9838 164.902L86.1758 165.091C86.6998 165.613 86.6878 166.457 86.1758 166.98L79.5758 173.553L88.5998 175.775Z" fill="#38C0E0"/>
</g>
<defs>
<clipPath id="clip0_183_522">
<rect width="220" height="221" fill="white"/>
</clipPath>
</defs>
</svg>
