<svg width="221" height="220" viewBox="0 0 221 220" fill="none" xmlns="http://www.w3.org/2000/svg">
<g clip-path="url(#clip0_183_531)">
<path fill-rule="evenodd" clip-rule="evenodd" d="M111.87 36.6921C111.778 36.5961 111.674 36.516 111.585 36.416C111.943 36.232 112.324 36.0401 112.662 35.8601C116.11 34.3681 119.77 33.276 123.595 32.68C126.971 32.148 130.438 31.9921 133.894 32.2281C146.129 33.0481 157.316 38.576 165.385 47.784C173.441 56.9881 177.423 68.756 176.571 80.94C176.467 82.56 176.238 84.148 175.96 85.724C175.94 85.664 175.908 85.612 175.892 85.56C173.369 77.888 167.972 71.532 160.936 67.82C160.884 67.788 160.836 67.752 160.78 67.72C160.012 67.32 159.185 67.028 158.381 66.692C157.597 66.36 156.834 66 156.022 65.732C155.319 65.508 154.58 65.372 153.86 65.192C152.9 64.956 151.944 64.708 150.951 64.568C150.75 64.54 150.574 64.472 150.373 64.444C150.557 60.396 148.966 56.116 148.946 56.064C146.198 48.788 140.97 42.888 133.818 39C129.546 36.68 124.954 35.508 120.164 35.508C117.395 35.508 114.595 35.924 111.903 36.724L111.87 36.6921ZM106.418 31.744C104.244 30.028 101.958 28.564 99.5869 27.316L98.4497 6.86005L119.067 26.932C114.591 27.956 110.38 29.648 106.418 31.744ZM134.336 25.712C131.347 25.508 128.353 25.644 125.38 25.944L138.447 0.300049L146.218 27.9401C142.393 26.7761 138.423 25.984 134.336 25.712ZM152.237 30.188L176.39 14.5L169.198 42.3161C164.34 37.1041 158.59 33.016 152.237 30.188ZM173.308 47.244L202.075 45.656L181.948 66.128C180.397 59.36 177.471 52.96 173.308 47.244ZM182.94 72.488L208.668 85.464L180.859 93.228C182.052 89.428 182.848 85.472 183.125 81.388C183.33 78.392 183.233 75.42 182.94 72.488Z" fill="#FFCE00"/>
<path fill-rule="evenodd" clip-rule="evenodd" d="M46.8479 118.54C46.8479 122.444 47.4788 126.208 48.628 129.74C43.762 128.872 39.8402 127.8 39.8402 127.8C25.5556 122.828 15.5342 108.748 16.9406 92.564C18.0818 79.412 27.2714 68.292 39.5991 63.42L42.3395 62.336L43.1552 58.304C47.306 37.652 68.518 23.792 90.3006 30.172C96.8341 32.084 102.608 36.008 107.249 40.972L109.865 43.776C109.865 43.776 110.046 43.88 110.323 44.052C116.64 41.04 124.114 40.892 130.796 44.524C137.024 47.912 140.986 52.852 143.039 58.28C143.26 58.868 144.208 62.256 144.044 64.388C142.023 64.552 139.997 64.844 138.004 65.4L137.747 65.472L137.562 65.272C130.165 57.352 119.686 52.812 108.816 52.812C90.184 52.812 74.0068 66.016 70.3463 84.22L70.3061 84.452L70.0811 84.54C56.1822 90.02 46.8479 103.684 46.8479 118.54ZM175.036 98.816C184.358 103.088 190.377 112.432 190.381 122.632C190.381 137.088 178.584 148.848 164.082 148.848H83.6063C66.8223 148.848 53.1605 135.248 53.1605 118.544C53.1605 106.24 60.8955 94.924 72.4076 90.384L75.823 89.032L76.5383 85.456C79.6122 70.18 93.1936 59.096 108.816 59.096C117.942 59.096 126.733 62.908 132.941 69.556L135.742 72.556L139.708 71.452C141.97 70.824 144.265 70.5 146.531 70.5C159.377 70.5 170.178 80.472 171.126 93.212L171.42 97.16L175.036 98.816Z" fill="#D5DCE2"/>
<path fill-rule="evenodd" clip-rule="evenodd" d="M124.857 212.344C119.541 222.56 107.41 215.876 112.513 206.016C116.845 197.636 127.252 192.568 127.252 192.568C127.252 192.568 129.06 204.232 124.857 212.344ZM90.7225 180.916C85.4064 191.132 73.2755 184.448 78.3786 174.588C82.7102 166.208 93.1173 161.14 93.1173 161.14C93.1173 161.14 94.9255 172.804 90.7225 180.916Z" fill="#009EFF"/>
<path fill-rule="evenodd" clip-rule="evenodd" d="M158.574 174.98L149.509 172.768L156.139 166.224C156.653 165.704 156.665 164.864 156.139 164.344L155.946 164.156C155.431 163.628 154.58 163.628 154.057 164.144L147.415 170.696L145.205 161.656C145.032 160.944 144.301 160.504 143.578 160.68L143.321 160.744C142.605 160.912 142.151 161.652 142.324 162.356L144.598 171.58L135.328 169.328C134.617 169.156 133.882 169.588 133.701 170.308L133.645 170.564C133.456 171.288 133.914 172.008 134.629 172.176L143.686 174.38L137.068 180.916C136.546 181.44 136.546 182.284 137.056 182.808L137.249 182.996C137.776 183.52 138.615 183.52 139.142 183.008L145.776 176.44L148.006 185.496C148.179 186.208 148.91 186.652 149.621 186.472L149.878 186.416C150.606 186.236 151.056 185.516 150.871 184.804L148.609 175.58L157.87 177.828C158.582 178.008 159.313 177.56 159.486 176.852L159.554 176.596C159.735 175.884 159.285 175.152 158.574 174.98ZM76.7634 206.408L67.6984 204.196L74.3284 197.652C74.8427 197.132 74.8548 196.292 74.3284 195.772L74.1356 195.584C73.6212 195.056 72.7694 195.056 72.247 195.572L65.605 202.124L63.395 193.084C63.2222 192.372 62.4909 191.932 61.7676 192.108L61.5104 192.172C60.7952 192.34 60.3411 193.08 60.5139 193.784L62.7882 203.008L53.5183 200.756C52.807 200.584 52.0717 201.016 51.8909 201.736L51.8346 201.992C51.6458 202.716 52.1039 203.436 52.8191 203.604L61.8761 205.808L55.2581 212.344C54.7358 212.868 54.7358 213.712 55.2461 214.236L55.439 214.424C55.9653 214.948 56.8051 214.948 57.3315 214.436L63.9655 207.868L66.1956 216.924C66.3684 217.636 67.0997 218.08 67.8109 217.9L68.0681 217.844C68.7954 217.664 69.2454 216.944 69.0606 216.232L66.7984 207.008L76.0603 209.256C76.7715 209.436 77.5028 208.988 77.6756 208.28L77.7439 208.024C77.9247 207.312 77.4747 206.58 76.7634 206.408Z" fill="#38C0E0"/>
</g>
<defs>
<clipPath id="clip0_183_531">
<rect width="221" height="220" fill="white"/>
</clipPath>
</defs>
</svg>
