<svg width="220" height="221" viewBox="0 0 220 221" fill="none" xmlns="http://www.w3.org/2000/svg">
<g clip-path="url(#clip0_183_514)">
<path fill-rule="evenodd" clip-rule="evenodd" d="M111.364 36.8587C111.272 36.7623 111.168 36.6819 111.08 36.5814C111.436 36.3966 111.816 36.2037 112.152 36.0229C115.584 34.5241 119.228 33.4272 123.036 32.8285C126.396 32.294 129.848 32.1373 133.288 32.3744C145.468 33.1981 156.604 38.7513 164.636 48.0011C172.656 57.2469 176.62 69.0684 175.772 81.3078C175.668 82.9352 175.44 84.5304 175.164 86.1136C175.144 86.0533 175.112 86.001 175.096 85.9488C172.584 78.2419 167.212 71.857 160.208 68.1282C160.156 68.096 160.108 68.0599 160.052 68.0277C159.288 67.6259 158.464 67.3326 157.664 66.995C156.884 66.6615 156.124 66.2999 155.316 66.0307C154.616 65.8057 153.88 65.669 153.164 65.4882C152.208 65.2512 151.256 65.002 150.268 64.8614C150.068 64.8333 149.892 64.765 149.692 64.7368C149.876 60.6704 148.292 56.371 148.272 56.3187C145.536 49.0097 140.332 43.0829 133.212 39.1772C128.96 36.8466 124.388 35.6693 119.62 35.6693C116.864 35.6693 114.076 36.0872 111.396 36.8908L111.364 36.8587ZM105.936 31.8882C103.772 30.1644 101.496 28.6937 99.1359 27.4401L98.0039 6.89109L118.528 27.0543C114.072 28.083 109.88 29.7827 105.936 31.8882ZM133.728 25.8288C130.752 25.6239 127.772 25.7605 124.812 26.0618L137.82 0.30127L145.556 28.0669C141.748 26.8976 137.796 26.102 133.728 25.8288ZM151.548 30.3251L175.592 14.5658L168.432 42.5083C163.596 37.2726 157.872 33.166 151.548 30.3251ZM172.524 47.4587L201.16 45.8634L181.124 66.4285C179.58 59.6297 176.668 53.2006 172.524 47.4587ZM182.112 72.8174L207.724 85.8524L180.04 93.6517C181.228 89.8344 182.02 85.8604 182.296 81.7578C182.5 78.7482 182.404 75.7627 182.112 72.8174Z" fill="#FFCE00"/>
<path fill-rule="evenodd" clip-rule="evenodd" d="M46.6358 119.079C46.6358 123 47.2638 126.782 48.4078 130.33C43.5638 129.458 39.6598 128.381 39.6598 128.381C25.4398 123.386 15.4638 109.242 16.8638 92.9846C17.9998 79.7729 27.1478 68.6023 39.4198 63.7082L42.1478 62.6192L42.9598 58.5689C47.0918 37.823 68.2078 23.9 89.8918 30.309C96.3958 32.2297 102.144 36.1716 106.764 41.1581L109.368 43.9749C109.368 43.9749 109.548 44.0793 109.824 44.2521C116.112 41.2264 123.552 41.0778 130.204 44.7263C136.404 48.1297 140.348 53.0921 142.392 58.5448C142.612 59.1355 143.556 62.5389 143.392 64.6806C141.38 64.8453 139.364 65.1386 137.38 65.6972L137.124 65.7695L136.94 65.5686C129.576 57.6126 119.144 53.0519 108.324 53.0519C89.7758 53.0519 73.6718 66.316 70.0278 84.6027L69.9878 84.8358L69.7638 84.9242C55.9278 90.4291 46.6358 104.155 46.6358 119.079ZM174.244 99.2651C183.524 103.556 189.516 112.943 189.52 123.189C189.52 137.711 177.776 149.524 163.34 149.524H83.2278C66.5198 149.524 52.9198 135.863 52.9198 119.083C52.9198 106.723 60.6198 95.3554 72.0798 90.7947L75.4798 89.4366L76.1918 85.8443C79.2518 70.4989 92.7718 59.3645 108.324 59.3645C117.408 59.3645 126.16 63.1938 132.34 69.8721L135.128 72.8857L139.076 71.7767C141.328 71.1458 143.612 70.8203 145.868 70.8203C158.656 70.8203 169.408 80.8377 170.352 93.6356L170.644 97.6015L174.244 99.2651Z" fill="#D5DCE2"/>
<path fill-rule="evenodd" clip-rule="evenodd" d="M89.3201 175.775C90.0241 175.948 90.4761 176.683 90.3001 177.399L90.2321 177.656C90.0601 178.367 89.3321 178.817 88.6241 178.636L79.4041 176.378L81.6561 185.644C81.8401 186.359 81.3921 187.082 80.6681 187.263L80.4121 187.32C79.7041 187.5 78.9761 187.054 78.8041 186.339L76.5841 177.242L69.9801 183.84C69.4561 184.354 68.6201 184.354 68.0961 183.828L67.9041 183.639C67.3961 183.113 67.3961 182.265 67.9161 181.738L74.5041 175.173L65.4881 172.959C64.7761 172.79 64.3201 172.067 64.5081 171.339L64.5641 171.082C64.7441 170.359 65.4761 169.925 66.1841 170.098L75.4121 172.36L73.1481 163.094C72.9721 162.387 73.4241 161.643 74.1361 161.475L74.3921 161.41C75.1121 161.233 75.8401 161.676 76.0121 162.391L78.2121 171.472L84.8241 164.89C85.3441 164.372 86.1921 164.372 86.7041 164.902L86.8961 165.091C87.4201 165.613 87.4081 166.457 86.8961 166.98L80.2961 173.553L89.3201 175.775ZM66.1241 207.346C66.8321 207.519 67.2801 208.254 67.1041 208.97L67.0361 209.227C66.8641 209.938 66.1361 210.388 65.4281 210.207L56.2081 207.949L58.4601 217.215C58.6401 217.93 58.1921 218.653 57.4681 218.834L57.2121 218.89C56.5041 219.071 55.7761 218.625 55.6041 217.91L53.3841 208.813L46.7801 215.411C46.2561 215.925 45.4201 215.925 44.8961 215.399L44.7041 215.21C44.1961 214.683 44.1961 213.836 44.7161 213.309L51.3041 206.743L42.2881 204.529C41.5761 204.361 41.1201 203.637 41.3081 202.91L41.3641 202.653C41.5441 201.93 42.2761 201.496 42.9841 201.668L52.2121 203.931L49.9481 194.665C49.7761 193.958 50.2281 193.214 50.9401 193.045L51.1961 192.981C51.9161 192.804 52.6441 193.246 52.8161 193.962L55.0161 203.043L61.6281 196.461C62.1481 195.943 62.9961 195.943 63.5081 196.473L63.7001 196.662C64.2241 197.184 64.2121 198.028 63.7001 198.55L57.1001 205.124L66.1241 207.346ZM127.16 207.346C127.868 207.519 128.316 208.254 128.136 208.97L128.068 209.227C127.896 209.938 127.168 210.388 126.46 210.207L117.24 207.949L119.492 217.215C119.676 217.93 119.228 218.653 118.504 218.834L118.248 218.89C117.54 219.071 116.812 218.625 116.64 217.91L114.42 208.813L107.816 215.411C107.292 215.925 106.456 215.925 105.932 215.399L105.74 215.21C105.232 214.683 105.232 213.836 105.752 213.309L112.34 206.743L103.324 204.529C102.612 204.361 102.156 203.637 102.344 202.91L102.4 202.653C102.58 201.93 103.312 201.496 104.02 201.668L113.248 203.931L110.984 194.665C110.812 193.958 111.264 193.214 111.976 193.045L112.232 192.981C112.952 192.804 113.68 193.246 113.852 193.962L116.052 203.043L122.664 196.461C123.184 195.943 124.032 195.943 124.544 196.473L124.736 196.662C125.26 197.184 125.248 198.028 124.736 198.55L118.136 205.124L127.16 207.346ZM150.868 175.775C151.572 175.948 152.024 176.683 151.844 177.399L151.776 177.656C151.604 178.367 150.876 178.817 150.168 178.636L140.948 176.378L143.2 185.644C143.384 186.359 142.936 187.082 142.212 187.263L141.956 187.32C141.248 187.5 140.52 187.054 140.348 186.339L138.128 177.242L131.524 183.84C131 184.354 130.164 184.354 129.64 183.828L129.448 183.639C128.94 183.113 128.94 182.265 129.46 181.738L136.048 175.173L127.032 172.959C126.32 172.79 125.864 172.067 126.052 171.339L126.108 171.082C126.288 170.359 127.02 169.925 127.728 170.098L136.956 172.36L134.692 163.094C134.52 162.387 134.972 161.643 135.684 161.475L135.94 161.41C136.66 161.233 137.388 161.676 137.56 162.391L139.76 171.472L146.372 164.89C146.892 164.372 147.74 164.372 148.252 164.902L148.444 165.091C148.968 165.613 148.956 166.457 148.444 166.98L141.844 173.553L150.868 175.775Z" fill="#38C0E0"/>
</g>
<defs>
<clipPath id="clip0_183_514">
<rect width="220" height="221" fill="white"/>
</clipPath>
</defs>
</svg>
