<svg width="220" height="220" viewBox="0 0 220 220" fill="none" xmlns="http://www.w3.org/2000/svg">
<g clip-path="url(#clip0_183_467)">
<path fill-rule="evenodd" clip-rule="evenodd" d="M126.12 157.54L111.868 157.66L126.12 157.54Z" fill="#FF7700"/>
<path fill-rule="evenodd" clip-rule="evenodd" d="M111.364 36.6921C111.272 36.5961 111.168 36.516 111.08 36.416C111.436 36.232 111.816 36.0401 112.152 35.8601C115.584 34.3681 119.228 33.276 123.036 32.68C126.396 32.148 129.848 31.9921 133.288 32.2281C145.468 33.0481 156.604 38.576 164.636 47.784C172.656 56.9881 176.62 68.756 175.772 80.94C175.668 82.56 175.44 84.148 175.164 85.724C175.144 85.664 175.112 85.612 175.096 85.56C172.584 77.888 167.212 71.532 160.208 67.82C160.156 67.788 160.108 67.752 160.052 67.72C159.288 67.32 158.464 67.028 157.664 66.692C156.884 66.36 156.124 66 155.316 65.732C154.616 65.508 153.88 65.372 153.164 65.192C152.208 64.956 151.256 64.708 150.268 64.568C150.068 64.54 149.892 64.472 149.692 64.444C149.876 60.396 148.292 56.116 148.272 56.064C145.536 48.788 140.332 42.888 133.212 39C128.96 36.68 124.388 35.508 119.62 35.508C116.864 35.508 114.076 35.924 111.396 36.724L111.364 36.6921ZM105.936 31.744C103.772 30.028 101.496 28.564 99.1359 27.316L98.0039 6.86005L118.528 26.932C114.072 27.956 109.88 29.648 105.936 31.744ZM133.728 25.712C130.752 25.508 127.772 25.644 124.812 25.944L137.82 0.300049L145.556 27.9401C141.748 26.7761 137.796 25.984 133.728 25.712ZM151.548 30.188L175.592 14.5L168.432 42.3161C163.596 37.1041 157.872 33.016 151.548 30.188ZM172.524 47.244L201.16 45.656L181.124 66.128C179.58 59.36 176.668 52.96 172.524 47.244ZM182.112 72.488L207.724 85.464L180.04 93.228C181.228 89.428 182.02 85.472 182.296 81.388C182.5 78.392 182.404 75.42 182.112 72.488Z" fill="#FFCE00"/>
<path fill-rule="evenodd" clip-rule="evenodd" d="M46.6358 118.54C46.6358 122.444 47.2638 126.208 48.4078 129.74C43.5638 128.872 39.6598 127.8 39.6598 127.8C25.4398 122.828 15.4638 108.748 16.8638 92.564C17.9998 79.412 27.1478 68.292 39.4198 63.42L42.1478 62.336L42.9598 58.304C47.0918 37.652 68.2078 23.792 89.8918 30.172C96.3958 32.084 102.144 36.008 106.764 40.972L109.368 43.776C109.368 43.776 109.548 43.88 109.824 44.052C116.112 41.04 123.552 40.892 130.204 44.524C136.404 47.912 140.348 52.852 142.392 58.28C142.612 58.868 143.556 62.256 143.392 64.388C141.38 64.552 139.364 64.844 137.38 65.4L137.124 65.472L136.94 65.272C129.576 57.352 119.144 52.812 108.324 52.812C89.7758 52.812 73.6718 66.016 70.0278 84.22L69.9878 84.452L69.7638 84.54C55.9278 90.02 46.6358 103.684 46.6358 118.54ZM174.244 98.816C183.524 103.088 189.516 112.432 189.52 122.632C189.52 137.088 177.776 148.848 163.34 148.848H83.2278C66.5198 148.848 52.9198 135.248 52.9198 118.544C52.9198 106.24 60.6198 94.924 72.0798 90.384L75.4798 89.032L76.1918 85.456C79.2518 70.18 92.7718 59.096 108.324 59.096C117.408 59.096 126.16 62.908 132.34 69.556L135.128 72.556L139.076 71.452C141.328 70.824 143.612 70.5 145.868 70.5C158.656 70.5 169.408 80.472 170.352 93.212L170.644 97.16L174.244 98.816Z" fill="#D5DCE2"/>
<path fill-rule="evenodd" clip-rule="evenodd" d="M128.148 173.86L116.888 173.688L126.12 157.54L111.868 157.66L99.776 181.752H110.304L95.52 218.268L128.148 173.86Z" fill="#FF7800"/>
<path fill-rule="evenodd" clip-rule="evenodd" d="M81.8442 180.916C76.5522 191.132 64.4762 184.448 69.5562 174.588C73.8682 166.208 84.2282 161.14 84.2282 161.14C84.2282 161.14 86.0282 172.804 81.8442 180.916ZM147.724 212.344C142.432 222.56 130.356 215.876 135.436 206.016C139.748 197.636 150.108 192.568 150.108 192.568C150.108 192.568 151.908 204.232 147.724 212.344Z" fill="#009EFF"/>
<path fill-rule="evenodd" clip-rule="evenodd" d="M84.3042 206.408C85.0122 206.58 85.4642 207.312 85.2842 208.024L85.2162 208.28C85.0442 208.988 84.3162 209.436 83.6082 209.256L74.3882 207.008L76.6402 216.232C76.8242 216.944 76.3762 217.664 75.6522 217.844L75.3962 217.9C74.6882 218.08 73.9602 217.636 73.7882 216.924L71.5682 207.868L64.9642 214.436C64.4402 214.948 63.6042 214.948 63.0802 214.424L62.8882 214.236C62.3802 213.712 62.3802 212.868 62.9002 212.344L69.4882 205.808L60.4722 203.604C59.7602 203.436 59.3042 202.716 59.4922 201.992L59.5482 201.736C59.7282 201.016 60.4602 200.584 61.1682 200.756L70.3962 203.008L68.1322 193.784C67.9562 193.08 68.4082 192.34 69.1202 192.172L69.3762 192.108C70.0962 191.932 70.8242 192.372 70.9962 193.084L73.1962 202.124L79.8082 195.572C80.3282 195.056 81.1762 195.056 81.6882 195.584L81.8802 195.772C82.4042 196.292 82.3922 197.132 81.8802 197.652L75.2802 204.196L84.3042 206.408ZM165.24 174.98C165.948 175.152 166.396 175.884 166.22 176.596L166.152 176.852C165.98 177.56 165.252 178.008 164.544 177.828L155.324 175.58L157.576 184.804C157.756 185.516 157.308 186.236 156.584 186.416L156.328 186.472C155.62 186.652 154.892 186.208 154.72 185.496L152.5 176.44L145.896 183.008C145.372 183.52 144.536 183.52 144.012 182.996L143.82 182.808C143.312 182.284 143.312 181.44 143.832 180.916L150.42 174.38L141.404 172.176C140.692 172.008 140.236 171.288 140.424 170.564L140.48 170.308C140.66 169.588 141.392 169.156 142.1 169.328L151.328 171.58L149.064 162.356C148.892 161.652 149.344 160.912 150.056 160.744L150.312 160.68C151.032 160.504 151.76 160.944 151.932 161.656L154.132 170.696L160.744 164.144C161.264 163.628 162.112 163.628 162.624 164.156L162.816 164.344C163.34 164.864 163.328 165.704 162.816 166.224L156.216 172.768L165.24 174.98Z" fill="#38C0E0"/>
</g>
<defs>
<clipPath id="clip0_183_467">
<rect width="220" height="220" fill="white"/>
</clipPath>
</defs>
</svg>
