<svg width="221" height="221" viewBox="0 0 221 221" fill="none" xmlns="http://www.w3.org/2000/svg">
<g clip-path="url(#clip0_183_557)">
<path fill-rule="evenodd" clip-rule="evenodd" d="M111.87 36.8587C111.778 36.7623 111.674 36.6819 111.585 36.5814C111.943 36.3966 112.324 36.2037 112.662 36.0229C116.11 34.5241 119.77 33.4272 123.595 32.8285C126.971 32.294 130.438 32.1373 133.894 32.3744C146.129 33.1981 157.316 38.7513 165.385 48.0011C173.441 57.2469 177.423 69.0684 176.571 81.3078C176.467 82.9352 176.238 84.5304 175.96 86.1136C175.94 86.0533 175.908 86.001 175.892 85.9488C173.369 78.2419 167.972 71.857 160.936 68.1282C160.884 68.096 160.836 68.0599 160.78 68.0277C160.012 67.6259 159.185 67.3326 158.381 66.995C157.597 66.6615 156.834 66.2999 156.022 66.0307C155.319 65.8057 154.58 65.669 153.86 65.4882C152.9 65.2512 151.944 65.002 150.951 64.8614C150.75 64.8333 150.574 64.765 150.373 64.7368C150.557 60.6704 148.966 56.371 148.946 56.3187C146.198 49.0097 140.97 43.0829 133.818 39.1772C129.546 36.8466 124.954 35.6693 120.164 35.6693C117.395 35.6693 114.595 36.0872 111.903 36.8908L111.87 36.8587ZM106.418 31.8882C104.244 30.1644 101.958 28.6937 99.5869 27.4401L98.4497 6.89109L119.067 27.0543C114.591 28.083 110.38 29.7827 106.418 31.8882ZM134.336 25.8288C131.347 25.6239 128.353 25.7605 125.38 26.0618L138.447 0.30127L146.218 28.0669C142.393 26.8976 138.423 26.102 134.336 25.8288ZM152.237 30.3251L176.39 14.5658L169.198 42.5083C164.34 37.2726 158.59 33.166 152.237 30.3251ZM173.308 47.4587L202.075 45.8634L181.948 66.4285C180.397 59.6297 177.471 53.2006 173.308 47.4587ZM182.94 72.8174L208.668 85.8524L180.859 93.6517C182.052 89.8344 182.848 85.8604 183.125 81.7578C183.33 78.7482 183.233 75.7627 182.94 72.8174Z" fill="#FFCE00"/>
<path fill-rule="evenodd" clip-rule="evenodd" d="M46.8479 119.079C46.8479 123 47.4788 126.782 48.628 130.33C43.762 129.458 39.8402 128.381 39.8402 128.381C25.5556 123.386 15.5342 109.242 16.9406 92.9846C18.0818 79.7729 27.2714 68.6023 39.5991 63.7082L42.3395 62.6192L43.1552 58.5689C47.306 37.823 68.518 23.9 90.3006 30.309C96.8341 32.2297 102.608 36.1716 107.249 41.1581L109.865 43.9749C109.865 43.9749 110.046 44.0793 110.323 44.2521C116.64 41.2264 124.114 41.0778 130.796 44.7263C137.024 48.1297 140.986 53.0921 143.039 58.5448C143.26 59.1355 144.208 62.5389 144.044 64.6806C142.023 64.8453 139.997 65.1386 138.004 65.6972L137.747 65.7695L137.562 65.5686C130.165 57.6126 119.686 53.0519 108.816 53.0519C90.184 53.0519 74.0068 66.316 70.3463 84.6027L70.3061 84.8358L70.0811 84.9242C56.1822 90.4291 46.8479 104.155 46.8479 119.079ZM175.036 99.2651C184.358 103.556 190.377 112.943 190.381 123.189C190.381 137.711 178.584 149.524 164.082 149.524H83.6063C66.8223 149.524 53.1605 135.863 53.1605 119.083C53.1605 106.723 60.8955 95.3554 72.4076 90.7947L75.823 89.4366L76.5383 85.8443C79.6122 70.4989 93.1936 59.3645 108.816 59.3645C117.942 59.3645 126.733 63.1938 132.941 69.8721L135.742 72.8857L139.708 71.7767C141.97 71.1458 144.265 70.8203 146.531 70.8203C159.377 70.8203 170.178 80.8377 171.126 93.6356L171.42 97.6015L175.036 99.2651Z" fill="#D5DCE2"/>
<path fill-rule="evenodd" clip-rule="evenodd" d="M128.73 174.65L117.419 174.478L126.693 158.256L112.376 158.377L100.229 182.578H110.805L95.9541 219.26L128.73 174.65Z" fill="#FF7800"/>
</g>
<defs>
<clipPath id="clip0_183_557">
<rect width="221" height="221" fill="white"/>
</clipPath>
</defs>
</svg>
