<svg width="220" height="220" viewBox="0 0 220 220" fill="none" xmlns="http://www.w3.org/2000/svg">
<g clip-path="url(#clip0_183_487)">
<path fill-rule="evenodd" clip-rule="evenodd" d="M111.364 36.6921C111.272 36.5961 111.168 36.516 111.08 36.416C111.436 36.232 111.816 36.0401 112.152 35.8601C115.584 34.3681 119.228 33.276 123.036 32.68C126.396 32.148 129.848 31.9921 133.288 32.2281C145.468 33.0481 156.604 38.576 164.636 47.784C172.656 56.9881 176.62 68.756 175.772 80.94C175.668 82.56 175.44 84.148 175.164 85.724C175.144 85.664 175.112 85.612 175.096 85.56C172.584 77.888 167.212 71.532 160.208 67.82C160.156 67.788 160.108 67.752 160.052 67.72C159.288 67.32 158.464 67.028 157.664 66.692C156.884 66.36 156.124 66 155.316 65.732C154.616 65.508 153.88 65.372 153.164 65.192C152.208 64.956 151.256 64.708 150.268 64.568C150.068 64.54 149.892 64.472 149.692 64.444C149.876 60.396 148.292 56.116 148.272 56.064C145.536 48.788 140.332 42.888 133.212 39C128.96 36.68 124.388 35.508 119.62 35.508C116.864 35.508 114.076 35.924 111.396 36.724L111.364 36.6921ZM105.936 31.744C103.772 30.028 101.496 28.564 99.1359 27.316L98.0039 6.86005L118.528 26.932C114.072 27.956 109.88 29.648 105.936 31.744ZM133.728 25.712C130.752 25.508 127.772 25.644 124.812 25.944L137.82 0.300049L145.556 27.9401C141.748 26.7761 137.796 25.984 133.728 25.712ZM151.548 30.188L175.592 14.5L168.432 42.3161C163.596 37.1041 157.872 33.016 151.548 30.188ZM172.524 47.244L201.16 45.656L181.124 66.128C179.58 59.36 176.668 52.96 172.524 47.244ZM182.112 72.488L207.724 85.464L180.04 93.228C181.228 89.428 182.02 85.472 182.296 81.388C182.5 78.392 182.404 75.42 182.112 72.488Z" fill="#FFCE00"/>
<path fill-rule="evenodd" clip-rule="evenodd" d="M46.6358 118.54C46.6358 122.444 47.2638 126.208 48.4078 129.74C43.5638 128.872 39.6598 127.8 39.6598 127.8C25.4398 122.828 15.4638 108.748 16.8638 92.564C17.9998 79.412 27.1478 68.292 39.4198 63.42L42.1478 62.336L42.9598 58.304C47.0918 37.652 68.2078 23.792 89.8918 30.172C96.3958 32.084 102.144 36.008 106.764 40.972L109.368 43.776C109.368 43.776 109.548 43.88 109.824 44.052C116.112 41.04 123.552 40.892 130.204 44.524C136.404 47.912 140.348 52.852 142.392 58.28C142.612 58.868 143.556 62.256 143.392 64.388C141.38 64.552 139.364 64.844 137.38 65.4L137.124 65.472L136.94 65.272C129.576 57.352 119.144 52.812 108.324 52.812C89.7758 52.812 73.6718 66.016 70.0278 84.22L69.9878 84.452L69.7638 84.54C55.9278 90.02 46.6358 103.684 46.6358 118.54ZM174.244 98.816C183.524 103.088 189.516 112.432 189.52 122.632C189.52 137.088 177.776 148.848 163.34 148.848H83.2278C66.5198 148.848 52.9198 135.248 52.9198 118.544C52.9198 106.24 60.6198 94.924 72.0798 90.384L75.4798 89.032L76.1918 85.456C79.2518 70.18 92.7718 59.096 108.324 59.096C117.408 59.096 126.16 62.908 132.34 69.556L135.128 72.556L139.076 71.452C141.328 70.824 143.612 70.5 145.868 70.5C158.656 70.5 169.408 80.472 170.352 93.212L170.644 97.16L174.244 98.816Z" fill="#D5DCE2"/>
<path fill-rule="evenodd" clip-rule="evenodd" d="M72.4198 180.916C67.1278 191.132 55.0519 184.448 60.1319 174.588C64.4439 166.208 74.8039 161.14 74.8039 161.14C74.8039 161.14 76.6038 172.804 72.4198 180.916ZM80.5559 212.16C75.2639 222.376 63.1878 215.692 68.2678 205.832C72.5798 197.452 82.9399 192.384 82.9399 192.384C82.9399 192.384 84.7399 204.044 80.5559 212.16ZM164.524 180.916C159.232 191.132 147.156 184.448 152.236 174.588C156.548 166.208 166.908 161.14 166.908 161.14C166.908 161.14 168.708 172.804 164.524 180.916Z" fill="#009EFF"/>
<path fill-rule="evenodd" clip-rule="evenodd" d="M128.148 173.86L116.888 173.688L126.12 157.54L111.868 157.66L99.776 181.752H110.304L95.52 218.268L128.148 173.86Z" fill="#FF7800"/>
<path fill-rule="evenodd" clip-rule="evenodd" d="M52.9878 206.22C53.6958 206.392 54.1478 207.128 53.9678 207.836L53.8999 208.092C53.7279 208.8 52.9998 209.248 52.2918 209.068L43.0718 206.82L45.3239 216.044C45.5039 216.756 45.0559 217.476 44.3319 217.656L44.0758 217.712C43.3678 217.892 42.6398 217.448 42.4678 216.736L40.2479 207.68L33.6439 214.248C33.1199 214.76 32.2838 214.76 31.7598 214.236L31.5678 214.048C31.0598 213.524 31.0598 212.68 31.5798 212.156L38.1678 205.62L29.1518 203.416C28.4398 203.248 27.9839 202.528 28.1719 201.804L28.2278 201.548C28.4078 200.828 29.1398 200.396 29.8478 200.568L39.0758 202.82L36.8118 193.596C36.6398 192.892 37.0919 192.152 37.8039 191.984L38.0599 191.92C38.7799 191.744 39.5078 192.184 39.6798 192.896L41.8799 201.936L48.4918 195.384C49.0118 194.868 49.8599 194.868 50.3719 195.396L50.5638 195.584C51.0878 196.104 51.0758 196.944 50.5638 197.464L43.9639 204.008L52.9878 206.22ZM148.196 206.22C148.904 206.392 149.352 207.128 149.172 207.836L149.104 208.092C148.932 208.8 148.204 209.248 147.496 209.068L138.276 206.82L140.528 216.044C140.712 216.756 140.264 217.476 139.54 217.656L139.284 217.712C138.576 217.892 137.848 217.448 137.676 216.736L135.456 207.68L128.852 214.248C128.328 214.76 127.492 214.76 126.968 214.236L126.776 214.048C126.268 213.524 126.268 212.68 126.788 212.156L133.376 205.62L124.36 203.416C123.648 203.248 123.192 202.528 123.38 201.804L123.436 201.548C123.616 200.828 124.348 200.396 125.056 200.568L134.284 202.82L132.02 193.596C131.848 192.892 132.3 192.152 133.012 191.984L133.268 191.92C133.988 191.744 134.716 192.184 134.888 192.896L137.088 201.936L143.7 195.384C144.22 194.868 145.068 194.868 145.58 195.396L145.772 195.584C146.296 196.104 146.284 196.944 145.772 197.464L139.172 204.008L148.196 206.22ZM182.212 206.22C182.92 206.392 183.372 207.128 183.184 207.848L183.116 208.104C182.944 208.812 182.216 209.26 181.508 209.08L172.288 206.832L174.54 216.056C174.724 216.768 174.276 217.488 173.552 217.668L173.296 217.724C172.588 217.904 171.86 217.46 171.688 216.748L169.468 207.692L162.864 214.26C162.34 214.772 161.504 214.772 160.98 214.248L160.788 214.06C160.28 213.536 160.28 212.692 160.8 212.168L167.392 205.62L158.376 203.416C157.664 203.248 157.208 202.528 157.396 201.804L157.452 201.548C157.632 200.828 158.364 200.396 159.072 200.568L168.3 202.82L166.036 193.596C165.864 192.892 166.316 192.152 167.028 191.984L167.284 191.92C168.004 191.744 168.732 192.184 168.904 192.896L171.104 201.936L177.716 195.384C178.236 194.868 179.084 194.868 179.596 195.396L179.788 195.584C180.312 196.104 180.3 196.944 179.788 197.464L173.188 204.008L182.212 206.22Z" fill="#38C0E0"/>
</g>
<defs>
<clipPath id="clip0_183_487">
<rect width="220" height="220" fill="white"/>
</clipPath>
</defs>
</svg>
