<svg width="220" height="220" viewBox="0 0 220 220" fill="none" xmlns="http://www.w3.org/2000/svg">
<g clip-path="url(#clip0_183_422)">
<path fill-rule="evenodd" clip-rule="evenodd" d="M111.364 36.6921C111.272 36.5961 111.168 36.516 111.08 36.416C111.436 36.232 111.816 36.0401 112.152 35.8601C115.584 34.3681 119.228 33.276 123.036 32.68C126.396 32.148 129.848 31.9921 133.288 32.2281C145.468 33.0481 156.604 38.576 164.636 47.784C172.656 56.9881 176.62 68.756 175.772 80.94C175.668 82.56 175.44 84.148 175.164 85.724C175.144 85.664 175.112 85.612 175.096 85.56C172.584 77.888 167.212 71.532 160.208 67.82C160.156 67.788 160.108 67.752 160.052 67.72C159.288 67.32 158.464 67.028 157.664 66.692C156.884 66.36 156.124 66 155.316 65.732C154.616 65.508 153.88 65.372 153.164 65.192C152.208 64.956 151.256 64.708 150.268 64.568C150.068 64.54 149.892 64.472 149.692 64.444C149.876 60.396 148.292 56.116 148.272 56.064C145.536 48.788 140.332 42.888 133.212 39C128.96 36.68 124.388 35.508 119.62 35.508C116.864 35.508 114.076 35.924 111.396 36.724L111.364 36.6921ZM105.936 31.744C103.772 30.028 101.496 28.564 99.1359 27.316L98.0039 6.86005L118.528 26.932C114.072 27.956 109.88 29.648 105.936 31.744ZM133.728 25.712C130.752 25.508 127.772 25.644 124.812 25.944L137.82 0.300049L145.556 27.9401C141.748 26.7761 137.796 25.984 133.728 25.712ZM151.548 30.188L175.592 14.5L168.432 42.3161C163.596 37.1041 157.872 33.016 151.548 30.188ZM172.524 47.244L201.16 45.656L181.124 66.128C179.58 59.36 176.668 52.96 172.524 47.244ZM182.112 72.488L207.724 85.464L180.04 93.228C181.228 89.428 182.02 85.472 182.296 81.388C182.5 78.392 182.404 75.42 182.112 72.488Z" fill="#FFCE00"/>
<path fill-rule="evenodd" clip-rule="evenodd" d="M46.6358 118.54C46.6358 122.444 47.2638 126.208 48.4078 129.74C43.5638 128.872 39.6598 127.8 39.6598 127.8C25.4398 122.828 15.4638 108.748 16.8638 92.564C17.9998 79.412 27.1478 68.292 39.4198 63.42L42.1478 62.336L42.9598 58.304C47.0918 37.652 68.2078 23.792 89.8918 30.172C96.3958 32.084 102.144 36.008 106.764 40.972L109.368 43.776C109.368 43.776 109.548 43.88 109.824 44.052C116.112 41.04 123.552 40.892 130.204 44.524C136.404 47.912 140.348 52.852 142.392 58.28C142.612 58.868 143.556 62.256 143.392 64.388C141.38 64.552 139.364 64.844 137.38 65.4L137.124 65.472L136.94 65.272C129.576 57.352 119.144 52.812 108.324 52.812C89.7758 52.812 73.6718 66.016 70.0278 84.22L69.9878 84.452L69.7638 84.54C55.9278 90.02 46.6358 103.684 46.6358 118.54ZM174.244 98.816C183.524 103.088 189.516 112.432 189.52 122.632C189.52 137.088 177.776 148.848 163.34 148.848H83.2278C66.5198 148.848 52.9198 135.248 52.9198 118.544C52.9198 106.24 60.6198 94.924 72.0798 90.384L75.4798 89.032L76.1918 85.456C79.2518 70.18 92.7718 59.096 108.324 59.096C117.408 59.096 126.16 62.908 132.34 69.556L135.128 72.556L139.076 71.452C141.328 70.824 143.612 70.5 145.868 70.5C158.656 70.5 169.408 80.472 170.352 93.212L170.644 97.16L174.244 98.816Z" fill="#D5DCE2"/>
<path fill-rule="evenodd" clip-rule="evenodd" d="M84.0679 180.916C78.7759 191.132 66.6999 184.448 71.7799 174.588C76.0919 166.208 86.4519 161.14 86.4519 161.14C86.4519 161.14 88.2559 172.804 84.0679 180.916ZM137.224 211.352C131.932 221.568 119.856 214.884 124.936 205.024C129.248 196.644 139.608 191.576 139.608 191.576C139.608 191.576 141.408 203.236 137.224 211.352ZM96.5199 211.352C91.2279 221.568 79.1519 214.884 84.2319 205.024C88.5439 196.644 98.9039 191.576 98.9039 191.576C98.9039 191.576 100.704 203.236 96.5199 211.352ZM55.8119 211.352C50.5199 221.568 38.4439 214.884 43.5239 205.024C47.8359 196.644 58.1959 191.576 58.1959 191.576C58.1959 191.576 59.9999 203.236 55.8119 211.352ZM165.48 180.916C160.188 191.132 148.112 184.448 153.192 174.588C157.504 166.208 167.864 161.14 167.864 161.14C167.864 161.14 169.664 172.804 165.48 180.916ZM124.772 180.916C119.48 191.132 107.404 184.448 112.484 174.588C116.796 166.208 127.156 161.14 127.156 161.14C127.156 161.14 128.956 172.804 124.772 180.916Z" fill="#009EFF"/>
</g>
<defs>
<clipPath id="clip0_183_422">
<rect width="220" height="220" fill="white"/>
</clipPath>
</defs>
</svg>
