<svg width="220" height="221" viewBox="0 0 220 221" fill="none" xmlns="http://www.w3.org/2000/svg">
<g clip-path="url(#clip0_183_548)">
<path fill-rule="evenodd" clip-rule="evenodd" d="M111.364 36.8587C111.272 36.7623 111.168 36.6819 111.08 36.5814C111.436 36.3966 111.816 36.2037 112.152 36.0229C115.584 34.5241 119.228 33.4272 123.036 32.8285C126.396 32.294 129.848 32.1373 133.288 32.3744C145.468 33.1981 156.604 38.7513 164.636 48.0011C172.656 57.2469 176.62 69.0684 175.772 81.3078C175.668 82.9352 175.44 84.5304 175.164 86.1136C175.144 86.0533 175.112 86.001 175.096 85.9488C172.584 78.2419 167.212 71.857 160.208 68.1282C160.156 68.096 160.108 68.0599 160.052 68.0277C159.288 67.6259 158.464 67.3326 157.664 66.995C156.884 66.6615 156.124 66.2999 155.316 66.0307C154.616 65.8057 153.88 65.669 153.164 65.4882C152.208 65.2512 151.256 65.002 150.268 64.8614C150.068 64.8333 149.892 64.765 149.692 64.7368C149.876 60.6704 148.292 56.371 148.272 56.3187C145.536 49.0097 140.332 43.0829 133.212 39.1772C128.96 36.8466 124.388 35.6693 119.62 35.6693C116.864 35.6693 114.076 36.0872 111.396 36.8908L111.364 36.8587ZM105.936 31.8882C103.772 30.1644 101.496 28.6937 99.1359 27.4401L98.0039 6.89109L118.528 27.0543C114.072 28.083 109.88 29.7827 105.936 31.8882ZM133.728 25.8288C130.752 25.6239 127.772 25.7605 124.812 26.0618L137.82 0.30127L145.556 28.0669C141.748 26.8976 137.796 26.102 133.728 25.8288ZM151.548 30.3251L175.592 14.5658L168.432 42.5083C163.596 37.2726 157.872 33.166 151.548 30.3251ZM172.524 47.4587L201.16 45.8634L181.124 66.4285C179.58 59.6297 176.668 53.2006 172.524 47.4587ZM182.112 72.8174L207.724 85.8524L180.04 93.6517C181.228 89.8344 182.02 85.8604 182.296 81.7578C182.5 78.7482 182.404 75.7627 182.112 72.8174Z" fill="#FFCE00"/>
<path fill-rule="evenodd" clip-rule="evenodd" d="M46.6358 119.079C46.6358 123 47.2638 126.782 48.4078 130.33C43.5638 129.458 39.6598 128.381 39.6598 128.381C25.4398 123.386 15.4638 109.242 16.8638 92.9846C17.9998 79.7729 27.1478 68.6023 39.4198 63.7082L42.1478 62.6192L42.9598 58.5689C47.0918 37.823 68.2078 23.9 89.8918 30.309C96.3958 32.2297 102.144 36.1716 106.764 41.1581L109.368 43.9749C109.368 43.9749 109.548 44.0793 109.824 44.2521C116.112 41.2264 123.552 41.0778 130.204 44.7263C136.404 48.1297 140.348 53.0921 142.392 58.5448C142.612 59.1355 143.556 62.5389 143.392 64.6806C141.38 64.8453 139.364 65.1386 137.38 65.6972L137.124 65.7695L136.94 65.5686C129.576 57.6126 119.144 53.0519 108.324 53.0519C89.7758 53.0519 73.6718 66.316 70.0278 84.6027L69.9878 84.8358L69.7638 84.9242C55.9278 90.4291 46.6358 104.155 46.6358 119.079ZM174.244 99.2651C183.524 103.556 189.516 112.943 189.52 123.189C189.52 137.711 177.776 149.524 163.34 149.524H83.2278C66.5198 149.524 52.9198 135.863 52.9198 119.083C52.9198 106.723 60.6198 95.3554 72.0798 90.7947L75.4798 89.4366L76.1918 85.8443C79.2518 70.4989 92.7718 59.3645 108.324 59.3645C117.408 59.3645 126.16 63.1938 132.34 69.8721L135.128 72.8857L139.076 71.7767C141.328 71.1458 143.612 70.8203 145.868 70.8203C158.656 70.8203 169.408 80.8377 170.352 93.6356L170.644 97.6015L174.244 99.2651Z" fill="#D5DCE2"/>
<path fill-rule="evenodd" clip-rule="evenodd" d="M88.6001 175.775C89.3041 175.948 89.7561 176.683 89.5801 177.399L89.5121 177.656C89.3401 178.367 88.6121 178.817 87.9041 178.636L78.6841 176.378L80.9361 185.644C81.1201 186.359 80.6721 187.082 79.9481 187.263L79.6921 187.32C78.9841 187.5 78.2561 187.054 78.0841 186.339L75.8641 177.242L69.2601 183.84C68.7361 184.354 67.9001 184.354 67.3761 183.828L67.1841 183.639C66.6761 183.113 66.6761 182.265 67.1961 181.738L73.7841 175.173L64.7681 172.959C64.0561 172.79 63.6001 172.067 63.7881 171.339L63.8441 171.082C64.0241 170.359 64.7561 169.925 65.4641 170.098L74.6921 172.36L72.4281 163.094C72.2521 162.387 72.7041 161.643 73.4161 161.475L73.6721 161.41C74.3921 161.233 75.1201 161.676 75.2921 162.391L77.4921 171.472L84.1041 164.89C84.6241 164.372 85.4721 164.372 85.9841 164.902L86.1761 165.091C86.7001 165.613 86.6881 166.457 86.1761 166.98L79.5761 173.553L88.6001 175.775ZM52.6241 207.346C53.3321 207.519 53.7841 208.254 53.6001 208.974L53.5321 209.231C53.3601 209.942 52.6321 210.392 51.9241 210.211L42.7041 207.953L44.9561 217.219C45.1401 217.934 44.6921 218.657 43.9681 218.838L43.7121 218.894C43.0041 219.075 42.2761 218.629 42.1041 217.914L39.8841 208.817L33.2801 215.415C32.7561 215.929 31.9201 215.929 31.3961 215.403L31.2041 215.214C30.6961 214.687 30.6961 213.84 31.2161 213.313L37.8041 206.747L28.7881 204.533C28.0761 204.365 27.6201 203.641 27.8081 202.914L27.8641 202.657C28.0441 201.934 28.7761 201.5 29.4841 201.672L38.7121 203.935L36.4481 194.669C36.2761 193.962 36.7281 193.218 37.4401 193.049L37.6961 192.981C38.4161 192.804 39.1441 193.246 39.3161 193.962L41.5161 203.043L48.1281 196.461C48.6481 195.943 49.4961 195.943 50.0081 196.473L50.2001 196.662C50.7241 197.184 50.7121 198.028 50.2001 198.55L43.6001 205.124L52.6241 207.346ZM88.0281 207.346C88.7361 207.519 89.1841 208.254 89.0081 208.97L88.9401 209.227C88.7681 209.938 88.0401 210.388 87.3321 210.207L78.1121 207.949L80.3641 217.215C80.5481 217.93 80.1001 218.653 79.3761 218.834L79.1201 218.89C78.4121 219.071 77.6841 218.625 77.5121 217.91L75.2921 208.813L68.6881 215.411C68.1641 215.925 67.3281 215.925 66.8041 215.399L66.6121 215.21C66.1041 214.683 66.1041 213.836 66.6241 213.309L73.2121 206.743L64.1961 204.529C63.4841 204.361 63.0281 203.637 63.2161 202.91L63.2721 202.653C63.4521 201.93 64.1841 201.496 64.8921 201.668L74.1201 203.931L71.8561 194.665C71.6801 193.958 72.1321 193.214 72.8441 193.045L73.1001 192.981C73.8201 192.804 74.5481 193.246 74.7201 193.962L76.9201 203.043L83.5321 196.461C84.0521 195.943 84.9001 195.943 85.4121 196.473L85.6041 196.662C86.1281 197.184 86.1161 198.028 85.6041 198.55L79.0041 205.124L88.0281 207.346ZM151.38 207.346C152.088 207.519 152.54 208.254 152.356 208.974L152.288 209.231C152.116 209.942 151.388 210.392 150.68 210.211L141.46 207.953L143.712 217.219C143.896 217.934 143.448 218.657 142.724 218.838L142.468 218.894C141.76 219.075 141.032 218.629 140.86 217.914L138.64 208.817L132.036 215.415C131.512 215.929 130.676 215.929 130.152 215.403L129.96 215.214C129.452 214.687 129.452 213.84 129.972 213.313L136.56 206.747L127.544 204.533C126.832 204.365 126.376 203.641 126.564 202.914L126.62 202.657C126.8 201.934 127.532 201.5 128.24 201.672L137.468 203.931L135.204 194.665C135.032 193.958 135.484 193.214 136.196 193.045L136.452 192.981C137.172 192.804 137.9 193.246 138.072 193.962L140.272 203.043L146.884 196.461C147.404 195.943 148.252 195.943 148.764 196.473L148.956 196.662C149.48 197.184 149.468 198.028 148.956 198.55L142.356 205.124L151.38 207.346ZM186.788 207.346C187.492 207.519 187.944 208.254 187.764 208.974L187.696 209.231C187.524 209.942 186.796 210.392 186.088 210.211L176.868 207.953L179.12 217.219C179.304 217.934 178.856 218.657 178.132 218.838L177.876 218.894C177.168 219.075 176.44 218.629 176.268 217.914L174.048 208.817L167.444 215.415C166.92 215.929 166.084 215.929 165.56 215.403L165.368 215.214C164.86 214.687 164.86 213.84 165.38 213.313L171.968 206.747L162.952 204.533C162.24 204.365 161.784 203.641 161.972 202.914L162.028 202.657C162.208 201.934 162.94 201.5 163.648 201.672L172.876 203.935L170.612 194.669C170.436 193.962 170.888 193.218 171.6 193.049L171.86 192.981C172.58 192.804 173.308 193.246 173.48 193.962L175.68 203.043L182.292 196.461C182.812 195.943 183.66 195.943 184.172 196.473L184.364 196.662C184.888 197.184 184.876 198.028 184.364 198.55L177.764 205.124L186.788 207.346ZM172.024 175.775C172.732 175.948 173.18 176.683 173.004 177.399L172.936 177.656C172.764 178.367 172.036 178.817 171.328 178.636L162.108 176.378L164.36 185.644C164.54 186.359 164.092 187.082 163.368 187.263L163.112 187.32C162.404 187.5 161.676 187.054 161.504 186.339L159.284 177.242L152.68 183.84C152.156 184.354 151.32 184.354 150.796 183.828L150.604 183.639C150.096 183.113 150.096 182.265 150.616 181.738L157.204 175.173L148.188 172.959C147.476 172.79 147.02 172.067 147.208 171.339L147.264 171.082C147.444 170.359 148.176 169.925 148.884 170.098L158.112 172.36L155.848 163.094C155.676 162.387 156.128 161.643 156.84 161.475L157.096 161.41C157.816 161.233 158.544 161.676 158.716 162.391L160.916 171.472L167.528 164.89C168.048 164.372 168.896 164.372 169.408 164.902L169.6 165.091C170.124 165.613 170.112 166.457 169.6 166.98L163 173.553L172.024 175.775Z" fill="#38C0E0"/>
<path fill-rule="evenodd" clip-rule="evenodd" d="M131.492 174.65L120.232 174.478L129.464 158.256L115.212 158.377L103.12 182.578H113.648L98.8638 219.26L131.492 174.65Z" fill="#FF7800"/>
</g>
<defs>
<clipPath id="clip0_183_548">
<rect width="220" height="221" fill="white"/>
</clipPath>
</defs>
</svg>
