<svg width="220" height="188" viewBox="0 0 220 188" fill="none" xmlns="http://www.w3.org/2000/svg">
<g clip-path="url(#clip0_183_497)">
<path fill-rule="evenodd" clip-rule="evenodd" d="M111.364 36.6921C111.272 36.5961 111.168 36.516 111.08 36.416C111.436 36.232 111.816 36.0401 112.152 35.8601C115.584 34.3681 119.228 33.276 123.036 32.68C126.396 32.148 129.848 31.9921 133.288 32.2281C145.468 33.0481 156.604 38.576 164.636 47.784C172.656 56.9881 176.62 68.756 175.772 80.94C175.668 82.56 175.44 84.148 175.164 85.724C175.144 85.664 175.112 85.612 175.096 85.56C172.584 77.888 167.212 71.532 160.208 67.82C160.156 67.788 160.108 67.752 160.052 67.72C159.288 67.32 158.464 67.028 157.664 66.692C156.884 66.36 156.124 66 155.316 65.732C154.616 65.508 153.88 65.372 153.164 65.192C152.208 64.956 151.256 64.708 150.268 64.568C150.068 64.54 149.892 64.472 149.692 64.444C149.876 60.396 148.292 56.116 148.272 56.064C145.536 48.788 140.332 42.888 133.212 39C128.96 36.68 124.388 35.508 119.62 35.508C116.864 35.508 114.076 35.924 111.396 36.724L111.364 36.6921ZM105.936 31.744C103.772 30.028 101.496 28.564 99.1359 27.316L98.0039 6.86005L118.528 26.932C114.072 27.956 109.88 29.648 105.936 31.744ZM133.728 25.712C130.752 25.508 127.772 25.644 124.812 25.944L137.82 0.300049L145.556 27.9401C141.748 26.7761 137.796 25.984 133.728 25.712ZM151.548 30.188L175.592 14.5L168.432 42.3161C163.596 37.1041 157.872 33.016 151.548 30.188ZM172.524 47.244L201.16 45.656L181.124 66.128C179.58 59.36 176.668 52.96 172.524 47.244ZM182.112 72.488L207.724 85.464L180.04 93.228C181.228 89.428 182.02 85.472 182.296 81.388C182.5 78.392 182.404 75.42 182.112 72.488Z" fill="#FFCE00"/>
<path fill-rule="evenodd" clip-rule="evenodd" d="M46.6358 118.54C46.6358 122.444 47.2638 126.208 48.4078 129.74C43.5638 128.872 39.6598 127.8 39.6598 127.8C25.4398 122.828 15.4638 108.748 16.8638 92.564C17.9998 79.412 27.1478 68.292 39.4198 63.42L42.1478 62.336L42.9598 58.304C47.0918 37.652 68.2078 23.792 89.8918 30.172C96.3958 32.084 102.144 36.008 106.764 40.972L109.368 43.776C109.368 43.776 109.548 43.88 109.824 44.052C116.112 41.04 123.552 40.892 130.204 44.524C136.404 47.912 140.348 52.852 142.392 58.28C142.612 58.868 143.556 62.256 143.392 64.388C141.38 64.552 139.364 64.844 137.38 65.4L137.124 65.472L136.94 65.272C129.576 57.352 119.144 52.812 108.324 52.812C89.7758 52.812 73.6718 66.016 70.0278 84.22L69.9878 84.452L69.7638 84.54C55.9278 90.02 46.6358 103.684 46.6358 118.54ZM174.244 98.816C183.524 103.088 189.516 112.432 189.52 122.632C189.52 137.088 177.776 148.848 163.34 148.848H83.2278C66.5198 148.848 52.9198 135.248 52.9198 118.544C52.9198 106.24 60.6198 94.924 72.0798 90.384L75.4798 89.032L76.1918 85.456C79.2518 70.18 92.7718 59.096 108.324 59.096C117.408 59.096 126.16 62.908 132.34 69.556L135.128 72.556L139.076 71.452C141.328 70.824 143.612 70.5 145.868 70.5C158.656 70.5 169.408 80.472 170.352 93.212L170.644 97.16L174.244 98.816Z" fill="#D5DCE2"/>
<path fill-rule="evenodd" clip-rule="evenodd" d="M102.556 174.98C103.264 175.152 103.712 175.884 103.532 176.596L103.464 176.852C103.292 177.56 102.564 178.008 101.856 177.828L92.6362 175.58L94.8882 184.804C95.0722 185.516 94.6242 186.236 93.9002 186.416L93.6442 186.472C92.9362 186.652 92.2082 186.208 92.0362 185.496L89.8162 176.44L83.2122 183.008C82.6882 183.52 81.8522 183.52 81.3282 182.996L81.1362 182.808C80.6282 182.284 80.6282 181.44 81.1482 180.916L87.7362 174.38L78.7202 172.176C78.0082 172.008 77.5522 171.288 77.7402 170.564L77.7962 170.308C77.9762 169.588 78.7082 169.156 79.4162 169.328L88.6442 171.58L86.3802 162.356C86.2082 161.652 86.6602 160.912 87.3722 160.744L87.6282 160.68C88.3482 160.504 89.0762 160.944 89.2482 161.656L91.4482 170.696L98.0602 164.144C98.5802 163.628 99.4282 163.628 99.9402 164.156L100.132 164.344C100.656 164.864 100.644 165.704 100.132 166.224L93.5322 172.768L102.556 174.98ZM164.108 174.98C164.812 175.152 165.264 175.884 165.088 176.596L165.02 176.852C164.848 177.56 164.12 178.008 163.412 177.828L154.192 175.58L156.444 184.804C156.624 185.516 156.176 186.236 155.452 186.416L155.196 186.472C154.488 186.652 153.76 186.208 153.588 185.496L151.368 176.44L144.764 183.008C144.24 183.52 143.404 183.52 142.88 182.996L142.688 182.808C142.18 182.284 142.18 181.44 142.7 180.916L149.288 174.38L140.272 172.176C139.56 172.008 139.104 171.288 139.292 170.564L139.348 170.308C139.528 169.588 140.26 169.156 140.968 169.328L150.196 171.58L147.932 162.356C147.76 161.652 148.212 160.912 148.924 160.744L149.18 160.68C149.9 160.504 150.628 160.944 150.8 161.656L153 170.696L159.612 164.144C160.132 163.628 160.98 163.628 161.492 164.156L161.684 164.344C162.208 164.864 162.196 165.704 161.684 166.224L155.084 172.768L164.108 174.98Z" fill="#38C0E0"/>
</g>
<defs>
<clipPath id="clip0_183_497">
<rect width="220" height="188" fill="white"/>
</clipPath>
</defs>
</svg>
