<svg width="220" height="220" viewBox="0 0 220 220" fill="none" xmlns="http://www.w3.org/2000/svg">
<g clip-path="url(#clip0_183_505)">
<path fill-rule="evenodd" clip-rule="evenodd" d="M111.364 36.6921C111.272 36.5961 111.168 36.516 111.08 36.416C111.436 36.232 111.816 36.0401 112.152 35.8601C115.584 34.3681 119.228 33.276 123.036 32.68C126.396 32.148 129.848 31.9921 133.288 32.2281C145.468 33.0481 156.604 38.576 164.636 47.784C172.656 56.9881 176.62 68.756 175.772 80.94C175.668 82.56 175.44 84.148 175.164 85.724C175.144 85.664 175.112 85.612 175.096 85.56C172.584 77.888 167.212 71.532 160.208 67.82C160.156 67.788 160.108 67.752 160.052 67.72C159.288 67.32 158.464 67.028 157.664 66.692C156.884 66.36 156.124 66 155.316 65.732C154.616 65.508 153.88 65.372 153.164 65.192C152.208 64.956 151.256 64.708 150.268 64.568C150.068 64.54 149.892 64.472 149.692 64.444C149.876 60.396 148.292 56.116 148.272 56.064C145.536 48.788 140.332 42.888 133.212 39C128.96 36.68 124.388 35.508 119.62 35.508C116.864 35.508 114.076 35.924 111.396 36.724L111.364 36.6921ZM105.936 31.744C103.772 30.028 101.496 28.564 99.1359 27.316L98.0039 6.86005L118.528 26.932C114.072 27.956 109.88 29.648 105.936 31.744ZM133.728 25.712C130.752 25.508 127.772 25.644 124.812 25.944L137.82 0.300049L145.556 27.9401C141.748 26.7761 137.796 25.984 133.728 25.712ZM151.548 30.188L175.592 14.5L168.432 42.3161C163.596 37.1041 157.872 33.016 151.548 30.188ZM172.524 47.244L201.16 45.656L181.124 66.128C179.58 59.36 176.668 52.96 172.524 47.244ZM182.112 72.488L207.724 85.464L180.04 93.228C181.228 89.428 182.02 85.472 182.296 81.388C182.5 78.392 182.404 75.42 182.112 72.488Z" fill="#FFCE00"/>
<path fill-rule="evenodd" clip-rule="evenodd" d="M46.6358 118.54C46.6358 122.444 47.2638 126.208 48.4078 129.74C43.5638 128.872 39.6598 127.8 39.6598 127.8C25.4398 122.828 15.4638 108.748 16.8638 92.564C17.9998 79.412 27.1478 68.292 39.4198 63.42L42.1478 62.336L42.9598 58.304C47.0918 37.652 68.2078 23.792 89.8918 30.172C96.3958 32.084 102.144 36.008 106.764 40.972L109.368 43.776C109.368 43.776 109.548 43.88 109.824 44.052C116.112 41.04 123.552 40.892 130.204 44.524C136.404 47.912 140.348 52.852 142.392 58.28C142.612 58.868 143.556 62.256 143.392 64.388C141.38 64.552 139.364 64.844 137.38 65.4L137.124 65.472L136.94 65.272C129.576 57.352 119.144 52.812 108.324 52.812C89.7758 52.812 73.6718 66.016 70.0278 84.22L69.9878 84.452L69.7638 84.54C55.9278 90.02 46.6358 103.684 46.6358 118.54ZM174.244 98.816C183.524 103.088 189.516 112.432 189.52 122.632C189.52 137.088 177.776 148.848 163.34 148.848H83.2278C66.5198 148.848 52.9198 135.248 52.9198 118.544C52.9198 106.24 60.6198 94.924 72.0798 90.384L75.4798 89.032L76.1918 85.456C79.2518 70.18 92.7718 59.096 108.324 59.096C117.408 59.096 126.16 62.908 132.34 69.556L135.128 72.556L139.076 71.452C141.328 70.824 143.612 70.5 145.868 70.5C158.656 70.5 169.408 80.472 170.352 93.212L170.644 97.16L174.244 98.816Z" fill="#D5DCE2"/>
<path fill-rule="evenodd" clip-rule="evenodd" d="M76.3998 180.916C71.1078 191.132 59.0318 184.448 64.1118 174.588C68.4238 166.208 78.7838 161.14 78.7838 161.14C78.7838 161.14 80.5878 172.804 76.3998 180.916ZM104.684 212.652C99.3918 222.868 87.3158 216.184 92.3958 206.324C96.7078 197.944 107.068 192.876 107.068 192.876C107.068 192.876 108.872 204.54 104.684 212.652ZM157.48 180.916C152.188 191.132 140.112 184.448 145.192 174.588C149.504 166.208 159.864 161.14 159.864 161.14C159.864 161.14 161.664 172.804 157.48 180.916Z" fill="#009EFF"/>
<path fill-rule="evenodd" clip-rule="evenodd" d="M123.492 175.412C124.2 175.588 124.648 176.32 124.468 177.028L124.4 177.284C124.228 177.992 123.5 178.44 122.792 178.26L113.572 176.012L115.824 185.236C116.008 185.948 115.56 186.668 114.836 186.848L114.58 186.904C113.872 187.084 113.144 186.64 112.972 185.928L110.752 176.872L104.148 183.44C103.624 183.952 102.788 183.952 102.264 183.428L102.072 183.24C101.564 182.716 101.564 181.872 102.084 181.348L108.672 174.812L99.6558 172.608C98.9438 172.44 98.4878 171.72 98.6758 170.996L98.7318 170.74C98.9118 170.02 99.6438 169.588 100.352 169.76L109.58 172.012L107.316 162.788C107.144 162.084 107.596 161.344 108.308 161.176L108.564 161.112C109.284 160.936 110.012 161.376 110.184 162.088L112.384 171.128L118.996 164.576C119.516 164.06 120.364 164.06 120.876 164.588L121.068 164.776C121.592 165.296 121.58 166.136 121.068 166.656L114.468 173.2L123.492 175.412ZM151.772 206.716C152.48 206.888 152.932 207.624 152.748 208.332L152.68 208.588C152.508 209.296 151.78 209.744 151.072 209.564L141.852 207.316L144.104 216.54C144.288 217.252 143.84 217.972 143.116 218.152L142.86 218.208C142.152 218.388 141.424 217.944 141.252 217.232L139.032 208.176L132.428 214.744C131.904 215.256 131.068 215.256 130.544 214.732L130.352 214.544C129.844 214.02 129.844 213.176 130.364 212.652L136.952 206.116L127.936 203.912C127.224 203.744 126.768 203.024 126.956 202.3L127.012 202.044C127.192 201.324 127.924 200.892 128.632 201.064L137.86 203.316L135.596 194.092C135.424 193.388 135.876 192.648 136.588 192.48L136.844 192.416C137.564 192.24 138.292 192.68 138.464 193.392L140.664 202.432L147.276 195.88C147.796 195.364 148.644 195.364 149.156 195.892L149.348 196.08C149.872 196.6 149.86 197.44 149.348 197.96L142.748 204.504L151.772 206.716ZM70.6958 206.716C71.4038 206.888 71.8518 207.624 71.6758 208.332L71.6078 208.588C71.4358 209.296 70.7078 209.744 69.9998 209.564L60.7798 207.316L63.0318 216.54C63.2158 217.252 62.7678 217.972 62.0438 218.152L61.7878 218.208C61.0798 218.388 60.3518 217.944 60.1798 217.232L57.9598 208.176L51.3558 214.744C50.8318 215.256 49.9958 215.256 49.4718 214.732L49.2798 214.544C48.7718 214.02 48.7718 213.176 49.2918 212.652L55.8798 206.116L46.8638 203.912C46.1518 203.744 45.6958 203.024 45.8838 202.3L45.9398 202.044C46.1198 201.324 46.8518 200.892 47.5598 201.064L56.7878 203.316L54.5238 194.092C54.3478 193.388 54.7998 192.648 55.5118 192.48L55.7678 192.416C56.4878 192.24 57.2158 192.68 57.3878 193.392L59.5878 202.432L66.1998 195.88C66.7198 195.364 67.5678 195.364 68.0798 195.892L68.2718 196.08C68.7958 196.6 68.7838 197.44 68.2718 197.96L61.6718 204.504L70.6958 206.716Z" fill="#38C0E0"/>
</g>
<defs>
<clipPath id="clip0_183_505">
<rect width="220" height="220" fill="white"/>
</clipPath>
</defs>
</svg>
