<svg width="140" height="140" viewBox="0 0 140 140" fill="none" xmlns="http://www.w3.org/2000/svg">
<g clip-path="url(#clip0_201_5)">
<path d="M69.9999 41.5975C66.27 41.5975 62.5767 42.3321 59.1307 43.7595C55.6848 45.1868 52.5537 47.279 49.9163 49.9164C47.2789 52.5538 45.1868 55.6849 43.7594 59.1308C42.3321 62.5768 41.5974 66.2701 41.5974 70C41.5974 73.7298 42.3321 77.4232 43.7594 80.8691C45.1868 84.3151 47.2789 87.4462 49.9163 90.0836C52.5537 92.721 55.6848 94.8131 59.1307 96.2405C62.5767 97.6678 66.27 98.4025 69.9999 98.4025C77.5327 98.4025 84.757 95.4101 90.0835 90.0836C95.41 84.7571 98.4024 77.5328 98.4024 70C98.4024 62.4672 95.41 55.2429 90.0835 49.9164C84.757 44.5899 77.5327 41.5975 69.9999 41.5975V41.5975ZM50.3474 70C50.3474 64.7878 52.4179 59.7891 56.1035 56.1036C59.7891 52.418 64.7877 50.3475 69.9999 50.3475C75.2121 50.3475 80.2108 52.418 83.8963 56.1036C87.5819 59.7891 89.6524 64.7878 89.6524 70C89.6524 75.2121 87.5819 80.2108 83.8963 83.8964C80.2108 87.5819 75.2121 89.6525 69.9999 89.6525C64.7877 89.6525 59.7891 87.5819 56.1035 83.8964C52.4179 80.2108 50.3474 75.2121 50.3474 70Z" fill="black"/>
<path d="M85.715 11.7513C81.1038 -3.91123 58.8963 -3.91123 54.285 11.7513L53.4625 14.5425C53.1405 15.6359 52.5779 16.6433 51.8159 17.4909C51.054 18.3385 50.112 19.0049 49.059 19.4412C48.006 19.8775 46.8688 20.0726 45.7306 20.0123C44.5924 19.952 43.4822 19.6377 42.4813 19.0925L39.9263 17.6925C25.5763 9.88752 9.88752 25.585 17.7013 39.9263L19.0925 42.4813C19.6377 43.4822 19.952 44.5924 20.0123 45.7306C20.0726 46.8688 19.8775 48.006 19.4412 49.059C19.0049 50.112 18.3385 51.054 17.4909 51.8159C16.6433 52.5779 15.6359 53.1405 14.5425 53.4625L11.7513 54.285C-3.91123 58.8963 -3.91123 81.1038 11.7513 85.715L14.5425 86.5375C15.6359 86.8596 16.6433 87.4222 17.4909 88.1841C18.3385 88.9461 19.0049 89.8881 19.4412 90.941C19.8775 91.994 20.0726 93.1312 20.0123 94.2694C19.952 95.4076 19.6377 96.5178 19.0925 97.5188L17.6925 100.074C9.88752 114.424 25.5763 130.121 39.9263 122.299L42.4813 120.908C43.4822 120.362 44.5924 120.048 45.7306 119.988C46.8688 119.927 48.006 120.123 49.059 120.559C50.112 120.995 51.054 121.661 51.8159 122.509C52.5779 123.357 53.1405 124.364 53.4625 125.458L54.285 128.249C58.8963 143.911 81.1038 143.911 85.715 128.249L86.5375 125.458C86.8596 124.364 87.4222 123.357 88.1841 122.509C88.9461 121.661 89.8881 120.995 90.941 120.559C91.994 120.123 93.1312 119.927 94.2694 119.988C95.4076 120.048 96.5178 120.362 97.5188 120.908L100.074 122.308C114.424 130.121 130.121 114.415 122.299 100.074L120.908 97.5188C120.362 96.5178 120.048 95.4076 119.988 94.2694C119.927 93.1312 120.123 91.994 120.559 90.941C120.995 89.8881 121.661 88.9461 122.509 88.1841C123.357 87.4222 124.364 86.8596 125.458 86.5375L128.249 85.715C143.911 81.1038 143.911 58.8963 128.249 54.285L125.458 53.4625C124.364 53.1405 123.357 52.5779 122.509 51.8159C121.661 51.054 120.995 50.112 120.559 49.059C120.123 48.006 119.927 46.8688 119.988 45.7306C120.048 44.5924 120.362 43.4822 120.908 42.4813L122.308 39.9263C130.121 25.5763 114.415 9.88752 100.074 17.7013L97.5188 19.0925C96.5178 19.6377 95.4076 19.952 94.2694 20.0123C93.1312 20.0726 91.994 19.8775 90.941 19.4412C89.8881 19.0049 88.9461 18.3385 88.1841 17.4909C87.4222 16.6433 86.8596 15.6359 86.5375 14.5425L85.715 11.7513V11.7513ZM62.6763 14.2275C64.8288 6.92127 75.1713 6.92127 77.3238 14.2275L78.1463 17.0188C78.8377 19.3645 80.0453 21.5258 81.6806 23.3441C83.3159 25.1625 85.3374 26.5918 87.5969 27.5273C89.8564 28.4629 92.2967 28.8809 94.7387 28.7507C97.1808 28.6205 99.5628 27.9454 101.71 26.775L104.256 25.375C110.941 21.7438 118.256 29.05 114.616 35.7438L113.225 38.2988C112.056 40.4463 111.383 42.828 111.254 45.2695C111.125 47.711 111.545 50.1504 112.481 52.4089C113.417 54.6674 114.847 56.6878 116.665 58.3221C118.484 59.9563 120.645 61.163 122.99 61.8538L125.773 62.6763C133.079 64.8288 133.079 75.1713 125.773 77.3238L122.981 78.1463C120.636 78.8377 118.474 80.0453 116.656 81.6806C114.838 83.3159 113.408 85.3374 112.473 87.5969C111.537 89.8564 111.119 92.2967 111.249 94.7387C111.38 97.1808 112.055 99.5628 113.225 101.71L114.625 104.256C118.256 110.941 110.95 118.256 104.256 114.616L101.71 113.225C99.5622 112.055 97.1796 111.38 94.7371 111.25C92.2946 111.121 89.854 111.539 87.5944 112.476C85.3347 113.412 83.3133 114.843 81.6785 116.662C80.0436 118.481 78.8367 120.644 78.1463 122.99L77.3238 125.773C75.1713 133.079 64.8288 133.079 62.6763 125.773L61.8538 122.981C61.162 120.637 59.9546 118.477 58.3199 116.659C56.6852 114.842 54.6647 113.413 52.4063 112.478C50.1479 111.542 47.7089 111.124 45.2679 111.253C42.8269 111.383 40.4457 112.056 38.2988 113.225L35.7438 114.625C29.0588 118.256 21.7438 110.95 25.3838 104.256L26.775 101.71C27.9471 99.5624 28.6235 97.1797 28.7545 94.7366C28.8855 92.2935 28.4679 89.852 27.5323 87.5914C26.5966 85.3307 25.1667 83.3083 23.3475 81.6724C21.5282 80.0365 19.3657 78.8286 17.0188 78.1375L14.2275 77.315C6.92127 75.1625 6.92127 64.82 14.2275 62.6675L17.0188 61.845C19.3621 61.153 21.521 59.9457 23.3375 58.3117C25.154 56.6776 26.5822 54.658 27.5175 52.4008C28.4528 50.1435 28.8715 47.7057 28.743 45.2657C28.6146 42.8257 27.9422 40.4453 26.775 38.2988L25.375 35.7438C21.7438 29.0588 29.05 21.7438 35.7438 25.3838L38.2988 26.775C40.4457 27.9438 42.8269 28.6175 45.2679 28.7469C47.7089 28.8762 50.1479 28.4578 52.4063 27.5224C54.6647 26.587 56.6852 25.1583 58.3199 23.3408C59.9546 21.5234 61.162 19.3633 61.8538 17.0188L62.6763 14.2275V14.2275Z" fill="black"/>
</g>
<defs>
<clipPath id="clip0_201_5">
<rect width="140" height="140" fill="white"/>
</clipPath>
</defs>
</svg>
