<svg width="220" height="157" viewBox="0 0 220 157" fill="none" xmlns="http://www.w3.org/2000/svg">
<g clip-path="url(#clip0_183_577)">
<path fill-rule="evenodd" clip-rule="evenodd" d="M83.1999 117.951L88.7999 129.626L101.6 131.638L92.7999 140.897L95.1999 153.779L83.5999 147.741L71.9999 153.779L74.3999 140.897L65.1999 131.638L77.9999 129.626L83.1999 117.951ZM178 6.84359L181.6 14.0897L189.6 15.2974L184 20.9333L185.2 28.9846L178 25.3615L170.8 28.9846L172 20.9333L166.4 15.2974L174.4 14.0897L178 6.84359ZM29.9999 63.2026L33.5999 70.4487L41.5999 71.6564L35.9999 77.2923L37.1999 85.3436L29.9999 81.7205L22.7999 85.3436L23.9999 77.2923L18.3999 71.6564L26.3999 70.4487L29.9999 63.2026ZM194.4 119.562L196.4 123.99L201.2 124.795L197.6 128.418L198.4 133.249L194 130.833L190 132.846L190.8 128.015L187.2 124.392L192 123.587L194.4 119.562ZM116 58.7744C102.4 39.4513 102.4 16.5051 113.2 0C92.7999 7.24615 77.9999 26.9718 77.9999 50.3205C77.9999 79.7077 101.6 103.862 131.2 103.862C149.6 103.862 165.6 94.6026 175.2 80.5128C153.6 87.3564 129.6 78.0974 116 58.7744Z" fill="#7694B4"/>
</g>
<defs>
<clipPath id="clip0_183_577">
<rect width="220" height="157" fill="white"/>
</clipPath>
</defs>
</svg>
