<svg width="220" height="220" viewBox="0 0 220 220" fill="none" xmlns="http://www.w3.org/2000/svg">
<g clip-path="url(#clip0_183_603)">
<path fill-rule="evenodd" clip-rule="evenodd" d="M154.42 98.692L150.82 97.036L150.528 93.08C149.584 80.348 138.832 70.372 126.044 70.372C123.788 70.372 121.504 70.692 119.252 71.324L115.304 72.428L112.516 69.428C106.336 62.78 97.5842 58.968 88.5002 58.968C72.9482 58.968 59.4282 70.052 56.3682 85.328L55.6522 88.904L52.2562 90.256C40.7962 94.796 33.0962 106.112 33.0962 118.416C33.0962 135.12 46.6962 148.72 63.4042 148.72H143.516C157.952 148.72 169.696 136.96 169.696 122.504C169.692 112.312 163.7 102.964 154.42 98.692Z" fill="#D5DCE2"/>
<path fill-rule="evenodd" clip-rule="evenodd" d="M133.396 53.2599C122.648 39.6999 115.92 16.1479 131.06 0.159912C125.236 1.83191 119.616 4.61191 114.556 8.59991C105.924 15.3919 100.9 24.7079 98.9918 34.5639C98.1398 41.4199 97.9798 47.9519 98.1478 54.2399C105.352 56.0839 111.98 59.9199 117.116 65.4319L117.3 65.6319L117.552 65.5599C120.36 64.7759 123.216 64.3759 126.044 64.3759C141.856 64.3759 155.14 76.5439 156.676 92.1919C162.78 91.0119 168.72 88.5479 174.108 84.3039C179.18 80.3239 183.196 75.5239 186.188 70.2439C167.084 81.1879 145.436 68.4439 133.396 53.2599Z" fill="#7694B4"/>
<path fill-rule="evenodd" clip-rule="evenodd" d="M131.376 180.916C126.084 191.132 114.008 184.448 119.088 174.588C123.4 166.208 133.76 161.14 133.76 161.14C133.76 161.14 135.56 172.804 131.376 180.916ZM103.392 211.352C98.1001 221.568 86.0241 214.884 91.1041 205.024C95.4161 196.644 105.776 191.576 105.776 191.576C105.776 191.576 107.576 203.236 103.392 211.352ZM78.5841 180.916C73.2921 191.132 61.2161 184.448 66.2961 174.588C70.6081 166.208 80.9681 161.14 80.9681 161.14C80.9681 161.14 82.7681 172.804 78.5841 180.916ZM51.3041 211.352C46.0121 221.568 33.9361 214.884 39.0161 205.024C43.3281 196.644 53.6881 191.576 53.6881 191.576C53.6881 191.576 55.4921 203.236 51.3041 211.352Z" fill="#009EFF"/>
</g>
<defs>
<clipPath id="clip0_183_603">
<rect width="220" height="220" fill="white"/>
</clipPath>
</defs>
</svg>
