<svg width="220" height="153" viewBox="0 0 220 153" fill="none" xmlns="http://www.w3.org/2000/svg">
<g clip-path="url(#clip0_183_581)">
<path fill-rule="evenodd" clip-rule="evenodd" d="M154.42 99.3413L150.82 97.6744L150.528 93.6924C149.584 80.8766 138.832 70.835 126.044 70.835C123.788 70.835 121.504 71.1571 119.252 71.7932L115.304 72.9045L112.516 69.8848C106.336 63.193 97.5842 59.356 88.5002 59.356C72.9482 59.356 59.4282 70.5129 56.3682 85.8894L55.6522 89.4889L52.2562 90.8498C40.7962 95.4197 33.0962 106.81 33.0962 119.195C33.0962 136.009 46.6962 149.698 63.4042 149.698H143.516C157.952 149.698 169.696 137.861 169.696 123.31C169.692 113.051 163.7 103.641 154.42 99.3413Z" fill="#D5DCE2"/>
<path fill-rule="evenodd" clip-rule="evenodd" d="M133.396 53.6105C122.648 39.9613 115.92 16.2543 131.06 0.161133C125.236 1.84413 119.616 4.64242 114.556 8.65666C105.924 15.4933 100.9 24.8706 98.9918 34.7915C98.1398 41.6926 97.9798 48.2676 98.1478 54.5969C105.352 56.4531 111.98 60.3143 117.116 65.8625L117.3 66.0639L117.552 65.9914C120.36 65.2022 123.216 64.7996 126.044 64.7996C141.856 64.7996 155.14 77.0477 156.676 92.7986C162.78 91.6108 168.72 89.1306 174.108 84.8587C179.18 80.8525 183.196 76.0209 186.188 70.7062C167.084 81.7222 145.436 68.8944 133.396 53.6105Z" fill="#7694B4"/>
</g>
<defs>
<clipPath id="clip0_183_581">
<rect width="220" height="153" fill="white"/>
</clipPath>
</defs>
</svg>
