<svg width="220" height="220" viewBox="0 0 220 220" fill="none" xmlns="http://www.w3.org/2000/svg">
<g clip-path="url(#clip0_183_675)">
<path fill-rule="evenodd" clip-rule="evenodd" d="M154.42 98.692L150.82 97.036L150.528 93.08C149.584 80.348 138.832 70.372 126.044 70.372C123.788 70.372 121.504 70.692 119.252 71.324L115.304 72.428L112.516 69.428C106.336 62.78 97.5842 58.968 88.5002 58.968C72.9482 58.968 59.4282 70.052 56.3682 85.328L55.6522 88.904L52.2562 90.256C40.7962 94.796 33.0962 106.112 33.0962 118.416C33.0962 135.12 46.6962 148.72 63.4042 148.72H143.516C157.952 148.72 169.696 136.96 169.696 122.504C169.692 112.312 163.7 102.964 154.42 98.692Z" fill="#D5DCE2"/>
<path fill-rule="evenodd" clip-rule="evenodd" d="M133.396 53.2599C122.648 39.6999 115.92 16.1479 131.06 0.159912C125.236 1.83191 119.616 4.61191 114.556 8.59991C105.924 15.3919 100.9 24.7079 98.9918 34.5639C98.1398 41.4199 97.9798 47.9519 98.1478 54.2399C105.352 56.0839 111.98 59.9199 117.116 65.4319L117.3 65.6319L117.552 65.5599C120.36 64.7759 123.216 64.3759 126.044 64.3759C141.856 64.3759 155.14 76.5439 156.676 92.1919C162.78 91.0119 168.72 88.5479 174.108 84.3039C179.18 80.3239 183.196 75.5239 186.188 70.2439C167.084 81.1879 145.436 68.4439 133.396 53.2599Z" fill="#7694B4"/>
<path fill-rule="evenodd" clip-rule="evenodd" d="M64.3998 180.916C59.1078 191.132 47.0318 184.448 52.1118 174.588C56.4238 166.208 66.7838 161.14 66.7838 161.14C66.7838 161.14 68.5878 172.804 64.3998 180.916ZM92.6838 212.652C87.3918 222.868 75.3158 216.184 80.3958 206.324C84.7078 197.944 95.0678 192.876 95.0678 192.876C95.0678 192.876 96.8718 204.54 92.6838 212.652ZM145.48 180.916C140.188 191.132 128.112 184.448 133.192 174.588C137.504 166.208 147.864 161.14 147.864 161.14C147.864 161.14 149.664 172.804 145.48 180.916Z" fill="#009EFF"/>
<path fill-rule="evenodd" clip-rule="evenodd" d="M111.492 175.412C112.2 175.588 112.648 176.32 112.468 177.028L112.4 177.284C112.228 177.992 111.5 178.44 110.792 178.26L101.572 176.012L103.824 185.236C104.008 185.948 103.56 186.668 102.836 186.848L102.58 186.904C101.872 187.084 101.144 186.64 100.972 185.928L98.7518 176.872L92.1478 183.44C91.6238 183.952 90.7878 183.952 90.2638 183.428L90.0718 183.24C89.5638 182.716 89.5638 181.872 90.0838 181.348L96.6718 174.812L87.6558 172.608C86.9438 172.44 86.4878 171.72 86.6758 170.996L86.7318 170.74C86.9118 170.02 87.6438 169.588 88.3518 169.76L97.5798 172.012L95.3158 162.788C95.1438 162.084 95.5958 161.344 96.3078 161.176L96.5638 161.112C97.2838 160.936 98.0118 161.376 98.1838 162.088L100.384 171.128L106.996 164.576C107.516 164.06 108.364 164.06 108.876 164.588L109.068 164.776C109.592 165.296 109.58 166.136 109.068 166.656L102.468 173.2L111.492 175.412ZM139.772 206.716C140.48 206.888 140.932 207.624 140.748 208.332L140.68 208.588C140.508 209.296 139.78 209.744 139.072 209.564L129.852 207.316L132.104 216.54C132.288 217.252 131.84 217.972 131.116 218.152L130.86 218.208C130.152 218.388 129.424 217.944 129.252 217.232L127.032 208.176L120.428 214.744C119.904 215.256 119.068 215.256 118.544 214.732L118.352 214.544C117.844 214.02 117.844 213.176 118.364 212.652L124.952 206.116L115.936 203.912C115.224 203.744 114.768 203.024 114.956 202.3L115.012 202.044C115.192 201.324 115.924 200.892 116.632 201.064L125.86 203.316L123.596 194.092C123.424 193.388 123.876 192.648 124.588 192.48L124.844 192.416C125.564 192.24 126.292 192.68 126.464 193.392L128.664 202.432L135.276 195.88C135.796 195.364 136.644 195.364 137.156 195.892L137.348 196.08C137.872 196.6 137.86 197.44 137.348 197.96L130.748 204.504L139.772 206.716ZM58.6958 206.716C59.4038 206.888 59.8518 207.624 59.6758 208.332L59.6078 208.588C59.4358 209.296 58.7078 209.744 57.9998 209.564L48.7798 207.316L51.0318 216.54C51.2158 217.252 50.7678 217.972 50.0438 218.152L49.7878 218.208C49.0798 218.388 48.3518 217.944 48.1798 217.232L45.9598 208.176L39.3558 214.744C38.8318 215.256 37.9958 215.256 37.4718 214.732L37.2798 214.544C36.7718 214.02 36.7718 213.176 37.2918 212.652L43.8798 206.116L34.8638 203.912C34.1518 203.744 33.6958 203.024 33.8838 202.3L33.9398 202.044C34.1198 201.324 34.8518 200.892 35.5598 201.064L44.7878 203.316L42.5238 194.092C42.3478 193.388 42.7998 192.648 43.5118 192.48L43.7678 192.416C44.4878 192.24 45.2158 192.68 45.3878 193.392L47.5878 202.432L54.1998 195.88C54.7198 195.364 55.5678 195.364 56.0798 195.892L56.2718 196.08C56.7958 196.6 56.7838 197.44 56.2718 197.96L49.6718 204.504L58.6958 206.716Z" fill="#38C0E0"/>
</g>
<defs>
<clipPath id="clip0_183_675">
<rect width="220" height="220" fill="white"/>
</clipPath>
</defs>
</svg>
