<svg width="220" height="188" viewBox="0 0 220 188" fill="none" xmlns="http://www.w3.org/2000/svg">
<g clip-path="url(#clip0_183_694)">
<path fill-rule="evenodd" clip-rule="evenodd" d="M154.42 98.692L150.82 97.036L150.528 93.08C149.584 80.348 138.832 70.372 126.044 70.372C123.788 70.372 121.504 70.692 119.252 71.324L115.304 72.428L112.516 69.428C106.336 62.78 97.5842 58.968 88.5002 58.968C72.9482 58.968 59.4282 70.052 56.3682 85.328L55.6522 88.904L52.2562 90.256C40.7962 94.796 33.0962 106.112 33.0962 118.416C33.0962 135.12 46.6962 148.72 63.4042 148.72H143.516C157.952 148.72 169.696 136.96 169.696 122.504C169.692 112.312 163.7 102.964 154.42 98.692Z" fill="#D5DCE2"/>
<path fill-rule="evenodd" clip-rule="evenodd" d="M133.396 53.2599C122.648 39.6999 115.92 16.1479 131.06 0.159912C125.236 1.83191 119.616 4.61191 114.556 8.59991C105.924 15.3919 100.9 24.7079 98.9918 34.5639C98.1398 41.4199 97.9798 47.9519 98.1478 54.2399C105.352 56.0839 111.98 59.9199 117.116 65.4319L117.3 65.6319L117.552 65.5599C120.36 64.7759 123.216 64.3759 126.044 64.3759C141.856 64.3759 155.14 76.5439 156.676 92.1919C162.78 91.0119 168.72 88.5479 174.108 84.3039C179.18 80.3239 183.196 75.5239 186.188 70.2439C167.084 81.1879 145.436 68.4439 133.396 53.2599Z" fill="#7694B4"/>
<path fill-rule="evenodd" clip-rule="evenodd" d="M86.5562 174.98C87.2642 175.152 87.7122 175.884 87.5322 176.596L87.4642 176.852C87.2922 177.56 86.5642 178.008 85.8562 177.828L76.6362 175.58L78.8882 184.804C79.0722 185.516 78.6242 186.236 77.9002 186.416L77.6442 186.472C76.9362 186.652 76.2082 186.208 76.0362 185.496L73.8162 176.44L67.2122 183.008C66.6882 183.52 65.8522 183.52 65.3282 182.996L65.1362 182.808C64.6282 182.284 64.6282 181.44 65.1482 180.916L71.7362 174.38L62.7202 172.176C62.0082 172.008 61.5522 171.288 61.7402 170.564L61.7962 170.308C61.9762 169.588 62.7082 169.156 63.4162 169.328L72.6442 171.58L70.3802 162.356C70.2082 161.652 70.6602 160.912 71.3722 160.744L71.6282 160.68C72.3482 160.504 73.0762 160.944 73.2482 161.656L75.4482 170.696L82.0602 164.144C82.5802 163.628 83.4282 163.628 83.9402 164.156L84.1322 164.344C84.6562 164.864 84.6442 165.704 84.1322 166.224L77.5322 172.768L86.5562 174.98ZM148.108 174.98C148.812 175.152 149.264 175.884 149.088 176.596L149.02 176.852C148.848 177.56 148.12 178.008 147.412 177.828L138.192 175.58L140.444 184.804C140.624 185.516 140.176 186.236 139.452 186.416L139.196 186.472C138.488 186.652 137.76 186.208 137.588 185.496L135.368 176.44L128.764 183.008C128.24 183.52 127.404 183.52 126.88 182.996L126.688 182.808C126.18 182.284 126.18 181.44 126.7 180.916L133.288 174.38L124.272 172.176C123.56 172.008 123.104 171.288 123.292 170.564L123.348 170.308C123.528 169.588 124.26 169.156 124.968 169.328L134.196 171.58L131.932 162.356C131.76 161.652 132.212 160.912 132.924 160.744L133.18 160.68C133.9 160.504 134.628 160.944 134.8 161.656L137 170.696L143.612 164.144C144.132 163.628 144.98 163.628 145.492 164.156L145.684 164.344C146.208 164.864 146.196 165.704 145.684 166.224L139.084 172.768L148.108 174.98Z" fill="#38C0E0"/>
</g>
<defs>
<clipPath id="clip0_183_694">
<rect width="220" height="188" fill="white"/>
</clipPath>
</defs>
</svg>
