<svg width="220" height="220" viewBox="0 0 220 220" fill="none" xmlns="http://www.w3.org/2000/svg">
<g clip-path="url(#clip0_183_702)">
<path fill-rule="evenodd" clip-rule="evenodd" d="M154.42 98.692L150.82 97.036L150.528 93.08C149.584 80.348 138.832 70.372 126.044 70.372C123.788 70.372 121.504 70.692 119.252 71.324L115.304 72.428L112.516 69.428C106.336 62.78 97.5842 58.968 88.5002 58.968C72.9482 58.968 59.4282 70.052 56.3682 85.328L55.6522 88.904L52.2562 90.256C40.7962 94.796 33.0962 106.112 33.0962 118.416C33.0962 135.12 46.6962 148.72 63.4042 148.72H143.516C157.952 148.72 169.696 136.96 169.696 122.504C169.692 112.312 163.7 102.964 154.42 98.692Z" fill="#D5DCE2"/>
<path fill-rule="evenodd" clip-rule="evenodd" d="M133.396 53.2599C122.648 39.6999 115.92 16.1479 131.06 0.159912C125.236 1.83191 119.616 4.61191 114.556 8.59991C105.924 15.3919 100.9 24.7079 98.9918 34.5639C98.1398 41.4199 97.9798 47.9519 98.1478 54.2399C105.352 56.0839 111.98 59.9199 117.116 65.4319L117.3 65.6319L117.552 65.5599C120.36 64.7759 123.216 64.3759 126.044 64.3759C141.856 64.3759 155.14 76.5439 156.676 92.1919C162.78 91.0119 168.72 88.5479 174.108 84.3039C179.18 80.3239 183.196 75.5239 186.188 70.2439C167.084 81.1879 145.436 68.4439 133.396 53.2599Z" fill="#7694B4"/>
<path fill-rule="evenodd" clip-rule="evenodd" d="M153.868 174.98C154.576 175.152 155.028 175.884 154.844 176.596L154.776 176.852C154.604 177.56 153.876 178.008 153.168 177.828L143.948 175.58L146.2 184.804C146.384 185.516 145.936 186.236 145.212 186.416L144.956 186.472C144.248 186.652 143.52 186.208 143.348 185.496L141.128 176.44L134.524 183.008C134 183.52 133.164 183.52 132.64 182.996L132.448 182.808C131.94 182.284 131.94 181.44 132.46 180.916L139.048 174.38L130.032 172.176C129.32 172.008 128.864 171.288 129.052 170.564L129.108 170.308C129.288 169.588 130.02 169.156 130.728 169.328L139.956 171.58L137.692 162.356C137.52 161.652 137.972 160.912 138.684 160.744L138.94 160.68C139.66 160.504 140.388 160.944 140.56 161.656L142.76 170.696L149.372 164.144C149.892 163.628 150.74 163.628 151.252 164.156L151.444 164.344C151.968 164.864 151.956 165.704 151.444 166.224L144.844 172.768L153.868 174.98ZM78.0518 174.98C78.7598 175.152 79.2078 175.884 79.0318 176.596L78.9638 176.852C78.7918 177.56 78.0638 178.008 77.3558 177.828L68.1358 175.58L70.3878 184.804C70.5678 185.516 70.1198 186.236 69.3958 186.416L69.1398 186.472C68.4318 186.652 67.7038 186.208 67.5318 185.496L65.3118 176.44L58.7078 183.008C58.1838 183.52 57.3478 183.52 56.8238 182.996L56.6318 182.808C56.1238 182.284 56.1238 181.44 56.6438 180.916L63.2318 174.38L54.2158 172.176C53.5038 172.008 53.0478 171.288 53.2358 170.564L53.2918 170.308C53.4718 169.588 54.2038 169.156 54.9118 169.328L64.1398 171.58L61.8758 162.356C61.7038 161.652 62.1558 160.912 62.8678 160.744L63.1238 160.68C63.8438 160.504 64.5718 160.944 64.7438 161.656L66.9438 170.696L73.5558 164.144C74.0758 163.628 74.9238 163.628 75.4358 164.156L75.6278 164.344C76.1518 164.864 76.1398 165.704 75.6278 166.224L69.0278 172.768L78.0518 174.98Z" fill="#38C0E0"/>
<path fill-rule="evenodd" clip-rule="evenodd" d="M116.148 173.86L104.888 173.688L114.12 157.54L99.868 157.66L87.776 181.752H98.304L83.52 218.268L116.148 173.86Z" fill="#FF7800"/>
</g>
<defs>
<clipPath id="clip0_183_702">
<rect width="220" height="220" fill="white"/>
</clipPath>
</defs>
</svg>
