<svg width="220" height="220" viewBox="0 0 220 220" fill="none" xmlns="http://www.w3.org/2000/svg">
<g clip-path="url(#clip0_183_646)">
<path fill-rule="evenodd" clip-rule="evenodd" d="M154.42 98.692L150.82 97.036L150.528 93.08C149.584 80.348 138.832 70.372 126.044 70.372C123.788 70.372 121.504 70.692 119.252 71.324L115.304 72.428L112.516 69.428C106.336 62.78 97.5842 58.968 88.5002 58.968C72.9482 58.968 59.4282 70.052 56.3682 85.328L55.6522 88.904L52.2562 90.256C40.7962 94.796 33.0962 106.112 33.0962 118.416C33.0962 135.12 46.6962 148.72 63.4042 148.72H143.516C157.952 148.72 169.696 136.96 169.696 122.504C169.692 112.312 163.7 102.964 154.42 98.692Z" fill="#D5DCE2"/>
<path fill-rule="evenodd" clip-rule="evenodd" d="M133.396 53.2599C122.648 39.6999 115.92 16.1479 131.06 0.159912C125.236 1.83191 119.616 4.61191 114.556 8.59991C105.924 15.3919 100.9 24.7079 98.9918 34.5639C98.1398 41.4199 97.9798 47.9519 98.1478 54.2399C105.352 56.0839 111.98 59.9199 117.116 65.4319L117.3 65.6319L117.552 65.5599C120.36 64.7759 123.216 64.3759 126.044 64.3759C141.856 64.3759 155.14 76.5439 156.676 92.1919C162.78 91.0119 168.72 88.5479 174.108 84.3039C179.18 80.3239 183.196 75.5239 186.188 70.2439C167.084 81.1879 145.436 68.4439 133.396 53.2599Z" fill="#7694B4"/>
<path fill-rule="evenodd" clip-rule="evenodd" d="M116.148 173.86L104.888 173.688L114.12 157.54L99.868 157.66L87.776 181.752H98.304L83.52 218.268L116.148 173.86Z" fill="#FF7800"/>
<path fill-rule="evenodd" clip-rule="evenodd" d="M146.636 180.916C141.344 191.132 129.268 184.448 134.348 174.588C138.66 166.208 149.02 161.14 149.02 161.14C149.02 161.14 150.82 172.804 146.636 180.916Z" fill="#009EFF"/>
<path fill-rule="evenodd" clip-rule="evenodd" d="M77.58 174.98L68.556 172.768L75.156 166.224C75.668 165.704 75.68 164.864 75.156 164.344L74.964 164.156C74.452 163.628 73.604 163.628 73.084 164.144L66.472 170.696L64.272 161.656C64.1 160.944 63.372 160.504 62.652 160.68L62.396 160.744C61.684 160.912 61.232 161.652 61.408 162.356L63.672 171.58L54.444 169.328C53.736 169.156 53.004 169.588 52.824 170.308L52.768 170.564C52.58 171.288 53.036 172.008 53.748 172.176L62.764 174.38L56.176 180.916C55.656 181.44 55.656 182.284 56.164 182.808L56.356 182.996C56.88 183.52 57.716 183.52 58.24 183.008L64.844 176.44L67.064 185.496C67.236 186.208 67.964 186.652 68.672 186.472L68.928 186.416C69.652 186.236 70.1 185.516 69.916 184.804L67.664 175.58L76.884 177.828C77.592 178.008 78.32 177.56 78.492 176.852L78.56 176.596C78.74 175.884 78.288 175.152 77.58 174.98Z" fill="#38C0E0"/>
</g>
<defs>
<clipPath id="clip0_183_646">
<rect width="220" height="220" fill="white"/>
</clipPath>
</defs>
</svg>
