<svg width="220" height="220" viewBox="0 0 220 220" fill="none" xmlns="http://www.w3.org/2000/svg">
<g clip-path="url(#clip0_183_737)">
<path fill-rule="evenodd" clip-rule="evenodd" d="M154.42 98.692L150.82 97.036L150.528 93.08C149.584 80.348 138.832 70.372 126.044 70.372C123.788 70.372 121.504 70.692 119.252 71.324L115.304 72.428L112.516 69.428C106.336 62.78 97.5842 58.968 88.5002 58.968C72.9482 58.968 59.4282 70.052 56.3682 85.328L55.6522 88.904L52.2562 90.256C40.7962 94.796 33.0962 106.112 33.0962 118.416C33.0962 135.12 46.6962 148.72 63.4042 148.72H143.516C157.952 148.72 169.696 136.96 169.696 122.504C169.692 112.312 163.7 102.964 154.42 98.692Z" fill="#D5DCE2"/>
<path fill-rule="evenodd" clip-rule="evenodd" d="M133.396 53.2599C122.648 39.6999 115.92 16.1479 131.06 0.159912C125.236 1.83191 119.616 4.61191 114.556 8.59991C105.924 15.3919 100.9 24.7079 98.9918 34.5639C98.1398 41.4199 97.9798 47.9519 98.1478 54.2399C105.352 56.0839 111.98 59.9199 117.116 65.4319L117.3 65.6319L117.552 65.5599C120.36 64.7759 123.216 64.3759 126.044 64.3759C141.856 64.3759 155.14 76.5439 156.676 92.1919C162.78 91.0119 168.72 88.5479 174.108 84.3039C179.18 80.3239 183.196 75.5239 186.188 70.2439C167.084 81.1879 145.436 68.4439 133.396 53.2599Z" fill="#7694B4"/>
<path fill-rule="evenodd" clip-rule="evenodd" d="M74.304 174.98C75.012 175.152 75.464 175.884 75.284 176.596L75.216 176.852C75.044 177.56 74.316 178.008 73.608 177.828L64.388 175.58L66.64 184.804C66.824 185.516 66.376 186.236 65.652 186.416L65.396 186.472C64.688 186.652 63.96 186.208 63.788 185.496L61.568 176.44L54.964 183.008C54.44 183.52 53.604 183.52 53.08 182.996L52.888 182.808C52.38 182.284 52.38 181.44 52.9 180.916L59.488 174.38L50.472 172.176C49.76 172.008 49.304 171.288 49.492 170.564L49.548 170.308C49.728 169.588 50.46 169.156 51.168 169.328L60.396 171.58L58.132 162.356C57.956 161.652 58.408 160.912 59.12 160.744L59.376 160.68C60.096 160.504 60.824 160.944 60.996 161.656L63.196 170.696L69.808 164.144C70.328 163.628 71.176 163.628 71.688 164.156L71.88 164.344C72.404 164.864 72.392 165.704 71.88 166.224L65.28 172.768L74.304 174.98ZM137.44 206.408C138.148 206.58 138.6 207.312 138.416 208.024L138.348 208.28C138.176 208.988 137.448 209.436 136.74 209.256L127.52 207.008L129.772 216.232C129.956 216.944 129.508 217.664 128.784 217.844L128.528 217.9C127.82 218.08 127.092 217.636 126.92 216.924L124.7 207.868L118.096 214.436C117.572 214.948 116.736 214.948 116.212 214.424L116.02 214.236C115.512 213.712 115.512 212.868 116.032 212.344L122.62 205.808L113.604 203.604C112.892 203.436 112.436 202.716 112.624 201.992L112.68 201.736C112.86 201.016 113.592 200.584 114.3 200.756L123.528 203.008L121.264 193.784C121.092 193.08 121.544 192.34 122.256 192.172L122.512 192.108C123.232 191.932 123.96 192.372 124.132 193.084L126.332 202.124L132.944 195.572C133.464 195.056 134.312 195.056 134.824 195.584L135.016 195.772C135.54 196.292 135.528 197.132 135.016 197.652L128.416 204.196L137.44 206.408ZM97.328 206.408C98.036 206.58 98.488 207.312 98.304 208.024L98.236 208.28C98.064 208.988 97.336 209.436 96.628 209.256L87.408 207.008L89.66 216.232C89.844 216.944 89.396 217.664 88.672 217.844L88.416 217.9C87.708 218.08 86.98 217.636 86.808 216.924L84.588 207.868L77.984 214.436C77.46 214.948 76.624 214.948 76.1 214.424L75.908 214.236C75.4 213.712 75.4 212.868 75.92 212.344L82.508 205.808L73.492 203.604C72.78 203.436 72.324 202.716 72.512 201.992L72.568 201.736C72.748 201.016 73.48 200.584 74.188 200.756L83.416 203.008L81.152 193.784C80.98 193.08 81.432 192.34 82.144 192.172L82.4 192.108C83.12 191.932 83.848 192.372 84.02 193.084L86.22 202.124L92.832 195.572C93.352 195.056 94.2 195.056 94.712 195.584L94.904 195.772C95.428 196.292 95.416 197.132 94.904 197.652L88.304 204.196L97.328 206.408ZM52.272 206.408C52.98 206.58 53.428 207.312 53.252 208.024L53.184 208.28C53.012 208.988 52.284 209.436 51.576 209.256L42.356 207.008L44.608 216.232C44.788 216.944 44.34 217.664 43.616 217.844L43.36 217.9C42.652 218.08 41.924 217.636 41.752 216.924L39.532 207.868L32.928 214.436C32.404 214.948 31.568 214.948 31.044 214.424L30.852 214.236C30.344 213.712 30.344 212.868 30.864 212.344L37.452 205.808L28.436 203.604C27.724 203.436 27.268 202.716 27.456 201.992L27.512 201.736C27.692 201.016 28.424 200.584 29.132 200.756L38.36 203.008L36.096 193.784C35.924 193.08 36.376 192.34 37.088 192.172L37.344 192.108C38.064 191.932 38.792 192.372 38.964 193.084L41.164 202.124L47.776 195.572C48.296 195.056 49.144 195.056 49.656 195.584L49.848 195.772C50.372 196.292 50.36 197.132 49.848 197.652L43.248 204.196L52.272 206.408ZM159.476 174.98C160.184 175.152 160.632 175.884 160.452 176.596L160.384 176.852C160.212 177.56 159.484 178.008 158.776 177.828L149.556 175.58L151.808 184.804C151.992 185.516 151.544 186.236 150.82 186.416L150.564 186.472C149.856 186.652 149.128 186.208 148.956 185.496L146.736 176.44L140.132 183.008C139.608 183.52 138.772 183.52 138.248 182.996L138.056 182.808C137.548 182.284 137.548 181.44 138.068 180.916L144.656 174.38L135.64 172.176C134.928 172.008 134.472 171.288 134.66 170.564L134.716 170.308C134.896 169.588 135.628 169.156 136.336 169.328L145.564 171.58L143.3 162.356C143.128 161.652 143.58 160.912 144.292 160.744L144.548 160.68C145.268 160.504 145.996 160.944 146.168 161.656L148.368 170.696L154.98 164.144C155.5 163.628 156.348 163.628 156.86 164.156L157.052 164.344C157.576 164.864 157.564 165.704 157.052 166.224L150.452 172.768L159.476 174.98ZM116.892 174.98C117.596 175.152 118.048 175.884 117.868 176.596L117.8 176.852C117.628 177.56 116.9 178.008 116.192 177.828L106.972 175.58L109.224 184.804C109.408 185.516 108.96 186.236 108.236 186.416L107.98 186.472C107.272 186.652 106.544 186.208 106.372 185.496L104.152 176.44L97.548 183.008C97.024 183.52 96.188 183.52 95.664 182.996L95.472 182.808C94.964 182.284 94.964 181.44 95.484 180.916L102.072 174.38L93.056 172.176C92.344 172.008 91.888 171.288 92.076 170.564L92.132 170.308C92.312 169.588 93.044 169.156 93.752 169.328L102.98 171.58L100.716 162.356C100.544 161.652 100.996 160.912 101.708 160.744L101.964 160.68C102.684 160.504 103.412 160.944 103.584 161.656L105.784 170.696L112.396 164.144C112.916 163.628 113.764 163.628 114.276 164.156L114.468 164.344C114.992 164.864 114.98 165.704 114.468 166.224L107.868 172.768L116.892 174.98Z" fill="#38C0E0"/>
</g>
<defs>
<clipPath id="clip0_183_737">
<rect width="220" height="220" fill="white"/>
</clipPath>
</defs>
</svg>
