<svg width="220" height="188" viewBox="0 0 220 188" fill="none" xmlns="http://www.w3.org/2000/svg">
<g clip-path="url(#clip0_183_637)">
<path fill-rule="evenodd" clip-rule="evenodd" d="M154.42 98.692L150.82 97.036L150.528 93.08C149.584 80.348 138.832 70.372 126.044 70.372C123.788 70.372 121.504 70.692 119.252 71.324L115.304 72.428L112.516 69.428C106.336 62.78 97.5842 58.968 88.5002 58.968C72.9482 58.968 59.4282 70.052 56.3682 85.328L55.6522 88.904L52.2562 90.256C40.7962 94.796 33.0962 106.112 33.0962 118.416C33.0962 135.12 46.6962 148.72 63.4042 148.72H143.516C157.952 148.72 169.696 136.96 169.696 122.504C169.692 112.312 163.7 102.964 154.42 98.692Z" fill="#D5DCE2"/>
<path fill-rule="evenodd" clip-rule="evenodd" d="M133.396 53.2599C122.648 39.6999 115.92 16.1479 131.06 0.159912C125.236 1.83191 119.616 4.61191 114.556 8.59991C105.924 15.3919 100.9 24.7079 98.9918 34.5639C98.1398 41.4199 97.9798 47.9519 98.1478 54.2399C105.352 56.0839 111.98 59.9199 117.116 65.4319L117.3 65.6319L117.552 65.5599C120.36 64.7759 123.216 64.3759 126.044 64.3759C141.856 64.3759 155.14 76.5439 156.676 92.1919C162.78 91.0119 168.72 88.5479 174.108 84.3039C179.18 80.3239 183.196 75.5239 186.188 70.2439C167.084 81.1879 145.436 68.4439 133.396 53.2599Z" fill="#7694B4"/>
<path fill-rule="evenodd" clip-rule="evenodd" d="M133.92 180.916C128.628 191.132 116.552 184.448 121.632 174.588C125.944 166.208 136.304 161.14 136.304 161.14C136.304 161.14 138.104 172.804 133.92 180.916Z" fill="#009EFF"/>
<path fill-rule="evenodd" clip-rule="evenodd" d="M86.5239 174.98L77.4999 172.768L84.0999 166.224C84.6119 165.704 84.6239 164.864 84.0999 164.344L83.9079 164.156C83.3959 163.628 82.5479 163.628 82.0279 164.144L75.4159 170.696L73.2159 161.656C73.0439 160.944 72.3159 160.504 71.5959 160.68L71.3399 160.744C70.6279 160.912 70.1759 161.652 70.3519 162.356L72.6159 171.58L63.3879 169.328C62.6799 169.156 61.9479 169.588 61.7679 170.308L61.7119 170.564C61.5239 171.288 61.9799 172.008 62.6919 172.176L71.7079 174.38L65.1199 180.916C64.5999 181.44 64.5999 182.284 65.1079 182.808L65.2999 182.996C65.8239 183.52 66.6599 183.52 67.1839 183.008L73.7879 176.44L76.0079 185.496C76.1799 186.208 76.9079 186.652 77.6159 186.472L77.8719 186.416C78.5959 186.236 79.0439 185.516 78.8599 184.804L76.6079 175.58L85.8279 177.828C86.5359 178.008 87.2639 177.56 87.4359 176.852L87.5039 176.596C87.6799 175.884 87.2319 175.152 86.5239 174.98Z" fill="#38C0E0"/>
</g>
<defs>
<clipPath id="clip0_183_637">
<rect width="220" height="188" fill="white"/>
</clipPath>
</defs>
</svg>
