<svg width="220" height="220" viewBox="0 0 220 220" fill="none" xmlns="http://www.w3.org/2000/svg">
<g clip-path="url(#clip0_183_666)">
<path fill-rule="evenodd" clip-rule="evenodd" d="M154.42 98.692L150.82 97.036L150.528 93.08C149.584 80.348 138.832 70.372 126.044 70.372C123.788 70.372 121.504 70.692 119.252 71.324L115.304 72.428L112.516 69.428C106.336 62.78 97.5842 58.968 88.5002 58.968C72.9482 58.968 59.4282 70.052 56.3682 85.328L55.6522 88.904L52.2562 90.256C40.7962 94.796 33.0962 106.112 33.0962 118.416C33.0962 135.12 46.6962 148.72 63.4042 148.72H143.516C157.952 148.72 169.696 136.96 169.696 122.504C169.692 112.312 163.7 102.964 154.42 98.692Z" fill="#D5DCE2"/>
<path fill-rule="evenodd" clip-rule="evenodd" d="M133.396 53.2599C122.648 39.6999 115.92 16.1479 131.06 0.159912C125.236 1.83191 119.616 4.61191 114.556 8.59991C105.924 15.3919 100.9 24.7079 98.9918 34.5639C98.1398 41.4199 97.9798 47.9519 98.1478 54.2399C105.352 56.0839 111.98 59.9199 117.116 65.4319L117.3 65.6319L117.552 65.5599C120.36 64.7759 123.216 64.3759 126.044 64.3759C141.856 64.3759 155.14 76.5439 156.676 92.1919C162.78 91.0119 168.72 88.5479 174.108 84.3039C179.18 80.3239 183.196 75.5239 186.188 70.2439C167.084 81.1879 145.436 68.4439 133.396 53.2599Z" fill="#7694B4"/>
<path fill-rule="evenodd" clip-rule="evenodd" d="M112.292 212.344C107 222.56 94.9239 215.876 100.004 206.016C104.316 197.636 114.676 192.568 114.676 192.568C114.676 192.568 116.476 204.232 112.292 212.344ZM78.3119 180.916C73.0199 191.132 60.9439 184.448 66.0239 174.588C70.3359 166.208 80.6959 161.14 80.6959 161.14C80.6959 161.14 82.4959 172.804 78.3119 180.916Z" fill="#009EFF"/>
<path fill-rule="evenodd" clip-rule="evenodd" d="M145.856 174.98L136.832 172.768L143.432 166.224C143.944 165.704 143.956 164.864 143.432 164.344L143.24 164.156C142.728 163.628 141.88 163.628 141.36 164.144L134.748 170.696L132.548 161.656C132.376 160.944 131.648 160.504 130.928 160.68L130.672 160.744C129.96 160.912 129.508 161.652 129.68 162.356L131.944 171.58L122.716 169.328C122.008 169.156 121.276 169.588 121.096 170.308L121.04 170.564C120.852 171.288 121.308 172.008 122.02 172.176L131.036 174.38L124.448 180.916C123.928 181.44 123.928 182.284 124.436 182.808L124.628 182.996C125.152 183.52 125.988 183.52 126.512 183.008L133.116 176.44L135.336 185.496C135.508 186.208 136.236 186.652 136.944 186.472L137.2 186.416C137.924 186.236 138.372 185.516 138.188 184.804L135.936 175.58L145.156 177.828C145.864 178.008 146.592 177.56 146.764 176.852L146.832 176.596C147.012 175.884 146.564 175.152 145.856 174.98ZM64.4161 206.408L55.3921 204.196L61.9921 197.652C62.5041 197.132 62.5161 196.292 61.9921 195.772L61.8001 195.584C61.2881 195.056 60.4401 195.056 59.9201 195.572L53.3081 202.124L51.1081 193.084C50.9361 192.372 50.2081 191.932 49.4881 192.108L49.2321 192.172C48.5201 192.34 48.0681 193.08 48.2401 193.784L50.5041 203.008L41.2761 200.756C40.5681 200.584 39.8361 201.016 39.6561 201.736L39.6001 201.992C39.4121 202.716 39.8681 203.436 40.5801 203.604L49.5961 205.808L43.0081 212.344C42.4881 212.868 42.4881 213.712 42.9961 214.236L43.1881 214.424C43.7121 214.948 44.5481 214.948 45.0721 214.436L51.6761 207.868L53.8961 216.924C54.0681 217.636 54.7961 218.08 55.5041 217.9L55.7601 217.844C56.4841 217.664 56.9321 216.944 56.7481 216.232L54.4961 207.008L63.7161 209.256C64.4241 209.436 65.1521 208.988 65.3241 208.28L65.3921 208.024C65.5721 207.312 65.1241 206.58 64.4161 206.408Z" fill="#38C0E0"/>
</g>
<defs>
<clipPath id="clip0_183_666">
<rect width="220" height="220" fill="white"/>
</clipPath>
</defs>
</svg>
