<svg width="220" height="220" viewBox="0 0 220 220" fill="none" xmlns="http://www.w3.org/2000/svg">
<g clip-path="url(#clip0_183_656)">
<path fill-rule="evenodd" clip-rule="evenodd" d="M154.42 98.692L150.82 97.036L150.528 93.08C149.584 80.348 138.832 70.372 126.044 70.372C123.788 70.372 121.504 70.692 119.252 71.324L115.304 72.428L112.516 69.428C106.336 62.78 97.5842 58.968 88.5002 58.968C72.9482 58.968 59.4282 70.052 56.3682 85.328L55.6522 88.904L52.2562 90.256C40.7962 94.796 33.0962 106.112 33.0962 118.416C33.0962 135.12 46.6962 148.72 63.4042 148.72H143.516C157.952 148.72 169.696 136.96 169.696 122.504C169.692 112.312 163.7 102.964 154.42 98.692Z" fill="#D5DCE2"/>
<path fill-rule="evenodd" clip-rule="evenodd" d="M133.396 53.2599C122.648 39.6999 115.92 16.1479 131.06 0.159912C125.236 1.83191 119.616 4.61191 114.556 8.59991C105.924 15.3919 100.9 24.7079 98.9918 34.5639C98.1398 41.4199 97.9798 47.9519 98.1478 54.2399C105.352 56.0839 111.98 59.9199 117.116 65.4319L117.3 65.6319L117.552 65.5599C120.36 64.7759 123.216 64.3759 126.044 64.3759C141.856 64.3759 155.14 76.5439 156.676 92.1919C162.78 91.0119 168.72 88.5479 174.108 84.3039C179.18 80.3239 183.196 75.5239 186.188 70.2439C167.084 81.1879 145.436 68.4439 133.396 53.2599Z" fill="#7694B4"/>
<path fill-rule="evenodd" clip-rule="evenodd" d="M116.148 173.86L104.888 173.688L114.12 157.54L99.868 157.66L87.776 181.752H98.304L83.52 218.268L116.148 173.86Z" fill="#FF7800"/>
<path fill-rule="evenodd" clip-rule="evenodd" d="M69.8442 180.916C64.5522 191.132 52.4762 184.448 57.5562 174.588C61.8682 166.208 72.2282 161.14 72.2282 161.14C72.2282 161.14 74.0282 172.804 69.8442 180.916ZM135.724 212.344C130.432 222.56 118.356 215.876 123.436 206.016C127.748 197.636 138.108 192.568 138.108 192.568C138.108 192.568 139.908 204.232 135.724 212.344Z" fill="#009EFF"/>
<path fill-rule="evenodd" clip-rule="evenodd" d="M72.3042 206.408C73.0122 206.58 73.4642 207.312 73.2842 208.024L73.2162 208.28C73.0442 208.988 72.3162 209.436 71.6082 209.256L62.3882 207.008L64.6402 216.232C64.8242 216.944 64.3762 217.664 63.6522 217.844L63.3962 217.9C62.6882 218.08 61.9602 217.636 61.7882 216.924L59.5682 207.868L52.9642 214.436C52.4402 214.948 51.6042 214.948 51.0802 214.424L50.8882 214.236C50.3802 213.712 50.3802 212.868 50.9002 212.344L57.4882 205.808L48.4722 203.604C47.7602 203.436 47.3042 202.716 47.4922 201.992L47.5482 201.736C47.7282 201.016 48.4602 200.584 49.1682 200.756L58.3962 203.008L56.1322 193.784C55.9562 193.08 56.4082 192.34 57.1202 192.172L57.3762 192.108C58.0962 191.932 58.8242 192.372 58.9962 193.084L61.1962 202.124L67.8082 195.572C68.3282 195.056 69.1762 195.056 69.6882 195.584L69.8802 195.772C70.4042 196.292 70.3922 197.132 69.8802 197.652L63.2802 204.196L72.3042 206.408ZM153.24 174.98C153.948 175.152 154.396 175.884 154.22 176.596L154.152 176.852C153.98 177.56 153.252 178.008 152.544 177.828L143.324 175.58L145.576 184.804C145.756 185.516 145.308 186.236 144.584 186.416L144.328 186.472C143.62 186.652 142.892 186.208 142.72 185.496L140.5 176.44L133.896 183.008C133.372 183.52 132.536 183.52 132.012 182.996L131.82 182.808C131.312 182.284 131.312 181.44 131.832 180.916L138.42 174.38L129.404 172.176C128.692 172.008 128.236 171.288 128.424 170.564L128.48 170.308C128.66 169.588 129.392 169.156 130.1 169.328L139.328 171.58L137.064 162.356C136.892 161.652 137.344 160.912 138.056 160.744L138.312 160.68C139.032 160.504 139.76 160.944 139.932 161.656L142.132 170.696L148.744 164.144C149.264 163.628 150.112 163.628 150.624 164.156L150.816 164.344C151.34 164.864 151.328 165.704 150.816 166.224L144.216 172.768L153.24 174.98Z" fill="#38C0E0"/>
</g>
<defs>
<clipPath id="clip0_183_656">
<rect width="220" height="220" fill="white"/>
</clipPath>
</defs>
</svg>
