<svg width="221" height="220" viewBox="0 0 221 220" fill="none" xmlns="http://www.w3.org/2000/svg">
<g clip-path="url(#clip0_183_719)">
<path fill-rule="evenodd" clip-rule="evenodd" d="M155.122 98.692L151.506 97.036L151.212 93.08C150.264 80.348 139.463 70.372 126.617 70.372C124.351 70.372 122.056 70.692 119.794 71.324L115.828 72.428L113.028 69.428C106.819 62.78 98.0277 58.968 88.9024 58.968C73.2797 58.968 59.6983 70.052 56.6244 85.328L55.9051 88.904L52.4937 90.256C40.9816 94.796 33.2466 106.112 33.2466 118.416C33.2466 135.12 46.9084 148.72 63.6923 148.72H144.168C158.67 148.72 170.467 136.96 170.467 122.504C170.463 112.312 164.444 102.964 155.122 98.692Z" fill="#D5DCE2"/>
<path fill-rule="evenodd" clip-rule="evenodd" d="M134.003 53.2599C123.206 39.6999 116.447 16.1479 131.656 0.159912C125.806 1.83191 120.16 4.61191 115.077 8.59991C106.406 15.3919 101.359 24.7079 99.4422 34.5639C98.5863 41.4199 98.4256 47.9519 98.5944 54.2399C105.831 56.0839 112.489 59.9199 117.649 65.4319L117.833 65.6319L118.087 65.5599C120.907 64.7759 123.776 64.3759 126.617 64.3759C142.501 64.3759 155.845 76.5439 157.388 92.1919C163.52 91.0119 169.487 88.5479 174.9 84.3039C179.995 80.3239 184.029 75.5239 187.035 70.2439C167.844 81.1879 146.097 68.4439 134.003 53.2599Z" fill="#7694B4"/>
<path fill-rule="evenodd" clip-rule="evenodd" d="M124.054 173.86L112.742 173.688L122.016 157.54L107.7 157.66L95.5527 181.752H106.129L91.2773 218.268L124.054 173.86Z" fill="#FF7800"/>
<path fill-rule="evenodd" clip-rule="evenodd" d="M144.032 206.408C144.743 206.58 145.197 207.312 145.013 208.028L144.944 208.284C144.772 208.992 144.04 209.44 143.329 209.26L134.067 207.012L136.329 216.236C136.514 216.948 136.064 217.668 135.337 217.848L135.08 217.904C134.368 218.084 133.637 217.64 133.464 216.928L131.234 207.872L124.6 214.44C124.074 214.952 123.234 214.952 122.708 214.428L122.515 214.24C122.005 213.716 122.005 212.872 122.527 212.348L129.145 205.812L120.088 203.608C119.373 203.44 118.915 202.72 119.103 201.996L119.16 201.74C119.34 201.02 120.076 200.588 120.787 200.76L130.057 203.008L127.783 193.784C127.61 193.08 128.064 192.34 128.779 192.172L129.036 192.108C129.76 191.932 130.491 192.372 130.664 193.084L132.874 202.124L139.516 195.572C140.038 195.056 140.89 195.056 141.404 195.584L141.597 195.772C142.124 196.292 142.111 197.132 141.597 197.652L134.967 204.196L144.032 206.408ZM164.77 174.98C165.481 175.152 165.931 175.884 165.754 176.596L165.686 176.852C165.513 177.56 164.782 178.008 164.071 177.828L154.809 175.58L157.071 184.804C157.252 185.516 156.802 186.236 156.075 186.416L155.818 186.472C155.106 186.652 154.375 186.208 154.202 185.496L151.972 176.44L145.338 183.008C144.812 183.52 143.972 183.52 143.446 182.996L143.253 182.808C142.742 182.284 142.742 181.44 143.265 180.916L149.883 174.38L140.826 172.176C140.11 172.008 139.652 171.288 139.841 170.564L139.897 170.308C140.078 169.588 140.814 169.156 141.525 169.328L150.795 171.58L148.521 162.356C148.348 161.652 148.802 160.912 149.517 160.744L149.774 160.68C150.497 160.504 151.229 160.944 151.402 161.656L153.612 170.696L160.254 164.144C160.776 163.628 161.628 163.628 162.142 164.156L162.335 164.344C162.861 164.864 162.849 165.704 162.335 166.224L155.705 172.768L164.77 174.98ZM80.3922 206.408C81.1035 206.58 81.5535 207.312 81.3767 208.024L81.3084 208.28C81.1356 208.988 80.4043 209.436 79.6931 209.256L70.4312 207.008L72.6934 216.232C72.8782 216.944 72.4282 217.664 71.7009 217.844L71.4437 217.9C70.7325 218.08 70.0012 217.636 69.8284 216.924L67.5983 207.868L60.9643 214.436C60.4379 214.948 59.5981 214.948 59.0718 214.424L58.8789 214.236C58.3686 213.712 58.3686 212.868 58.8909 212.344L65.5089 205.808L56.4519 203.604C55.7367 203.436 55.2786 202.716 55.4675 201.992L55.5237 201.736C55.7045 201.016 56.4399 200.584 57.1511 200.756L66.421 203.008L64.1467 193.784C63.9699 193.08 64.424 192.34 65.1392 192.172L65.3964 192.108C66.1197 191.932 66.851 192.372 67.0237 193.084L69.2337 202.124L75.8758 195.572C76.3982 195.056 77.25 195.056 77.7643 195.584L77.9572 195.772C78.4836 196.292 78.4715 197.132 77.9572 197.652L71.3272 204.196L80.3922 206.408ZM80.9668 174.98C81.674 175.152 82.1281 175.884 81.9513 176.596L81.883 176.852C81.7102 177.56 80.9789 178.008 80.2677 177.828L71.0058 175.58L73.268 184.804C73.4528 185.516 73.0028 186.236 72.2755 186.416L72.0183 186.472C71.3071 186.652 70.5758 186.208 70.403 185.496L68.1729 176.44L61.5389 183.008C61.0125 183.52 60.1727 183.52 59.6464 182.996L59.4535 182.808C58.9432 182.284 58.9432 181.44 59.4655 180.916L66.0835 174.38L57.0265 172.176C56.3113 172.008 55.8532 171.288 56.0421 170.564L56.0983 170.308C56.2791 169.588 57.0145 169.156 57.7257 169.328L66.9956 171.58L64.7213 162.356C64.5445 161.652 64.9986 160.912 65.7138 160.744L65.971 160.68C66.6943 160.504 67.4256 160.944 67.5983 161.656L69.8083 170.696L76.4504 164.144C76.9728 163.628 77.8246 163.628 78.3389 164.156L78.5318 164.344C79.0582 164.864 79.0461 165.704 78.5318 166.224L71.9018 172.768L80.9668 174.98Z" fill="#38C0E0"/>
</g>
<defs>
<clipPath id="clip0_183_719">
<rect width="221" height="220" fill="white"/>
</clipPath>
</defs>
</svg>
