<svg width="220" height="220" viewBox="0 0 220 220" fill="none" xmlns="http://www.w3.org/2000/svg">
<g clip-path="url(#clip0_183_728)">
<path fill-rule="evenodd" clip-rule="evenodd" d="M154.42 98.692L150.82 97.036L150.528 93.08C149.584 80.348 138.832 70.372 126.044 70.372C123.788 70.372 121.504 70.692 119.252 71.324L115.304 72.428L112.516 69.428C106.336 62.78 97.5842 58.968 88.5002 58.968C72.9482 58.968 59.4282 70.052 56.3682 85.328L55.6522 88.904L52.2562 90.256C40.7962 94.796 33.0962 106.112 33.0962 118.416C33.0962 135.12 46.6962 148.72 63.4042 148.72H143.516C157.952 148.72 169.696 136.96 169.696 122.504C169.692 112.312 163.7 102.964 154.42 98.692Z" fill="#D5DCE2"/>
<path fill-rule="evenodd" clip-rule="evenodd" d="M133.396 53.2599C122.648 39.6999 115.92 16.1479 131.06 0.159912C125.236 1.83191 119.616 4.61191 114.556 8.59991C105.924 15.3919 100.9 24.7079 98.9918 34.5639C98.1398 41.4199 97.9798 47.9519 98.1478 54.2399C105.352 56.0839 111.98 59.9199 117.116 65.4319L117.3 65.6319L117.552 65.5599C120.36 64.7759 123.216 64.3759 126.044 64.3759C141.856 64.3759 155.14 76.5439 156.676 92.1919C162.78 91.0119 168.72 88.5479 174.108 84.3039C179.18 80.3239 183.196 75.5239 186.188 70.2439C167.084 81.1879 145.436 68.4439 133.396 53.2599Z" fill="#7694B4"/>
<path fill-rule="evenodd" clip-rule="evenodd" d="M72.6001 174.98C73.3041 175.152 73.7561 175.884 73.5801 176.596L73.5121 176.852C73.3401 177.56 72.6121 178.008 71.9041 177.828L62.6841 175.58L64.9361 184.804C65.1201 185.516 64.6721 186.236 63.9481 186.416L63.6921 186.472C62.9841 186.652 62.2561 186.208 62.0841 185.496L59.8641 176.44L53.2601 183.008C52.7361 183.52 51.9001 183.52 51.3761 182.996L51.1841 182.808C50.6761 182.284 50.6761 181.44 51.1961 180.916L57.7841 174.38L48.7681 172.176C48.0561 172.008 47.6001 171.288 47.7881 170.564L47.8441 170.308C48.0241 169.588 48.7561 169.156 49.4641 169.328L58.6921 171.58L56.4281 162.356C56.2521 161.652 56.7041 160.912 57.4161 160.744L57.6721 160.68C58.3921 160.504 59.1201 160.944 59.2921 161.656L61.4921 170.696L68.1041 164.144C68.6241 163.628 69.4721 163.628 69.9841 164.156L70.1761 164.344C70.7001 164.864 70.6881 165.704 70.1761 166.224L63.5761 172.768L72.6001 174.98ZM36.6241 206.408C37.3321 206.58 37.7841 207.312 37.6001 208.028L37.5321 208.284C37.3601 208.992 36.6321 209.44 35.9241 209.26L26.7041 207.012L28.9561 216.236C29.1401 216.948 28.6921 217.668 27.9681 217.848L27.7121 217.904C27.0041 218.084 26.2761 217.64 26.1041 216.928L23.8841 207.872L17.2801 214.44C16.7561 214.952 15.9201 214.952 15.3961 214.428L15.2041 214.24C14.6961 213.716 14.6961 212.872 15.2161 212.348L21.8041 205.812L12.7881 203.608C12.0761 203.44 11.6201 202.72 11.8081 201.996L11.8641 201.74C12.0441 201.02 12.7761 200.588 13.4841 200.76L22.7121 203.012L20.4481 193.788C20.2761 193.084 20.7281 192.344 21.4401 192.176L21.6961 192.108C22.4161 191.932 23.1441 192.372 23.3161 193.084L25.5161 202.124L32.1281 195.572C32.6481 195.056 33.4961 195.056 34.0081 195.584L34.2001 195.772C34.7241 196.292 34.7121 197.132 34.2001 197.652L27.6001 204.196L36.6241 206.408ZM72.0281 206.408C72.7361 206.58 73.1841 207.312 73.0081 208.024L72.9401 208.28C72.7681 208.988 72.0401 209.436 71.3321 209.256L62.1121 207.008L64.3641 216.232C64.5481 216.944 64.1001 217.664 63.3761 217.844L63.1201 217.9C62.4121 218.08 61.6841 217.636 61.5121 216.924L59.2921 207.868L52.6881 214.436C52.1641 214.948 51.3281 214.948 50.8041 214.424L50.6121 214.236C50.1041 213.712 50.1041 212.868 50.6241 212.344L57.2121 205.808L48.1961 203.604C47.4841 203.436 47.0281 202.716 47.2161 201.992L47.2721 201.736C47.4521 201.016 48.1841 200.584 48.8921 200.756L58.1201 203.008L55.8561 193.784C55.6801 193.08 56.1321 192.34 56.8441 192.172L57.1001 192.108C57.8201 191.932 58.5481 192.372 58.7201 193.084L60.9201 202.124L67.5321 195.572C68.0521 195.056 68.9001 195.056 69.4121 195.584L69.6041 195.772C70.1281 196.292 70.1161 197.132 69.6041 197.652L63.0041 204.196L72.0281 206.408ZM135.38 206.408C136.088 206.58 136.54 207.312 136.356 208.028L136.288 208.284C136.116 208.992 135.388 209.44 134.68 209.26L125.46 207.012L127.712 216.236C127.896 216.948 127.448 217.668 126.724 217.848L126.468 217.904C125.76 218.084 125.032 217.64 124.86 216.928L122.64 207.872L116.036 214.44C115.512 214.952 114.676 214.952 114.152 214.428L113.96 214.24C113.452 213.716 113.452 212.872 113.972 212.348L120.56 205.812L111.544 203.608C110.832 203.44 110.376 202.72 110.564 201.996L110.62 201.74C110.8 201.02 111.532 200.588 112.24 200.76L121.468 203.008L119.204 193.784C119.032 193.08 119.484 192.34 120.196 192.172L120.452 192.108C121.172 191.932 121.9 192.372 122.072 193.084L124.272 202.124L130.884 195.572C131.404 195.056 132.252 195.056 132.764 195.584L132.956 195.772C133.48 196.292 133.468 197.132 132.956 197.652L126.356 204.196L135.38 206.408ZM170.788 206.408C171.492 206.58 171.944 207.312 171.764 208.028L171.696 208.284C171.524 208.992 170.796 209.44 170.088 209.26L160.868 207.012L163.12 216.236C163.304 216.948 162.856 217.668 162.132 217.848L161.876 217.904C161.168 218.084 160.44 217.64 160.268 216.928L158.048 207.872L151.444 214.44C150.92 214.952 150.084 214.952 149.56 214.428L149.368 214.24C148.86 213.716 148.86 212.872 149.38 212.348L155.968 205.812L146.952 203.608C146.24 203.44 145.784 202.72 145.972 201.996L146.028 201.74C146.208 201.02 146.94 200.588 147.648 200.76L156.876 203.012L154.612 193.788C154.436 193.084 154.888 192.344 155.6 192.176L155.86 192.108C156.58 191.932 157.308 192.372 157.48 193.084L159.68 202.124L166.292 195.572C166.812 195.056 167.66 195.056 168.172 195.584L168.364 195.772C168.888 196.292 168.876 197.132 168.364 197.652L161.764 204.196L170.788 206.408ZM156.024 174.98C156.732 175.152 157.18 175.884 157.004 176.596L156.936 176.852C156.764 177.56 156.036 178.008 155.328 177.828L146.108 175.58L148.36 184.804C148.54 185.516 148.092 186.236 147.368 186.416L147.112 186.472C146.404 186.652 145.676 186.208 145.504 185.496L143.284 176.44L136.68 183.008C136.156 183.52 135.32 183.52 134.796 182.996L134.604 182.808C134.096 182.284 134.096 181.44 134.616 180.916L141.204 174.38L132.188 172.176C131.476 172.008 131.02 171.288 131.208 170.564L131.264 170.308C131.444 169.588 132.176 169.156 132.884 169.328L142.112 171.58L139.848 162.356C139.676 161.652 140.128 160.912 140.84 160.744L141.096 160.68C141.816 160.504 142.544 160.944 142.716 161.656L144.916 170.696L151.528 164.144C152.048 163.628 152.896 163.628 153.408 164.156L153.6 164.344C154.124 164.864 154.112 165.704 153.6 166.224L147 172.768L156.024 174.98Z" fill="#38C0E0"/>
<path fill-rule="evenodd" clip-rule="evenodd" d="M115.492 173.86L104.232 173.688L113.464 157.54L99.2118 157.66L87.1198 181.752H97.6478L82.8638 218.268L115.492 173.86Z" fill="#FF7800"/>
</g>
<defs>
<clipPath id="clip0_183_728">
<rect width="220" height="220" fill="white"/>
</clipPath>
</defs>
</svg>
