<svg width="220" height="220" viewBox="0 0 220 220" fill="none" xmlns="http://www.w3.org/2000/svg">
<g clip-path="url(#clip0_183_684)">
<path fill-rule="evenodd" clip-rule="evenodd" d="M154.42 98.692L150.82 97.036L150.528 93.08C149.584 80.348 138.832 70.372 126.044 70.372C123.788 70.372 121.504 70.692 119.252 71.324L115.304 72.428L112.516 69.428C106.336 62.78 97.5842 58.968 88.5002 58.968C72.9482 58.968 59.4282 70.052 56.3682 85.328L55.6522 88.904L52.2562 90.256C40.7962 94.796 33.0962 106.112 33.0962 118.416C33.0962 135.12 46.6962 148.72 63.4042 148.72H143.516C157.952 148.72 169.696 136.96 169.696 122.504C169.692 112.312 163.7 102.964 154.42 98.692Z" fill="#D5DCE2"/>
<path fill-rule="evenodd" clip-rule="evenodd" d="M133.396 53.2599C122.648 39.6999 115.92 16.1479 131.06 0.159912C125.236 1.83191 119.616 4.61191 114.556 8.59991C105.924 15.3919 100.9 24.7079 98.9918 34.5639C98.1398 41.4199 97.9798 47.9519 98.1478 54.2399C105.352 56.0839 111.98 59.9199 117.116 65.4319L117.3 65.6319L117.552 65.5599C120.36 64.7759 123.216 64.3759 126.044 64.3759C141.856 64.3759 155.14 76.5439 156.676 92.1919C162.78 91.0119 168.72 88.5479 174.108 84.3039C179.18 80.3239 183.196 75.5239 186.188 70.2439C167.084 81.1879 145.436 68.4439 133.396 53.2599Z" fill="#7694B4"/>
<path fill-rule="evenodd" clip-rule="evenodd" d="M60.4198 180.916C55.1278 191.132 43.0519 184.448 48.1319 174.588C52.4439 166.208 62.8039 161.14 62.8039 161.14C62.8039 161.14 64.6038 172.804 60.4198 180.916ZM68.5559 212.16C63.2639 222.376 51.1878 215.692 56.2678 205.832C60.5798 197.452 70.9399 192.384 70.9399 192.384C70.9399 192.384 72.7399 204.044 68.5559 212.16ZM152.524 180.916C147.232 191.132 135.156 184.448 140.236 174.588C144.548 166.208 154.908 161.14 154.908 161.14C154.908 161.14 156.708 172.804 152.524 180.916Z" fill="#009EFF"/>
<path fill-rule="evenodd" clip-rule="evenodd" d="M116.148 173.86L104.888 173.688L114.12 157.54L99.868 157.66L87.776 181.752H98.304L83.52 218.268L116.148 173.86Z" fill="#FF7800"/>
<path fill-rule="evenodd" clip-rule="evenodd" d="M40.9878 206.22C41.6958 206.392 42.1478 207.128 41.9678 207.836L41.8999 208.092C41.7279 208.8 40.9998 209.248 40.2918 209.068L31.0718 206.82L33.3239 216.044C33.5039 216.756 33.0559 217.476 32.3319 217.656L32.0758 217.712C31.3678 217.892 30.6398 217.448 30.4678 216.736L28.2479 207.68L21.6439 214.248C21.1199 214.76 20.2838 214.76 19.7598 214.236L19.5678 214.048C19.0598 213.524 19.0598 212.68 19.5798 212.156L26.1678 205.62L17.1518 203.416C16.4398 203.248 15.9839 202.528 16.1719 201.804L16.2278 201.548C16.4078 200.828 17.1398 200.396 17.8478 200.568L27.0758 202.82L24.8118 193.596C24.6398 192.892 25.0919 192.152 25.8039 191.984L26.0599 191.92C26.7799 191.744 27.5078 192.184 27.6798 192.896L29.8799 201.936L36.4918 195.384C37.0118 194.868 37.8599 194.868 38.3719 195.396L38.5638 195.584C39.0878 196.104 39.0758 196.944 38.5638 197.464L31.9639 204.008L40.9878 206.22ZM136.196 206.22C136.904 206.392 137.352 207.128 137.172 207.836L137.104 208.092C136.932 208.8 136.204 209.248 135.496 209.068L126.276 206.82L128.528 216.044C128.712 216.756 128.264 217.476 127.54 217.656L127.284 217.712C126.576 217.892 125.848 217.448 125.676 216.736L123.456 207.68L116.852 214.248C116.328 214.76 115.492 214.76 114.968 214.236L114.776 214.048C114.268 213.524 114.268 212.68 114.788 212.156L121.376 205.62L112.36 203.416C111.648 203.248 111.192 202.528 111.38 201.804L111.436 201.548C111.616 200.828 112.348 200.396 113.056 200.568L122.284 202.82L120.02 193.596C119.848 192.892 120.3 192.152 121.012 191.984L121.268 191.92C121.988 191.744 122.716 192.184 122.888 192.896L125.088 201.936L131.7 195.384C132.22 194.868 133.068 194.868 133.58 195.396L133.772 195.584C134.296 196.104 134.284 196.944 133.772 197.464L127.172 204.008L136.196 206.22ZM170.212 206.22C170.92 206.392 171.372 207.128 171.184 207.848L171.116 208.104C170.944 208.812 170.216 209.26 169.508 209.08L160.288 206.832L162.54 216.056C162.724 216.768 162.276 217.488 161.552 217.668L161.296 217.724C160.588 217.904 159.86 217.46 159.688 216.748L157.468 207.692L150.864 214.26C150.34 214.772 149.504 214.772 148.98 214.248L148.788 214.06C148.28 213.536 148.28 212.692 148.8 212.168L155.392 205.62L146.376 203.416C145.664 203.248 145.208 202.528 145.396 201.804L145.452 201.548C145.632 200.828 146.364 200.396 147.072 200.568L156.3 202.82L154.036 193.596C153.864 192.892 154.316 192.152 155.028 191.984L155.284 191.92C156.004 191.744 156.732 192.184 156.904 192.896L159.104 201.936L165.716 195.384C166.236 194.868 167.084 194.868 167.596 195.396L167.788 195.584C168.312 196.104 168.3 196.944 167.788 197.464L161.188 204.008L170.212 206.22Z" fill="#38C0E0"/>
</g>
<defs>
<clipPath id="clip0_183_684">
<rect width="220" height="220" fill="white"/>
</clipPath>
</defs>
</svg>
