<svg width="221" height="220" viewBox="0 0 221 220" fill="none" xmlns="http://www.w3.org/2000/svg">
<g clip-path="url(#clip0_183_628)">
<path fill-rule="evenodd" clip-rule="evenodd" d="M155.122 98.692L151.505 97.036L151.212 93.08C150.264 80.348 139.463 70.372 126.617 70.372C124.35 70.372 122.056 70.692 119.794 71.324L115.828 72.428L113.027 69.428C106.819 62.78 98.0272 58.968 88.9019 58.968C73.2792 58.968 59.6978 70.052 56.6239 85.328L55.9046 88.904L52.4932 90.256C40.9811 94.796 33.2461 106.112 33.2461 118.416C33.2461 135.12 46.9079 148.72 63.6919 148.72H144.168C158.67 148.72 170.467 136.96 170.467 122.504C170.463 112.312 164.444 102.964 155.122 98.692Z" fill="#D5DCE2"/>
<path fill-rule="evenodd" clip-rule="evenodd" d="M134.002 53.2599C123.205 39.6999 116.447 16.1479 131.655 0.159912C125.805 1.83191 120.159 4.61191 115.076 8.59991C106.405 15.3919 101.358 24.7079 99.4417 34.5639C98.5859 41.4199 98.4251 47.9519 98.5939 54.2399C105.831 56.0839 112.489 59.9199 117.648 65.4319L117.833 65.6319L118.086 65.5599C120.907 64.7759 123.776 64.3759 126.617 64.3759C142.501 64.3759 155.845 76.5439 157.388 92.1919C163.52 91.0119 169.487 88.5479 174.899 84.3039C179.994 80.3239 184.028 75.5239 187.034 70.2439C167.843 81.1879 146.097 68.4439 134.002 53.2599Z" fill="#7694B4"/>
<path fill-rule="evenodd" clip-rule="evenodd" d="M116.676 173.86L105.365 173.688L114.639 157.54L100.322 157.66L88.1748 181.752H98.7506L83.8994 218.268L116.676 173.86Z" fill="#FF7800"/>
<path fill-rule="evenodd" clip-rule="evenodd" d="M70.1937 211.352C64.8777 221.568 52.7468 214.884 57.8499 205.024C62.1815 196.644 72.5886 191.576 72.5886 191.576C72.5886 191.576 74.3967 203.236 70.1937 211.352ZM123.145 211.352C117.829 221.568 105.698 214.884 110.801 205.024C115.133 196.644 125.54 191.576 125.54 191.576C125.54 191.576 127.348 203.236 123.145 211.352ZM149.348 180.916C144.032 191.132 131.901 184.448 137.004 174.588C141.336 166.208 151.743 161.14 151.743 161.14C151.743 161.14 153.551 172.804 149.348 180.916ZM154.845 211.352C149.529 221.568 137.398 214.884 142.501 205.024C146.832 196.644 157.24 191.576 157.24 191.576C157.24 191.576 159.048 203.236 154.845 211.352ZM38.6229 211.352C33.3068 221.568 21.1759 214.884 26.279 205.024C30.6106 196.644 41.0177 191.576 41.0177 191.576C41.0177 191.576 42.8259 203.236 38.6229 211.352ZM67.3488 180.916C62.0328 191.132 49.9019 184.448 55.005 174.588C59.3366 166.208 69.7437 161.14 69.7437 161.14C69.7437 161.14 71.5519 172.804 67.3488 180.916Z" fill="#009EFF"/>
</g>
<defs>
<clipPath id="clip0_183_628">
<rect width="221" height="220" fill="white"/>
</clipPath>
</defs>
</svg>
