<svg width="220" height="220" viewBox="0 0 220 220" fill="none" xmlns="http://www.w3.org/2000/svg">
<g clip-path="url(#clip0_183_711)">
<path fill-rule="evenodd" clip-rule="evenodd" d="M154.42 98.692L150.82 97.036L150.528 93.08C149.584 80.348 138.832 70.372 126.044 70.372C123.788 70.372 121.504 70.692 119.252 71.324L115.304 72.428L112.516 69.428C106.336 62.78 97.5842 58.968 88.5002 58.968C72.9482 58.968 59.4282 70.052 56.3682 85.328L55.6522 88.904L52.2562 90.256C40.7962 94.796 33.0962 106.112 33.0962 118.416C33.0962 135.12 46.6962 148.72 63.4042 148.72H143.516C157.952 148.72 169.696 136.96 169.696 122.504C169.692 112.312 163.7 102.964 154.42 98.692Z" fill="#D5DCE2"/>
<path fill-rule="evenodd" clip-rule="evenodd" d="M133.396 53.2599C122.648 39.6999 115.92 16.1479 131.06 0.159912C125.236 1.83191 119.616 4.61191 114.556 8.59991C105.924 15.3919 100.9 24.7079 98.9918 34.5639C98.1398 41.4199 97.9798 47.9519 98.1478 54.2399C105.352 56.0839 111.98 59.9199 117.116 65.4319L117.3 65.6319L117.552 65.5599C120.36 64.7759 123.216 64.3759 126.044 64.3759C141.856 64.3759 155.14 76.5439 156.676 92.1919C162.78 91.0119 168.72 88.5479 174.108 84.3039C179.18 80.3239 183.196 75.5239 186.188 70.2439C167.084 81.1879 145.436 68.4439 133.396 53.2599Z" fill="#7694B4"/>
<path fill-rule="evenodd" clip-rule="evenodd" d="M85.3201 174.98C86.0241 175.152 86.4761 175.884 86.3001 176.596L86.2321 176.852C86.0601 177.56 85.3321 178.008 84.6241 177.828L75.4041 175.58L77.6561 184.804C77.8401 185.516 77.3921 186.236 76.6681 186.416L76.4121 186.472C75.7041 186.652 74.9761 186.208 74.8041 185.496L72.5841 176.44L65.9801 183.008C65.4561 183.52 64.6201 183.52 64.0961 182.996L63.9041 182.808C63.3961 182.284 63.3961 181.44 63.9161 180.916L70.5041 174.38L61.4881 172.176C60.7761 172.008 60.3201 171.288 60.5081 170.564L60.5641 170.308C60.7441 169.588 61.4761 169.156 62.1841 169.328L71.4121 171.58L69.1481 162.356C68.9721 161.652 69.4241 160.912 70.1361 160.744L70.3921 160.68C71.1121 160.504 71.8401 160.944 72.0121 161.656L74.2121 170.696L80.8241 164.144C81.3441 163.628 82.1921 163.628 82.7041 164.156L82.8961 164.344C83.4201 164.864 83.4081 165.704 82.8961 166.224L76.2961 172.768L85.3201 174.98ZM62.1241 206.408C62.8321 206.58 63.2801 207.312 63.1041 208.024L63.0361 208.28C62.8641 208.988 62.1361 209.436 61.4281 209.256L52.2081 207.008L54.4601 216.232C54.6401 216.944 54.1921 217.664 53.4681 217.844L53.2121 217.9C52.5041 218.08 51.7761 217.636 51.6041 216.924L49.3841 207.868L42.7801 214.436C42.2561 214.948 41.4201 214.948 40.8961 214.424L40.7041 214.236C40.1961 213.712 40.1961 212.868 40.7161 212.344L47.3041 205.808L38.2881 203.604C37.5761 203.436 37.1201 202.716 37.3081 201.992L37.3641 201.736C37.5441 201.016 38.2761 200.584 38.9841 200.756L48.2121 203.008L45.9481 193.784C45.7761 193.08 46.2281 192.34 46.9401 192.172L47.1961 192.108C47.9161 191.932 48.6441 192.372 48.8161 193.084L51.0161 202.124L57.6281 195.572C58.1481 195.056 58.9961 195.056 59.5081 195.584L59.7001 195.772C60.2241 196.292 60.2121 197.132 59.7001 197.652L53.1001 204.196L62.1241 206.408ZM123.16 206.408C123.868 206.58 124.316 207.312 124.136 208.024L124.068 208.28C123.896 208.988 123.168 209.436 122.46 209.256L113.24 207.008L115.492 216.232C115.676 216.944 115.228 217.664 114.504 217.844L114.248 217.9C113.54 218.08 112.812 217.636 112.64 216.924L110.42 207.868L103.816 214.436C103.292 214.948 102.456 214.948 101.932 214.424L101.74 214.236C101.232 213.712 101.232 212.868 101.752 212.344L108.34 205.808L99.3241 203.604C98.6121 203.436 98.1561 202.716 98.3441 201.992L98.4001 201.736C98.5801 201.016 99.3121 200.584 100.02 200.756L109.248 203.008L106.984 193.784C106.812 193.08 107.264 192.34 107.976 192.172L108.232 192.108C108.952 191.932 109.68 192.372 109.852 193.084L112.052 202.124L118.664 195.572C119.184 195.056 120.032 195.056 120.544 195.584L120.736 195.772C121.26 196.292 121.248 197.132 120.736 197.652L114.136 204.196L123.16 206.408ZM146.868 174.98C147.572 175.152 148.024 175.884 147.844 176.596L147.776 176.852C147.604 177.56 146.876 178.008 146.168 177.828L136.948 175.58L139.2 184.804C139.384 185.516 138.936 186.236 138.212 186.416L137.956 186.472C137.248 186.652 136.52 186.208 136.348 185.496L134.128 176.44L127.524 183.008C127 183.52 126.164 183.52 125.64 182.996L125.448 182.808C124.94 182.284 124.94 181.44 125.46 180.916L132.048 174.38L123.032 172.176C122.32 172.008 121.864 171.288 122.052 170.564L122.108 170.308C122.288 169.588 123.02 169.156 123.728 169.328L132.956 171.58L130.692 162.356C130.52 161.652 130.972 160.912 131.684 160.744L131.94 160.68C132.66 160.504 133.388 160.944 133.56 161.656L135.76 170.696L142.372 164.144C142.892 163.628 143.74 163.628 144.252 164.156L144.444 164.344C144.968 164.864 144.956 165.704 144.444 166.224L137.844 172.768L146.868 174.98Z" fill="#38C0E0"/>
</g>
<defs>
<clipPath id="clip0_183_711">
<rect width="220" height="220" fill="white"/>
</clipPath>
</defs>
</svg>
