<svg width="220" height="220" viewBox="0 0 220 220" fill="none" xmlns="http://www.w3.org/2000/svg">
<g clip-path="url(#clip0_183_900)">
<path fill-rule="evenodd" clip-rule="evenodd" d="M174.392 99.0559C183.66 103.36 189.624 112.72 189.6 122.912C189.56 137.372 177.78 149.096 163.344 149.052L83.2322 148.816C66.5242 148.768 52.9682 135.128 53.0162 118.424C53.0522 106.12 60.7842 94.8279 72.2602 90.3199L75.6642 88.9799L76.3882 85.4039C79.4922 70.1359 93.0442 59.0919 108.596 59.1399C117.676 59.1679 126.42 63.0079 132.58 69.6719L135.356 72.6799L139.308 71.5879C141.56 70.9679 143.848 70.6479 146.104 70.6559C158.892 70.6919 169.616 80.6999 170.52 93.4399L170.8 97.3919L174.392 99.0559ZM46.7242 118.404C46.7122 122.308 47.3322 126.072 48.4642 129.612C43.6242 128.732 39.7242 127.648 39.7242 127.648C25.5162 122.636 15.5842 108.524 17.0322 92.3439C18.2082 79.1959 27.3842 68.1039 39.6722 63.2679L42.4042 62.1919L43.2282 58.1599C47.4202 37.5159 68.5762 23.7199 90.2402 30.1639C96.7402 32.0959 102.476 36.0359 107.08 41.0159L109.676 43.8279C109.676 43.8279 109.856 43.9359 110.132 44.1079C116.432 41.1159 123.872 40.9919 130.512 44.6399C136.704 48.0479 140.632 52.9999 142.66 58.4319C142.88 59.0199 143.812 62.4119 143.644 64.5439C141.632 64.6999 139.616 64.9879 137.628 65.5359L137.372 65.6079L137.188 65.4079C129.844 57.4639 119.428 52.8919 108.608 52.8599C90.0602 52.8039 73.9202 65.9599 70.2202 84.1519L70.1762 84.3839L69.9522 84.4719C56.1002 89.9119 46.7682 103.548 46.7242 118.404Z" fill="#D5DCE2"/>
<path fill-rule="evenodd" clip-rule="evenodd" d="M153.504 53.28C142.796 39.688 136.14 16.116 151.324 0.176025C145.496 1.82803 139.864 4.59603 134.792 8.56403C126.14 15.332 121.088 24.632 119.152 34.484C119.1 34.88 119.076 35.268 119.04 35.656C119.344 35.648 119.652 35.588 119.956 35.592C124.724 35.608 129.292 36.8 133.532 39.132C140.64 43.04 145.832 48.952 148.548 56.236C148.876 57.116 150.104 61.304 149.912 64.748C151.688 64.98 153.4 65.356 155.068 65.88C155.104 65.892 155.148 65.9 155.188 65.912C156.752 66.408 158.248 67.02 159.696 67.752C159.896 67.852 160.092 67.952 160.296 68.056C161.552 68.724 162.752 69.46 163.9 70.292C164.308 70.58 164.688 70.888 165.08 71.192C165.984 71.912 166.852 72.652 167.672 73.472C168.268 74.056 168.804 74.684 169.352 75.316C169.9 75.96 170.452 76.592 170.944 77.28C171.652 78.252 172.268 79.28 172.864 80.336C173.12 80.796 173.408 81.24 173.636 81.712C174.332 83.112 174.896 84.576 175.372 86.084C175.44 86.304 175.532 86.508 175.596 86.728C176.116 88.516 176.488 90.364 176.664 92.272C182.768 91.116 188.724 88.664 194.12 84.44C199.204 80.476 203.236 75.688 206.24 70.416C187.108 81.308 165.496 68.5 153.504 53.28Z" fill="#7694B4"/>
<path fill-rule="evenodd" clip-rule="evenodd" d="M86.304 174.98C87.012 175.152 87.464 175.884 87.284 176.596L87.216 176.852C87.044 177.56 86.316 178.008 85.608 177.828L76.388 175.58L78.64 184.804C78.824 185.516 78.376 186.236 77.652 186.416L77.396 186.472C76.688 186.652 75.96 186.208 75.788 185.496L73.568 176.44L66.964 183.008C66.44 183.52 65.604 183.52 65.08 182.996L64.888 182.808C64.38 182.284 64.38 181.44 64.9 180.916L71.488 174.38L62.472 172.176C61.76 172.008 61.304 171.288 61.492 170.564L61.548 170.308C61.728 169.588 62.46 169.156 63.168 169.328L72.396 171.58L70.132 162.356C69.956 161.652 70.408 160.912 71.12 160.744L71.376 160.68C72.096 160.504 72.824 160.944 72.996 161.656L75.196 170.696L81.808 164.144C82.328 163.628 83.176 163.628 83.688 164.156L83.88 164.344C84.404 164.864 84.392 165.704 83.88 166.224L77.28 172.768L86.304 174.98ZM149.44 206.408C150.148 206.58 150.6 207.312 150.416 208.024L150.348 208.28C150.176 208.988 149.448 209.436 148.74 209.256L139.52 207.008L141.772 216.232C141.956 216.944 141.508 217.664 140.784 217.844L140.528 217.9C139.82 218.08 139.092 217.636 138.92 216.924L136.7 207.868L130.096 214.436C129.572 214.948 128.736 214.948 128.212 214.424L128.02 214.236C127.512 213.712 127.512 212.868 128.032 212.344L134.62 205.808L125.604 203.604C124.892 203.436 124.436 202.716 124.624 201.992L124.68 201.736C124.86 201.016 125.592 200.584 126.3 200.756L135.528 203.008L133.264 193.784C133.092 193.08 133.544 192.34 134.256 192.172L134.512 192.108C135.232 191.932 135.96 192.372 136.132 193.084L138.332 202.124L144.944 195.572C145.464 195.056 146.312 195.056 146.824 195.584L147.016 195.772C147.54 196.292 147.528 197.132 147.016 197.652L140.416 204.196L149.44 206.408ZM109.328 206.408C110.036 206.58 110.488 207.312 110.304 208.024L110.236 208.28C110.064 208.988 109.336 209.436 108.628 209.256L99.408 207.008L101.66 216.232C101.844 216.944 101.396 217.664 100.672 217.844L100.416 217.9C99.708 218.08 98.98 217.636 98.808 216.924L96.588 207.868L89.984 214.436C89.46 214.948 88.624 214.948 88.1 214.424L87.908 214.236C87.4 213.712 87.4 212.868 87.92 212.344L94.508 205.808L85.492 203.604C84.78 203.436 84.324 202.716 84.512 201.992L84.568 201.736C84.748 201.016 85.48 200.584 86.188 200.756L95.416 203.008L93.152 193.784C92.98 193.08 93.432 192.34 94.144 192.172L94.4 192.108C95.12 191.932 95.848 192.372 96.02 193.084L98.22 202.124L104.832 195.572C105.352 195.056 106.2 195.056 106.712 195.584L106.904 195.772C107.428 196.292 107.416 197.132 106.904 197.652L100.304 204.196L109.328 206.408ZM64.272 206.408C64.98 206.58 65.428 207.312 65.252 208.024L65.184 208.28C65.012 208.988 64.284 209.436 63.576 209.256L54.356 207.008L56.608 216.232C56.788 216.944 56.34 217.664 55.616 217.844L55.36 217.9C54.652 218.08 53.924 217.636 53.752 216.924L51.532 207.868L44.928 214.436C44.404 214.948 43.568 214.948 43.044 214.424L42.852 214.236C42.344 213.712 42.344 212.868 42.864 212.344L49.452 205.808L40.436 203.604C39.724 203.436 39.268 202.716 39.456 201.992L39.512 201.736C39.692 201.016 40.424 200.584 41.132 200.756L50.36 203.008L48.096 193.784C47.924 193.08 48.376 192.34 49.088 192.172L49.344 192.108C50.064 191.932 50.792 192.372 50.964 193.084L53.164 202.124L59.776 195.572C60.296 195.056 61.144 195.056 61.656 195.584L61.848 195.772C62.372 196.292 62.36 197.132 61.848 197.652L55.248 204.196L64.272 206.408ZM171.476 174.98C172.184 175.152 172.632 175.884 172.452 176.596L172.384 176.852C172.212 177.56 171.484 178.008 170.776 177.828L161.556 175.58L163.808 184.804C163.992 185.516 163.544 186.236 162.82 186.416L162.564 186.472C161.856 186.652 161.128 186.208 160.956 185.496L158.736 176.44L152.132 183.008C151.608 183.52 150.772 183.52 150.248 182.996L150.056 182.808C149.548 182.284 149.548 181.44 150.068 180.916L156.656 174.38L147.64 172.176C146.928 172.008 146.472 171.288 146.66 170.564L146.716 170.308C146.896 169.588 147.628 169.156 148.336 169.328L157.564 171.58L155.3 162.356C155.128 161.652 155.58 160.912 156.292 160.744L156.548 160.68C157.268 160.504 157.996 160.944 158.168 161.656L160.368 170.696L166.98 164.144C167.5 163.628 168.348 163.628 168.86 164.156L169.052 164.344C169.576 164.864 169.564 165.704 169.052 166.224L162.452 172.768L171.476 174.98ZM128.892 174.98C129.596 175.152 130.048 175.884 129.868 176.596L129.8 176.852C129.628 177.56 128.9 178.008 128.192 177.828L118.972 175.58L121.224 184.804C121.408 185.516 120.96 186.236 120.236 186.416L119.98 186.472C119.272 186.652 118.544 186.208 118.372 185.496L116.152 176.44L109.548 183.008C109.024 183.52 108.188 183.52 107.664 182.996L107.472 182.808C106.964 182.284 106.964 181.44 107.484 180.916L114.072 174.38L105.056 172.176C104.344 172.008 103.888 171.288 104.076 170.564L104.132 170.308C104.312 169.588 105.044 169.156 105.752 169.328L114.98 171.58L112.716 162.356C112.544 161.652 112.996 160.912 113.708 160.744L113.964 160.68C114.684 160.504 115.412 160.944 115.584 161.656L117.784 170.696L124.396 164.144C124.916 163.628 125.764 163.628 126.276 164.156L126.468 164.344C126.992 164.864 126.98 165.704 126.468 166.224L119.868 172.768L128.892 174.98Z" fill="#38C0E0"/>
</g>
<defs>
<clipPath id="clip0_183_900">
<rect width="220" height="220" fill="white"/>
</clipPath>
</defs>
</svg>
