<svg width="220" height="220" viewBox="0 0 220 220" fill="none" xmlns="http://www.w3.org/2000/svg">
<g clip-path="url(#clip0_183_883)">
<path fill-rule="evenodd" clip-rule="evenodd" d="M174.392 99.0559C183.66 103.36 189.624 112.72 189.6 122.912C189.56 137.372 177.78 149.096 163.344 149.052L83.2322 148.816C66.5242 148.768 52.9682 135.128 53.0162 118.424C53.0522 106.12 60.7842 94.8279 72.2602 90.3199L75.6642 88.9799L76.3882 85.4039C79.4922 70.1359 93.0442 59.0919 108.596 59.1399C117.676 59.1679 126.42 63.0079 132.58 69.6719L135.356 72.6799L139.308 71.5879C141.56 70.9679 143.848 70.6479 146.104 70.6559C158.892 70.6919 169.616 80.6999 170.52 93.4399L170.8 97.3919L174.392 99.0559ZM46.7242 118.404C46.7122 122.308 47.3322 126.072 48.4642 129.612C43.6242 128.732 39.7242 127.648 39.7242 127.648C25.5162 122.636 15.5842 108.524 17.0322 92.3439C18.2082 79.1959 27.3842 68.1039 39.6722 63.2679L42.4042 62.1919L43.2282 58.1599C47.4202 37.5159 68.5762 23.7199 90.2402 30.1639C96.7402 32.0959 102.476 36.0359 107.08 41.0159L109.676 43.8279C109.676 43.8279 109.856 43.9359 110.132 44.1079C116.432 41.1159 123.872 40.9919 130.512 44.6399C136.704 48.0479 140.632 52.9999 142.66 58.4319C142.88 59.0199 143.812 62.4119 143.644 64.5439C141.632 64.6999 139.616 64.9879 137.628 65.5359L137.372 65.6079L137.188 65.4079C129.844 57.4639 119.428 52.8919 108.608 52.8599C90.0602 52.8039 73.9202 65.9599 70.2202 84.1519L70.1762 84.3839L69.9522 84.4719C56.1002 89.9119 46.7682 103.548 46.7242 118.404Z" fill="#D5DCE2"/>
<path fill-rule="evenodd" clip-rule="evenodd" d="M153.504 53.28C142.796 39.688 136.14 16.116 151.324 0.176025C145.496 1.82803 139.864 4.59603 134.792 8.56403C126.14 15.332 121.088 24.632 119.152 34.484C119.1 34.88 119.076 35.268 119.04 35.656C119.344 35.648 119.652 35.588 119.956 35.592C124.724 35.608 129.292 36.8 133.532 39.132C140.64 43.04 145.832 48.952 148.548 56.236C148.876 57.116 150.104 61.304 149.912 64.748C151.688 64.98 153.4 65.356 155.068 65.88C155.104 65.892 155.148 65.9 155.188 65.912C156.752 66.408 158.248 67.02 159.696 67.752C159.896 67.852 160.092 67.952 160.296 68.056C161.552 68.724 162.752 69.46 163.9 70.292C164.308 70.58 164.688 70.888 165.08 71.192C165.984 71.912 166.852 72.652 167.672 73.472C168.268 74.056 168.804 74.684 169.352 75.316C169.9 75.96 170.452 76.592 170.944 77.28C171.652 78.252 172.268 79.28 172.864 80.336C173.12 80.796 173.408 81.24 173.636 81.712C174.332 83.112 174.896 84.576 175.372 86.084C175.44 86.304 175.532 86.508 175.596 86.728C176.116 88.516 176.488 90.364 176.664 92.272C182.768 91.116 188.724 88.664 194.12 84.44C199.204 80.476 203.236 75.688 206.24 70.416C187.108 81.308 165.496 68.5 153.504 53.28Z" fill="#7694B4"/>
<path fill-rule="evenodd" clip-rule="evenodd" d="M89.3201 174.98C90.0241 175.152 90.4761 175.884 90.3001 176.596L90.2321 176.852C90.0601 177.56 89.3321 178.008 88.6241 177.828L79.4041 175.58L81.6561 184.804C81.8401 185.516 81.3921 186.236 80.6681 186.416L80.4121 186.472C79.7041 186.652 78.9761 186.208 78.8041 185.496L76.5841 176.44L69.9801 183.008C69.4561 183.52 68.6201 183.52 68.0961 182.996L67.9041 182.808C67.3961 182.284 67.3961 181.44 67.9161 180.916L74.5041 174.38L65.4881 172.176C64.7761 172.008 64.3201 171.288 64.5081 170.564L64.5641 170.308C64.7441 169.588 65.4761 169.156 66.1841 169.328L75.4121 171.58L73.1481 162.356C72.9721 161.652 73.4241 160.912 74.1361 160.744L74.3921 160.68C75.1121 160.504 75.8401 160.944 76.0121 161.656L78.2121 170.696L84.8241 164.144C85.3441 163.628 86.1921 163.628 86.7041 164.156L86.8961 164.344C87.4201 164.864 87.4081 165.704 86.8961 166.224L80.2961 172.768L89.3201 174.98ZM66.1241 206.408C66.8321 206.58 67.2801 207.312 67.1041 208.024L67.0361 208.28C66.8641 208.988 66.1361 209.436 65.4281 209.256L56.2081 207.008L58.4601 216.232C58.6401 216.944 58.1921 217.664 57.4681 217.844L57.2121 217.9C56.5041 218.08 55.7761 217.636 55.6041 216.924L53.3841 207.868L46.7801 214.436C46.2561 214.948 45.4201 214.948 44.8961 214.424L44.7041 214.236C44.1961 213.712 44.1961 212.868 44.7161 212.344L51.3041 205.808L42.2881 203.604C41.5761 203.436 41.1201 202.716 41.3081 201.992L41.3641 201.736C41.5441 201.016 42.2761 200.584 42.9841 200.756L52.2121 203.008L49.9481 193.784C49.7761 193.08 50.2281 192.34 50.9401 192.172L51.1961 192.108C51.9161 191.932 52.6441 192.372 52.8161 193.084L55.0161 202.124L61.6281 195.572C62.1481 195.056 62.9961 195.056 63.5081 195.584L63.7001 195.772C64.2241 196.292 64.2121 197.132 63.7001 197.652L57.1001 204.196L66.1241 206.408ZM127.16 206.408C127.868 206.58 128.316 207.312 128.136 208.024L128.068 208.28C127.896 208.988 127.168 209.436 126.46 209.256L117.24 207.008L119.492 216.232C119.676 216.944 119.228 217.664 118.504 217.844L118.248 217.9C117.54 218.08 116.812 217.636 116.64 216.924L114.42 207.868L107.816 214.436C107.292 214.948 106.456 214.948 105.932 214.424L105.74 214.236C105.232 213.712 105.232 212.868 105.752 212.344L112.34 205.808L103.324 203.604C102.612 203.436 102.156 202.716 102.344 201.992L102.4 201.736C102.58 201.016 103.312 200.584 104.02 200.756L113.248 203.008L110.984 193.784C110.812 193.08 111.264 192.34 111.976 192.172L112.232 192.108C112.952 191.932 113.68 192.372 113.852 193.084L116.052 202.124L122.664 195.572C123.184 195.056 124.032 195.056 124.544 195.584L124.736 195.772C125.26 196.292 125.248 197.132 124.736 197.652L118.136 204.196L127.16 206.408ZM150.868 174.98C151.572 175.152 152.024 175.884 151.844 176.596L151.776 176.852C151.604 177.56 150.876 178.008 150.168 177.828L140.948 175.58L143.2 184.804C143.384 185.516 142.936 186.236 142.212 186.416L141.956 186.472C141.248 186.652 140.52 186.208 140.348 185.496L138.128 176.44L131.524 183.008C131 183.52 130.164 183.52 129.64 182.996L129.448 182.808C128.94 182.284 128.94 181.44 129.46 180.916L136.048 174.38L127.032 172.176C126.32 172.008 125.864 171.288 126.052 170.564L126.108 170.308C126.288 169.588 127.02 169.156 127.728 169.328L136.956 171.58L134.692 162.356C134.52 161.652 134.972 160.912 135.684 160.744L135.94 160.68C136.66 160.504 137.388 160.944 137.56 161.656L139.76 170.696L146.372 164.144C146.892 163.628 147.74 163.628 148.252 164.156L148.444 164.344C148.968 164.864 148.956 165.704 148.444 166.224L141.844 172.768L150.868 174.98Z" fill="#38C0E0"/>
</g>
<defs>
<clipPath id="clip0_183_883">
<rect width="220" height="220" fill="white"/>
</clipPath>
</defs>
</svg>
