<svg width="221" height="220" viewBox="0 0 221 220" fill="none" xmlns="http://www.w3.org/2000/svg">
<g clip-path="url(#clip0_183_891)">
<path fill-rule="evenodd" clip-rule="evenodd" d="M175.185 99.0559C184.495 103.36 190.486 112.72 190.462 122.912C190.422 137.372 178.588 149.096 164.086 149.052L83.6104 148.816C66.8264 148.768 53.2088 135.128 53.257 118.424C53.2932 106.12 61.0603 94.8279 72.5885 90.3199L76.008 88.9799L76.7353 85.4039C79.8534 70.1359 93.467 59.0919 109.09 59.1399C118.211 59.1679 126.995 63.0079 133.183 69.6719L135.971 72.6799L139.941 71.5879C142.203 70.9679 144.502 70.6479 146.768 70.6559C159.614 70.6919 170.387 80.6999 171.295 93.4399L171.576 97.3919L175.185 99.0559ZM46.9364 118.404C46.9244 122.308 47.5472 126.072 48.6843 129.612C43.8223 128.732 39.9046 127.648 39.9046 127.648C25.632 122.636 15.6549 108.524 17.1095 92.3439C18.2908 79.1959 27.5085 68.1039 39.8524 63.2679L42.5968 62.1919L43.4245 58.1599C47.6356 37.5159 68.8877 23.7199 90.6502 30.1639C97.1798 32.0959 102.942 36.0359 107.567 41.0159L110.175 43.8279C110.175 43.8279 110.355 43.9359 110.633 44.1079C116.961 41.1159 124.435 40.9919 131.105 44.6399C137.325 48.0479 141.271 52.9999 143.308 58.4319C143.529 59.0199 144.466 62.4119 144.297 64.5439C142.276 64.6999 140.251 64.9879 138.254 65.5359L137.996 65.6079L137.812 65.4079C130.434 57.4639 119.971 52.8919 109.102 52.8599C90.4694 52.8039 74.256 65.9599 70.5392 84.1519L70.495 84.3839L70.27 84.4719C56.355 89.9119 46.9806 103.548 46.9364 118.404Z" fill="#D5DCE2"/>
<path fill-rule="evenodd" clip-rule="evenodd" d="M154.202 53.28C143.445 39.688 136.759 16.116 152.012 0.176025C146.157 1.82803 140.5 4.59603 135.405 8.56403C126.713 15.332 121.638 24.632 119.694 34.484C119.641 34.88 119.617 35.268 119.581 35.656C119.886 35.648 120.196 35.588 120.501 35.592C125.291 35.608 129.88 36.8 134.139 39.132C141.279 43.04 146.495 48.952 149.223 56.236C149.553 57.116 150.786 61.304 150.593 64.748C152.377 64.98 154.097 65.356 155.773 65.88C155.809 65.892 155.853 65.9 155.893 65.912C157.464 66.408 158.967 67.02 160.422 67.752C160.623 67.852 160.82 67.952 161.025 68.056C162.286 68.724 163.492 69.46 164.645 70.292C165.055 70.58 165.437 70.888 165.83 71.192C166.738 71.912 167.61 72.652 168.434 73.472C169.033 74.056 169.571 74.684 170.122 75.316C170.672 75.96 171.227 76.592 171.721 77.28C172.432 78.252 173.051 79.28 173.65 80.336C173.907 80.796 174.196 81.24 174.425 81.712C175.124 83.112 175.691 84.576 176.169 86.084C176.237 86.304 176.33 86.508 176.394 86.728C176.916 88.516 177.29 90.364 177.467 92.272C183.599 91.116 189.582 88.664 195.002 84.44C200.109 80.476 204.16 75.688 207.177 70.416C187.958 81.308 166.248 68.5 154.202 53.28Z" fill="#7694B4"/>
<path fill-rule="evenodd" clip-rule="evenodd" d="M132.09 173.86L120.779 173.688L130.053 157.54L115.736 157.66L103.589 181.752H114.165L99.3135 218.268L132.09 173.86Z" fill="#FF7800"/>
<path fill-rule="evenodd" clip-rule="evenodd" d="M152.068 206.408C152.78 206.58 153.234 207.312 153.049 208.028L152.98 208.284C152.808 208.992 152.076 209.44 151.365 209.26L142.103 207.012L144.365 216.236C144.55 216.948 144.1 217.668 143.373 217.848L143.116 217.904C142.405 218.084 141.673 217.64 141.501 216.928L139.27 207.872L132.636 214.44C132.11 214.952 131.27 214.952 130.744 214.428L130.551 214.24C130.041 213.716 130.041 212.872 130.563 212.348L137.181 205.812L128.124 203.608C127.409 203.44 126.951 202.72 127.14 201.996L127.196 201.74C127.377 201.02 128.112 200.588 128.823 200.76L138.093 203.008L135.819 193.784C135.646 193.08 136.1 192.34 136.815 192.172L137.072 192.108C137.796 191.932 138.527 192.372 138.7 193.084L140.91 202.124L147.552 195.572C148.074 195.056 148.926 195.056 149.44 195.584L149.633 195.772C150.16 196.292 150.148 197.132 149.633 197.652L143.003 204.196L152.068 206.408ZM172.806 174.98C173.517 175.152 173.967 175.884 173.791 176.596L173.722 176.852C173.55 177.56 172.818 178.008 172.107 177.828L162.845 175.58L165.107 184.804C165.288 185.516 164.838 186.236 164.111 186.416L163.854 186.472C163.142 186.652 162.411 186.208 162.238 185.496L160.008 176.44L153.374 183.008C152.848 183.52 152.008 183.52 151.482 182.996L151.289 182.808C150.778 182.284 150.778 181.44 151.301 180.916L157.919 174.38L148.862 172.176C148.147 172.008 147.689 171.288 147.877 170.564L147.934 170.308C148.114 169.588 148.85 169.156 149.561 169.328L158.831 171.58L156.557 162.356C156.384 161.652 156.838 160.912 157.553 160.744L157.81 160.68C158.534 160.504 159.265 160.944 159.438 161.656L161.648 170.696L168.29 164.144C168.812 163.628 169.664 163.628 170.178 164.156L170.371 164.344C170.898 164.864 170.885 165.704 170.371 166.224L163.741 172.768L172.806 174.98ZM88.4284 206.408C89.1396 206.58 89.5896 207.312 89.4128 208.024L89.3445 208.28C89.1717 208.988 88.4404 209.436 87.7292 209.256L78.4673 207.008L80.7295 216.232C80.9144 216.944 80.4643 217.664 79.737 217.844L79.4799 217.9C78.7687 218.08 78.0374 217.636 77.8646 216.924L75.6345 207.868L69.0005 214.436C68.4741 214.948 67.6343 214.948 67.1079 214.424L66.915 214.236C66.4047 213.712 66.4047 212.868 66.9271 212.344L73.545 205.808L64.488 203.604C63.7728 203.436 63.3147 202.716 63.5036 201.992L63.5598 201.736C63.7407 201.016 64.476 200.584 65.1872 200.756L74.4572 203.008L72.1829 193.784C72.0061 193.08 72.4601 192.34 73.1754 192.172L73.4325 192.108C74.1558 191.932 74.8871 192.372 75.0599 193.084L77.2699 202.124L83.9119 195.572C84.4343 195.056 85.2862 195.056 85.8005 195.584L85.9933 195.772C86.5197 196.292 86.5077 197.132 85.9933 197.652L79.3633 204.196L88.4284 206.408ZM89.003 174.98C89.7102 175.152 90.1642 175.884 89.9874 176.596L89.9191 176.852C89.7463 177.56 89.015 178.008 88.3038 177.828L79.0419 175.58L81.3041 184.804C81.489 185.516 81.0389 186.236 80.3116 186.416L80.0545 186.472C79.3433 186.652 78.6119 186.208 78.4392 185.496L76.2091 176.44L69.5751 183.008C69.0487 183.52 68.2089 183.52 67.6825 182.996L67.4896 182.808C66.9793 182.284 66.9793 181.44 67.5017 180.916L74.1196 174.38L65.0626 172.176C64.3474 172.008 63.8893 171.288 64.0782 170.564L64.1344 170.308C64.3153 169.588 65.0506 169.156 65.7618 169.328L75.0318 171.58L72.7575 162.356C72.5807 161.652 73.0347 160.912 73.75 160.744L74.0071 160.68C74.7304 160.504 75.4617 160.944 75.6345 161.656L77.8445 170.696L84.4865 164.144C85.0089 163.628 85.8608 163.628 86.3751 164.156L86.568 164.344C87.0943 164.864 87.0823 165.704 86.568 166.224L79.9379 172.768L89.003 174.98Z" fill="#38C0E0"/>
</g>
<defs>
<clipPath id="clip0_183_891">
<rect width="221" height="220" fill="white"/>
</clipPath>
</defs>
</svg>
