<svg width="220" height="220" viewBox="0 0 220 220" fill="none" xmlns="http://www.w3.org/2000/svg">
<g clip-path="url(#clip0_183_856)">
<path fill-rule="evenodd" clip-rule="evenodd" d="M174.392 99.0559C183.66 103.36 189.624 112.72 189.6 122.912C189.56 137.372 177.78 149.096 163.344 149.052L83.2322 148.816C66.5242 148.768 52.9682 135.128 53.0162 118.424C53.0522 106.12 60.7842 94.8279 72.2602 90.3199L75.6642 88.9799L76.3882 85.4039C79.4922 70.1359 93.0442 59.0919 108.596 59.1399C117.676 59.1679 126.42 63.0079 132.58 69.6719L135.356 72.6799L139.308 71.5879C141.56 70.9679 143.848 70.6479 146.104 70.6559C158.892 70.6919 169.616 80.6999 170.52 93.4399L170.8 97.3919L174.392 99.0559ZM46.7242 118.404C46.7122 122.308 47.3322 126.072 48.4642 129.612C43.6242 128.732 39.7242 127.648 39.7242 127.648C25.5162 122.636 15.5842 108.524 17.0322 92.3439C18.2082 79.1959 27.3842 68.1039 39.6722 63.2679L42.4042 62.1919L43.2282 58.1599C47.4202 37.5159 68.5762 23.7199 90.2402 30.1639C96.7402 32.0959 102.476 36.0359 107.08 41.0159L109.676 43.8279C109.676 43.8279 109.856 43.9359 110.132 44.1079C116.432 41.1159 123.872 40.9919 130.512 44.6399C136.704 48.0479 140.632 52.9999 142.66 58.4319C142.88 59.0199 143.812 62.4119 143.644 64.5439C141.632 64.6999 139.616 64.9879 137.628 65.5359L137.372 65.6079L137.188 65.4079C129.844 57.4639 119.428 52.8919 108.608 52.8599C90.0602 52.8039 73.9202 65.9599 70.2202 84.1519L70.1762 84.3839L69.9522 84.4719C56.1002 89.9119 46.7682 103.548 46.7242 118.404Z" fill="#D5DCE2"/>
<path fill-rule="evenodd" clip-rule="evenodd" d="M153.504 53.28C142.796 39.688 136.14 16.116 151.324 0.176025C145.496 1.82803 139.864 4.59603 134.792 8.56403C126.14 15.332 121.088 24.632 119.152 34.484C119.1 34.88 119.076 35.268 119.04 35.656C119.344 35.648 119.652 35.588 119.956 35.592C124.724 35.608 129.292 36.8 133.532 39.132C140.64 43.04 145.832 48.952 148.548 56.236C148.876 57.116 150.104 61.304 149.912 64.748C151.688 64.98 153.4 65.356 155.068 65.88C155.104 65.892 155.148 65.9 155.188 65.912C156.752 66.408 158.248 67.02 159.696 67.752C159.896 67.852 160.092 67.952 160.296 68.056C161.552 68.724 162.752 69.46 163.9 70.292C164.308 70.58 164.688 70.888 165.08 71.192C165.984 71.912 166.852 72.652 167.672 73.472C168.268 74.056 168.804 74.684 169.352 75.316C169.9 75.96 170.452 76.592 170.944 77.28C171.652 78.252 172.268 79.28 172.864 80.336C173.12 80.796 173.408 81.24 173.636 81.712C174.332 83.112 174.896 84.576 175.372 86.084C175.44 86.304 175.532 86.508 175.596 86.728C176.116 88.516 176.488 90.364 176.664 92.272C182.768 91.116 188.724 88.664 194.12 84.44C199.204 80.476 203.236 75.688 206.24 70.416C187.108 81.308 165.496 68.5 153.504 53.28Z" fill="#7694B4"/>
<path fill-rule="evenodd" clip-rule="evenodd" d="M72.4198 180.916C67.1278 191.132 55.0519 184.448 60.1319 174.588C64.4439 166.208 74.8039 161.14 74.8039 161.14C74.8039 161.14 76.6038 172.804 72.4198 180.916ZM80.5559 212.16C75.2639 222.376 63.1878 215.692 68.2678 205.832C72.5798 197.452 82.9399 192.384 82.9399 192.384C82.9399 192.384 84.7399 204.044 80.5559 212.16ZM164.524 180.916C159.232 191.132 147.156 184.448 152.236 174.588C156.548 166.208 166.908 161.14 166.908 161.14C166.908 161.14 168.708 172.804 164.524 180.916Z" fill="#009EFF"/>
<path fill-rule="evenodd" clip-rule="evenodd" d="M128.148 173.86L116.888 173.688L126.12 157.54L111.868 157.66L99.776 181.752H110.304L95.52 218.268L128.148 173.86Z" fill="#FF7800"/>
<path fill-rule="evenodd" clip-rule="evenodd" d="M52.9878 206.22C53.6958 206.392 54.1478 207.128 53.9678 207.836L53.8999 208.092C53.7279 208.8 52.9998 209.248 52.2918 209.068L43.0718 206.82L45.3239 216.044C45.5039 216.756 45.0559 217.476 44.3319 217.656L44.0758 217.712C43.3678 217.892 42.6398 217.448 42.4678 216.736L40.2479 207.68L33.6439 214.248C33.1199 214.76 32.2838 214.76 31.7598 214.236L31.5678 214.048C31.0598 213.524 31.0598 212.68 31.5798 212.156L38.1678 205.62L29.1518 203.416C28.4398 203.248 27.9839 202.528 28.1719 201.804L28.2278 201.548C28.4078 200.828 29.1398 200.396 29.8478 200.568L39.0758 202.82L36.8118 193.596C36.6398 192.892 37.0919 192.152 37.8039 191.984L38.0599 191.92C38.7799 191.744 39.5078 192.184 39.6798 192.896L41.8799 201.936L48.4918 195.384C49.0118 194.868 49.8599 194.868 50.3719 195.396L50.5638 195.584C51.0878 196.104 51.0758 196.944 50.5638 197.464L43.9639 204.008L52.9878 206.22ZM148.196 206.22C148.904 206.392 149.352 207.128 149.172 207.836L149.104 208.092C148.932 208.8 148.204 209.248 147.496 209.068L138.276 206.82L140.528 216.044C140.712 216.756 140.264 217.476 139.54 217.656L139.284 217.712C138.576 217.892 137.848 217.448 137.676 216.736L135.456 207.68L128.852 214.248C128.328 214.76 127.492 214.76 126.968 214.236L126.776 214.048C126.268 213.524 126.268 212.68 126.788 212.156L133.376 205.62L124.36 203.416C123.648 203.248 123.192 202.528 123.38 201.804L123.436 201.548C123.616 200.828 124.348 200.396 125.056 200.568L134.284 202.82L132.02 193.596C131.848 192.892 132.3 192.152 133.012 191.984L133.268 191.92C133.988 191.744 134.716 192.184 134.888 192.896L137.088 201.936L143.7 195.384C144.22 194.868 145.068 194.868 145.58 195.396L145.772 195.584C146.296 196.104 146.284 196.944 145.772 197.464L139.172 204.008L148.196 206.22ZM182.212 206.22C182.92 206.392 183.372 207.128 183.184 207.848L183.116 208.104C182.944 208.812 182.216 209.26 181.508 209.08L172.288 206.832L174.54 216.056C174.724 216.768 174.276 217.488 173.552 217.668L173.296 217.724C172.588 217.904 171.86 217.46 171.688 216.748L169.468 207.692L162.864 214.26C162.34 214.772 161.504 214.772 160.98 214.248L160.788 214.06C160.28 213.536 160.28 212.692 160.8 212.168L167.392 205.62L158.376 203.416C157.664 203.248 157.208 202.528 157.396 201.804L157.452 201.548C157.632 200.828 158.364 200.396 159.072 200.568L168.3 202.82L166.036 193.596C165.864 192.892 166.316 192.152 167.028 191.984L167.284 191.92C168.004 191.744 168.732 192.184 168.904 192.896L171.104 201.936L177.716 195.384C178.236 194.868 179.084 194.868 179.596 195.396L179.788 195.584C180.312 196.104 180.3 196.944 179.788 197.464L173.188 204.008L182.212 206.22Z" fill="#38C0E0"/>
</g>
<defs>
<clipPath id="clip0_183_856">
<rect width="220" height="220" fill="white"/>
</clipPath>
</defs>
</svg>
