<svg width="220" height="220" viewBox="0 0 220 220" fill="none" xmlns="http://www.w3.org/2000/svg">
<g clip-path="url(#clip0_183_828)">
<path fill-rule="evenodd" clip-rule="evenodd" d="M174.392 99.0559C183.66 103.36 189.624 112.72 189.6 122.912C189.56 137.372 177.78 149.096 163.344 149.052L83.2322 148.816C66.5242 148.768 52.9682 135.128 53.0162 118.424C53.0522 106.12 60.7842 94.8279 72.2602 90.3199L75.6642 88.9799L76.3882 85.4039C79.4922 70.1359 93.0442 59.0919 108.596 59.1399C117.676 59.1679 126.42 63.0079 132.58 69.6719L135.356 72.6799L139.308 71.5879C141.56 70.9679 143.848 70.6479 146.104 70.6559C158.892 70.6919 169.616 80.6999 170.52 93.4399L170.8 97.3919L174.392 99.0559ZM46.7242 118.404C46.7122 122.308 47.3322 126.072 48.4642 129.612C43.6242 128.732 39.7242 127.648 39.7242 127.648C25.5162 122.636 15.5842 108.524 17.0322 92.3439C18.2082 79.1959 27.3842 68.1039 39.6722 63.2679L42.4042 62.1919L43.2282 58.1599C47.4202 37.5159 68.5762 23.7199 90.2402 30.1639C96.7402 32.0959 102.476 36.0359 107.08 41.0159L109.676 43.8279C109.676 43.8279 109.856 43.9359 110.132 44.1079C116.432 41.1159 123.872 40.9919 130.512 44.6399C136.704 48.0479 140.632 52.9999 142.66 58.4319C142.88 59.0199 143.812 62.4119 143.644 64.5439C141.632 64.6999 139.616 64.9879 137.628 65.5359L137.372 65.6079L137.188 65.4079C129.844 57.4639 119.428 52.8919 108.608 52.8599C90.0602 52.8039 73.9202 65.9599 70.2202 84.1519L70.1762 84.3839L69.9522 84.4719C56.1002 89.9119 46.7682 103.548 46.7242 118.404Z" fill="#D5DCE2"/>
<path fill-rule="evenodd" clip-rule="evenodd" d="M153.504 53.28C142.796 39.688 136.14 16.116 151.324 0.176025C145.496 1.82803 139.864 4.59603 134.792 8.56403C126.14 15.332 121.088 24.632 119.152 34.484C119.1 34.88 119.076 35.268 119.04 35.656C119.344 35.648 119.652 35.588 119.956 35.592C124.724 35.608 129.292 36.8 133.532 39.132C140.64 43.04 145.832 48.952 148.548 56.236C148.876 57.116 150.104 61.304 149.912 64.748C151.688 64.98 153.4 65.356 155.068 65.88C155.104 65.892 155.148 65.9 155.188 65.912C156.752 66.408 158.248 67.02 159.696 67.752C159.896 67.852 160.092 67.952 160.296 68.056C161.552 68.724 162.752 69.46 163.9 70.292C164.308 70.58 164.688 70.888 165.08 71.192C165.984 71.912 166.852 72.652 167.672 73.472C168.268 74.056 168.804 74.684 169.352 75.316C169.9 75.96 170.452 76.592 170.944 77.28C171.652 78.252 172.268 79.28 172.864 80.336C173.12 80.796 173.408 81.24 173.636 81.712C174.332 83.112 174.896 84.576 175.372 86.084C175.44 86.304 175.532 86.508 175.596 86.728C176.116 88.516 176.488 90.364 176.664 92.272C182.768 91.116 188.724 88.664 194.12 84.44C199.204 80.476 203.236 75.688 206.24 70.416C187.108 81.308 165.496 68.5 153.504 53.28Z" fill="#7694B4"/>
<path fill-rule="evenodd" clip-rule="evenodd" d="M124.292 212.344C119 222.56 106.924 215.876 112.004 206.016C116.316 197.636 126.676 192.568 126.676 192.568C126.676 192.568 128.476 204.232 124.292 212.344ZM90.3119 180.916C85.0199 191.132 72.9439 184.448 78.0239 174.588C82.3359 166.208 92.6959 161.14 92.6959 161.14C92.6959 161.14 94.4959 172.804 90.3119 180.916Z" fill="#009EFF"/>
<path fill-rule="evenodd" clip-rule="evenodd" d="M157.856 174.98L148.832 172.768L155.432 166.224C155.944 165.704 155.956 164.864 155.432 164.344L155.24 164.156C154.728 163.628 153.88 163.628 153.36 164.144L146.748 170.696L144.548 161.656C144.376 160.944 143.648 160.504 142.928 160.68L142.672 160.744C141.96 160.912 141.508 161.652 141.68 162.356L143.944 171.58L134.716 169.328C134.008 169.156 133.276 169.588 133.096 170.308L133.04 170.564C132.852 171.288 133.308 172.008 134.02 172.176L143.036 174.38L136.448 180.916C135.928 181.44 135.928 182.284 136.436 182.808L136.628 182.996C137.152 183.52 137.988 183.52 138.512 183.008L145.116 176.44L147.336 185.496C147.508 186.208 148.236 186.652 148.944 186.472L149.2 186.416C149.924 186.236 150.372 185.516 150.188 184.804L147.936 175.58L157.156 177.828C157.864 178.008 158.592 177.56 158.764 176.852L158.832 176.596C159.012 175.884 158.564 175.152 157.856 174.98ZM76.4161 206.408L67.3921 204.196L73.9921 197.652C74.5041 197.132 74.5161 196.292 73.9921 195.772L73.8001 195.584C73.2881 195.056 72.4401 195.056 71.9201 195.572L65.3081 202.124L63.1081 193.084C62.9361 192.372 62.2081 191.932 61.4881 192.108L61.2321 192.172C60.5201 192.34 60.0681 193.08 60.2401 193.784L62.5041 203.008L53.2761 200.756C52.5681 200.584 51.8361 201.016 51.6561 201.736L51.6001 201.992C51.4121 202.716 51.8681 203.436 52.5801 203.604L61.5961 205.808L55.0081 212.344C54.4881 212.868 54.4881 213.712 54.9961 214.236L55.1881 214.424C55.7121 214.948 56.5481 214.948 57.0721 214.436L63.6761 207.868L65.8961 216.924C66.0681 217.636 66.7961 218.08 67.5041 217.9L67.7601 217.844C68.4841 217.664 68.9321 216.944 68.7481 216.232L66.4961 207.008L75.7161 209.256C76.4241 209.436 77.1521 208.988 77.3241 208.28L77.3921 208.024C77.5721 207.312 77.1241 206.58 76.4161 206.408Z" fill="#38C0E0"/>
</g>
<defs>
<clipPath id="clip0_183_828">
<rect width="220" height="220" fill="white"/>
</clipPath>
</defs>
</svg>
