<svg width="220" height="220" viewBox="0 0 220 220" fill="none" xmlns="http://www.w3.org/2000/svg">
<g clip-path="url(#clip0_183_847)">
<path fill-rule="evenodd" clip-rule="evenodd" d="M174.392 99.0559C183.66 103.36 189.624 112.72 189.6 122.912C189.56 137.372 177.78 149.096 163.344 149.052L83.2322 148.816C66.5242 148.768 52.9682 135.128 53.0162 118.424C53.0522 106.12 60.7842 94.8279 72.2602 90.3199L75.6642 88.9799L76.3882 85.4039C79.4922 70.1359 93.0442 59.0919 108.596 59.1399C117.676 59.1679 126.42 63.0079 132.58 69.6719L135.356 72.6799L139.308 71.5879C141.56 70.9679 143.848 70.6479 146.104 70.6559C158.892 70.6919 169.616 80.6999 170.52 93.4399L170.8 97.3919L174.392 99.0559ZM46.7242 118.404C46.7122 122.308 47.3322 126.072 48.4642 129.612C43.6242 128.732 39.7242 127.648 39.7242 127.648C25.5162 122.636 15.5842 108.524 17.0322 92.3439C18.2082 79.1959 27.3842 68.1039 39.6722 63.2679L42.4042 62.1919L43.2282 58.1599C47.4202 37.5159 68.5762 23.7199 90.2402 30.1639C96.7402 32.0959 102.476 36.0359 107.08 41.0159L109.676 43.8279C109.676 43.8279 109.856 43.9359 110.132 44.1079C116.432 41.1159 123.872 40.9919 130.512 44.6399C136.704 48.0479 140.632 52.9999 142.66 58.4319C142.88 59.0199 143.812 62.4119 143.644 64.5439C141.632 64.6999 139.616 64.9879 137.628 65.5359L137.372 65.6079L137.188 65.4079C129.844 57.4639 119.428 52.8919 108.608 52.8599C90.0602 52.8039 73.9202 65.9599 70.2202 84.1519L70.1762 84.3839L69.9522 84.4719C56.1002 89.9119 46.7682 103.548 46.7242 118.404Z" fill="#D5DCE2"/>
<path fill-rule="evenodd" clip-rule="evenodd" d="M153.504 53.28C142.796 39.688 136.14 16.116 151.324 0.176025C145.496 1.82803 139.864 4.59603 134.792 8.56403C126.14 15.332 121.088 24.632 119.152 34.484C119.1 34.88 119.076 35.268 119.04 35.656C119.344 35.648 119.652 35.588 119.956 35.592C124.724 35.608 129.292 36.8 133.532 39.132C140.64 43.04 145.832 48.952 148.548 56.236C148.876 57.116 150.104 61.304 149.912 64.748C151.688 64.98 153.4 65.356 155.068 65.88C155.104 65.892 155.148 65.9 155.188 65.912C156.752 66.408 158.248 67.02 159.696 67.752C159.896 67.852 160.092 67.952 160.296 68.056C161.552 68.724 162.752 69.46 163.9 70.292C164.308 70.58 164.688 70.888 165.08 71.192C165.984 71.912 166.852 72.652 167.672 73.472C168.268 74.056 168.804 74.684 169.352 75.316C169.9 75.96 170.452 76.592 170.944 77.28C171.652 78.252 172.268 79.28 172.864 80.336C173.12 80.796 173.408 81.24 173.636 81.712C174.332 83.112 174.896 84.576 175.372 86.084C175.44 86.304 175.532 86.508 175.596 86.728C176.116 88.516 176.488 90.364 176.664 92.272C182.768 91.116 188.724 88.664 194.12 84.44C199.204 80.476 203.236 75.688 206.24 70.416C187.108 81.308 165.496 68.5 153.504 53.28Z" fill="#7694B4"/>
<path fill-rule="evenodd" clip-rule="evenodd" d="M76.3998 180.916C71.1078 191.132 59.0318 184.448 64.1118 174.588C68.4238 166.208 78.7838 161.14 78.7838 161.14C78.7838 161.14 80.5878 172.804 76.3998 180.916ZM104.684 212.652C99.3918 222.868 87.3158 216.184 92.3958 206.324C96.7078 197.944 107.068 192.876 107.068 192.876C107.068 192.876 108.872 204.54 104.684 212.652ZM157.48 180.916C152.188 191.132 140.112 184.448 145.192 174.588C149.504 166.208 159.864 161.14 159.864 161.14C159.864 161.14 161.664 172.804 157.48 180.916Z" fill="#009EFF"/>
<path fill-rule="evenodd" clip-rule="evenodd" d="M123.492 175.412C124.2 175.588 124.648 176.32 124.468 177.028L124.4 177.284C124.228 177.992 123.5 178.44 122.792 178.26L113.572 176.012L115.824 185.236C116.008 185.948 115.56 186.668 114.836 186.848L114.58 186.904C113.872 187.084 113.144 186.64 112.972 185.928L110.752 176.872L104.148 183.44C103.624 183.952 102.788 183.952 102.264 183.428L102.072 183.24C101.564 182.716 101.564 181.872 102.084 181.348L108.672 174.812L99.6558 172.608C98.9438 172.44 98.4878 171.72 98.6758 170.996L98.7318 170.74C98.9118 170.02 99.6438 169.588 100.352 169.76L109.58 172.012L107.316 162.788C107.144 162.084 107.596 161.344 108.308 161.176L108.564 161.112C109.284 160.936 110.012 161.376 110.184 162.088L112.384 171.128L118.996 164.576C119.516 164.06 120.364 164.06 120.876 164.588L121.068 164.776C121.592 165.296 121.58 166.136 121.068 166.656L114.468 173.2L123.492 175.412ZM151.772 206.716C152.48 206.888 152.932 207.624 152.748 208.332L152.68 208.588C152.508 209.296 151.78 209.744 151.072 209.564L141.852 207.316L144.104 216.54C144.288 217.252 143.84 217.972 143.116 218.152L142.86 218.208C142.152 218.388 141.424 217.944 141.252 217.232L139.032 208.176L132.428 214.744C131.904 215.256 131.068 215.256 130.544 214.732L130.352 214.544C129.844 214.02 129.844 213.176 130.364 212.652L136.952 206.116L127.936 203.912C127.224 203.744 126.768 203.024 126.956 202.3L127.012 202.044C127.192 201.324 127.924 200.892 128.632 201.064L137.86 203.316L135.596 194.092C135.424 193.388 135.876 192.648 136.588 192.48L136.844 192.416C137.564 192.24 138.292 192.68 138.464 193.392L140.664 202.432L147.276 195.88C147.796 195.364 148.644 195.364 149.156 195.892L149.348 196.08C149.872 196.6 149.86 197.44 149.348 197.96L142.748 204.504L151.772 206.716ZM70.6958 206.716C71.4038 206.888 71.8518 207.624 71.6758 208.332L71.6078 208.588C71.4358 209.296 70.7078 209.744 69.9998 209.564L60.7798 207.316L63.0318 216.54C63.2158 217.252 62.7678 217.972 62.0438 218.152L61.7878 218.208C61.0798 218.388 60.3518 217.944 60.1798 217.232L57.9598 208.176L51.3558 214.744C50.8318 215.256 49.9958 215.256 49.4718 214.732L49.2798 214.544C48.7718 214.02 48.7718 213.176 49.2918 212.652L55.8798 206.116L46.8638 203.912C46.1518 203.744 45.6958 203.024 45.8838 202.3L45.9398 202.044C46.1198 201.324 46.8518 200.892 47.5598 201.064L56.7878 203.316L54.5238 194.092C54.3478 193.388 54.7998 192.648 55.5118 192.48L55.7678 192.416C56.4878 192.24 57.2158 192.68 57.3878 193.392L59.5878 202.432L66.1998 195.88C66.7198 195.364 67.5678 195.364 68.0798 195.892L68.2718 196.08C68.7958 196.6 68.7838 197.44 68.2718 197.96L61.6718 204.504L70.6958 206.716Z" fill="#38C0E0"/>
</g>
<defs>
<clipPath id="clip0_183_847">
<rect width="220" height="220" fill="white"/>
</clipPath>
</defs>
</svg>
