<svg width="220" height="188" viewBox="0 0 220 188" fill="none" xmlns="http://www.w3.org/2000/svg">
<g clip-path="url(#clip0_183_866)">
<path fill-rule="evenodd" clip-rule="evenodd" d="M174.392 99.0559C183.66 103.36 189.624 112.72 189.6 122.912C189.56 137.372 177.78 149.096 163.344 149.052L83.2322 148.816C66.5242 148.768 52.9682 135.128 53.0162 118.424C53.0522 106.12 60.7842 94.8279 72.2602 90.3199L75.6642 88.9799L76.3882 85.4039C79.4922 70.1359 93.0442 59.0919 108.596 59.1399C117.676 59.1679 126.42 63.0079 132.58 69.6719L135.356 72.6799L139.308 71.5879C141.56 70.9679 143.848 70.6479 146.104 70.6559C158.892 70.6919 169.616 80.6999 170.52 93.4399L170.8 97.3919L174.392 99.0559ZM46.7242 118.404C46.7122 122.308 47.3322 126.072 48.4642 129.612C43.6242 128.732 39.7242 127.648 39.7242 127.648C25.5162 122.636 15.5842 108.524 17.0322 92.3439C18.2082 79.1959 27.3842 68.1039 39.6722 63.2679L42.4042 62.1919L43.2282 58.1599C47.4202 37.5159 68.5762 23.7199 90.2402 30.1639C96.7402 32.0959 102.476 36.0359 107.08 41.0159L109.676 43.8279C109.676 43.8279 109.856 43.9359 110.132 44.1079C116.432 41.1159 123.872 40.9919 130.512 44.6399C136.704 48.0479 140.632 52.9999 142.66 58.4319C142.88 59.0199 143.812 62.4119 143.644 64.5439C141.632 64.6999 139.616 64.9879 137.628 65.5359L137.372 65.6079L137.188 65.4079C129.844 57.4639 119.428 52.8919 108.608 52.8599C90.0602 52.8039 73.9202 65.9599 70.2202 84.1519L70.1762 84.3839L69.9522 84.4719C56.1002 89.9119 46.7682 103.548 46.7242 118.404Z" fill="#D5DCE2"/>
<path fill-rule="evenodd" clip-rule="evenodd" d="M153.504 53.28C142.796 39.688 136.14 16.116 151.324 0.176025C145.496 1.82803 139.864 4.59603 134.792 8.56403C126.14 15.332 121.088 24.632 119.152 34.484C119.1 34.88 119.076 35.268 119.04 35.656C119.344 35.648 119.652 35.588 119.956 35.592C124.724 35.608 129.292 36.8 133.532 39.132C140.64 43.04 145.832 48.952 148.548 56.236C148.876 57.116 150.104 61.304 149.912 64.748C151.688 64.98 153.4 65.356 155.068 65.88C155.104 65.892 155.148 65.9 155.188 65.912C156.752 66.408 158.248 67.02 159.696 67.752C159.896 67.852 160.092 67.952 160.296 68.056C161.552 68.724 162.752 69.46 163.9 70.292C164.308 70.58 164.688 70.888 165.08 71.192C165.984 71.912 166.852 72.652 167.672 73.472C168.268 74.056 168.804 74.684 169.352 75.316C169.9 75.96 170.452 76.592 170.944 77.28C171.652 78.252 172.268 79.28 172.864 80.336C173.12 80.796 173.408 81.24 173.636 81.712C174.332 83.112 174.896 84.576 175.372 86.084C175.44 86.304 175.532 86.508 175.596 86.728C176.116 88.516 176.488 90.364 176.664 92.272C182.768 91.116 188.724 88.664 194.12 84.44C199.204 80.476 203.236 75.688 206.24 70.416C187.108 81.308 165.496 68.5 153.504 53.28Z" fill="#7694B4"/>
<path fill-rule="evenodd" clip-rule="evenodd" d="M102.556 174.98C103.264 175.152 103.712 175.884 103.532 176.596L103.464 176.852C103.292 177.56 102.564 178.008 101.856 177.828L92.6362 175.58L94.8882 184.804C95.0722 185.516 94.6242 186.236 93.9002 186.416L93.6442 186.472C92.9362 186.652 92.2082 186.208 92.0362 185.496L89.8162 176.44L83.2122 183.008C82.6882 183.52 81.8522 183.52 81.3282 182.996L81.1362 182.808C80.6282 182.284 80.6282 181.44 81.1482 180.916L87.7362 174.38L78.7202 172.176C78.0082 172.008 77.5522 171.288 77.7402 170.564L77.7962 170.308C77.9762 169.588 78.7082 169.156 79.4162 169.328L88.6442 171.58L86.3802 162.356C86.2082 161.652 86.6602 160.912 87.3722 160.744L87.6282 160.68C88.3482 160.504 89.0762 160.944 89.2482 161.656L91.4482 170.696L98.0602 164.144C98.5802 163.628 99.4282 163.628 99.9402 164.156L100.132 164.344C100.656 164.864 100.644 165.704 100.132 166.224L93.5322 172.768L102.556 174.98ZM164.108 174.98C164.812 175.152 165.264 175.884 165.088 176.596L165.02 176.852C164.848 177.56 164.12 178.008 163.412 177.828L154.192 175.58L156.444 184.804C156.624 185.516 156.176 186.236 155.452 186.416L155.196 186.472C154.488 186.652 153.76 186.208 153.588 185.496L151.368 176.44L144.764 183.008C144.24 183.52 143.404 183.52 142.88 182.996L142.688 182.808C142.18 182.284 142.18 181.44 142.7 180.916L149.288 174.38L140.272 172.176C139.56 172.008 139.104 171.288 139.292 170.564L139.348 170.308C139.528 169.588 140.26 169.156 140.968 169.328L150.196 171.58L147.932 162.356C147.76 161.652 148.212 160.912 148.924 160.744L149.18 160.68C149.9 160.504 150.628 160.944 150.8 161.656L153 170.696L159.612 164.144C160.132 163.628 160.98 163.628 161.492 164.156L161.684 164.344C162.208 164.864 162.196 165.704 161.684 166.224L155.084 172.768L164.108 174.98Z" fill="#38C0E0"/>
</g>
<defs>
<clipPath id="clip0_183_866">
<rect width="220" height="188" fill="white"/>
</clipPath>
</defs>
</svg>
