<svg width="221" height="220" viewBox="0 0 221 220" fill="none" xmlns="http://www.w3.org/2000/svg">
<g clip-path="url(#clip0_183_792)">
<path fill-rule="evenodd" clip-rule="evenodd" d="M175.185 99.0559C184.495 103.36 190.486 112.72 190.462 122.912C190.422 137.372 178.588 149.096 164.086 149.052L83.6104 148.816C66.8264 148.768 53.2088 135.128 53.257 118.424C53.2932 106.12 61.0603 94.8279 72.5885 90.3199L76.008 88.9799L76.7353 85.4039C79.8534 70.1359 93.467 59.0919 109.09 59.1399C118.211 59.1679 126.995 63.0079 133.183 69.6719L135.971 72.6799L139.941 71.5879C142.203 70.9679 144.502 70.6479 146.768 70.6559C159.614 70.6919 170.387 80.6999 171.295 93.4399L171.576 97.3919L175.185 99.0559ZM46.9364 118.404C46.9244 122.308 47.5472 126.072 48.6843 129.612C43.8223 128.732 39.9046 127.648 39.9046 127.648C25.632 122.636 15.6549 108.524 17.1095 92.3439C18.2908 79.1959 27.5085 68.1039 39.8524 63.2679L42.5968 62.1919L43.4245 58.1599C47.6356 37.5159 68.8877 23.7199 90.6502 30.1639C97.1798 32.0959 102.942 36.0359 107.567 41.0159L110.175 43.8279C110.175 43.8279 110.355 43.9359 110.633 44.1079C116.961 41.1159 124.435 40.9919 131.105 44.6399C137.325 48.0479 141.271 52.9999 143.308 58.4319C143.529 59.0199 144.466 62.4119 144.297 64.5439C142.276 64.6999 140.251 64.9879 138.254 65.5359L137.996 65.6079L137.812 65.4079C130.434 57.4639 119.971 52.8919 109.102 52.8599C90.4694 52.8039 74.256 65.9599 70.5392 84.1519L70.495 84.3839L70.27 84.4719C56.355 89.9119 46.9806 103.548 46.9364 118.404Z" fill="#D5DCE2"/>
<path fill-rule="evenodd" clip-rule="evenodd" d="M154.202 53.28C143.445 39.688 136.759 16.116 152.012 0.176025C146.157 1.82803 140.5 4.59603 135.405 8.56403C126.713 15.332 121.638 24.632 119.694 34.484C119.641 34.88 119.617 35.268 119.581 35.656C119.886 35.648 120.196 35.588 120.501 35.592C125.291 35.608 129.88 36.8 134.139 39.132C141.279 43.04 146.495 48.952 149.223 56.236C149.553 57.116 150.786 61.304 150.593 64.748C152.377 64.98 154.097 65.356 155.773 65.88C155.809 65.892 155.853 65.9 155.893 65.912C157.464 66.408 158.967 67.02 160.422 67.752C160.623 67.852 160.82 67.952 161.025 68.056C162.286 68.724 163.492 69.46 164.645 70.292C165.055 70.58 165.437 70.888 165.83 71.192C166.738 71.912 167.61 72.652 168.434 73.472C169.033 74.056 169.571 74.684 170.122 75.316C170.672 75.96 171.227 76.592 171.721 77.28C172.432 78.252 173.051 79.28 173.65 80.336C173.907 80.796 174.196 81.24 174.425 81.712C175.124 83.112 175.691 84.576 176.169 86.084C176.237 86.304 176.33 86.508 176.394 86.728C176.916 88.516 177.29 90.364 177.467 92.272C183.599 91.116 189.582 88.664 195.002 84.44C200.109 80.476 204.16 75.688 207.177 70.416C187.958 81.308 166.248 68.5 154.202 53.28Z" fill="#7694B4"/>
<path fill-rule="evenodd" clip-rule="evenodd" d="M128.73 173.86L117.419 173.688L126.693 157.54L112.376 157.66L100.229 181.752H110.805L95.9541 218.268L128.73 173.86Z" fill="#FF7800"/>
<path fill-rule="evenodd" clip-rule="evenodd" d="M82.2484 211.352C76.9323 221.568 64.8015 214.884 69.9045 205.024C74.2361 196.644 84.6432 191.576 84.6432 191.576C84.6432 191.576 86.4514 203.236 82.2484 211.352ZM135.2 211.352C129.884 221.568 117.753 214.884 122.856 205.024C127.188 196.644 137.595 191.576 137.595 191.576C137.595 191.576 139.403 203.236 135.2 211.352ZM161.403 180.916C156.087 191.132 143.956 184.448 149.059 174.588C153.39 166.208 163.797 161.14 163.797 161.14C163.797 161.14 165.606 172.804 161.403 180.916ZM166.899 211.352C161.583 221.568 149.452 214.884 154.556 205.024C158.887 196.644 169.294 191.576 169.294 191.576C169.294 191.576 171.102 203.236 166.899 211.352ZM50.6775 211.352C45.3615 221.568 33.2306 214.884 38.3337 205.024C42.6653 196.644 53.0724 191.576 53.0724 191.576C53.0724 191.576 54.8806 203.236 50.6775 211.352ZM79.4035 180.916C74.0875 191.132 61.9566 184.448 67.0597 174.588C71.3913 166.208 81.7984 161.14 81.7984 161.14C81.7984 161.14 83.6065 172.804 79.4035 180.916Z" fill="#009EFF"/>
</g>
<defs>
<clipPath id="clip0_183_792">
<rect width="221" height="220" fill="white"/>
</clipPath>
</defs>
</svg>
