<svg width="220" height="220" viewBox="0 0 220 220" fill="none" xmlns="http://www.w3.org/2000/svg">
<g clip-path="url(#clip0_183_837)">
<path fill-rule="evenodd" clip-rule="evenodd" d="M174.392 99.0559C183.66 103.36 189.624 112.72 189.6 122.912C189.56 137.372 177.78 149.096 163.344 149.052L83.2322 148.816C66.5242 148.768 52.9682 135.128 53.0162 118.424C53.0522 106.12 60.7842 94.8279 72.2602 90.3199L75.6642 88.9799L76.3882 85.4039C79.4922 70.1359 93.0442 59.0919 108.596 59.1399C117.676 59.1679 126.42 63.0079 132.58 69.6719L135.356 72.6799L139.308 71.5879C141.56 70.9679 143.848 70.6479 146.104 70.6559C158.892 70.6919 169.616 80.6999 170.52 93.4399L170.8 97.3919L174.392 99.0559ZM46.7242 118.404C46.7122 122.308 47.3322 126.072 48.4642 129.612C43.6242 128.732 39.7242 127.648 39.7242 127.648C25.5162 122.636 15.5842 108.524 17.0322 92.3439C18.2082 79.1959 27.3842 68.1039 39.6722 63.2679L42.4042 62.1919L43.2282 58.1599C47.4202 37.5159 68.5762 23.7199 90.2402 30.1639C96.7402 32.0959 102.476 36.0359 107.08 41.0159L109.676 43.8279C109.676 43.8279 109.856 43.9359 110.132 44.1079C116.432 41.1159 123.872 40.9919 130.512 44.6399C136.704 48.0479 140.632 52.9999 142.66 58.4319C142.88 59.0199 143.812 62.4119 143.644 64.5439C141.632 64.6999 139.616 64.9879 137.628 65.5359L137.372 65.6079L137.188 65.4079C129.844 57.4639 119.428 52.8919 108.608 52.8599C90.0602 52.8039 73.9202 65.9599 70.2202 84.1519L70.1762 84.3839L69.9522 84.4719C56.1002 89.9119 46.7682 103.548 46.7242 118.404Z" fill="#D5DCE2"/>
<path fill-rule="evenodd" clip-rule="evenodd" d="M153.504 53.28C142.796 39.688 136.14 16.116 151.324 0.176025C145.496 1.82803 139.864 4.59603 134.792 8.56403C126.14 15.332 121.088 24.632 119.152 34.484C119.1 34.88 119.076 35.268 119.04 35.656C119.344 35.648 119.652 35.588 119.956 35.592C124.724 35.608 129.292 36.8 133.532 39.132C140.64 43.04 145.832 48.952 148.548 56.236C148.876 57.116 150.104 61.304 149.912 64.748C151.688 64.98 153.4 65.356 155.068 65.88C155.104 65.892 155.148 65.9 155.188 65.912C156.752 66.408 158.248 67.02 159.696 67.752C159.896 67.852 160.092 67.952 160.296 68.056C161.552 68.724 162.752 69.46 163.9 70.292C164.308 70.58 164.688 70.888 165.08 71.192C165.984 71.912 166.852 72.652 167.672 73.472C168.268 74.056 168.804 74.684 169.352 75.316C169.9 75.96 170.452 76.592 170.944 77.28C171.652 78.252 172.268 79.28 172.864 80.336C173.12 80.796 173.408 81.24 173.636 81.712C174.332 83.112 174.896 84.576 175.372 86.084C175.44 86.304 175.532 86.508 175.596 86.728C176.116 88.516 176.488 90.364 176.664 92.272C182.768 91.116 188.724 88.664 194.12 84.44C199.204 80.476 203.236 75.688 206.24 70.416C187.108 81.308 165.496 68.5 153.504 53.28Z" fill="#7694B4"/>
<path fill-rule="evenodd" clip-rule="evenodd" d="M128.148 173.86L116.888 173.688L126.12 157.54L111.868 157.66L99.776 181.752H110.304L95.52 218.268L128.148 173.86Z" fill="#FF7800"/>
<path fill-rule="evenodd" clip-rule="evenodd" d="M81.8442 180.916C76.5522 191.132 64.4762 184.448 69.5562 174.588C73.8682 166.208 84.2282 161.14 84.2282 161.14C84.2282 161.14 86.0282 172.804 81.8442 180.916ZM147.724 212.344C142.432 222.56 130.356 215.876 135.436 206.016C139.748 197.636 150.108 192.568 150.108 192.568C150.108 192.568 151.908 204.232 147.724 212.344Z" fill="#009EFF"/>
<path fill-rule="evenodd" clip-rule="evenodd" d="M84.3042 206.408C85.0122 206.58 85.4642 207.312 85.2842 208.024L85.2162 208.28C85.0442 208.988 84.3162 209.436 83.6082 209.256L74.3882 207.008L76.6402 216.232C76.8242 216.944 76.3762 217.664 75.6522 217.844L75.3962 217.9C74.6882 218.08 73.9602 217.636 73.7882 216.924L71.5682 207.868L64.9642 214.436C64.4402 214.948 63.6042 214.948 63.0802 214.424L62.8882 214.236C62.3802 213.712 62.3802 212.868 62.9002 212.344L69.4882 205.808L60.4722 203.604C59.7602 203.436 59.3042 202.716 59.4922 201.992L59.5482 201.736C59.7282 201.016 60.4602 200.584 61.1682 200.756L70.3962 203.008L68.1322 193.784C67.9562 193.08 68.4082 192.34 69.1202 192.172L69.3762 192.108C70.0962 191.932 70.8242 192.372 70.9962 193.084L73.1962 202.124L79.8082 195.572C80.3282 195.056 81.1762 195.056 81.6882 195.584L81.8802 195.772C82.4042 196.292 82.3922 197.132 81.8802 197.652L75.2802 204.196L84.3042 206.408ZM165.24 174.98C165.948 175.152 166.396 175.884 166.22 176.596L166.152 176.852C165.98 177.56 165.252 178.008 164.544 177.828L155.324 175.58L157.576 184.804C157.756 185.516 157.308 186.236 156.584 186.416L156.328 186.472C155.62 186.652 154.892 186.208 154.72 185.496L152.5 176.44L145.896 183.008C145.372 183.52 144.536 183.52 144.012 182.996L143.82 182.808C143.312 182.284 143.312 181.44 143.832 180.916L150.42 174.38L141.404 172.176C140.692 172.008 140.236 171.288 140.424 170.564L140.48 170.308C140.66 169.588 141.392 169.156 142.1 169.328L151.328 171.58L149.064 162.356C148.892 161.652 149.344 160.912 150.056 160.744L150.312 160.68C151.032 160.504 151.76 160.944 151.932 161.656L154.132 170.696L160.744 164.144C161.264 163.628 162.112 163.628 162.624 164.156L162.816 164.344C163.34 164.864 163.328 165.704 162.816 166.224L156.216 172.768L165.24 174.98Z" fill="#38C0E0"/>
</g>
<defs>
<clipPath id="clip0_183_837">
<rect width="220" height="220" fill="white"/>
</clipPath>
</defs>
</svg>
