<svg width="220" height="220" viewBox="0 0 220 220" fill="none" xmlns="http://www.w3.org/2000/svg">
<g clip-path="url(#clip0_183_908)">
<path fill-rule="evenodd" clip-rule="evenodd" d="M174.392 99.0559C183.66 103.36 189.624 112.72 189.6 122.912C189.56 137.372 177.78 149.096 163.344 149.052L83.2322 148.816C66.5242 148.768 52.9682 135.128 53.0162 118.424C53.0522 106.12 60.7842 94.8279 72.2602 90.3199L75.6642 88.9799L76.3882 85.4039C79.4922 70.1359 93.0442 59.0919 108.596 59.1399C117.676 59.1679 126.42 63.0079 132.58 69.6719L135.356 72.6799L139.308 71.5879C141.56 70.9679 143.848 70.6479 146.104 70.6559C158.892 70.6919 169.616 80.6999 170.52 93.4399L170.8 97.3919L174.392 99.0559ZM46.7242 118.404C46.7122 122.308 47.3322 126.072 48.4642 129.612C43.6242 128.732 39.7242 127.648 39.7242 127.648C25.5162 122.636 15.5842 108.524 17.0322 92.3439C18.2082 79.1959 27.3842 68.1039 39.6722 63.2679L42.4042 62.1919L43.2282 58.1599C47.4202 37.5159 68.5762 23.7199 90.2402 30.1639C96.7402 32.0959 102.476 36.0359 107.08 41.0159L109.676 43.8279C109.676 43.8279 109.856 43.9359 110.132 44.1079C116.432 41.1159 123.872 40.9919 130.512 44.6399C136.704 48.0479 140.632 52.9999 142.66 58.4319C142.88 59.0199 143.812 62.4119 143.644 64.5439C141.632 64.6999 139.616 64.9879 137.628 65.5359L137.372 65.6079L137.188 65.4079C129.844 57.4639 119.428 52.8919 108.608 52.8599C90.0602 52.8039 73.9202 65.9599 70.2202 84.1519L70.1762 84.3839L69.9522 84.4719C56.1002 89.9119 46.7682 103.548 46.7242 118.404Z" fill="#D5DCE2"/>
<path fill-rule="evenodd" clip-rule="evenodd" d="M153.504 53.28C142.796 39.688 136.14 16.116 151.324 0.176025C145.496 1.82803 139.864 4.59603 134.792 8.56403C126.14 15.332 121.088 24.632 119.152 34.484C119.1 34.88 119.076 35.268 119.04 35.656C119.344 35.648 119.652 35.588 119.956 35.592C124.724 35.608 129.292 36.8 133.532 39.132C140.64 43.04 145.832 48.952 148.548 56.236C148.876 57.116 150.104 61.304 149.912 64.748C151.688 64.98 153.4 65.356 155.068 65.88C155.104 65.892 155.148 65.9 155.188 65.912C156.752 66.408 158.248 67.02 159.696 67.752C159.896 67.852 160.092 67.952 160.296 68.056C161.552 68.724 162.752 69.46 163.9 70.292C164.308 70.58 164.688 70.888 165.08 71.192C165.984 71.912 166.852 72.652 167.672 73.472C168.268 74.056 168.804 74.684 169.352 75.316C169.9 75.96 170.452 76.592 170.944 77.28C171.652 78.252 172.268 79.28 172.864 80.336C173.12 80.796 173.408 81.24 173.636 81.712C174.332 83.112 174.896 84.576 175.372 86.084C175.44 86.304 175.532 86.508 175.596 86.728C176.116 88.516 176.488 90.364 176.664 92.272C182.768 91.116 188.724 88.664 194.12 84.44C199.204 80.476 203.236 75.688 206.24 70.416C187.108 81.308 165.496 68.5 153.504 53.28Z" fill="#7694B4"/>
<path fill-rule="evenodd" clip-rule="evenodd" d="M88.6001 174.98C89.3041 175.152 89.7561 175.884 89.5801 176.596L89.5121 176.852C89.3401 177.56 88.6121 178.008 87.9041 177.828L78.6841 175.58L80.9361 184.804C81.1201 185.516 80.6721 186.236 79.9481 186.416L79.6921 186.472C78.9841 186.652 78.2561 186.208 78.0841 185.496L75.8641 176.44L69.2601 183.008C68.7361 183.52 67.9001 183.52 67.3761 182.996L67.1841 182.808C66.6761 182.284 66.6761 181.44 67.1961 180.916L73.7841 174.38L64.7681 172.176C64.0561 172.008 63.6001 171.288 63.7881 170.564L63.8441 170.308C64.0241 169.588 64.7561 169.156 65.4641 169.328L74.6921 171.58L72.4281 162.356C72.2521 161.652 72.7041 160.912 73.4161 160.744L73.6721 160.68C74.3921 160.504 75.1201 160.944 75.2921 161.656L77.4921 170.696L84.1041 164.144C84.6241 163.628 85.4721 163.628 85.9841 164.156L86.1761 164.344C86.7001 164.864 86.6881 165.704 86.1761 166.224L79.5761 172.768L88.6001 174.98ZM52.6241 206.408C53.3321 206.58 53.7841 207.312 53.6001 208.028L53.5321 208.284C53.3601 208.992 52.6321 209.44 51.9241 209.26L42.7041 207.012L44.9561 216.236C45.1401 216.948 44.6921 217.668 43.9681 217.848L43.7121 217.904C43.0041 218.084 42.2761 217.64 42.1041 216.928L39.8841 207.872L33.2801 214.44C32.7561 214.952 31.9201 214.952 31.3961 214.428L31.2041 214.24C30.6961 213.716 30.6961 212.872 31.2161 212.348L37.8041 205.812L28.7881 203.608C28.0761 203.44 27.6201 202.72 27.8081 201.996L27.8641 201.74C28.0441 201.02 28.7761 200.588 29.4841 200.76L38.7121 203.012L36.4481 193.788C36.2761 193.084 36.7281 192.344 37.4401 192.176L37.6961 192.108C38.4161 191.932 39.1441 192.372 39.3161 193.084L41.5161 202.124L48.1281 195.572C48.6481 195.056 49.4961 195.056 50.0081 195.584L50.2001 195.772C50.7241 196.292 50.7121 197.132 50.2001 197.652L43.6001 204.196L52.6241 206.408ZM88.0281 206.408C88.7361 206.58 89.1841 207.312 89.0081 208.024L88.9401 208.28C88.7681 208.988 88.0401 209.436 87.3321 209.256L78.1121 207.008L80.3641 216.232C80.5481 216.944 80.1001 217.664 79.3761 217.844L79.1201 217.9C78.4121 218.08 77.6841 217.636 77.5121 216.924L75.2921 207.868L68.6881 214.436C68.1641 214.948 67.3281 214.948 66.8041 214.424L66.6121 214.236C66.1041 213.712 66.1041 212.868 66.6241 212.344L73.2121 205.808L64.1961 203.604C63.4841 203.436 63.0281 202.716 63.2161 201.992L63.2721 201.736C63.4521 201.016 64.1841 200.584 64.8921 200.756L74.1201 203.008L71.8561 193.784C71.6801 193.08 72.1321 192.34 72.8441 192.172L73.1001 192.108C73.8201 191.932 74.5481 192.372 74.7201 193.084L76.9201 202.124L83.5321 195.572C84.0521 195.056 84.9001 195.056 85.4121 195.584L85.6041 195.772C86.1281 196.292 86.1161 197.132 85.6041 197.652L79.0041 204.196L88.0281 206.408ZM151.38 206.408C152.088 206.58 152.54 207.312 152.356 208.028L152.288 208.284C152.116 208.992 151.388 209.44 150.68 209.26L141.46 207.012L143.712 216.236C143.896 216.948 143.448 217.668 142.724 217.848L142.468 217.904C141.76 218.084 141.032 217.64 140.86 216.928L138.64 207.872L132.036 214.44C131.512 214.952 130.676 214.952 130.152 214.428L129.96 214.24C129.452 213.716 129.452 212.872 129.972 212.348L136.56 205.812L127.544 203.608C126.832 203.44 126.376 202.72 126.564 201.996L126.62 201.74C126.8 201.02 127.532 200.588 128.24 200.76L137.468 203.008L135.204 193.784C135.032 193.08 135.484 192.34 136.196 192.172L136.452 192.108C137.172 191.932 137.9 192.372 138.072 193.084L140.272 202.124L146.884 195.572C147.404 195.056 148.252 195.056 148.764 195.584L148.956 195.772C149.48 196.292 149.468 197.132 148.956 197.652L142.356 204.196L151.38 206.408ZM186.788 206.408C187.492 206.58 187.944 207.312 187.764 208.028L187.696 208.284C187.524 208.992 186.796 209.44 186.088 209.26L176.868 207.012L179.12 216.236C179.304 216.948 178.856 217.668 178.132 217.848L177.876 217.904C177.168 218.084 176.44 217.64 176.268 216.928L174.048 207.872L167.444 214.44C166.92 214.952 166.084 214.952 165.56 214.428L165.368 214.24C164.86 213.716 164.86 212.872 165.38 212.348L171.968 205.812L162.952 203.608C162.24 203.44 161.784 202.72 161.972 201.996L162.028 201.74C162.208 201.02 162.94 200.588 163.648 200.76L172.876 203.012L170.612 193.788C170.436 193.084 170.888 192.344 171.6 192.176L171.86 192.108C172.58 191.932 173.308 192.372 173.48 193.084L175.68 202.124L182.292 195.572C182.812 195.056 183.66 195.056 184.172 195.584L184.364 195.772C184.888 196.292 184.876 197.132 184.364 197.652L177.764 204.196L186.788 206.408ZM172.024 174.98C172.732 175.152 173.18 175.884 173.004 176.596L172.936 176.852C172.764 177.56 172.036 178.008 171.328 177.828L162.108 175.58L164.36 184.804C164.54 185.516 164.092 186.236 163.368 186.416L163.112 186.472C162.404 186.652 161.676 186.208 161.504 185.496L159.284 176.44L152.68 183.008C152.156 183.52 151.32 183.52 150.796 182.996L150.604 182.808C150.096 182.284 150.096 181.44 150.616 180.916L157.204 174.38L148.188 172.176C147.476 172.008 147.02 171.288 147.208 170.564L147.264 170.308C147.444 169.588 148.176 169.156 148.884 169.328L158.112 171.58L155.848 162.356C155.676 161.652 156.128 160.912 156.84 160.744L157.096 160.68C157.816 160.504 158.544 160.944 158.716 161.656L160.916 170.696L167.528 164.144C168.048 163.628 168.896 163.628 169.408 164.156L169.6 164.344C170.124 164.864 170.112 165.704 169.6 166.224L163 172.768L172.024 174.98Z" fill="#38C0E0"/>
<path fill-rule="evenodd" clip-rule="evenodd" d="M131.492 173.86L120.232 173.688L129.464 157.54L115.212 157.66L103.12 181.752H113.648L98.8638 218.268L131.492 173.86Z" fill="#FF7800"/>
</g>
<defs>
<clipPath id="clip0_183_908">
<rect width="220" height="220" fill="white"/>
</clipPath>
</defs>
</svg>
