<svg width="220" height="188" viewBox="0 0 220 188" fill="none" xmlns="http://www.w3.org/2000/svg">
<g clip-path="url(#clip0_183_809)">
<path fill-rule="evenodd" clip-rule="evenodd" d="M174.392 99.0559C183.66 103.36 189.624 112.72 189.6 122.912C189.56 137.372 177.78 149.096 163.344 149.052L83.2322 148.816C66.5242 148.768 52.9682 135.128 53.0162 118.424C53.0522 106.12 60.7842 94.8279 72.2602 90.3199L75.6642 88.9799L76.3882 85.4039C79.4922 70.1359 93.0442 59.0919 108.596 59.1399C117.676 59.1679 126.42 63.0079 132.58 69.6719L135.356 72.6799L139.308 71.5879C141.56 70.9679 143.848 70.6479 146.104 70.6559C158.892 70.6919 169.616 80.6999 170.52 93.4399L170.8 97.3919L174.392 99.0559ZM46.7242 118.404C46.7122 122.308 47.3322 126.072 48.4642 129.612C43.6242 128.732 39.7242 127.648 39.7242 127.648C25.5162 122.636 15.5842 108.524 17.0322 92.3439C18.2082 79.1959 27.3842 68.1039 39.6722 63.2679L42.4042 62.1919L43.2282 58.1599C47.4202 37.5159 68.5762 23.7199 90.2402 30.1639C96.7402 32.0959 102.476 36.0359 107.08 41.0159L109.676 43.8279C109.676 43.8279 109.856 43.9359 110.132 44.1079C116.432 41.1159 123.872 40.9919 130.512 44.6399C136.704 48.0479 140.632 52.9999 142.66 58.4319C142.88 59.0199 143.812 62.4119 143.644 64.5439C141.632 64.6999 139.616 64.9879 137.628 65.5359L137.372 65.6079L137.188 65.4079C129.844 57.4639 119.428 52.8919 108.608 52.8599C90.0602 52.8039 73.9202 65.9599 70.2202 84.1519L70.1762 84.3839L69.9522 84.4719C56.1002 89.9119 46.7682 103.548 46.7242 118.404Z" fill="#D5DCE2"/>
<path fill-rule="evenodd" clip-rule="evenodd" d="M153.504 53.28C142.796 39.688 136.14 16.116 151.324 0.176025C145.496 1.82803 139.864 4.59603 134.792 8.56403C126.14 15.332 121.088 24.632 119.152 34.484C119.1 34.88 119.076 35.268 119.04 35.656C119.344 35.648 119.652 35.588 119.956 35.592C124.724 35.608 129.292 36.8 133.532 39.132C140.64 43.04 145.832 48.952 148.548 56.236C148.876 57.116 150.104 61.304 149.912 64.748C151.688 64.98 153.4 65.356 155.068 65.88C155.104 65.892 155.148 65.9 155.188 65.912C156.752 66.408 158.248 67.02 159.696 67.752C159.896 67.852 160.092 67.952 160.296 68.056C161.552 68.724 162.752 69.46 163.9 70.292C164.308 70.58 164.688 70.888 165.08 71.192C165.984 71.912 166.852 72.652 167.672 73.472C168.268 74.056 168.804 74.684 169.352 75.316C169.9 75.96 170.452 76.592 170.944 77.28C171.652 78.252 172.268 79.28 172.864 80.336C173.12 80.796 173.408 81.24 173.636 81.712C174.332 83.112 174.896 84.576 175.372 86.084C175.44 86.304 175.532 86.508 175.596 86.728C176.116 88.516 176.488 90.364 176.664 92.272C182.768 91.116 188.724 88.664 194.12 84.44C199.204 80.476 203.236 75.688 206.24 70.416C187.108 81.308 165.496 68.5 153.504 53.28Z" fill="#7694B4"/>
<path fill-rule="evenodd" clip-rule="evenodd" d="M145.92 180.916C140.628 191.132 128.552 184.448 133.632 174.588C137.944 166.208 148.304 161.14 148.304 161.14C148.304 161.14 150.104 172.804 145.92 180.916Z" fill="#009EFF"/>
<path fill-rule="evenodd" clip-rule="evenodd" d="M98.5239 174.98L89.4999 172.768L96.0999 166.224C96.6119 165.704 96.6239 164.864 96.0999 164.344L95.9079 164.156C95.3959 163.628 94.5479 163.628 94.0279 164.144L87.4159 170.696L85.2159 161.656C85.0439 160.944 84.3159 160.504 83.5959 160.68L83.3399 160.744C82.6279 160.912 82.1759 161.652 82.3519 162.356L84.6159 171.58L75.3879 169.328C74.6799 169.156 73.9479 169.588 73.7679 170.308L73.7119 170.564C73.5239 171.288 73.9799 172.008 74.6919 172.176L83.7079 174.38L77.1199 180.916C76.5999 181.44 76.5999 182.284 77.1079 182.808L77.2999 182.996C77.8239 183.52 78.6599 183.52 79.1839 183.008L85.7879 176.44L88.0079 185.496C88.1799 186.208 88.9079 186.652 89.6159 186.472L89.8719 186.416C90.5959 186.236 91.0439 185.516 90.8599 184.804L88.6079 175.58L97.8279 177.828C98.5359 178.008 99.2639 177.56 99.4359 176.852L99.5039 176.596C99.6799 175.884 99.2319 175.152 98.5239 174.98Z" fill="#38C0E0"/>
</g>
<defs>
<clipPath id="clip0_183_809">
<rect width="220" height="188" fill="white"/>
</clipPath>
</defs>
</svg>
