<svg width="220" height="180" viewBox="0 0 220 180" fill="none" xmlns="http://www.w3.org/2000/svg">
<g clip-path="url(#clip0_183_933)">
<path fill-rule="evenodd" clip-rule="evenodd" d="M147.504 172.916C142.212 183.132 130.136 176.448 135.216 166.588C139.528 158.208 149.888 153.14 149.888 153.14C149.888 153.14 151.688 164.804 147.504 172.916ZM94.6601 172.916C89.3681 183.132 77.2921 176.448 82.3721 166.588C86.6841 158.208 97.0441 153.14 97.0441 153.14C97.0441 153.14 98.8441 164.804 94.6601 172.916Z" fill="#009EFF"/>
<g opacity="0.4">
<path d="M24.2401 110.012H180.768M46.7561 150.832H203.284M18.2441 89.604H174.076M39.0481 130.424H194.88M24.2401 28.372H180.768M46.7561 69.192H203.284M18.2441 7.95996H174.076M41.1601 48.64H196.992M18.2441 172.388H174.076" stroke="#C9C9C9" stroke-width="1.4"/>
</g>
</g>
<defs>
<clipPath id="clip0_183_933">
<rect width="220" height="180" fill="white"/>
</clipPath>
</defs>
</svg>
