<svg width="220" height="212" viewBox="0 0 220 212" fill="none" xmlns="http://www.w3.org/2000/svg">
<g clip-path="url(#clip0_183_941)">
<path fill-rule="evenodd" clip-rule="evenodd" d="M85.5199 172.916C80.2279 183.132 68.1519 176.448 73.2319 166.588C77.5439 158.208 87.9039 153.14 87.9039 153.14C87.9039 153.14 89.7039 164.804 85.5199 172.916ZM159.32 172.916C154.028 183.132 141.952 176.448 147.032 166.588C151.344 158.208 161.704 153.14 161.704 153.14C161.704 153.14 163.504 164.804 159.32 172.916Z" fill="#009EFF"/>
<path fill-rule="evenodd" clip-rule="evenodd" d="M129.488 165.86L118.224 165.688L127.46 149.54L113.208 149.652L101.112 173.752H111.64L96.8599 210.264L129.488 165.86Z" fill="#FF7800"/>
<g opacity="0.4">
<path d="M24.2401 110.012H180.768M46.7561 150.832H203.284M18.2441 89.604H174.076M39.0481 130.424H194.88M24.2401 28.372H180.768M46.7561 69.192H203.284M18.2441 7.95996H174.076M41.1601 48.64H196.992M18.2441 172.388H174.076" stroke="#C9C9C9" stroke-width="1.4"/>
</g>
</g>
<defs>
<clipPath id="clip0_183_941">
<rect width="220" height="212" fill="white"/>
</clipPath>
</defs>
</svg>
