<svg width="220" height="212" viewBox="0 0 220 212" fill="none" xmlns="http://www.w3.org/2000/svg">
<g clip-path="url(#clip0_183_950)">
<path fill-rule="evenodd" clip-rule="evenodd" d="M147.376 172.916C142.084 183.132 130.008 176.448 135.088 166.588C139.4 158.208 149.76 153.14 149.76 153.14C149.76 153.14 151.56 164.804 147.376 172.916ZM119.392 203.352C114.1 213.568 102.024 206.884 107.104 197.024C111.416 188.644 121.776 183.576 121.776 183.576C121.776 183.576 123.576 195.236 119.392 203.352ZM94.5841 172.916C89.2921 183.132 77.2161 176.448 82.2961 166.588C86.6081 158.208 96.9681 153.14 96.9681 153.14C96.9681 153.14 98.7681 164.804 94.5841 172.916ZM67.3041 203.352C62.0121 213.568 49.9361 206.884 55.0161 197.024C59.3281 188.644 69.6881 183.576 69.6881 183.576C69.6881 183.576 71.4921 195.236 67.3041 203.352Z" fill="#009EFF"/>
<g opacity="0.4">
<path d="M24.2401 110.012H180.768M46.7561 150.832H203.284M18.2441 89.604H174.076M39.0481 130.424H194.88M24.2401 28.372H180.768M46.7561 69.192H203.284M18.2441 7.95996H174.076M41.1601 48.64H196.992M18.2441 172.388H174.076" stroke="#C9C9C9" stroke-width="1.4"/>
</g>
</g>
<defs>
<clipPath id="clip0_183_950">
<rect width="220" height="212" fill="white"/>
</clipPath>
</defs>
</svg>
