<svg width="220" height="212" viewBox="0 0 220 212" fill="none" xmlns="http://www.w3.org/2000/svg">
<g clip-path="url(#clip0_183_958)">
<path fill-rule="evenodd" clip-rule="evenodd" d="M73.704 172.916C68.412 183.132 56.336 176.448 61.416 166.588C65.728 158.208 76.088 153.14 76.088 153.14C76.088 153.14 77.888 164.804 73.704 172.916ZM78.912 203.352C73.62 213.568 61.544 206.884 66.624 197.024C70.936 188.644 81.296 183.576 81.296 183.576C81.296 183.576 83.096 195.236 78.912 203.352ZM138.552 203.352C133.26 213.568 121.184 206.884 126.264 197.024C130.576 188.644 140.936 183.576 140.936 183.576C140.936 183.576 142.74 195.236 138.552 203.352ZM163.22 172.916C157.928 183.132 145.852 176.448 150.932 166.588C155.244 158.208 165.604 153.14 165.604 153.14C165.604 153.14 167.404 164.804 163.22 172.916Z" fill="#009EFF"/>
<path fill-rule="evenodd" clip-rule="evenodd" d="M128.148 165.86L116.888 165.688L126.12 149.54L111.868 149.66L99.776 173.752H110.304L95.52 210.268L128.148 165.86Z" fill="#FF7800"/>
<g opacity="0.4">
<path d="M24.2401 110.012H180.768M46.7561 150.832H203.284M18.2441 89.604H174.076M39.0481 130.424H194.88M24.2401 28.372H180.768M46.7561 69.192H203.284M18.2441 7.95996H174.076M41.1601 48.64H196.992M18.2441 172.388H174.076" stroke="#C9C9C9" stroke-width="1.4"/>
</g>
</g>
<defs>
<clipPath id="clip0_183_958">
<rect width="220" height="212" fill="white"/>
</clipPath>
</defs>
</svg>
