<svg width="220" height="212" viewBox="0 0 220 212" fill="none" xmlns="http://www.w3.org/2000/svg">
<g clip-path="url(#clip0_183_967)">
<path fill-rule="evenodd" clip-rule="evenodd" d="M84.0679 172.916C78.7759 183.132 66.6999 176.448 71.7799 166.588C76.0919 158.208 86.4519 153.14 86.4519 153.14C86.4519 153.14 88.2559 164.804 84.0679 172.916ZM137.224 203.352C131.932 213.568 119.856 206.884 124.936 197.024C129.248 188.644 139.608 183.576 139.608 183.576C139.608 183.576 141.408 195.236 137.224 203.352ZM96.5199 203.352C91.2279 213.568 79.1519 206.884 84.2319 197.024C88.5439 188.644 98.9039 183.576 98.9039 183.576C98.9039 183.576 100.704 195.236 96.5199 203.352ZM55.8119 203.352C50.5199 213.568 38.4439 206.884 43.5239 197.024C47.8359 188.644 58.1959 183.576 58.1959 183.576C58.1959 183.576 59.9999 195.236 55.8119 203.352ZM165.48 172.916C160.188 183.132 148.112 176.448 153.192 166.588C157.504 158.208 167.864 153.14 167.864 153.14C167.864 153.14 169.664 164.804 165.48 172.916ZM124.772 172.916C119.48 183.132 107.404 176.448 112.484 166.588C116.796 158.208 127.156 153.14 127.156 153.14C127.156 153.14 128.956 164.804 124.772 172.916Z" fill="#009EFF"/>
<g opacity="0.4">
<path d="M24.2401 110.012H180.768M46.7561 150.832H203.284M18.2441 89.604H174.076M39.0481 130.424H194.88M24.2401 28.372H180.768M46.7561 69.192H203.284M18.2441 7.95996H174.076M41.1601 48.64H196.992M18.2441 172.388H174.076" stroke="#C9C9C9" stroke-width="1.4"/>
</g>
</g>
<defs>
<clipPath id="clip0_183_967">
<rect width="220" height="212" fill="white"/>
</clipPath>
</defs>
</svg>
