<svg width="221" height="212" viewBox="0 0 221 212" fill="none" xmlns="http://www.w3.org/2000/svg">
<g clip-path="url(#clip0_183_975)">
<path fill-rule="evenodd" clip-rule="evenodd" d="M128.73 165.86L117.419 165.688L126.693 149.54L112.376 149.66L100.229 173.752H110.805L95.9541 210.268L128.73 165.86Z" fill="#FF7800"/>
<path fill-rule="evenodd" clip-rule="evenodd" d="M82.2484 203.352C76.9323 213.568 64.8015 206.884 69.9045 197.024C74.2361 188.644 84.6432 183.576 84.6432 183.576C84.6432 183.576 86.4514 195.236 82.2484 203.352ZM135.2 203.352C129.884 213.568 117.753 206.884 122.856 197.024C127.188 188.644 137.595 183.576 137.595 183.576C137.595 183.576 139.403 195.236 135.2 203.352ZM161.403 172.916C156.087 183.132 143.956 176.448 149.059 166.588C153.39 158.208 163.797 153.14 163.797 153.14C163.797 153.14 165.606 164.804 161.403 172.916ZM166.899 203.352C161.583 213.568 149.452 206.884 154.556 197.024C158.887 188.644 169.294 183.576 169.294 183.576C169.294 183.576 171.102 195.236 166.899 203.352ZM50.6775 203.352C45.3615 213.568 33.2306 206.884 38.3337 197.024C42.6653 188.644 53.0724 183.576 53.0724 183.576C53.0724 183.576 54.8806 195.236 50.6775 203.352ZM79.4035 172.916C74.0875 183.132 61.9566 176.448 67.0597 166.588C71.3913 158.208 81.7984 153.14 81.7984 153.14C81.7984 153.14 83.6065 164.804 79.4035 172.916Z" fill="#009EFF"/>
<g opacity="0.4">
<path d="M24.3504 110.012H181.59M46.9687 150.832H204.208M18.3271 89.604H174.867M39.2257 130.424H195.766M24.3504 28.372H181.59M46.9687 69.192H204.208M18.3271 7.95996H174.867M41.3473 48.64H197.888M18.3271 172.388H174.867" stroke="#C9C9C9" stroke-width="1.4"/>
</g>
</g>
<defs>
<clipPath id="clip0_183_975">
<rect width="221" height="212" fill="white"/>
</clipPath>
</defs>
</svg>
