<svg width="220" height="180" viewBox="0 0 220 180" fill="none" xmlns="http://www.w3.org/2000/svg">
<g clip-path="url(#clip0_183_984)">
<path fill-rule="evenodd" clip-rule="evenodd" d="M102.556 166.98C103.264 167.152 103.712 167.884 103.532 168.596L103.464 168.852C103.292 169.56 102.564 170.008 101.856 169.828L92.6362 167.58L94.8882 176.804C95.0722 177.516 94.6242 178.236 93.9002 178.416L93.6442 178.472C92.9362 178.652 92.2082 178.208 92.0362 177.496L89.8162 168.44L83.2122 175.008C82.6882 175.52 81.8522 175.52 81.3282 174.996L81.1362 174.808C80.6282 174.284 80.6282 173.44 81.1482 172.916L87.7362 166.38L78.7202 164.176C78.0082 164.008 77.5522 163.288 77.7402 162.564L77.7962 162.308C77.9762 161.588 78.7082 161.156 79.4162 161.328L88.6442 163.58L86.3802 154.356C86.2082 153.652 86.6602 152.912 87.3722 152.744L87.6282 152.68C88.3482 152.504 89.0762 152.944 89.2482 153.656L91.4482 162.696L98.0602 156.144C98.5802 155.628 99.4282 155.628 99.9402 156.156L100.132 156.344C100.656 156.864 100.644 157.704 100.132 158.224L93.5322 164.768L102.556 166.98ZM164.108 166.98C164.812 167.152 165.264 167.884 165.088 168.596L165.02 168.852C164.848 169.56 164.12 170.008 163.412 169.828L154.192 167.58L156.444 176.804C156.624 177.516 156.176 178.236 155.452 178.416L155.196 178.472C154.488 178.652 153.76 178.208 153.588 177.496L151.368 168.44L144.764 175.008C144.24 175.52 143.404 175.52 142.88 174.996L142.688 174.808C142.18 174.284 142.18 173.44 142.7 172.916L149.288 166.38L140.272 164.176C139.56 164.008 139.104 163.288 139.292 162.564L139.348 162.308C139.528 161.588 140.26 161.156 140.968 161.328L150.196 163.58L147.932 154.356C147.76 153.652 148.212 152.912 148.924 152.744L149.18 152.68C149.9 152.504 150.628 152.944 150.8 153.656L153 162.696L159.612 156.144C160.132 155.628 160.98 155.628 161.492 156.156L161.684 156.344C162.208 156.864 162.196 157.704 161.684 158.224L155.084 164.768L164.108 166.98Z" fill="#38C0E0"/>
<g opacity="0.4">
<path d="M24.2401 110.012H180.768M46.7561 150.832H203.284M18.2441 89.604H174.076M39.0481 130.424H194.88M24.2401 28.372H180.768M46.7561 69.192H203.284M18.2441 7.95996H174.076M41.1601 48.64H196.992M18.2441 172.388H174.076" stroke="#C9C9C9" stroke-width="1.4"/>
</g>
</g>
<defs>
<clipPath id="clip0_183_984">
<rect width="220" height="180" fill="white"/>
</clipPath>
</defs>
</svg>
