<svg width="220" height="212" viewBox="0 0 220 212" fill="none" xmlns="http://www.w3.org/2000/svg">
<g clip-path="url(#clip0_183_211)">
<path fill-rule="evenodd" clip-rule="evenodd" d="M161.868 166.98C162.576 167.152 163.028 167.884 162.844 168.596L162.776 168.852C162.604 169.56 161.876 170.008 161.168 169.828L151.948 167.58L154.2 176.804C154.384 177.516 153.936 178.236 153.212 178.416L152.956 178.472C152.248 178.652 151.52 178.208 151.348 177.496L149.128 168.44L142.524 175.008C142 175.52 141.164 175.52 140.64 174.996L140.448 174.808C139.94 174.284 139.94 173.44 140.46 172.916L147.048 166.38L138.032 164.176C137.32 164.008 136.864 163.288 137.052 162.564L137.108 162.308C137.288 161.588 138.02 161.156 138.728 161.328L147.956 163.58L145.692 154.356C145.52 153.652 145.972 152.912 146.684 152.744L146.94 152.68C147.66 152.504 148.388 152.944 148.56 153.656L150.76 162.696L157.372 156.144C157.892 155.628 158.74 155.628 159.252 156.156L159.444 156.344C159.968 156.864 159.956 157.704 159.444 158.224L152.844 164.768L161.868 166.98ZM86.0518 166.98C86.7598 167.152 87.2078 167.884 87.0318 168.596L86.9638 168.852C86.7918 169.56 86.0638 170.008 85.3558 169.828L76.1358 167.58L78.3878 176.804C78.5678 177.516 78.1198 178.236 77.3958 178.416L77.1398 178.472C76.4318 178.652 75.7038 178.208 75.5318 177.496L73.3118 168.44L66.7078 175.008C66.1838 175.52 65.3478 175.52 64.8238 174.996L64.6318 174.808C64.1238 174.284 64.1238 173.44 64.6438 172.916L71.2318 166.38L62.2158 164.176C61.5038 164.008 61.0478 163.288 61.2358 162.564L61.2918 162.308C61.4718 161.588 62.2038 161.156 62.9118 161.328L72.1398 163.58L69.8758 154.356C69.7038 153.652 70.1558 152.912 70.8678 152.744L71.1238 152.68C71.8438 152.504 72.5718 152.944 72.7438 153.656L74.9438 162.696L81.5558 156.144C82.0758 155.628 82.9238 155.628 83.4358 156.156L83.6278 156.344C84.1518 156.864 84.1398 157.704 83.6278 158.224L77.0278 164.768L86.0518 166.98Z" fill="#38C0E0"/>
<path fill-rule="evenodd" clip-rule="evenodd" d="M124.148 165.86L112.888 165.688L122.12 149.54L107.868 149.66L95.776 173.752H106.304L91.52 210.268L124.148 165.86Z" fill="#FF7800"/>
<g opacity="0.4">
<path d="M24.2401 110.012H180.768M46.7561 150.832H203.284M18.2441 89.604H174.076M39.0481 130.424H194.88M24.2401 28.372H180.768M46.7561 69.192H203.284M18.2441 7.95996H174.076M41.1601 48.64H196.992M18.2441 172.388H174.076" stroke="#C9C9C9" stroke-width="1.4"/>
</g>
</g>
<defs>
<clipPath id="clip0_183_211">
<rect width="220" height="212" fill="white"/>
</clipPath>
</defs>
</svg>
