<svg width="220" height="212" viewBox="0 0 220 212" fill="none" xmlns="http://www.w3.org/2000/svg">
<g clip-path="url(#clip0_183_238)">
<path fill-rule="evenodd" clip-rule="evenodd" d="M89.3201 166.98C90.0241 167.152 90.4761 167.884 90.3001 168.596L90.2321 168.852C90.0601 169.56 89.3321 170.008 88.6241 169.828L79.4041 167.58L81.6561 176.804C81.8401 177.516 81.3921 178.236 80.6681 178.416L80.4121 178.472C79.7041 178.652 78.9761 178.208 78.8041 177.496L76.5841 168.44L69.9801 175.008C69.4561 175.52 68.6201 175.52 68.0961 174.996L67.9041 174.808C67.3961 174.284 67.3961 173.44 67.9161 172.916L74.5041 166.38L65.4881 164.176C64.7761 164.008 64.3201 163.288 64.5081 162.564L64.5641 162.308C64.7441 161.588 65.4761 161.156 66.1841 161.328L75.4121 163.58L73.1481 154.356C72.9721 153.652 73.4241 152.912 74.1361 152.744L74.3921 152.68C75.1121 152.504 75.8401 152.944 76.0121 153.656L78.2121 162.696L84.8241 156.144C85.3441 155.628 86.1921 155.628 86.7041 156.156L86.8961 156.344C87.4201 156.864 87.4081 157.704 86.8961 158.224L80.2961 164.768L89.3201 166.98ZM66.1241 198.408C66.8321 198.58 67.2801 199.312 67.1041 200.024L67.0361 200.28C66.8641 200.988 66.1361 201.436 65.4281 201.256L56.2081 199.008L58.4601 208.232C58.6401 208.944 58.1921 209.664 57.4681 209.844L57.2121 209.9C56.5041 210.08 55.7761 209.636 55.6041 208.924L53.3841 199.868L46.7801 206.436C46.2561 206.948 45.4201 206.948 44.8961 206.424L44.7041 206.236C44.1961 205.712 44.1961 204.868 44.7161 204.344L51.3041 197.808L42.2881 195.604C41.5761 195.436 41.1201 194.716 41.3081 193.992L41.3641 193.736C41.5441 193.016 42.2761 192.584 42.9841 192.756L52.2121 195.008L49.9481 185.784C49.7761 185.08 50.2281 184.34 50.9401 184.172L51.1961 184.108C51.9161 183.932 52.6441 184.372 52.8161 185.084L55.0161 194.124L61.6281 187.572C62.1481 187.056 62.9961 187.056 63.5081 187.584L63.7001 187.772C64.2241 188.292 64.2121 189.132 63.7001 189.652L57.1001 196.196L66.1241 198.408ZM127.16 198.408C127.868 198.58 128.316 199.312 128.136 200.024L128.068 200.28C127.896 200.988 127.168 201.436 126.46 201.256L117.24 199.008L119.492 208.232C119.676 208.944 119.228 209.664 118.504 209.844L118.248 209.9C117.54 210.08 116.812 209.636 116.64 208.924L114.42 199.868L107.816 206.436C107.292 206.948 106.456 206.948 105.932 206.424L105.74 206.236C105.232 205.712 105.232 204.868 105.752 204.344L112.34 197.808L103.324 195.604C102.612 195.436 102.156 194.716 102.344 193.992L102.4 193.736C102.58 193.016 103.312 192.584 104.02 192.756L113.248 195.008L110.984 185.784C110.812 185.08 111.264 184.34 111.976 184.172L112.232 184.108C112.952 183.932 113.68 184.372 113.852 185.084L116.052 194.124L122.664 187.572C123.184 187.056 124.032 187.056 124.544 187.584L124.736 187.772C125.26 188.292 125.248 189.132 124.736 189.652L118.136 196.196L127.16 198.408ZM150.868 166.98C151.572 167.152 152.024 167.884 151.844 168.596L151.776 168.852C151.604 169.56 150.876 170.008 150.168 169.828L140.948 167.58L143.2 176.804C143.384 177.516 142.936 178.236 142.212 178.416L141.956 178.472C141.248 178.652 140.52 178.208 140.348 177.496L138.128 168.44L131.524 175.008C131 175.52 130.164 175.52 129.64 174.996L129.448 174.808C128.94 174.284 128.94 173.44 129.46 172.916L136.048 166.38L127.032 164.176C126.32 164.008 125.864 163.288 126.052 162.564L126.108 162.308C126.288 161.588 127.02 161.156 127.728 161.328L136.956 163.58L134.692 154.356C134.52 153.652 134.972 152.912 135.684 152.744L135.94 152.68C136.66 152.504 137.388 152.944 137.56 153.656L139.76 162.696L146.372 156.144C146.892 155.628 147.74 155.628 148.252 156.156L148.444 156.344C148.968 156.864 148.956 157.704 148.444 158.224L141.844 164.768L150.868 166.98Z" fill="#38C0E0"/>
<g opacity="0.4">
<path d="M24.2401 110.012H180.768M46.7561 150.832H203.284M18.2441 89.604H174.076M39.0481 130.424H194.88M24.2401 28.372H180.768M46.7561 69.192H203.284M18.2441 7.95996H174.076M41.1601 48.64H196.992M18.2441 172.388H174.076" stroke="#C9C9C9" stroke-width="1.4"/>
</g>
</g>
<defs>
<clipPath id="clip0_183_238">
<rect width="220" height="212" fill="white"/>
</clipPath>
</defs>
</svg>
