<svg width="220" height="212" viewBox="0 0 220 212" fill="none" xmlns="http://www.w3.org/2000/svg">
<g clip-path="url(#clip0_183_220)">
<path fill-rule="evenodd" clip-rule="evenodd" d="M131.492 165.86L120.232 165.688L129.464 149.54L115.212 149.66L103.12 173.752H113.648L98.8638 210.268L131.492 165.86Z" fill="#FF7800"/>
<path fill-rule="evenodd" clip-rule="evenodd" d="M151.38 198.408C152.088 198.58 152.54 199.312 152.356 200.028L152.288 200.284C152.116 200.992 151.388 201.44 150.68 201.26L141.46 199.012L143.712 208.236C143.896 208.948 143.448 209.668 142.724 209.848L142.468 209.904C141.76 210.084 141.032 209.64 140.86 208.928L138.64 199.872L132.036 206.44C131.512 206.952 130.676 206.952 130.152 206.428L129.96 206.24C129.452 205.716 129.452 204.872 129.972 204.348L136.56 197.812L127.544 195.608C126.832 195.44 126.376 194.72 126.564 193.996L126.62 193.74C126.8 193.02 127.532 192.588 128.24 192.76L137.468 195.008L135.204 185.784C135.032 185.08 135.484 184.34 136.196 184.172L136.452 184.108C137.172 183.932 137.9 184.372 138.072 185.084L140.272 194.124L146.884 187.572C147.404 187.056 148.252 187.056 148.764 187.584L148.956 187.772C149.48 188.292 149.468 189.132 148.956 189.652L142.356 196.196L151.38 198.408ZM172.024 166.98C172.732 167.152 173.18 167.884 173.004 168.596L172.936 168.852C172.764 169.56 172.036 170.008 171.328 169.828L162.108 167.58L164.36 176.804C164.54 177.516 164.092 178.236 163.368 178.416L163.112 178.472C162.404 178.652 161.676 178.208 161.504 177.496L159.284 168.44L152.68 175.008C152.156 175.52 151.32 175.52 150.796 174.996L150.604 174.808C150.096 174.284 150.096 173.44 150.616 172.916L157.204 166.38L148.188 164.176C147.476 164.008 147.02 163.288 147.208 162.564L147.264 162.308C147.444 161.588 148.176 161.156 148.884 161.328L158.112 163.58L155.848 154.356C155.676 153.652 156.128 152.912 156.84 152.744L157.096 152.68C157.816 152.504 158.544 152.944 158.716 153.656L160.916 162.696L167.528 156.144C168.048 155.628 168.896 155.628 169.408 156.156L169.6 156.344C170.124 156.864 170.112 157.704 169.6 158.224L163 164.768L172.024 166.98ZM88.0278 198.408C88.7358 198.58 89.1838 199.312 89.0078 200.024L88.9398 200.28C88.7678 200.988 88.0398 201.436 87.3318 201.256L78.1118 199.008L80.3638 208.232C80.5478 208.944 80.0998 209.664 79.3758 209.844L79.1198 209.9C78.4118 210.08 77.6838 209.636 77.5118 208.924L75.2918 199.868L68.6878 206.436C68.1638 206.948 67.3278 206.948 66.8038 206.424L66.6118 206.236C66.1038 205.712 66.1038 204.868 66.6238 204.344L73.2118 197.808L64.1958 195.604C63.4838 195.436 63.0278 194.716 63.2158 193.992L63.2718 193.736C63.4518 193.016 64.1838 192.584 64.8918 192.756L74.1198 195.008L71.8558 185.784C71.6798 185.08 72.1318 184.34 72.8438 184.172L73.0998 184.108C73.8198 183.932 74.5478 184.372 74.7198 185.084L76.9198 194.124L83.5318 187.572C84.0518 187.056 84.8998 187.056 85.4118 187.584L85.6038 187.772C86.1278 188.292 86.1158 189.132 85.6038 189.652L79.0038 196.196L88.0278 198.408ZM88.5998 166.98C89.3038 167.152 89.7558 167.884 89.5798 168.596L89.5118 168.852C89.3398 169.56 88.6118 170.008 87.9038 169.828L78.6838 167.58L80.9358 176.804C81.1198 177.516 80.6718 178.236 79.9478 178.416L79.6918 178.472C78.9838 178.652 78.2558 178.208 78.0838 177.496L75.8638 168.44L69.2598 175.008C68.7358 175.52 67.8998 175.52 67.3758 174.996L67.1838 174.808C66.6758 174.284 66.6758 173.44 67.1958 172.916L73.7838 166.38L64.7678 164.176C64.0558 164.008 63.5998 163.288 63.7878 162.564L63.8438 162.308C64.0238 161.588 64.7558 161.156 65.4638 161.328L74.6918 163.58L72.4278 154.356C72.2518 153.652 72.7038 152.912 73.4158 152.744L73.6718 152.68C74.3918 152.504 75.1198 152.944 75.2918 153.656L77.4918 162.696L84.1038 156.144C84.6238 155.628 85.4718 155.628 85.9838 156.156L86.1758 156.344C86.6998 156.864 86.6878 157.704 86.1758 158.224L79.5758 164.768L88.5998 166.98Z" fill="#38C0E0"/>
<g opacity="0.4">
<path d="M24.2401 110.012H180.768M46.7561 150.832H203.284M18.2441 89.604H174.076M39.0481 130.424H194.88M24.2401 28.372H180.768M46.7561 69.192H203.284M18.2441 7.95996H174.076M41.1601 48.64H196.992M18.2441 172.388H174.076" stroke="#C9C9C9" stroke-width="1.4"/>
</g>
</g>
<defs>
<clipPath id="clip0_183_220">
<rect width="220" height="212" fill="white"/>
</clipPath>
</defs>
</svg>
