<svg width="220" height="212" viewBox="0 0 220 212" fill="none" xmlns="http://www.w3.org/2000/svg">
<g clip-path="url(#clip0_183_2)">
<path fill-rule="evenodd" clip-rule="evenodd" d="M86.304 166.98C87.012 167.152 87.464 167.884 87.284 168.596L87.216 168.852C87.044 169.56 86.316 170.008 85.608 169.828L76.388 167.58L78.64 176.804C78.824 177.516 78.376 178.236 77.652 178.416L77.396 178.472C76.688 178.652 75.96 178.208 75.788 177.496L73.568 168.44L66.964 175.008C66.44 175.52 65.604 175.52 65.08 174.996L64.888 174.808C64.38 174.284 64.38 173.44 64.9 172.916L71.488 166.38L62.472 164.176C61.76 164.008 61.304 163.288 61.492 162.564L61.548 162.308C61.728 161.588 62.46 161.156 63.168 161.328L72.396 163.58L70.132 154.356C69.956 153.652 70.408 152.912 71.12 152.744L71.376 152.68C72.096 152.504 72.824 152.944 72.996 153.656L75.196 162.696L81.808 156.144C82.328 155.628 83.176 155.628 83.688 156.156L83.88 156.344C84.404 156.864 84.392 157.704 83.88 158.224L77.28 164.768L86.304 166.98ZM149.44 198.408C150.148 198.58 150.6 199.312 150.416 200.024L150.348 200.28C150.176 200.988 149.448 201.436 148.74 201.256L139.52 199.008L141.772 208.232C141.956 208.944 141.508 209.664 140.784 209.844L140.528 209.9C139.82 210.08 139.092 209.636 138.92 208.924L136.7 199.868L130.096 206.436C129.572 206.948 128.736 206.948 128.212 206.424L128.02 206.236C127.512 205.712 127.512 204.868 128.032 204.344L134.62 197.808L125.604 195.604C124.892 195.436 124.436 194.716 124.624 193.992L124.68 193.736C124.86 193.016 125.592 192.584 126.3 192.756L135.528 195.008L133.264 185.784C133.092 185.08 133.544 184.34 134.256 184.172L134.512 184.108C135.232 183.932 135.96 184.372 136.132 185.084L138.332 194.124L144.944 187.572C145.464 187.056 146.312 187.056 146.824 187.584L147.016 187.772C147.54 188.292 147.528 189.132 147.016 189.652L140.416 196.196L149.44 198.408ZM109.328 198.408C110.036 198.58 110.488 199.312 110.304 200.024L110.236 200.28C110.064 200.988 109.336 201.436 108.628 201.256L99.408 199.008L101.66 208.232C101.844 208.944 101.396 209.664 100.672 209.844L100.416 209.9C99.708 210.08 98.98 209.636 98.808 208.924L96.588 199.868L89.984 206.436C89.46 206.948 88.624 206.948 88.1 206.424L87.908 206.236C87.4 205.712 87.4 204.868 87.92 204.344L94.508 197.808L85.492 195.604C84.78 195.436 84.324 194.716 84.512 193.992L84.568 193.736C84.748 193.016 85.48 192.584 86.188 192.756L95.416 195.008L93.152 185.784C92.98 185.08 93.432 184.34 94.144 184.172L94.4 184.108C95.12 183.932 95.848 184.372 96.02 185.084L98.22 194.124L104.832 187.572C105.352 187.056 106.2 187.056 106.712 187.584L106.904 187.772C107.428 188.292 107.416 189.132 106.904 189.652L100.304 196.196L109.328 198.408ZM64.272 198.408C64.98 198.58 65.428 199.312 65.252 200.024L65.184 200.28C65.012 200.988 64.284 201.436 63.576 201.256L54.356 199.008L56.608 208.232C56.788 208.944 56.34 209.664 55.616 209.844L55.36 209.9C54.652 210.08 53.924 209.636 53.752 208.924L51.532 199.868L44.928 206.436C44.404 206.948 43.568 206.948 43.044 206.424L42.852 206.236C42.344 205.712 42.344 204.868 42.864 204.344L49.452 197.808L40.436 195.604C39.724 195.436 39.268 194.716 39.456 193.992L39.512 193.736C39.692 193.016 40.424 192.584 41.132 192.756L50.36 195.008L48.096 185.784C47.924 185.08 48.376 184.34 49.088 184.172L49.344 184.108C50.064 183.932 50.792 184.372 50.964 185.084L53.164 194.124L59.776 187.572C60.296 187.056 61.144 187.056 61.656 187.584L61.848 187.772C62.372 188.292 62.36 189.132 61.848 189.652L55.248 196.196L64.272 198.408ZM171.476 166.98C172.184 167.152 172.632 167.884 172.452 168.596L172.384 168.852C172.212 169.56 171.484 170.008 170.776 169.828L161.556 167.58L163.808 176.804C163.992 177.516 163.544 178.236 162.82 178.416L162.564 178.472C161.856 178.652 161.128 178.208 160.956 177.496L158.736 168.44L152.132 175.008C151.608 175.52 150.772 175.52 150.248 174.996L150.056 174.808C149.548 174.284 149.548 173.44 150.068 172.916L156.656 166.38L147.64 164.176C146.928 164.008 146.472 163.288 146.66 162.564L146.716 162.308C146.896 161.588 147.628 161.156 148.336 161.328L157.564 163.58L155.3 154.356C155.128 153.652 155.58 152.912 156.292 152.744L156.548 152.68C157.268 152.504 157.996 152.944 158.168 153.656L160.368 162.696L166.98 156.144C167.5 155.628 168.348 155.628 168.86 156.156L169.052 156.344C169.576 156.864 169.564 157.704 169.052 158.224L162.452 164.768L171.476 166.98ZM128.892 166.98C129.596 167.152 130.048 167.884 129.868 168.596L129.8 168.852C129.628 169.56 128.9 170.008 128.192 169.828L118.972 167.58L121.224 176.804C121.408 177.516 120.96 178.236 120.236 178.416L119.98 178.472C119.272 178.652 118.544 178.208 118.372 177.496L116.152 168.44L109.548 175.008C109.024 175.52 108.188 175.52 107.664 174.996L107.472 174.808C106.964 174.284 106.964 173.44 107.484 172.916L114.072 166.38L105.056 164.176C104.344 164.008 103.888 163.288 104.076 162.564L104.132 162.308C104.312 161.588 105.044 161.156 105.752 161.328L114.98 163.58L112.716 154.356C112.544 153.652 112.996 152.912 113.708 152.744L113.964 152.68C114.684 152.504 115.412 152.944 115.584 153.656L117.784 162.696L124.396 156.144C124.916 155.628 125.764 155.628 126.276 156.156L126.468 156.344C126.992 156.864 126.98 157.704 126.468 158.224L119.868 164.768L128.892 166.98Z" fill="#38C0E0"/>
<g opacity="0.4">
<path d="M24.2401 110.012H180.768M46.7561 150.832H203.284M18.2441 89.604H174.076M39.0481 130.424H194.88M24.2401 28.372H180.768M46.7561 69.192H203.284M18.2441 7.95996H174.076M41.1601 48.64H196.992M18.2441 172.388H174.076" stroke="#C9C9C9" stroke-width="1.4"/>
</g>
</g>
<defs>
<clipPath id="clip0_183_2">
<rect width="220" height="212" fill="white"/>
</clipPath>
</defs>
</svg>
