<svg width="140" height="140" viewBox="0 0 140 140" fill="none" xmlns="http://www.w3.org/2000/svg">
<path d="M83.125 109.375C83.1237 111.781 82.4612 114.14 81.2097 116.195C79.9583 118.25 78.1661 119.921 76.029 121.026C73.8919 122.132 71.4922 122.628 69.092 122.462C66.6918 122.295 64.3836 121.472 62.4195 120.083C60.4554 118.693 58.9111 116.79 57.9552 114.582C56.9994 112.374 56.6688 109.946 56.9997 107.563C57.3306 105.18 58.3101 102.934 59.8312 101.07C61.3524 99.2058 63.3567 97.7957 65.625 96.9938V56.875C65.625 55.7147 66.0859 54.6019 66.9064 53.7814C67.7269 52.9609 68.8397 52.5 70 52.5C71.1603 52.5 72.2731 52.9609 73.0936 53.7814C73.9141 54.6019 74.375 55.7147 74.375 56.875V96.9938C76.9351 97.8989 79.1514 99.5757 80.7185 101.793C82.2856 104.011 83.1264 106.66 83.125 109.375V109.375Z" fill="black"/>
<path d="M48.125 21.875C48.125 16.0734 50.4297 10.5094 54.5321 6.40704C58.6344 2.30468 64.1984 0 70 0C75.8016 0 81.3656 2.30468 85.468 6.40704C89.5703 10.5094 91.875 16.0734 91.875 21.875V87.9375C96.0954 92.245 98.9502 97.7026 100.081 103.626C101.213 109.549 100.57 115.675 98.2337 121.234C95.8975 126.794 91.972 131.54 86.9493 134.878C81.9267 138.215 76.0305 139.996 70 139.996C63.9696 139.996 58.0734 138.215 53.0507 134.878C48.028 131.54 44.1025 126.794 41.7664 121.234C39.4302 115.675 38.7874 109.549 39.9186 103.626C41.0498 97.7026 43.9046 92.245 48.125 87.9375V21.875ZM70 8.75C66.519 8.75 63.1807 10.1328 60.7192 12.5942C58.2578 15.0556 56.875 18.394 56.875 21.875V91.7613L55.4138 93.0738C52.1113 96.0271 49.7834 99.9135 48.7381 104.219C47.6929 108.524 47.9796 113.045 49.5603 117.184C51.1409 121.323 53.9411 124.884 57.5902 127.397C61.2393 129.909 65.5652 131.255 69.9956 131.255C74.426 131.255 78.752 129.909 82.4011 127.397C86.0502 124.884 88.8503 121.323 90.431 117.184C92.0117 113.045 92.2984 108.524 91.2531 104.219C90.2079 99.9135 87.88 96.0271 84.5775 93.0738L83.125 91.7613V21.875C83.125 18.394 81.7422 15.0556 79.2808 12.5942C76.8194 10.1328 73.481 8.75 70 8.75Z" fill="black"/>
</svg>
